ISO-10303-21;
HEADER;
FILE_DESCRIPTION (( 'STEP AP203' ),
    '1' );
FILE_NAME ('25-06-03-usinageB_10mm.STEP',
    '2025-06-03T12:32:03',
    ( '' ),
    ( '' ),
    'SwSTEP 2.0',
    'SolidWorks 2023',
    '' );
FILE_SCHEMA (( 'CONFIG_CONTROL_DESIGN' ));
ENDSEC;

DATA;
#1 = EDGE_LOOP ( 'NONE', ( #814, #685, #321, #32 ) ) ;
#2 = EDGE_CURVE ( 'NONE', #459, #458, #528, .T. ) ;
#3 = EDGE_CURVE ( 'NONE', #175, #119, #719, .T. ) ;
#4 = CARTESIAN_POINT ( 'NONE',  ( -95.00000000000000000, -7.599999999999999645, -5.000000000000000000 ) ) ;
#5 = CARTESIAN_POINT ( 'NONE',  ( -76.00000000000000000, -2.500000000000000000, -5.000000000000000000 ) ) ;
#6 = ORIENTED_EDGE ( 'NONE', *, *, #279, .T. ) ;
#7 =( GEOMETRIC_REPRESENTATION_CONTEXT ( 3 ) GLOBAL_UNCERTAINTY_ASSIGNED_CONTEXT ( ( #204 ) ) GLOBAL_UNIT_ASSIGNED_CONTEXT ( ( #626, #442, #718 ) ) REPRESENTATION_CONTEXT ( 'NONE', 'WORKASPACE' ) );
#8 = PRODUCT_DEFINITION_FORMATION_WITH_SPECIFIED_SOURCE ( 'ANY', '', #85, .NOT_KNOWN. ) ;
#9 = CYLINDRICAL_SURFACE ( 'NONE', #731, 1.000000000000000000 ) ;
#10 = DIRECTION ( 'NONE',  ( 0.000000000000000000, 0.000000000000000000, -1.000000000000000000 ) ) ;
#11 = CARTESIAN_POINT ( 'NONE',  ( -76.00000000000000000, -2.500000000000000000, -3.500000000000000000 ) ) ;
#12 = VERTEX_POINT ( 'NONE', #341 ) ;
#13 = AXIS2_PLACEMENT_3D ( 'NONE', #190, #564, #469 ) ;
#14 = FACE_OUTER_BOUND ( 'NONE', #44, .T. ) ;
#15 = CARTESIAN_POINT ( 'NONE',  ( 88.00000000000000000, -7.599999999999999645, 2.500000000000000000 ) ) ;
#16 = DIRECTION ( 'NONE',  ( 0.000000000000000000, 0.000000000000000000, -1.000000000000000000 ) ) ;
#17 = AXIS2_PLACEMENT_3D ( 'NONE', #755, #850, #477 ) ;
#18 = SECURITY_CLASSIFICATION_LEVEL ( 'unclassified' ) ;
#19 = EDGE_CURVE ( 'NONE', #408, #292, #1102, .T. ) ;
#20 = ORIENTED_EDGE ( 'NONE', *, *, #769, .T. ) ;
#21 = EDGE_CURVE ( 'NONE', #972, #264, #547, .T. ) ;
#22 = DIRECTION ( 'NONE',  ( 0.000000000000000000, -1.000000000000000000, 0.000000000000000000 ) ) ;
#23 = CARTESIAN_POINT ( 'NONE',  ( 95.00000000000000000, -7.599999999999999645, 6.000000000000000000 ) ) ;
#24 = CC_DESIGN_PERSON_AND_ORGANIZATION_ASSIGNMENT ( #252, #622, ( #8 ) ) ;
#25 = CARTESIAN_POINT ( 'NONE',  ( -95.00000000000000000, -7.599999999999999645, 6.000000000000000000 ) ) ;
#26 = PERSON_AND_ORGANIZATION_ROLE ( 'classification_officer' ) ;
#27 = ORIENTED_EDGE ( 'NONE', *, *, #2, .F. ) ;
#28 = CARTESIAN_POINT ( 'NONE',  ( -88.00000000000000000, -7.599999999999999645, 2.500000000000000000 ) ) ;
#29 = CARTESIAN_POINT ( 'NONE',  ( -76.00000000000000000, -2.500000000000000000, -6.000000000000000000 ) ) ;
#30 = LINE ( 'NONE', #201, #615 ) ;
#31 = DATE_TIME_ROLE ( 'classification_date' ) ;
#32 = ORIENTED_EDGE ( 'NONE', *, *, #1121, .F. ) ;
#33 = CARTESIAN_POINT ( 'NONE',  ( 75.00000000000000000, -2.500000000000000000, -5.000000000000000000 ) ) ;
#34 = CARTESIAN_POINT ( 'NONE',  ( 95.00000000000000000, 2.500000000000000000, 5.000000000000000000 ) ) ;
#35 = ORIENTED_EDGE ( 'NONE', *, *, #409, .F. ) ;
#36 = DATE_TIME_ROLE ( 'classification_date' ) ;
#37 = AXIS2_PLACEMENT_3D ( 'NONE', #52, #43, #1171 ) ;
#38 = ORIENTED_EDGE ( 'NONE', *, *, #233, .F. ) ;
#39 = CARTESIAN_POINT ( 'NONE',  ( -75.00000000000000000, -2.500000000000000000, -5.000000000000000000 ) ) ;
#40 = DIRECTION ( 'NONE',  ( 0.000000000000000000, 0.000000000000000000, -1.000000000000000000 ) ) ;
#41 = FACE_OUTER_BOUND ( 'NONE', #813, .T. ) ;
#42 = ORIENTED_EDGE ( 'NONE', *, *, #643, .F. ) ;
#43 = DIRECTION ( 'NONE',  ( 0.000000000000000000, -1.000000000000000000, 0.000000000000000000 ) ) ;
#44 = EDGE_LOOP ( 'NONE', ( #38, #930, #170, #965 ) ) ;
#45 = CARTESIAN_POINT ( 'NONE',  ( -88.00000000000000000, 2.500000000000000000, 0.000000000000000000 ) ) ;
#46 = EDGE_LOOP ( 'NONE', ( #545, #313, #364, #241 ) ) ;
#47 = CC_DESIGN_SECURITY_CLASSIFICATION ( #473, ( #1207 ) ) ;
#48 = DIRECTION ( 'NONE',  ( 0.000000000000000000, 1.000000000000000000, 0.000000000000000000 ) ) ;
#49 = PERSON_AND_ORGANIZATION ( #633, #144 ) ;
#50 = CYLINDRICAL_SURFACE ( 'NONE', #1115, 1.000000000000000000 ) ;
#51 = ORIENTED_EDGE ( 'NONE', *, *, #340, .F. ) ;
#52 = CARTESIAN_POINT ( 'NONE',  ( 0.000000000000000000, -2.500000000000000000, 0.000000000000000000 ) ) ;
#53 = COORDINATED_UNIVERSAL_TIME_OFFSET ( 1, 0, .AHEAD. ) ;
#54 = CIRCLE ( 'NONE', #135, 1.000000000000000000 ) ;
#55 = CIRCLE ( 'NONE', #93, 1.000000000000000000 ) ;
#56 = PRODUCT ( '25-06-03-usinageB_10mm', '25-06-03-usinageB_10mm', '', ( #1181 ) ) ;
#57 = CARTESIAN_POINT ( 'NONE',  ( -76.00000000000000000, 2.500000000000000000, 5.000000000000000000 ) ) ;
#58 = EDGE_CURVE ( 'NONE', #459, #79, #635, .T. ) ;
#59 = ORIENTED_EDGE ( 'NONE', *, *, #706, .F. ) ;
#60 = LINE ( 'NONE', #742, #901 ) ;
#61 = DATE_AND_TIME ( #525, #687 ) ;
#62 = EDGE_CURVE ( 'NONE', #978, #408, #334, .T. ) ;
#63 = CARTESIAN_POINT ( 'NONE',  ( -95.00000000000000000, 2.500000000000000000, 6.000000000000000000 ) ) ;
#64 = DIRECTION ( 'NONE',  ( 0.000000000000000000, -1.000000000000000000, 0.000000000000000000 ) ) ;
#65 = PERSON_AND_ORGANIZATION_ROLE ( 'creator' ) ;
#66 = VERTEX_POINT ( 'NONE', #1094 ) ;
#67 = DIRECTION ( 'NONE',  ( 1.000000000000000000, 0.000000000000000000, 0.000000000000000000 ) ) ;
#68 = EDGE_CURVE ( 'NONE', #634, #404, #704, .T. ) ;
#69 = DIRECTION ( 'NONE',  ( 0.000000000000000000, -1.000000000000000000, 0.000000000000000000 ) ) ;
#70 = LINE ( 'NONE', #805, #1045 ) ;
#71 = DATE_AND_TIME ( #895, #590 ) ;
#72 = ORIENTED_EDGE ( 'NONE', *, *, #235, .F. ) ;
#73 = CC_DESIGN_PERSON_AND_ORGANIZATION_ASSIGNMENT ( #49, #428, ( #705 ) ) ;
#74 = CIRCLE ( 'NONE', #329, 1.000000000000000444 ) ;
#75 = PRODUCT_DEFINITION_SHAPE ( 'NONE', 'NONE',  #796 ) ;
#76 = VERTEX_POINT ( 'NONE', #818 ) ;
#77 = DIRECTION ( 'NONE',  ( 0.000000000000000000, 0.000000000000000000, -1.000000000000000000 ) ) ;
#78 = DIRECTION ( 'NONE',  ( 0.000000000000000000, 1.000000000000000000, 0.000000000000000000 ) ) ;
#79 = VERTEX_POINT ( 'NONE', #1202 ) ;
#80 = PRODUCT_RELATED_PRODUCT_CATEGORY ( 'detail', '', ( #85 ) ) ;
#81 = EDGE_LOOP ( 'NONE', ( #623, #188, #1005, #601 ) ) ;
#82 = DIRECTION ( 'NONE',  ( 0.000000000000000000, -1.000000000000000000, 0.000000000000000000 ) ) ;
#83 = VECTOR ( 'NONE', #1148, 1000.000000000000000 ) ;
#84 = ORIENTED_EDGE ( 'NONE', *, *, #150, .T. ) ;
#85 = PRODUCT ( 'rail_mobile_dessus_P.step', 'rail_mobile_dessus_P.step', '', ( #889 ) ) ;
#86 = ORIENTED_EDGE ( 'NONE', *, *, #129, .T. ) ;
#87 = LINE ( 'NONE', #815, #867 ) ;
#88 = EDGE_CURVE ( 'NONE', #757, #1040, #827, .T. ) ;
#89 = VERTEX_POINT ( 'NONE', #745 ) ;
#90 = ADVANCED_FACE ( 'NONE', ( #286 ), #655, .T. ) ;
#91 = CIRCLE ( 'NONE', #184, 1.000000000000000000 ) ;
#92 = LINE ( 'NONE', #1127, #1068 ) ;
#93 = AXIS2_PLACEMENT_3D ( 'NONE', #681, #969, #877 ) ;
#94 = DIRECTION ( 'NONE',  ( 0.000000000000000000, 1.000000000000000000, 0.000000000000000000 ) ) ;
#95 = ORIENTED_EDGE ( 'NONE', *, *, #836, .T. ) ;
#96 = DIRECTION ( 'NONE',  ( 0.000000000000000000, 1.000000000000000000, 0.000000000000000000 ) ) ;
#97 = CARTESIAN_POINT ( 'NONE',  ( -76.00000000000000000, -7.599999999999999645, 6.000000000000000000 ) ) ;
#98 = CARTESIAN_POINT ( 'NONE',  ( -75.00000000000000000, -7.599999999999999645, -2.500000000000000000 ) ) ;
#99 = EDGE_LOOP ( 'NONE', ( #728, #516, #226, #557 ) ) ;
#100 = VECTOR ( 'NONE', #855, 1000.000000000000000 ) ;
#101 = LOCAL_TIME ( 14, 32, 3.000000000000000000, #118 ) ;
#102 = DIRECTION ( 'NONE',  ( 0.000000000000000000, -1.000000000000000000, 0.000000000000000000 ) ) ;
#103 = DIRECTION ( 'NONE',  ( 0.000000000000000000, 0.000000000000000000, -1.000000000000000000 ) ) ;
#104 = EDGE_CURVE ( 'NONE', #305, #133, #839, .T. ) ;
#105 = FACE_OUTER_BOUND ( 'NONE', #829, .T. ) ;
#106 = EDGE_CURVE ( 'NONE', #911, #245, #147, .T. ) ;
#107 = ORIENTED_EDGE ( 'NONE', *, *, #434, .F. ) ;
#108 = APPROVAL ( #511, 'UNSPECIFIED' ) ;
#109 = LINE ( 'NONE', #28, #576 ) ;
#110 = CARTESIAN_POINT ( 'NONE',  ( 76.00000000000000000, -2.500000000000000000, 2.500000000000000000 ) ) ;
#111 = CARTESIAN_POINT ( 'NONE',  ( 88.00000000000000000, -7.599999999999999645, -2.500000000000000000 ) ) ;
#112 = CIRCLE ( 'NONE', #973, 2.500000000000000000 ) ;
#113 = APPROVAL_STATUS ( 'not_yet_approved' ) ;
#114 = ORIENTED_EDGE ( 'NONE', *, *, #734, .T. ) ;
#115 = FACE_OUTER_BOUND ( 'NONE', #962, .T. ) ;
#116 = DIRECTION ( 'NONE',  ( 0.000000000000000000, -1.000000000000000000, 0.000000000000000000 ) ) ;
#117 = DIRECTION ( 'NONE',  ( -1.000000000000000000, 0.000000000000000000, 0.000000000000000000 ) ) ;
#118 = COORDINATED_UNIVERSAL_TIME_OFFSET ( 1, 0, .AHEAD. ) ;
#119 = VERTEX_POINT ( 'NONE', #553 ) ;
#120 = AXIS2_PLACEMENT_3D ( 'NONE', #482, #192, #1118 ) ;
#121 = DIRECTION ( 'NONE',  ( 0.000000000000000000, 1.000000000000000000, 0.000000000000000000 ) ) ;
#122 = APPROVAL_PERSON_ORGANIZATION ( #761, #377, #1057 ) ;
#123 = DIRECTION ( 'NONE',  ( 0.000000000000000000, 0.000000000000000000, 1.000000000000000000 ) ) ;
#124 = LINE ( 'NONE', #222, #463 ) ;
#125 = ORIENTED_EDGE ( 'NONE', *, *, #860, .T. ) ;
#126 = APPROVAL_STATUS ( 'not_yet_approved' ) ;
#127 = VERTEX_POINT ( 'NONE', #840 ) ;
#128 = ADVANCED_FACE ( 'NONE', ( #14 ), #475, .T. ) ;
#129 = EDGE_CURVE ( 'NONE', #1081, #609, #1112, .T. ) ;
#130 = CYLINDRICAL_SURFACE ( 'NONE', #521, 2.500000000000000000 ) ;
#131 = DIRECTION ( 'NONE',  ( 0.000000000000000000, 0.000000000000000000, -1.000000000000000000 ) ) ;
#132 = LINE ( 'NONE', #872, #929 ) ;
#133 = VERTEX_POINT ( 'NONE', #199 ) ;
#134 = DIRECTION ( 'NONE',  ( 0.000000000000000000, 1.000000000000000000, 0.000000000000000000 ) ) ;
#135 = AXIS2_PLACEMENT_3D ( 'NONE', #736, #465, #481 ) ;
#136 = VERTEX_POINT ( 'NONE', #752 ) ;
#137 = DIRECTION ( 'NONE',  ( 0.000000000000000000, 0.000000000000000000, 1.000000000000000000 ) ) ;
#138 = LINE ( 'NONE', #418, #503 ) ;
#139 = ORIENTED_EDGE ( 'NONE', *, *, #3, .F. ) ;
#140 = CARTESIAN_POINT ( 'NONE',  ( -94.00000000000000000, 2.500000000000000000, 5.000000000000000000 ) ) ;
#141 = APPLICATION_PROTOCOL_DEFINITION ( 'international standard', 'config_control_design', 1994, #288 ) ;
#142 = DIRECTION ( 'NONE',  ( 0.000000000000000000, -1.000000000000000000, 0.000000000000000000 ) ) ;
#143 = AXIS2_PLACEMENT_3D ( 'NONE', #255, #729, #172 ) ;
#144 = ORGANIZATION ( 'UNSPECIFIED', 'UNSPECIFIED', '' ) ;
#145 = VERTEX_POINT ( 'NONE', #4 ) ;
#146 = DIRECTION ( 'NONE',  ( 0.000000000000000000, -1.000000000000000000, 0.000000000000000000 ) ) ;
#147 = CIRCLE ( 'NONE', #376, 1.000000000000000000 ) ;
#148 = EDGE_CURVE ( 'NONE', #79, #597, #398, .T. ) ;
#149 = PERSON_AND_ORGANIZATION_ROLE ( 'creator' ) ;
#150 = EDGE_CURVE ( 'NONE', #1047, #285, #92, .T. ) ;
#151 = CARTESIAN_POINT ( 'NONE',  ( -94.00000000000000000, 2.500000000000000000, -6.000000000000000000 ) ) ;
#152 = VERTEX_POINT ( 'NONE', #931 ) ;
#153 = DIRECTION ( 'NONE',  ( 0.000000000000000000, 0.000000000000000000, -1.000000000000000000 ) ) ;
#154 = APPROVAL_ROLE ( '' ) ;
#155 = VECTOR ( 'NONE', #1043, 1000.000000000000000 ) ;
#156 = CIRCLE ( 'NONE', #825, 1.000000000000000000 ) ;
#157 = ORIENTED_EDGE ( 'NONE', *, *, #1121, .T. ) ;
#158 = CARTESIAN_POINT ( 'NONE',  ( 76.00000000000000000, -7.599999999999999645, 6.000000000000000000 ) ) ;
#159 = PERSON_AND_ORGANIZATION ( #633, #144 ) ;
#160 = ORIENTED_EDGE ( 'NONE', *, *, #625, .F. ) ;
#161 = CARTESIAN_POINT ( 'NONE',  ( 76.00000000000000000, -2.500000000000000000, 3.500000000000000000 ) ) ;
#162 = DIRECTION ( 'NONE',  ( 0.000000000000000000, -1.000000000000000000, 0.000000000000000000 ) ) ;
#163 = AXIS2_PLACEMENT_3D ( 'NONE', #906, #335, #896 ) ;
#164 = LOCAL_TIME ( 14, 32, 3.000000000000000000, #432 ) ;
#165 = CALENDAR_DATE ( 2025, 3, 6 ) ;
#166 = ORIENTED_EDGE ( 'NONE', *, *, #860, .F. ) ;
#167 = EDGE_LOOP ( 'NONE', ( #550, #897, #361, #993 ) ) ;
#168 = CARTESIAN_POINT ( 'NONE',  ( 94.00000000000000000, 2.500000000000000000, 5.000000000000000000 ) ) ;
#169 = DIRECTION ( 'NONE',  ( 0.000000000000000000, 0.000000000000000000, 1.000000000000000000 ) ) ;
#170 = ORIENTED_EDGE ( 'NONE', *, *, #646, .F. ) ;
#171 = AXIS2_PLACEMENT_3D ( 'NONE', #936, #102, #271 ) ;
#172 = DIRECTION ( 'NONE',  ( 0.000000000000000000, 0.000000000000000000, -1.000000000000000000 ) ) ;
#173 = CARTESIAN_POINT ( 'NONE',  ( -95.00000000000000000, 2.500000000000000000, 6.000000000000000000 ) ) ;
#174 = ORIENTED_EDGE ( 'NONE', *, *, #1050, .F. ) ;
#175 = VERTEX_POINT ( 'NONE', #944 ) ;
#176 = EDGE_CURVE ( 'NONE', #1040, #387, #109, .T. ) ;
#177 = CARTESIAN_POINT ( 'NONE',  ( -76.00000000000000000, -7.599999999999999645, 2.500000000000000000 ) ) ;
#178 = APPROVAL_PERSON_ORGANIZATION ( #801, #108, #1078 ) ;
#179 = EDGE_LOOP ( 'NONE', ( #950, #366, #402, #893 ) ) ;
#180 = DIRECTION ( 'NONE',  ( 0.000000000000000000, 1.000000000000000000, 0.000000000000000000 ) ) ;
#181 = DIRECTION ( 'NONE',  ( -1.000000000000000000, 0.000000000000000000, 0.000000000000000000 ) ) ;
#182 = EDGE_CURVE ( 'NONE', #264, #119, #54, .T. ) ;
#183 = VERTEX_POINT ( 'NONE', #205 ) ;
#184 = AXIS2_PLACEMENT_3D ( 'NONE', #5, #368, #743 ) ;
#185 = DIRECTION ( 'NONE',  ( 0.000000000000000000, 0.000000000000000000, 1.000000000000000000 ) ) ;
#186 = CARTESIAN_POINT ( 'NONE',  ( -88.00000000000000000, -7.599999999999999645, 2.500000000000000000 ) ) ;
#187 = CARTESIAN_POINT ( 'NONE',  ( -95.00000000000000000, -7.599999999999999645, 6.000000000000000000 ) ) ;
#188 = ORIENTED_EDGE ( 'NONE', *, *, #308, .F. ) ;
#189 = ADVANCED_FACE ( 'NONE', ( #383 ), #367, .T. ) ;
#190 = CARTESIAN_POINT ( 'NONE',  ( -88.00000000000000000, 2.500000000000000000, -2.500000000000000000 ) ) ;
#191 = EDGE_CURVE ( 'NONE', #292, #852, #1019, .T. ) ;
#192 = DIRECTION ( 'NONE',  ( 0.000000000000000000, -1.000000000000000000, 0.000000000000000000 ) ) ;
#193 = FACE_OUTER_BOUND ( 'NONE', #167, .T. ) ;
#194 = DATE_AND_TIME ( #217, #568 ) ;
#195 = PRODUCT_RELATED_PRODUCT_CATEGORY ( 'detail', '', ( #56 ) ) ;
#196 = ORIENTED_EDGE ( 'NONE', *, *, #1192, .T. ) ;
#197 = VECTOR ( 'NONE', #431, 1000.000000000000000 ) ;
#198 = LOCAL_TIME ( 14, 32, 3.000000000000000000, #530 ) ;
#199 = CARTESIAN_POINT ( 'NONE',  ( 76.00000000000000000, -2.500000000000000000, 6.000000000000000000 ) ) ;
#200 = DIRECTION ( 'NONE',  ( 0.000000000000000000, 0.000000000000000000, 1.000000000000000000 ) ) ;
#201 = CARTESIAN_POINT ( 'NONE',  ( -88.00000000000000000, -2.500000000000000000, 2.500000000000000000 ) ) ;
#202 = DATE_TIME_ROLE ( 'classification_date' ) ;
#203 = EDGE_LOOP ( 'NONE', ( #1185, #395, #474, #357 ) ) ;
#204 = UNCERTAINTY_MEASURE_WITH_UNIT (LENGTH_MEASURE( 1.000000000000000082E-05 ), #626, 'distance_accuracy_value', 'NONE');
#205 = CARTESIAN_POINT ( 'NONE',  ( -95.00000000000000000, 2.500000000000000000, 5.000000000000000000 ) ) ;
#206 = VECTOR ( 'NONE', #819, 1000.000000000000000 ) ;
#207 = DIRECTION ( 'NONE',  ( -1.000000000000000000, 0.000000000000000000, 0.000000000000000000 ) ) ;
#208 = DIRECTION ( 'NONE',  ( 0.000000000000000000, 0.000000000000000000, 1.000000000000000000 ) ) ;
#209 = VECTOR ( 'NONE', #508, 1000.000000000000000 ) ;
#210 = CONTEXT_DEPENDENT_SHAPE_REPRESENTATION ( #987, #1201 ) ;
#211 = ORIENTED_EDGE ( 'NONE', *, *, #769, .F. ) ;
#212 = DIRECTION ( 'NONE',  ( 0.000000000000000000, 1.000000000000000000, 0.000000000000000000 ) ) ;
#213 = CARTESIAN_POINT ( 'NONE',  ( 76.00000000000000000, -7.599999999999999645, -5.000000000000000000 ) ) ;
#214 = FACE_OUTER_BOUND ( 'NONE', #260, .T. ) ;
#215 = EDGE_LOOP ( 'NONE', ( #1195, #506, #107, #717, #448, #692, #42, #1114, #440, #738, #1033, #20, #1052, #114 ) ) ;
#216 = ADVANCED_FACE ( 'NONE', ( #115 ), #9, .T. ) ;
#217 = CALENDAR_DATE ( 2025, 3, 6 ) ;
#218 = ADVANCED_FACE ( 'NONE', ( #1117 ), #854, .T. ) ;
#219 = ORIENTED_EDGE ( 'NONE', *, *, #191, .T. ) ;
#220 = DIRECTION ( 'NONE',  ( 0.000000000000000000, 0.000000000000000000, -1.000000000000000000 ) ) ;
#221 = CARTESIAN_POINT ( 'NONE',  ( 94.00000000000000000, -7.599999999999999645, 6.000000000000000000 ) ) ;
#222 = CARTESIAN_POINT ( 'NONE',  ( 76.00000000000000000, 2.500000000000000000, 2.500000000000000000 ) ) ;
#223 = EDGE_LOOP ( 'NONE', ( #614, #711, #722, #375, #795, #280, #837, #586 ) ) ;
#224 = APPROVAL_STATUS ( 'not_yet_approved' ) ;
#225 = LINE ( 'NONE', #616, #427 ) ;
#226 = ORIENTED_EDGE ( 'NONE', *, *, #1099, .F. ) ;
#227 = CARTESIAN_POINT ( 'NONE',  ( 75.00000000000000000, -7.599999999999999645, 3.500000000000000000 ) ) ;
#228 = DIRECTION ( 'NONE',  ( 0.000000000000000000, 1.000000000000000000, 0.000000000000000000 ) ) ;
#229 = ORIENTED_EDGE ( 'NONE', *, *, #253, .F. ) ;
#230 = CARTESIAN_POINT ( 'NONE',  ( 76.00000000000000000, -7.599999999999999645, 3.500000000000000000 ) ) ;
#231 = AXIS2_PLACEMENT_3D ( 'NONE', #343, #720, #1095 ) ;
#232 =( REPRESENTATION_RELATIONSHIP ('NONE','NONE', #444, #1106 ) REPRESENTATION_RELATIONSHIP_WITH_TRANSFORMATION ( #677 )SHAPE_REPRESENTATION_RELATIONSHIP( ) );
#233 = EDGE_CURVE ( 'NONE', #89, #1175, #844, .T. ) ;
#234 = LINE ( 'NONE', #975, #532 ) ;
#235 = EDGE_CURVE ( 'NONE', #66, #1040, #112, .T. ) ;
#236 = ORIENTED_EDGE ( 'NONE', *, *, #21, .T. ) ;
#237 = CARTESIAN_POINT ( 'NONE',  ( -76.00000000000000000, -2.500000000000000000, 3.500000000000000000 ) ) ;
#238 = PERSON_AND_ORGANIZATION ( #633, #144 ) ;
#239 = CC_DESIGN_PERSON_AND_ORGANIZATION_ASSIGNMENT ( #350, #65, ( #454 ) ) ;
#240 = LOCAL_TIME ( 14, 32, 3.000000000000000000, #707 ) ;
#241 = ORIENTED_EDGE ( 'NONE', *, *, #701, .T. ) ;
#242 = DIRECTION ( 'NONE',  ( 0.000000000000000000, 1.000000000000000000, 0.000000000000000000 ) ) ;
#243 = PERSON_AND_ORGANIZATION ( #633, #144 ) ;
#244 = DIRECTION ( 'NONE',  ( 0.000000000000000000, 1.000000000000000000, 0.000000000000000000 ) ) ;
#245 = VERTEX_POINT ( 'NONE', #33 ) ;
#246 = CARTESIAN_POINT ( 'NONE',  ( -76.00000000000000000, -7.599999999999999645, -3.500000000000000000 ) ) ;
#247 = APPLICATION_PROTOCOL_DEFINITION ( 'international standard', 'config_control_design', 1994, #918 ) ;
#248 = CIRCLE ( 'NONE', #992, 1.000000000000000444 ) ;
#249 = ORIENTED_EDGE ( 'NONE', *, *, #836, .F. ) ;
#250 = VERTEX_POINT ( 'NONE', #500 ) ;
#251 = DIRECTION ( 'NONE',  ( 0.000000000000000000, -1.000000000000000000, 0.000000000000000000 ) ) ;
#252 = PERSON_AND_ORGANIZATION ( #633, #144 ) ;
#253 = EDGE_CURVE ( 'NONE', #408, #305, #299, .T. ) ;
#254 = CARTESIAN_POINT ( 'NONE',  ( -27.27479071219983098, -24.57976642940844059, 2.499999999999999556 ) ) ;
#255 = CARTESIAN_POINT ( 'NONE',  ( 94.00000000000000000, -7.599999999999999645, -5.000000000000000000 ) ) ;
#256 = CARTESIAN_POINT ( 'NONE',  ( 95.00000000000000000, 2.500000000000000000, -5.000000000000000000 ) ) ;
#257 = VECTOR ( 'NONE', #423, 1000.000000000000000 ) ;
#258 = SECURITY_CLASSIFICATION ( '', '', #18 ) ;
#259 = SECURITY_CLASSIFICATION_LEVEL ( 'unclassified' ) ;
#260 = EDGE_LOOP ( 'NONE', ( #541, #538, #658, #1146 ) ) ;
#261 = CARTESIAN_POINT ( 'NONE',  ( 75.00000000000000000, -7.599999999999999645, 3.500000000000000000 ) ) ;
#262 = DIRECTION ( 'NONE',  ( 0.000000000000000000, -1.000000000000000000, 0.000000000000000000 ) ) ;
#263 = VECTOR ( 'NONE', #639, 1000.000000000000000 ) ;
#264 = VERTEX_POINT ( 'NONE', #688 ) ;
#265 = AXIS2_PLACEMENT_3D ( 'NONE', #1071, #438, #338 ) ;
#266 = ORIENTED_EDGE ( 'NONE', *, *, #868, .T. ) ;
#267 = LINE ( 'NONE', #730, #263 ) ;
#268 = ADVANCED_FACE ( 'NONE', ( #390 ), #130, .F. ) ;
#269 = ORIENTED_EDGE ( 'NONE', *, *, #2, .T. ) ;
#270 = ADVANCED_FACE ( 'NONE', ( #967 ), #598, .T. ) ;
#271 = DIRECTION ( 'NONE',  ( 0.000000000000000000, 0.000000000000000000, -1.000000000000000000 ) ) ;
#272 = CARTESIAN_POINT ( 'NONE',  ( 88.00000000000000000, 2.500000000000000000, 2.500000000000000000 ) ) ;
#273 = CIRCLE ( 'NONE', #314, 1.000000000000000444 ) ;
#274 = ORGANIZATION ( 'NAUO-ORG2', 'UNSPECIFIED', 'UNSPECIFIED' ) ;
#275 = ORIENTED_EDGE ( 'NONE', *, *, #1013, .T. ) ;
#276 = DIRECTION ( 'NONE',  ( 0.000000000000000000, 1.000000000000000000, 0.000000000000000000 ) ) ;
#277 = LINE ( 'NONE', #287, #665 ) ;
#278 = PLANE ( 'NONE',  #1027 ) ;
#279 = EDGE_CURVE ( 'NONE', #136, #175, #1048, .T. ) ;
#280 = ORIENTED_EDGE ( 'NONE', *, *, #409, .T. ) ;
#281 = VECTOR ( 'NONE', #811, 1000.000000000000000 ) ;
#282 = DIRECTION ( 'NONE',  ( 0.000000000000000000, 0.000000000000000000, -1.000000000000000000 ) ) ;
#283 = LINE ( 'NONE', #23, #1177 ) ;
#284 = PLANE ( 'NONE',  #1144 ) ;
#285 = VERTEX_POINT ( 'NONE', #39 ) ;
#286 = FACE_OUTER_BOUND ( 'NONE', #957, .T. ) ;
#287 = CARTESIAN_POINT ( 'NONE',  ( -75.00000000000000000, -7.599999999999999645, 6.000000000000000000 ) ) ;
#288 = APPLICATION_CONTEXT ( 'configuration controlled 3d designs of mechanical parts and assemblies' ) ;
#289 = DIRECTION ( 'NONE',  ( 0.000000000000000000, -1.000000000000000000, 0.000000000000000000 ) ) ;
#290 = APPROVAL ( #224, 'UNKNOWN' ) ;
#291 = SHAPE_DEFINITION_REPRESENTATION ( #984, #1106 ) ;
#292 = VERTEX_POINT ( 'NONE', #227 ) ;
#293 = CARTESIAN_POINT ( 'NONE',  ( -88.00000000000000000, 2.500000000000000000, 2.500000000000000000 ) ) ;
#294 = DIRECTION ( 'NONE',  ( 1.000000000000000000, 0.000000000000000000, 0.000000000000000000 ) ) ;
#295 = DIRECTION ( 'NONE',  ( 0.000000000000000000, -1.000000000000000000, 0.000000000000000000 ) ) ;
#296 = DATE_AND_TIME ( #1032, #884 ) ;
#297 = VERTEX_POINT ( 'NONE', #315 ) ;
#298 = EDGE_CURVE ( 'NONE', #443, #786, #793, .T. ) ;
#299 = LINE ( 'NONE', #591, #425 ) ;
#300 = AXIS2_PLACEMENT_3D ( 'NONE', #385, #295, #1051 ) ;
#301 = DIRECTION ( 'NONE',  ( 0.000000000000000000, 1.000000000000000000, 0.000000000000000000 ) ) ;
#302 = CARTESIAN_POINT ( 'NONE',  ( 95.00000000000000000, 2.500000000000000000, 6.000000000000000000 ) ) ;
#303 = ADVANCED_FACE ( 'NONE', ( #493 ), #770, .F. ) ;
#304 = AXIS2_PLACEMENT_3D ( 'NONE', #880, #1059, #153 ) ;
#305 = VERTEX_POINT ( 'NONE', #1147 ) ;
#306 = CARTESIAN_POINT ( 'NONE',  ( -88.00000000000000000, 2.500000000000000000, 0.000000000000000000 ) ) ;
#307 = CYLINDRICAL_SURFACE ( 'NONE', #369, 1.000000000000000000 ) ;
#308 = EDGE_CURVE ( 'NONE', #119, #699, #862, .T. ) ;
#309 = DIRECTION ( 'NONE',  ( 0.000000000000000000, 1.000000000000000000, 0.000000000000000000 ) ) ;
#310 = ORIENTED_EDGE ( 'NONE', *, *, #751, .F. ) ;
#311 = CALENDAR_DATE ( 2025, 3, 6 ) ;
#312 = DIRECTION ( 'NONE',  ( 0.000000000000000000, 1.000000000000000000, 0.000000000000000000 ) ) ;
#313 = ORIENTED_EDGE ( 'NONE', *, *, #903, .T. ) ;
#314 = AXIS2_PLACEMENT_3D ( 'NONE', #914, #78, #470 ) ;
#315 = CARTESIAN_POINT ( 'NONE',  ( -76.00000000000000000, -2.500000000000000000, -2.500000000000000000 ) ) ;
#316 = CC_DESIGN_APPROVAL ( #377, ( #1159 ) ) ;
#317 = FACE_OUTER_BOUND ( 'NONE', #81, .T. ) ;
#318 = DIRECTION ( 'NONE',  ( 0.000000000000000000, 0.000000000000000000, 1.000000000000000000 ) ) ;
#319 = ORIENTED_EDGE ( 'NONE', *, *, #19, .T. ) ;
#320 = DIRECTION ( 'NONE',  ( 0.000000000000000000, -1.000000000000000000, 0.000000000000000000 ) ) ;
#321 = ORIENTED_EDGE ( 'NONE', *, *, #68, .F. ) ;
#322 = ADVANCED_FACE ( 'NONE', ( #1001 ), #450, .T. ) ;
#323 = EDGE_CURVE ( 'NONE', #907, #66, #87, .T. ) ;
#324 = CARTESIAN_POINT ( 'NONE',  ( -27.27479071219983453, -5.579766429408438810, 2.500000000000000000 ) ) ;
#325 = DIRECTION ( 'NONE',  ( 0.000000000000000000, 0.000000000000000000, -1.000000000000000000 ) ) ;
#326 = ORIENTED_EDGE ( 'NONE', *, *, #751, .T. ) ;
#327 = APPROVAL ( #613, 'UNSPECIFIED' ) ;
#328 = DIRECTION ( 'NONE',  ( -1.000000000000000000, 0.000000000000000000, 0.000000000000000000 ) ) ;
#329 = AXIS2_PLACEMENT_3D ( 'NONE', #923, #460, #823 ) ;
#330 = PERSON_AND_ORGANIZATION ( #633, #144 ) ;
#331 = ORIENTED_EDGE ( 'NONE', *, *, #88, .T. ) ;
#332 = CARTESIAN_POINT ( 'NONE',  ( -88.00000000000000000, 2.500000000000000000, -2.500000000000000000 ) ) ;
#333 = CALENDAR_DATE ( 2025, 3, 6 ) ;
#334 = CIRCLE ( 'NONE', #853, 1.000000000000000000 ) ;
#335 = DIRECTION ( 'NONE',  ( 0.000000000000000000, 0.000000000000000000, 1.000000000000000000 ) ) ;
#336 = AXIS2_PLACEMENT_3D ( 'NONE', #669, #1024, #816 ) ;
#337 = ORIENTED_EDGE ( 'NONE', *, *, #433, .T. ) ;
#338 = DIRECTION ( 'NONE',  ( 0.000000000000000000, 0.000000000000000000, -1.000000000000000000 ) ) ;
#339 = DATE_TIME_ROLE ( 'creation_date' ) ;
#340 = EDGE_CURVE ( 'NONE', #708, #609, #1110, .T. ) ;
#341 = CARTESIAN_POINT ( 'NONE',  ( 76.00000000000000000, -2.500000000000000000, -2.500000000000000000 ) ) ;
#342 = EDGE_CURVE ( 'NONE', #638, #443, #267, .T. ) ;
#343 = CARTESIAN_POINT ( 'NONE',  ( -95.00000000000000000, 2.500000000000000000, -6.000000000000000000 ) ) ;
#344 = DATE_AND_TIME ( #1172, #803 ) ;
#345 = CIRCLE ( 'NONE', #715, 1.000000000000000000 ) ;
#346 = VERTEX_POINT ( 'NONE', #358 ) ;
#347 = APPLICATION_PROTOCOL_DEFINITION ( 'international standard', 'config_control_design', 1994, #422 ) ;
#348 = EDGE_LOOP ( 'NONE', ( #485, #866, #1065, #1070 ) ) ;
#349 = DIRECTION ( 'NONE',  ( -1.000000000000000000, 0.000000000000000000, 0.000000000000000000 ) ) ;
#350 = PERSON_AND_ORGANIZATION ( #633, #144 ) ;
#351 = DIRECTION ( 'NONE',  ( 0.000000000000000000, 0.000000000000000000, 1.000000000000000000 ) ) ;
#352 = LINE ( 'NONE', #572, #1186 ) ;
#353 = APPROVAL_PERSON_ORGANIZATION ( #330, #754, #618 ) ;
#354 = CARTESIAN_POINT ( 'NONE',  ( 88.00000000000000000, -7.599999999999999645, -2.500000000000000000 ) ) ;
#355 = EDGE_LOOP ( 'NONE', ( #1075, #821, #310, #84 ) ) ;
#356 = ADVANCED_FACE ( 'NONE', ( #636 ), #1012, .F. ) ;
#357 = ORIENTED_EDGE ( 'NONE', *, *, #1157, .F. ) ;
#358 = CARTESIAN_POINT ( 'NONE',  ( -75.00000000000000000, -2.500000000000000000, -3.500000000000000000 ) ) ;
#359 = EDGE_CURVE ( 'NONE', #245, #509, #554, .T. ) ;
#360 = AXIS2_PLACEMENT_3D ( 'NONE', #551, #251, #1113 ) ;
#361 = ORIENTED_EDGE ( 'NONE', *, *, #148, .F. ) ;
#362 = CIRCLE ( 'NONE', #304, 1.000000000000000000 ) ;
#363 = PRODUCT_DEFINITION_SHAPE ( 'NONE', 'NONE',  #1207 ) ;
#364 = ORIENTED_EDGE ( 'NONE', *, *, #920, .F. ) ;
#365 = CARTESIAN_POINT ( 'NONE',  ( -88.00000000000000000, -2.500000000000000000, -2.500000000000000000 ) ) ;
#366 = ORIENTED_EDGE ( 'NONE', *, *, #129, .F. ) ;
#367 = CYLINDRICAL_SURFACE ( 'NONE', #693, 1.000000000000000000 ) ;
#368 = DIRECTION ( 'NONE',  ( 0.000000000000000000, 1.000000000000000000, 0.000000000000000000 ) ) ;
#369 = AXIS2_PLACEMENT_3D ( 'NONE', #694, #142, #131 ) ;
#370 = APPROVAL_PERSON_ORGANIZATION ( #1091, #838, #154 ) ;
#371 = EDGE_LOOP ( 'NONE', ( #27, #1056, #934, #236, #549, #1122, #382, #915 ) ) ;
#372 = DIRECTION ( 'NONE',  ( 0.000000000000000000, -1.000000000000000000, 0.000000000000000000 ) ) ;
#373 = CARTESIAN_POINT ( 'NONE',  ( -88.00000000000000000, -7.599999999999999645, 0.000000000000000000 ) ) ;
#374 = DIRECTION ( 'NONE',  ( 0.000000000000000000, 1.000000000000000000, 0.000000000000000000 ) ) ;
#375 = ORIENTED_EDGE ( 'NONE', *, *, #88, .F. ) ;
#376 = AXIS2_PLACEMENT_3D ( 'NONE', #1041, #668, #1034 ) ;
#377 = APPROVAL ( #126, 'UNSPECIFIED' ) ;
#378 = CARTESIAN_POINT ( 'NONE',  ( 76.00000000000000000, -2.500000000000000000, 5.000000000000000000 ) ) ;
#379 = PLANE ( 'NONE',  #627 ) ;
#380 = CYLINDRICAL_SURFACE ( 'NONE', #912, 1.000000000000000000 ) ;
#381 = APPROVAL_ROLE ( '' ) ;
#382 = ORIENTED_EDGE ( 'NONE', *, *, #1194, .T. ) ;
#383 = FACE_OUTER_BOUND ( 'NONE', #99, .T. ) ;
#384 = CARTESIAN_POINT ( 'NONE',  ( -76.00000000000000000, -7.599999999999999645, 5.000000000000000000 ) ) ;
#385 = CARTESIAN_POINT ( 'NONE',  ( 94.00000000000000000, 2.500000000000000000, -5.000000000000000000 ) ) ;
#386 = PERSON_AND_ORGANIZATION ( #633, #144 ) ;
#387 = VERTEX_POINT ( 'NONE', #177 ) ;
#388 = ADVANCED_FACE ( 'NONE', ( #1203 ), #1090, .T. ) ;
#389 = CC_DESIGN_APPROVAL ( #327, ( #796 ) ) ;
#390 = FACE_OUTER_BOUND ( 'NONE', #504, .T. ) ;
#391 = FACE_OUTER_BOUND ( 'NONE', #1111, .T. ) ;
#392 = FACE_OUTER_BOUND ( 'NONE', #520, .T. ) ;
#393 = EDGE_CURVE ( 'NONE', #619, #250, #74, .T. ) ;
#394 = SECURITY_CLASSIFICATION_LEVEL ( 'unclassified' ) ;
#395 = ORIENTED_EDGE ( 'NONE', *, *, #659, .F. ) ;
#396 = EDGE_CURVE ( 'NONE', #12, #297, #727, .T. ) ;
#397 = CARTESIAN_POINT ( 'NONE',  ( -75.00000000000000000, -2.500000000000000000, 3.500000000000000000 ) ) ;
#398 = CIRCLE ( 'NONE', #171, 1.000000000000000000 ) ;
#399 = CARTESIAN_POINT ( 'NONE',  ( 94.00000000000000000, 2.500000000000000000, 6.000000000000000000 ) ) ;
#400 = CARTESIAN_POINT ( 'NONE',  ( -75.00000000000000000, -7.599999999999999645, 5.000000000000000000 ) ) ;
#401 = AXIS2_PLACEMENT_3D ( 'NONE', #602, #522, #134 ) ;
#402 = ORIENTED_EDGE ( 'NONE', *, *, #612, .F. ) ;
#403 = PERSON_AND_ORGANIZATION_ROLE ( 'classification_officer' ) ;
#404 = VERTEX_POINT ( 'NONE', #1191 ) ;
#405 = DIRECTION ( 'NONE',  ( 0.000000000000000000, -1.000000000000000000, 0.000000000000000000 ) ) ;
#406 = DIRECTION ( 'NONE',  ( 0.000000000000000000, 1.000000000000000000, 0.000000000000000000 ) ) ;
#407 = CARTESIAN_POINT ( 'NONE',  ( 94.00000000000000000, -7.599999999999999645, -6.000000000000000000 ) ) ;
#408 = VERTEX_POINT ( 'NONE', #927 ) ;
#409 = EDGE_CURVE ( 'NONE', #594, #1000, #1103, .T. ) ;
#410 = CARTESIAN_POINT ( 'NONE',  ( 76.00000000000000000, -7.599999999999999645, 6.000000000000000000 ) ) ;
#411 = EDGE_CURVE ( 'NONE', #907, #297, #644, .T. ) ;
#412 = ORIENTED_EDGE ( 'NONE', *, *, #651, .F. ) ;
#413 = VECTOR ( 'NONE', #69, 1000.000000000000000 ) ;
#414 =( GEOMETRIC_REPRESENTATION_CONTEXT ( 3 ) GLOBAL_UNCERTAINTY_ASSIGNED_CONTEXT ( ( #1022 ) ) GLOBAL_UNIT_ASSIGNED_CONTEXT ( ( #494, #1169, #592 ) ) REPRESENTATION_CONTEXT ( 'NONE', 'WORKASPACE' ) );
#415 = CC_DESIGN_DATE_AND_TIME_ASSIGNMENT ( #61, #339, ( #454 ) ) ;
#416 = ORGANIZATION ( 'NAUO-ORG1', 'UNSPECIFIED', 'UNSPECIFIED' ) ;
#417 = LINE ( 'NONE', #1063, #937 ) ;
#418 = CARTESIAN_POINT ( 'NONE',  ( 75.00000000000000000, -7.599999999999999645, -5.000000000000000000 ) ) ;
#419 = ORIENTED_EDGE ( 'NONE', *, *, #997, .F. ) ;
#420 = CARTESIAN_POINT ( 'NONE',  ( 75.00000000000000000, -2.500000000000000000, 5.000000000000000000 ) ) ;
#421 = COORDINATED_UNIVERSAL_TIME_OFFSET ( 1, 0, .AHEAD. ) ;
#422 = APPLICATION_CONTEXT ( 'configuration controlled 3d designs of mechanical parts and assemblies' ) ;
#423 = DIRECTION ( 'NONE',  ( 0.000000000000000000, -1.000000000000000000, 0.000000000000000000 ) ) ;
#424 = ORIENTED_EDGE ( 'NONE', *, *, #359, .F. ) ;
#425 = VECTOR ( 'NONE', #674, 1000.000000000000000 ) ;
#426 = CARTESIAN_POINT ( 'NONE',  ( -76.00000000000000000, -7.599999999999999645, -2.500000000000000000 ) ) ;
#427 = VECTOR ( 'NONE', #320, 1000.000000000000000 ) ;
#428 = PERSON_AND_ORGANIZATION_ROLE ( 'design_supplier' ) ;
#429 = FACE_OUTER_BOUND ( 'NONE', #203, .T. ) ;
#430 = VERTEX_POINT ( 'NONE', #1198 ) ;
#431 = DIRECTION ( 'NONE',  ( -3.965082230804130614E-15, 0.000000000000000000, 1.000000000000000000 ) ) ;
#432 = COORDINATED_UNIVERSAL_TIME_OFFSET ( 1, 0, .AHEAD. ) ;
#433 = EDGE_CURVE ( 'NONE', #695, #569, #908, .T. ) ;
#434 = EDGE_CURVE ( 'NONE', #1000, #127, #70, .T. ) ;
#435 = AXIS2_PLACEMENT_3D ( 'NONE', #213, #886, #40 ) ;
#436 = CC_DESIGN_APPROVAL ( #1162, ( #473 ) ) ;
#437 = DIRECTION ( 'NONE',  ( 1.000000000000000000, 0.000000000000000000, 0.000000000000000000 ) ) ;
#438 = DIRECTION ( 'NONE',  ( 0.000000000000000000, -1.000000000000000000, 0.000000000000000000 ) ) ;
#439 = COORDINATED_UNIVERSAL_TIME_OFFSET ( 1, 0, .AHEAD. ) ;
#440 = ORIENTED_EDGE ( 'NONE', *, *, #1080, .F. ) ;
#441 = ADVANCED_FACE ( 'NONE', ( #1183 ), #445, .F. ) ;
#442 =( NAMED_UNIT ( * ) PLANE_ANGLE_UNIT ( ) SI_UNIT ( $, .RADIAN. ) );
#443 = VERTEX_POINT ( 'NONE', #256 ) ;
#444 = SHAPE_REPRESENTATION ( '25-06-03-usinageB_10mm', ( #163, #1097, #567 ), #7 ) ;
#445 = PLANE ( 'NONE',  #231 ) ;
#446 = PERSON_AND_ORGANIZATION_ROLE ( 'creator' ) ;
#447 = VECTOR ( 'NONE', #372, 1000.000000000000000 ) ;
#448 = ORIENTED_EDGE ( 'NONE', *, *, #540, .F. ) ;
#449 = ORIENTED_EDGE ( 'NONE', *, *, #490, .T. ) ;
#450 = CYLINDRICAL_SURFACE ( 'NONE', #637, 1.000000000000000000 ) ;
#451 = ADVANCED_FACE ( 'NONE', ( #630 ), #1006, .T. ) ;
#452 = DIRECTION ( 'NONE',  ( -3.965082230804130614E-15, 0.000000000000000000, 1.000000000000000000 ) ) ;
#453 = EDGE_CURVE ( 'NONE', #757, #594, #352, .T. ) ;
#454 = PRODUCT_DEFINITION ( 'UNKNOWN', '', #8, #464 ) ;
#455 = CARTESIAN_POINT ( 'NONE',  ( -76.00000000000000000, 2.500000000000000000, 6.000000000000000000 ) ) ;
#456 = CARTESIAN_POINT ( 'NONE',  ( 75.00000000000000000, -2.500000000000000000, -2.500000000000000000 ) ) ;
#457 = VECTOR ( 'NONE', #452, 1000.000000000000000 ) ;
#458 = VERTEX_POINT ( 'NONE', #483 ) ;
#459 = VERTEX_POINT ( 'NONE', #488 ) ;
#460 = DIRECTION ( 'NONE',  ( 0.000000000000000000, -1.000000000000000000, 0.000000000000000000 ) ) ;
#461 = VECTOR ( 'NONE', #747, 1000.000000000000000 ) ;
#462 = EDGE_LOOP ( 'NONE', ( #1131, #1010, #514, #902, #1170, #575, #774, #845 ) ) ;
#463 = VECTOR ( 'NONE', #772, 1000.000000000000000 ) ;
#464 = DESIGN_CONTEXT ( 'detailed design', #918, 'design' ) ;
#465 = DIRECTION ( 'NONE',  ( 0.000000000000000000, 1.000000000000000000, 0.000000000000000000 ) ) ;
#466 = LINE ( 'NONE', #111, #824 ) ;
#467 = EDGE_LOOP ( 'NONE', ( #424, #1028, #1108, #266 ) ) ;
#468 = ADVANCED_FACE ( 'NONE', ( #193 ), #380, .T. ) ;
#469 = DIRECTION ( 'NONE',  ( 1.000000000000000000, 0.000000000000000000, 0.000000000000000000 ) ) ;
#470 = DIRECTION ( 'NONE',  ( 0.000000000000000000, 0.000000000000000000, -1.000000000000000000 ) ) ;
#471 = CARTESIAN_POINT ( 'NONE',  ( 75.00000000000000000, -7.599999999999999645, 6.000000000000000000 ) ) ;
#472 = CLOSED_SHELL ( 'NONE', ( #451, #543, #322, #189, #1133, #1082, #218, #661, #216, #1196, #128, #468, #388, #822, #524, #1046, #555, #624, #90, #833, #270, #268, #356, #303, #441, #499, #881, #954, #974 ) ) ;
#473 = SECURITY_CLASSIFICATION ( '', '', #394 ) ;
#474 = ORIENTED_EDGE ( 'NONE', *, *, #106, .F. ) ;
#475 = CYLINDRICAL_SURFACE ( 'NONE', #652, 1.000000000000000000 ) ;
#476 = FACE_BOUND ( 'NONE', #1105, .T. ) ;
#477 = DIRECTION ( 'NONE',  ( 0.000000000000000000, 0.000000000000000000, 1.000000000000000000 ) ) ;
#478 = ORIENTED_EDGE ( 'NONE', *, *, #1157, .T. ) ;
#479 = MANIFOLD_SOLID_BREP ( 'NONE', #472 ) ;
#480 = AXIS2_PLACEMENT_3D ( 'NONE', #870, #764, #405 ) ;
#481 = DIRECTION ( 'NONE',  ( 0.000000000000000000, 0.000000000000000000, -1.000000000000000000 ) ) ;
#482 = CARTESIAN_POINT ( 'NONE',  ( -76.00000000000000000, -7.599999999999999645, -5.000000000000000000 ) ) ;
#483 = CARTESIAN_POINT ( 'NONE',  ( 94.00000000000000000, 2.500000000000000000, 6.000000000000000000 ) ) ;
#484 = CALENDAR_DATE ( 2025, 3, 6 ) ;
#485 = ORIENTED_EDGE ( 'NONE', *, *, #734, .F. ) ;
#486 = DIRECTION ( 'NONE',  ( 0.000000000000000000, -1.000000000000000000, 0.000000000000000000 ) ) ;
#487 = CARTESIAN_POINT ( 'NONE',  ( 95.00000000000000000, -7.599999999999999645, -6.000000000000000000 ) ) ;
#488 = CARTESIAN_POINT ( 'NONE',  ( -94.00000000000000000, 2.500000000000000000, 6.000000000000000000 ) ) ;
#489 = CONTEXT_DEPENDENT_SHAPE_REPRESENTATION ( #232, #363 ) ;
#490 = EDGE_CURVE ( 'NONE', #12, #619, #670, .T. ) ;
#491 = ORIENTED_EDGE ( 'NONE', *, *, #182, .T. ) ;
#492 = AXIS2_PLACEMENT_3D ( 'NONE', #841, #571, #103 ) ;
#493 = FACE_OUTER_BOUND ( 'NONE', #46, .T. ) ;
#494 =( LENGTH_UNIT ( ) NAMED_UNIT ( * ) SI_UNIT ( .MILLI., .METRE. ) );
#495 = DIRECTION ( 'NONE',  ( 0.000000000000000000, -1.000000000000000000, 0.000000000000000000 ) ) ;
#496 = ORIENTED_EDGE ( 'NONE', *, *, #646, .T. ) ;
#497 = COORDINATED_UNIVERSAL_TIME_OFFSET ( 1, 0, .AHEAD. ) ;
#498 = ORIENTED_EDGE ( 'NONE', *, *, #1050, .T. ) ;
#499 = ADVANCED_FACE ( 'NONE', ( #214 ), #760, .F. ) ;
#500 = CARTESIAN_POINT ( 'NONE',  ( 75.00000000000000000, -7.599999999999999645, -3.500000000000000000 ) ) ;
#501 = VECTOR ( 'NONE', #82, 1000.000000000000000 ) ;
#502 = DIRECTION ( 'NONE',  ( 3.965082230804130614E-15, 0.000000000000000000, 1.000000000000000000 ) ) ;
#503 = VECTOR ( 'NONE', #600, 1000.000000000000000 ) ;
#504 = EDGE_LOOP ( 'NONE', ( #331, #72, #249, #767 ) ) ;
#505 = FACE_OUTER_BOUND ( 'NONE', #462, .T. ) ;
#506 = ORIENTED_EDGE ( 'NONE', *, *, #905, .T. ) ;
#507 = DIRECTION ( 'NONE',  ( 1.000000000000000000, 0.000000000000000000, 0.000000000000000000 ) ) ;
#508 = DIRECTION ( 'NONE',  ( 0.000000000000000000, -1.000000000000000000, 0.000000000000000000 ) ) ;
#509 = VERTEX_POINT ( 'NONE', #1031 ) ;
#510 = DIRECTION ( 'NONE',  ( 0.000000000000000000, 1.000000000000000000, 0.000000000000000000 ) ) ;
#511 = APPROVAL_STATUS ( 'not_yet_approved' ) ;
#512 = CC_DESIGN_PERSON_AND_ORGANIZATION_ASSIGNMENT ( #664, #865, ( #473 ) ) ;
#513 = AXIS2_PLACEMENT_3D ( 'NONE', #384, #116, #649 ) ;
#514 = ORIENTED_EDGE ( 'NONE', *, *, #359, .T. ) ;
#515 = DIRECTION ( 'NONE',  ( 0.000000000000000000, -1.000000000000000000, 0.000000000000000000 ) ) ;
#516 = ORIENTED_EDGE ( 'NONE', *, *, #490, .F. ) ;
#517 = DIRECTION ( 'NONE',  ( 0.000000000000000000, 0.000000000000000000, -1.000000000000000000 ) ) ;
#518 = PERSON_AND_ORGANIZATION ( #633, #144 ) ;
#519 = LINE ( 'NONE', #399, #961 ) ;
#520 = EDGE_LOOP ( 'NONE', ( #229, #319, #219, #781 ) ) ;
#521 = AXIS2_PLACEMENT_3D ( 'NONE', #306, #679, #220 ) ;
#522 = DIRECTION ( 'NONE',  ( -1.000000000000000000, 0.000000000000000000, 3.965082230804130614E-15 ) ) ;
#523 = CIRCLE ( 'NONE', #673, 2.500000000000000000 ) ;
#524 = ADVANCED_FACE ( 'NONE', ( #392 ), #284, .T. ) ;
#525 = CALENDAR_DATE ( 2025, 3, 6 ) ;
#526 = EDGE_CURVE ( 'NONE', #972, #79, #953, .T. ) ;
#527 = DIRECTION ( 'NONE',  ( 0.000000000000000000, 1.000000000000000000, 0.000000000000000000 ) ) ;
#528 = LINE ( 'NONE', #63, #703 ) ;
#529 = PLANE ( 'NONE',  #401 ) ;
#530 = COORDINATED_UNIVERSAL_TIME_OFFSET ( 1, 0, .AHEAD. ) ;
#531 = ORIENTED_EDGE ( 'NONE', *, *, #920, .T. ) ;
#532 = VECTOR ( 'NONE', #981, 1000.000000000000000 ) ;
#533 = AXIS2_PLACEMENT_3D ( 'NONE', #378, #276, #1029 ) ;
#534 = CC_DESIGN_APPROVAL ( #631, ( #454 ) ) ;
#535 = DIRECTION ( 'NONE',  ( 0.000000000000000000, -1.000000000000000000, 0.000000000000000000 ) ) ;
#536 = CARTESIAN_POINT ( 'NONE',  ( -76.00000000000000000, -2.500000000000000000, -2.500000000000000000 ) ) ;
#537 = APPROVAL_DATE_TIME ( #344, #838 ) ;
#538 = ORIENTED_EDGE ( 'NONE', *, *, #879, .T. ) ;
#539 = APPROVAL_ROLE ( '' ) ;
#540 = EDGE_CURVE ( 'NONE', #619, #925, #466, .T. ) ;
#541 = ORIENTED_EDGE ( 'NONE', *, *, #995, .T. ) ;
#542 = DIRECTION ( 'NONE',  ( 0.000000000000000000, 0.000000000000000000, -1.000000000000000000 ) ) ;
#543 = ADVANCED_FACE ( 'NONE', ( #1037 ), #1025, .T. ) ;
#544 = FACE_OUTER_BOUND ( 'NONE', #552, .T. ) ;
#545 = ORIENTED_EDGE ( 'NONE', *, *, #573, .F. ) ;
#546 = CC_DESIGN_DATE_AND_TIME_ASSIGNMENT ( #1002, #702, ( #796 ) ) ;
#547 = LINE ( 'NONE', #455, #900 ) ;
#548 = CARTESIAN_POINT ( 'NONE',  ( 76.00000000000000000, -7.599999999999999645, 5.000000000000000000 ) ) ;
#549 = ORIENTED_EDGE ( 'NONE', *, *, #1009, .T. ) ;
#550 = ORIENTED_EDGE ( 'NONE', *, *, #748, .F. ) ;
#551 = CARTESIAN_POINT ( 'NONE',  ( 88.00000000000000000, -7.599999999999999645, 0.000000000000000000 ) ) ;
#552 = EDGE_LOOP ( 'NONE', ( #982, #667, #763, #943, #682, #491, #139, #125 ) ) ;
#553 = CARTESIAN_POINT ( 'NONE',  ( -75.00000000000000000, -2.500000000000000000, 5.000000000000000000 ) ) ;
#554 = LINE ( 'NONE', #456, #281 ) ;
#555 = ADVANCED_FACE ( 'NONE', ( #105 ), #581, .F. ) ;
#556 = AXIS2_PLACEMENT_3D ( 'NONE', #168, #913, #77 ) ;
#557 = ORIENTED_EDGE ( 'NONE', *, *, #868, .F. ) ;
#558 = EDGE_CURVE ( 'NONE', #1204, #387, #842, .T. ) ;
#559 = VECTOR ( 'NONE', #971, 1000.000000000000000 ) ;
#560 = CARTESIAN_POINT ( 'NONE',  ( -94.00000000000000000, 2.500000000000000000, -5.000000000000000000 ) ) ;
#561 = DIRECTION ( 'NONE',  ( 0.000000000000000000, 0.000000000000000000, -1.000000000000000000 ) ) ;
#562 = CARTESIAN_POINT ( 'NONE',  ( 76.00000000000000000, -7.599999999999999645, -2.500000000000000000 ) ) ;
#563 = ORIENTED_EDGE ( 'NONE', *, *, #977, .T. ) ;
#564 = DIRECTION ( 'NONE',  ( 0.000000000000000000, 0.000000000000000000, 1.000000000000000000 ) ) ;
#565 = CARTESIAN_POINT ( 'NONE',  ( -75.00000000000000000, -2.500000000000000000, -2.500000000000000000 ) ) ;
#566 = DIRECTION ( 'NONE',  ( 0.000000000000000000, 0.000000000000000000, -1.000000000000000000 ) ) ;
#567 = AXIS2_PLACEMENT_3D ( 'NONE', #254, #244, #999 ) ;
#568 = LOCAL_TIME ( 14, 32, 3.000000000000000000, #574 ) ;
#569 = VERTEX_POINT ( 'NONE', #960 ) ;
#570 = DIRECTION ( 'NONE',  ( 0.000000000000000000, 1.000000000000000000, 0.000000000000000000 ) ) ;
#571 = DIRECTION ( 'NONE',  ( 0.000000000000000000, -1.000000000000000000, 0.000000000000000000 ) ) ;
#572 = CARTESIAN_POINT ( 'NONE',  ( -88.00000000000000000, 2.500000000000000000, 2.500000000000000000 ) ) ;
#573 = EDGE_CURVE ( 'NONE', #597, #145, #933, .T. ) ;
#574 = COORDINATED_UNIVERSAL_TIME_OFFSET ( 1, 0, .AHEAD. ) ;
#575 = ORIENTED_EDGE ( 'NONE', *, *, #625, .T. ) ;
#576 = VECTOR ( 'NONE', #1023, 1000.000000000000000 ) ;
#577 = CC_DESIGN_PERSON_AND_ORGANIZATION_ASSIGNMENT ( #243, #149, ( #705 ) ) ;
#578 = CIRCLE ( 'NONE', #732, 2.500000000000000000 ) ;
#579 = CARTESIAN_POINT ( 'NONE',  ( 75.00000000000000000, -7.599999999999999645, 6.000000000000000000 ) ) ;
#580 = PLANE ( 'NONE',  #336 ) ;
#581 = PLANE ( 'NONE',  #17 ) ;
#582 = ORIENTED_EDGE ( 'NONE', *, *, #233, .T. ) ;
#583 = CARTESIAN_POINT ( 'NONE',  ( -95.00000000000000000, 2.500000000000000000, 6.000000000000000000 ) ) ;
#584 = LINE ( 'NONE', #151, #83 ) ;
#585 = CARTESIAN_POINT ( 'NONE',  ( -76.00000000000000000, -7.599999999999999645, 2.500000000000000000 ) ) ;
#586 = ORIENTED_EDGE ( 'NONE', *, *, #684, .T. ) ;
#587 = APPROVAL_DATE_TIME ( #595, #290 ) ;
#588 = ORIENTED_EDGE ( 'NONE', *, *, #176, .T. ) ;
#589 = AXIS2_PLACEMENT_3D ( 'NONE', #1174, #698, #968 ) ;
#590 = LOCAL_TIME ( 14, 32, 3.000000000000000000, #53 ) ;
#591 = CARTESIAN_POINT ( 'NONE',  ( 75.00000000000000000, -2.500000000000000000, 6.000000000000000000 ) ) ;
#592 =( NAMED_UNIT ( * ) SI_UNIT ( $, .STERADIAN. ) SOLID_ANGLE_UNIT ( ) );
#593 = CARTESIAN_POINT ( 'NONE',  ( -94.00000000000000000, -7.599999999999999645, -6.000000000000000000 ) ) ;
#594 = VERTEX_POINT ( 'NONE', #857 ) ;
#595 = DATE_AND_TIME ( #484, #1038 ) ;
#596 = DIRECTION ( 'NONE',  ( 0.000000000000000000, 1.000000000000000000, 0.000000000000000000 ) ) ;
#597 = VERTEX_POINT ( 'NONE', #657 ) ;
#598 = PLANE ( 'NONE',  #480 ) ;
#599 = CARTESIAN_POINT ( 'NONE',  ( 0.000000000000000000, 0.000000000000000000, 0.000000000000000000 ) ) ;
#600 = DIRECTION ( 'NONE',  ( 0.000000000000000000, -1.000000000000000000, 0.000000000000000000 ) ) ;
#601 = ORIENTED_EDGE ( 'NONE', *, *, #21, .F. ) ;
#602 = CARTESIAN_POINT ( 'NONE',  ( 75.00000000000000000, -7.599999999999999645, -2.500000000000000000 ) ) ;
#603 = CC_DESIGN_PERSON_AND_ORGANIZATION_ASSIGNMENT ( #1044, #403, ( #258 ) ) ;
#604 = ORIENTED_EDGE ( 'NONE', *, *, #148, .T. ) ;
#605 = CARTESIAN_POINT ( 'NONE',  ( 75.00000000000000000, -7.599999999999999645, -3.500000000000000000 ) ) ;
#606 = APPROVAL_DATE_TIME ( #883, #108 ) ;
#607 = VECTOR ( 'NONE', #871, 1000.000000000000000 ) ;
#608 = EDGE_CURVE ( 'NONE', #1204, #978, #30, .T. ) ;
#609 = VERTEX_POINT ( 'NONE', #828 ) ;
#610 = DIRECTION ( 'NONE',  ( 0.000000000000000000, 0.000000000000000000, -1.000000000000000000 ) ) ;
#611 = CALENDAR_DATE ( 2025, 3, 6 ) ;
#612 = EDGE_CURVE ( 'NONE', #285, #1081, #91, .T. ) ;
#613 = APPROVAL_STATUS ( 'not_yet_approved' ) ;
#614 = ORIENTED_EDGE ( 'NONE', *, *, #608, .F. ) ;
#615 = VECTOR ( 'NONE', #650, 1000.000000000000000 ) ;
#616 = CARTESIAN_POINT ( 'NONE',  ( -75.00000000000000000, -7.599999999999999645, -3.500000000000000000 ) ) ;
#617 = VECTOR ( 'NONE', #328, 1000.000000000000000 ) ;
#618 = APPROVAL_ROLE ( '' ) ;
#619 = VERTEX_POINT ( 'NONE', #562 ) ;
#620 = ORIENTED_EDGE ( 'NONE', *, *, #1173, .F. ) ;
#621 = DIRECTION ( 'NONE',  ( 0.000000000000000000, -1.000000000000000000, 0.000000000000000000 ) ) ;
#622 = PERSON_AND_ORGANIZATION_ROLE ( 'design_supplier' ) ;
#623 = ORIENTED_EDGE ( 'NONE', *, *, #1013, .F. ) ;
#624 = ADVANCED_FACE ( 'NONE', ( #1120 ), #278, .F. ) ;
#625 = EDGE_CURVE ( 'NONE', #297, #346, #248, .T. ) ;
#626 =( LENGTH_UNIT ( ) NAMED_UNIT ( * ) SI_UNIT ( .MILLI., .METRE. ) );
#627 = AXIS2_PLACEMENT_3D ( 'NONE', #373, #746, #765 ) ;
#628 = LOCAL_TIME ( 14, 32, 3.000000000000000000, #497 ) ;
#629 = ORIENTED_EDGE ( 'NONE', *, *, #411, .F. ) ;
#630 = FACE_OUTER_BOUND ( 'NONE', #1161, .T. ) ;
#631 = APPROVAL ( #1167, 'UNSPECIFIED' ) ;
#632 = DATE_TIME_ROLE ( 'classification_date' ) ;
#633 = PERSON ( 'UNSPECIFIED', 'UNSPECIFIED', 'UNSPECIFIED', ('UNSPECIFIED'), ('UNSPECIFIED'), ('UNSPECIFIED') ) ;
#634 = VERTEX_POINT ( 'NONE', #407 ) ;
#635 = LINE ( 'NONE', #1089, #856 ) ;
#636 = FACE_OUTER_BOUND ( 'NONE', #371, .T. ) ;
#637 = AXIS2_PLACEMENT_3D ( 'NONE', #548, #262, #714 ) ;
#638 = VERTEX_POINT ( 'NONE', #34 ) ;
#639 = DIRECTION ( 'NONE',  ( 0.000000000000000000, 0.000000000000000000, -1.000000000000000000 ) ) ;
#640 = ORIENTED_EDGE ( 'NONE', *, *, #396, .F. ) ;
#641 = CARTESIAN_POINT ( 'NONE',  ( -76.00000000000000000, -7.599999999999999645, -5.000000000000000000 ) ) ;
#642 = VECTOR ( 'NONE', #242, 1000.000000000000000 ) ;
#643 = EDGE_CURVE ( 'NONE', #1060, #250, #132, .T. ) ;
#644 = LINE ( 'NONE', #536, #810 ) ;
#645 = CC_DESIGN_APPROVAL ( #108, ( #705 ) ) ;
#646 = EDGE_CURVE ( 'NONE', #145, #708, #345, .T. ) ;
#647 = EDGE_LOOP ( 'NONE', ( #531, #807, #269, #196, #653, #1152, #1092, #582 ) ) ;
#648 = DIRECTION ( 'NONE',  ( 0.000000000000000000, 0.000000000000000000, -1.000000000000000000 ) ) ;
#649 = DIRECTION ( 'NONE',  ( 0.000000000000000000, 0.000000000000000000, -1.000000000000000000 ) ) ;
#650 = DIRECTION ( 'NONE',  ( 1.000000000000000000, 0.000000000000000000, 0.000000000000000000 ) ) ;
#651 = EDGE_CURVE ( 'NONE', #594, #695, #578, .T. ) ;
#652 = AXIS2_PLACEMENT_3D ( 'NONE', #1123, #22, #282 ) ;
#653 = ORIENTED_EDGE ( 'NONE', *, *, #342, .T. ) ;
#654 = VECTOR ( 'NONE', #48, 1000.000000000000000 ) ;
#655 = PLANE ( 'NONE',  #13 ) ;
#656 = FACE_OUTER_BOUND ( 'NONE', #647, .T. ) ;
#657 = CARTESIAN_POINT ( 'NONE',  ( -95.00000000000000000, -7.599999999999999645, 5.000000000000000000 ) ) ;
#658 = ORIENTED_EDGE ( 'NONE', *, *, #342, .F. ) ;
#659 = EDGE_CURVE ( 'NONE', #245, #1060, #138, .T. ) ;
#660 = DIRECTION ( 'NONE',  ( 0.000000000000000000, -1.000000000000000000, 0.000000000000000000 ) ) ;
#661 = ADVANCED_FACE ( 'NONE', ( #41 ), #689, .T. ) ;
#662 = CARTESIAN_POINT ( 'NONE',  ( 75.00000000000000000, -7.599999999999999645, -5.000000000000000000 ) ) ;
#663 = DIRECTION ( 'NONE',  ( 0.000000000000000000, -1.000000000000000000, 0.000000000000000000 ) ) ;
#664 = PERSON_AND_ORGANIZATION ( #910, #416 ) ;
#665 = VECTOR ( 'NONE', #849, 1000.000000000000000 ) ;
#666 = CC_DESIGN_PERSON_AND_ORGANIZATION_ASSIGNMENT ( #238, #446, ( #796 ) ) ;
#667 = ORIENTED_EDGE ( 'NONE', *, *, #62, .T. ) ;
#668 = DIRECTION ( 'NONE',  ( 0.000000000000000000, 1.000000000000000000, 0.000000000000000000 ) ) ;
#669 = CARTESIAN_POINT ( 'NONE',  ( 0.000000000000000000, -2.500000000000000000, 0.000000000000000000 ) ) ;
#670 = LINE ( 'NONE', #946, #461 ) ;
#671 = APPROVAL_ROLE ( '' ) ;
#672 = ORIENTED_EDGE ( 'NONE', *, *, #433, .F. ) ;
#673 = AXIS2_PLACEMENT_3D ( 'NONE', #45, #309, #318 ) ;
#674 = DIRECTION ( 'NONE',  ( 0.000000000000000000, 0.000000000000000000, 1.000000000000000000 ) ) ;
#675 = CARTESIAN_POINT ( 'NONE',  ( 94.00000000000000000, 2.500000000000000000, -6.000000000000000000 ) ) ;
#676 = DIRECTION ( 'NONE',  ( -1.000000000000000000, 0.000000000000000000, 0.000000000000000000 ) ) ;
#677 = ITEM_DEFINED_TRANSFORMATION ( 'NONE', 'NONE', #1097,  #589 ) ;
#678 = EDGE_LOOP ( 'NONE', ( #51, #859, #779, #157, #919, #478, #1165, #86 ) ) ;
#679 = DIRECTION ( 'NONE',  ( 0.000000000000000000, -1.000000000000000000, 0.000000000000000000 ) ) ;
#680 = LINE ( 'NONE', #1074, #607 ) ;
#681 = CARTESIAN_POINT ( 'NONE',  ( 76.00000000000000000, -7.599999999999999645, 5.000000000000000000 ) ) ;
#682 = ORIENTED_EDGE ( 'NONE', *, *, #1009, .F. ) ;
#683 = LINE ( 'NONE', #800, #1109 ) ;
#684 = EDGE_CURVE ( 'NONE', #127, #978, #124, .T. ) ;
#685 = ORIENTED_EDGE ( 'NONE', *, *, #879, .F. ) ;
#686 = VECTOR ( 'NONE', #515, 1000.000000000000000 ) ;
#687 = LOCAL_TIME ( 14, 32, 3.000000000000000000, #1084 ) ;
#688 = CARTESIAN_POINT ( 'NONE',  ( -76.00000000000000000, -2.500000000000000000, 6.000000000000000000 ) ) ;
#689 = CYLINDRICAL_SURFACE ( 'NONE', #1187, 1.000000000000000444 ) ;
#690 = ORIENTED_EDGE ( 'NONE', *, *, #651, .T. ) ;
#691 = LINE ( 'NONE', #1067, #642 ) ;
#692 = ORIENTED_EDGE ( 'NONE', *, *, #393, .T. ) ;
#693 = AXIS2_PLACEMENT_3D ( 'NONE', #848, #758, #1132 ) ;
#694 = CARTESIAN_POINT ( 'NONE',  ( 76.00000000000000000, 2.500000000000000000, -5.000000000000000000 ) ) ;
#695 = VERTEX_POINT ( 'NONE', #863 ) ;
#696 = CYLINDRICAL_SURFACE ( 'NONE', #265, 2.500000000000000000 ) ;
#697 = APPROVAL_DATE_TIME ( #1179, #754 ) ;
#698 = DIRECTION ( 'NONE',  ( 0.000000000000000000, 0.000000000000000000, 1.000000000000000000 ) ) ;
#699 = VERTEX_POINT ( 'NONE', #400 ) ;
#700 = CARTESIAN_POINT ( 'NONE',  ( 76.00000000000000000, -2.500000000000000000, -6.000000000000000000 ) ) ;
#701 = EDGE_CURVE ( 'NONE', #1175, #145, #1164, .T. ) ;
#702 = DATE_TIME_ROLE ( 'creation_date' ) ;
#703 = VECTOR ( 'NONE', #437, 1000.000000000000000 ) ;
#704 = CIRCLE ( 'NONE', #143, 1.000000000000000000 ) ;
#705 = PRODUCT_DEFINITION_FORMATION_WITH_SPECIFIED_SOURCE ( 'ANY', '', #56, .NOT_KNOWN. ) ;
#706 = EDGE_CURVE ( 'NONE', #569, #757, #523, .T. ) ;
#707 = COORDINATED_UNIVERSAL_TIME_OFFSET ( 1, 0, .AHEAD. ) ;
#708 = VERTEX_POINT ( 'NONE', #593 ) ;
#709 = LINE ( 'NONE', #332, #1145 ) ;
#710 = DATE_AND_TIME ( #611, #198 ) ;
#711 = ORIENTED_EDGE ( 'NONE', *, *, #558, .T. ) ;
#712 = DIRECTION ( 'NONE',  ( 0.000000000000000000, 1.000000000000000000, 0.000000000000000000 ) ) ;
#713 = AXIS2_PLACEMENT_3D ( 'NONE', #302, #676, #208 ) ;
#714 = DIRECTION ( 'NONE',  ( 0.000000000000000000, 0.000000000000000000, -1.000000000000000000 ) ) ;
#715 = AXIS2_PLACEMENT_3D ( 'NONE', #1055, #495, #325 ) ;
#716 = APPROVAL_ROLE ( '' ) ;
#717 = ORIENTED_EDGE ( 'NONE', *, *, #977, .F. ) ;
#718 =( NAMED_UNIT ( * ) SI_UNIT ( $, .STERADIAN. ) SOLID_ANGLE_UNIT ( ) );
#719 = LINE ( 'NONE', #1182, #935 ) ;
#720 = DIRECTION ( 'NONE',  ( 0.000000000000000000, 0.000000000000000000, 1.000000000000000000 ) ) ;
#721 = APPROVAL_STATUS ( 'not_yet_approved' ) ;
#722 = ORIENTED_EDGE ( 'NONE', *, *, #176, .F. ) ;
#723 = AXIS2_PLACEMENT_3D ( 'NONE', #599, #137, #507 ) ;
#724 = CC_DESIGN_APPROVAL ( #290, ( #258 ) ) ;
#725 = CARTESIAN_POINT ( 'NONE',  ( -88.00000000000000000, -7.599999999999999645, 0.000000000000000000 ) ) ;
#726 = CC_DESIGN_DATE_AND_TIME_ASSIGNMENT ( #955, #31, ( #1159 ) ) ;
#727 = LINE ( 'NONE', #365, #749 ) ;
#728 = ORIENTED_EDGE ( 'NONE', *, *, #393, .F. ) ;
#729 = DIRECTION ( 'NONE',  ( 0.000000000000000000, -1.000000000000000000, 0.000000000000000000 ) ) ;
#730 = CARTESIAN_POINT ( 'NONE',  ( 95.00000000000000000, 2.500000000000000000, 6.000000000000000000 ) ) ;
#731 = AXIS2_PLACEMENT_3D ( 'NONE', #739, #486, #648 ) ;
#732 = AXIS2_PLACEMENT_3D ( 'NONE', #1064, #228, #785 ) ;
#733 = ORIENTED_EDGE ( 'NONE', *, *, #340, .T. ) ;
#734 = EDGE_CURVE ( 'NONE', #878, #852, #55, .T. ) ;
#735 = EDGE_CURVE ( 'NONE', #152, #907, #891, .T. ) ;
#736 = CARTESIAN_POINT ( 'NONE',  ( -76.00000000000000000, -2.500000000000000000, 5.000000000000000000 ) ) ;
#737 = DIRECTION ( 'NONE',  ( -1.000000000000000000, 0.000000000000000000, 0.000000000000000000 ) ) ;
#738 = ORIENTED_EDGE ( 'NONE', *, *, #68, .T. ) ;
#739 = CARTESIAN_POINT ( 'NONE',  ( -76.00000000000000000, -7.599999999999999645, 3.500000000000000000 ) ) ;
#740 = CIRCLE ( 'NONE', #985, 1.000000000000000000 ) ;
#741 = VECTOR ( 'NONE', #660, 1000.000000000000000 ) ;
#742 = CARTESIAN_POINT ( 'NONE',  ( -95.00000000000000000, 2.500000000000000000, 6.000000000000000000 ) ) ;
#743 = DIRECTION ( 'NONE',  ( 0.000000000000000000, 0.000000000000000000, -1.000000000000000000 ) ) ;
#744 = ORIENTED_EDGE ( 'NONE', *, *, #3, .T. ) ;
#745 = CARTESIAN_POINT ( 'NONE',  ( -94.00000000000000000, 2.500000000000000000, -6.000000000000000000 ) ) ;
#746 = DIRECTION ( 'NONE',  ( 0.000000000000000000, -1.000000000000000000, 0.000000000000000000 ) ) ;
#747 = DIRECTION ( 'NONE',  ( 0.000000000000000000, -1.000000000000000000, 0.000000000000000000 ) ) ;
#748 = EDGE_CURVE ( 'NONE', #183, #459, #156, .T. ) ;
#749 = VECTOR ( 'NONE', #737, 1000.000000000000000 ) ;
#750 = ORIENTED_EDGE ( 'NONE', *, *, #1101, .T. ) ;
#751 = EDGE_CURVE ( 'NONE', #1047, #152, #1151, .T. ) ;
#752 = CARTESIAN_POINT ( 'NONE',  ( -75.00000000000000000, -7.599999999999999645, 3.500000000000000000 ) ) ;
#753 = DIRECTION ( 'NONE',  ( 0.000000000000000000, 0.000000000000000000, -1.000000000000000000 ) ) ;
#754 = APPROVAL ( #721, 'UNSPECIFIED' ) ;
#755 = CARTESIAN_POINT ( 'NONE',  ( -75.00000000000000000, -7.599999999999999645, 6.000000000000000000 ) ) ;
#756 = DATE_AND_TIME ( #311, #628 ) ;
#757 = VERTEX_POINT ( 'NONE', #797 ) ;
#758 = DIRECTION ( 'NONE',  ( 0.000000000000000000, 1.000000000000000000, 0.000000000000000000 ) ) ;
#759 = CARTESIAN_POINT ( 'NONE',  ( -76.00000000000000000, -7.599999999999999645, 3.500000000000000000 ) ) ;
#760 = PLANE ( 'NONE',  #713 ) ;
#761 = PERSON_AND_ORGANIZATION ( #633, #144 ) ;
#762 = AXIS2_PLACEMENT_3D ( 'NONE', #892, #406, #1069 ) ;
#763 = ORIENTED_EDGE ( 'NONE', *, *, #253, .T. ) ;
#764 = DIRECTION ( 'NONE',  ( 0.000000000000000000, 0.000000000000000000, -1.000000000000000000 ) ) ;
#765 = DIRECTION ( 'NONE',  ( 0.000000000000000000, 0.000000000000000000, -1.000000000000000000 ) ) ;
#766 = DIRECTION ( 'NONE',  ( 1.000000000000000000, 0.000000000000000000, -1.000802005371229951E-16 ) ) ;
#767 = ORIENTED_EDGE ( 'NONE', *, *, #706, .T. ) ;
#768 = VECTOR ( 'NONE', #64, 1000.000000000000000 ) ;
#769 = EDGE_CURVE ( 'NONE', #76, #1197, #362, .T. ) ;
#770 = PLANE ( 'NONE',  #1107 ) ;
#771 = CARTESIAN_POINT ( 'NONE',  ( 95.00000000000000000, 2.500000000000000000, 5.000000000000000000 ) ) ;
#772 = DIRECTION ( 'NONE',  ( 0.000000000000000000, 1.000000000000000000, 0.000000000000000000 ) ) ;
#773 = EDGE_CURVE ( 'NONE', #786, #89, #1160, .T. ) ;
#774 = ORIENTED_EDGE ( 'NONE', *, *, #924, .F. ) ;
#775 = ORIENTED_EDGE ( 'NONE', *, *, #540, .T. ) ;
#776 = DIRECTION ( 'NONE',  ( 0.000000000000000000, 1.000000000000000000, 0.000000000000000000 ) ) ;
#777 = DIRECTION ( 'NONE',  ( 0.000000000000000000, 1.000000000000000000, 0.000000000000000000 ) ) ;
#778 = CARTESIAN_POINT ( 'NONE',  ( -76.00000000000000000, 2.500000000000000000, -3.500000000000000000 ) ) ;
#779 = ORIENTED_EDGE ( 'NONE', *, *, #773, .F. ) ;
#780 = CARTESIAN_POINT ( 'NONE',  ( 75.00000000000000000, -7.599999999999999645, 5.000000000000000000 ) ) ;
#781 = ORIENTED_EDGE ( 'NONE', *, *, #790, .T. ) ;
#782 = CIRCLE ( 'NONE', #492, 2.500000000000000000 ) ;
#783 = CC_DESIGN_SECURITY_CLASSIFICATION ( #964, ( #705 ) ) ;
#784 = SHAPE_REPRESENTATION_RELATIONSHIP ( 'NONE' , 'NONE' ,  #1106, #966 ) ;
#785 = DIRECTION ( 'NONE',  ( 0.000000000000000000, 0.000000000000000000, 1.000000000000000000 ) ) ;
#786 = VERTEX_POINT ( 'NONE', #1176 ) ;
#787 = LINE ( 'NONE', #420, #654 ) ;
#788 = PERSON_AND_ORGANIZATION ( #633, #144 ) ;
#789 = EDGE_CURVE ( 'NONE', #133, #878, #894, .T. ) ;
#790 = EDGE_CURVE ( 'NONE', #852, #305, #787, .T. ) ;
#791 = AXIS2_PLACEMENT_3D ( 'NONE', #641, #180, #185 ) ;
#792 = APPLICATION_CONTEXT ( 'configuration controlled 3d designs of mechanical parts and assemblies' ) ;
#793 = CIRCLE ( 'NONE', #1205, 1.000000000000000000 ) ;
#794 = CARTESIAN_POINT ( 'NONE',  ( -76.00000000000000000, -2.500000000000000000, 2.500000000000000000 ) ) ;
#795 = ORIENTED_EDGE ( 'NONE', *, *, #453, .T. ) ;
#796 = PRODUCT_DEFINITION ( 'UNKNOWN', '', #705, #846 ) ;
#797 = CARTESIAN_POINT ( 'NONE',  ( -88.00000000000000000, 2.500000000000000000, 2.500000000000000000 ) ) ;
#798 = APPROVAL_STATUS ( 'not_yet_approved' ) ;
#799 = ORIENTED_EDGE ( 'NONE', *, *, #997, .T. ) ;
#800 = CARTESIAN_POINT ( 'NONE',  ( 95.00000000000000000, 2.500000000000000000, -5.000000000000000000 ) ) ;
#801 = PERSON_AND_ORGANIZATION ( #633, #144 ) ;
#802 = CIRCLE ( 'NONE', #513, 1.000000000000000000 ) ;
#803 = LOCAL_TIME ( 14, 32, 3.000000000000000000, #421 ) ;
#804 = ORIENTED_EDGE ( 'NONE', *, *, #323, .T. ) ;
#805 = CARTESIAN_POINT ( 'NONE',  ( 88.00000000000000000, -7.599999999999999645, 2.500000000000000000 ) ) ;
#806 = PERSON_AND_ORGANIZATION_ROLE ( 'design_owner' ) ;
#807 = ORIENTED_EDGE ( 'NONE', *, *, #748, .T. ) ;
#808 = PERSON_AND_ORGANIZATION ( #633, #144 ) ;
#809 = DIRECTION ( 'NONE',  ( 0.000000000000000000, 1.000000000000000000, 0.000000000000000000 ) ) ;
#810 = VECTOR ( 'NONE', #94, 1000.000000000000000 ) ;
#811 = DIRECTION ( 'NONE',  ( 3.965082230804130614E-15, 0.000000000000000000, 1.000000000000000000 ) ) ;
#812 = DATE_AND_TIME ( #1079, #240 ) ;
#813 = EDGE_LOOP ( 'NONE', ( #1126, #1008, #160, #629 ) ) ;
#814 = ORIENTED_EDGE ( 'NONE', *, *, #298, .F. ) ;
#815 = CARTESIAN_POINT ( 'NONE',  ( -88.00000000000000000, -7.599999999999999645, -2.500000000000000000 ) ) ;
#816 = DIRECTION ( 'NONE',  ( 0.000000000000000000, 0.000000000000000000, -1.000000000000000000 ) ) ;
#817 = VECTOR ( 'NONE', #207, 1000.000000000000000 ) ;
#818 = CARTESIAN_POINT ( 'NONE',  ( 95.00000000000000000, -7.599999999999999645, 5.000000000000000000 ) ) ;
#819 = DIRECTION ( 'NONE',  ( 1.000000000000000000, 0.000000000000000000, 0.000000000000000000 ) ) ;
#820 = ORIENTED_EDGE ( 'NONE', *, *, #1192, .F. ) ;
#821 = ORIENTED_EDGE ( 'NONE', *, *, #861, .T. ) ;
#822 = ADVANCED_FACE ( 'NONE', ( #983 ), #529, .T. ) ;
#823 = DIRECTION ( 'NONE',  ( 0.000000000000000000, 0.000000000000000000, -1.000000000000000000 ) ) ;
#824 = VECTOR ( 'NONE', #766, 1000.000000000000000 ) ;
#825 = AXIS2_PLACEMENT_3D ( 'NONE', #140, #510, #898 ) ;
#826 = ORIENTED_EDGE ( 'NONE', *, *, #956, .T. ) ;
#827 = LINE ( 'NONE', #293, #741 ) ;
#828 = CARTESIAN_POINT ( 'NONE',  ( -76.00000000000000000, -7.599999999999999645, -6.000000000000000000 ) ) ;
#829 = EDGE_LOOP ( 'NONE', ( #744, #1085, #419, #6 ) ) ;
#830 = DIRECTION ( 'NONE',  ( 0.000000000000000000, 0.000000000000000000, -1.000000000000000000 ) ) ;
#831 = VECTOR ( 'NONE', #294, 1000.000000000000000 ) ;
#832 = CARTESIAN_POINT ( 'NONE',  ( -95.00000000000000000, -2.500000000000000000, 6.000000000000000000 ) ) ;
#833 = ADVANCED_FACE ( 'NONE', ( #1166 ), #696, .F. ) ;
#834 = DIRECTION ( 'NONE',  ( -3.965082230804130614E-15, 0.000000000000000000, 1.000000000000000000 ) ) ;
#835 = CC_DESIGN_APPROVAL ( #754, ( #8 ) ) ;
#836 = EDGE_CURVE ( 'NONE', #569, #66, #709, .T. ) ;
#837 = ORIENTED_EDGE ( 'NONE', *, *, #434, .T. ) ;
#838 = APPROVAL ( #798, 'UNSPECIFIED' ) ;
#839 = CIRCLE ( 'NONE', #533, 1.000000000000000000 ) ;
#840 = CARTESIAN_POINT ( 'NONE',  ( 76.00000000000000000, -7.599999999999999645, 2.500000000000000000 ) ) ;
#841 = CARTESIAN_POINT ( 'NONE',  ( 88.00000000000000000, -7.599999999999999645, 0.000000000000000000 ) ) ;
#842 = LINE ( 'NONE', #585, #991 ) ;
#843 = ITEM_DEFINED_TRANSFORMATION ( 'NONE', 'NONE', #567,  #589 ) ;
#844 = CIRCLE ( 'NONE', #948, 1.000000000000000000 ) ;
#845 = ORIENTED_EDGE ( 'NONE', *, *, #612, .T. ) ;
#846 = DESIGN_CONTEXT ( 'detailed design', #792, 'design' ) ;
#847 = CC_DESIGN_DATE_AND_TIME_ASSIGNMENT ( #194, #36, ( #258 ) ) ;
#848 = CARTESIAN_POINT ( 'NONE',  ( 76.00000000000000000, -7.599999999999999645, -3.500000000000000000 ) ) ;
#849 = DIRECTION ( 'NONE',  ( 0.000000000000000000, 0.000000000000000000, 1.000000000000000000 ) ) ;
#850 = DIRECTION ( 'NONE',  ( -1.000000000000000000, 0.000000000000000000, 0.000000000000000000 ) ) ;
#851 = APPROVAL_DATE_TIME ( #1158, #377 ) ;
#852 = VERTEX_POINT ( 'NONE', #780 ) ;
#853 = AXIS2_PLACEMENT_3D ( 'NONE', #161, #809, #1189 ) ;
#854 = CYLINDRICAL_SURFACE ( 'NONE', #791, 1.000000000000000000 ) ;
#855 = DIRECTION ( 'NONE',  ( -1.000000000000000000, 0.000000000000000000, 0.000000000000000000 ) ) ;
#856 = VECTOR ( 'NONE', #535, 1000.000000000000000 ) ;
#857 = CARTESIAN_POINT ( 'NONE',  ( 88.00000000000000000, 2.500000000000000000, 2.500000000000000000 ) ) ;
#858 = AXIS2_PLACEMENT_3D ( 'NONE', #1036, #1030, #753 ) ;
#859 = ORIENTED_EDGE ( 'NONE', *, *, #1119, .T. ) ;
#860 = EDGE_CURVE ( 'NONE', #175, #1204, #1087, .T. ) ;
#861 = EDGE_CURVE ( 'NONE', #346, #152, #225, .T. ) ;
#862 = LINE ( 'NONE', #1016, #501 ) ;
#863 = CARTESIAN_POINT ( 'NONE',  ( 88.00000000000000000, 2.500000000000000000, -2.500000000000000000 ) ) ;
#864 = ORIENTED_EDGE ( 'NONE', *, *, #235, .T. ) ;
#865 = PERSON_AND_ORGANIZATION_ROLE ( 'classification_officer' ) ;
#866 = ORIENTED_EDGE ( 'NONE', *, *, #789, .F. ) ;
#867 = VECTOR ( 'NONE', #917, 1000.000000000000000 ) ;
#868 = EDGE_CURVE ( 'NONE', #250, #509, #994, .T. ) ;
#869 = AXIS2_PLACEMENT_3D ( 'NONE', #246, #1083, #1076 ) ;
#870 = CARTESIAN_POINT ( 'NONE',  ( -88.00000000000000000, 2.500000000000000000, 2.500000000000000000 ) ) ;
#871 = DIRECTION ( 'NONE',  ( 0.000000000000000000, -1.000000000000000000, 0.000000000000000000 ) ) ;
#872 = CARTESIAN_POINT ( 'NONE',  ( 75.00000000000000000, -7.599999999999999645, -2.500000000000000000 ) ) ;
#873 = ORIENTED_EDGE ( 'NONE', *, *, #323, .F. ) ;
#874 = PLANE ( 'NONE',  #37 ) ;
#875 = ORIENTED_EDGE ( 'NONE', *, *, #411, .T. ) ;
#876 = DIRECTION ( 'NONE',  ( 1.000000000000000000, 0.000000000000000000, 0.000000000000000000 ) ) ;
#877 = DIRECTION ( 'NONE',  ( 0.000000000000000000, 0.000000000000000000, -1.000000000000000000 ) ) ;
#878 = VERTEX_POINT ( 'NONE', #158 ) ;
#879 = EDGE_CURVE ( 'NONE', #404, #443, #683, .T. ) ;
#880 = CARTESIAN_POINT ( 'NONE',  ( 94.00000000000000000, -7.599999999999999645, 5.000000000000000000 ) ) ;
#881 = ADVANCED_FACE ( 'NONE', ( #505 ), #874, .T. ) ;
#882 = CIRCLE ( 'NONE', #120, 1.000000000000000000 ) ;
#883 = DATE_AND_TIME ( #165, #1018 ) ;
#884 = LOCAL_TIME ( 14, 32, 3.000000000000000000, #1138 ) ;
#885 = CC_DESIGN_PERSON_AND_ORGANIZATION_ASSIGNMENT ( #808, #1088, ( #56 ) ) ;
#886 = DIRECTION ( 'NONE',  ( 0.000000000000000000, -1.000000000000000000, 0.000000000000000000 ) ) ;
#887 = ORIENTED_EDGE ( 'NONE', *, *, #279, .F. ) ;
#888 = DIRECTION ( 'NONE',  ( 0.000000000000000000, -1.000000000000000000, 0.000000000000000000 ) ) ;
#889 = MECHANICAL_CONTEXT ( 'NONE', #288, 'mechanical' ) ;
#890 = AXIS2_PLACEMENT_3D ( 'NONE', #173, #542, #621 ) ;
#891 = CIRCLE ( 'NONE', #869, 1.000000000000000444 ) ;
#892 = CARTESIAN_POINT ( 'NONE',  ( 94.00000000000000000, 2.500000000000000000, 5.000000000000000000 ) ) ;
#893 = ORIENTED_EDGE ( 'NONE', *, *, #150, .F. ) ;
#894 = LINE ( 'NONE', #410, #768 ) ;
#895 = CALENDAR_DATE ( 2025, 3, 6 ) ;
#896 = DIRECTION ( 'NONE',  ( 1.000000000000000000, 0.000000000000000000, 0.000000000000000000 ) ) ;
#897 = ORIENTED_EDGE ( 'NONE', *, *, #903, .F. ) ;
#898 = DIRECTION ( 'NONE',  ( 0.000000000000000000, 0.000000000000000000, -1.000000000000000000 ) ) ;
#899 = APPROVAL_DATE_TIME ( #71, #631 ) ;
#900 = VECTOR ( 'NONE', #712, 1000.000000000000000 ) ;
#901 = VECTOR ( 'NONE', #200, 1000.000000000000000 ) ;
#902 = ORIENTED_EDGE ( 'NONE', *, *, #1099, .T. ) ;
#903 = EDGE_CURVE ( 'NONE', #597, #183, #691, .T. ) ;
#904 = LOCAL_TIME ( 14, 32, 3.000000000000000000, #1130 ) ;
#905 = EDGE_CURVE ( 'NONE', #292, #127, #921, .T. ) ;
#906 = CARTESIAN_POINT ( 'NONE',  ( 0.000000000000000000, 0.000000000000000000, 0.000000000000000000 ) ) ;
#907 = VERTEX_POINT ( 'NONE', #426 ) ;
#908 = LINE ( 'NONE', #1020, #1086 ) ;
#909 = SHAPE_DEFINITION_REPRESENTATION ( #75, #444 ) ;
#910 = PERSON ( 'NAUO-PER1', 'UNSPECIFIED', 'UNSPECIFIED', ('UNSPECIFIED'), ('UNSPECIFIED'), ('UNSPECIFIED') ) ;
#911 = VERTEX_POINT ( 'NONE', #700 ) ;
#912 = AXIS2_PLACEMENT_3D ( 'NONE', #1129, #289, #566 ) ;
#913 = DIRECTION ( 'NONE',  ( 0.000000000000000000, -1.000000000000000000, 0.000000000000000000 ) ) ;
#914 = CARTESIAN_POINT ( 'NONE',  ( 76.00000000000000000, -2.500000000000000000, -3.500000000000000000 ) ) ;
#915 = ORIENTED_EDGE ( 'NONE', *, *, #1137, .T. ) ;
#916 = ORIENTED_EDGE ( 'NONE', *, *, #526, .T. ) ;
#917 = DIRECTION ( 'NONE',  ( -1.000000000000000000, 0.000000000000000000, -1.000802005371229951E-16 ) ) ;
#918 = APPLICATION_CONTEXT ( 'configuration controlled 3d designs of mechanical parts and assemblies' ) ;
#919 = ORIENTED_EDGE ( 'NONE', *, *, #1080, .T. ) ;
#920 = EDGE_CURVE ( 'NONE', #1175, #183, #60, .T. ) ;
#921 = CIRCLE ( 'NONE', #1134, 1.000000000000000000 ) ;
#922 = ORIENTED_EDGE ( 'NONE', *, *, #453, .F. ) ;
#923 = CARTESIAN_POINT ( 'NONE',  ( 76.00000000000000000, -7.599999999999999645, -3.500000000000000000 ) ) ;
#924 = EDGE_CURVE ( 'NONE', #285, #346, #945, .T. ) ;
#925 = VERTEX_POINT ( 'NONE', #354 ) ;
#926 = CARTESIAN_POINT ( 'NONE',  ( -76.00000000000000000, 2.500000000000000000, -6.000000000000000000 ) ) ;
#927 = CARTESIAN_POINT ( 'NONE',  ( 75.00000000000000000, -2.500000000000000000, 3.500000000000000000 ) ) ;
#928 = VECTOR ( 'NONE', #1153, 1000.000000000000000 ) ;
#929 = VECTOR ( 'NONE', #502, 1000.000000000000000 ) ;
#930 = ORIENTED_EDGE ( 'NONE', *, *, #1119, .F. ) ;
#931 = CARTESIAN_POINT ( 'NONE',  ( -75.00000000000000000, -7.599999999999999645, -3.500000000000000000 ) ) ;
#932 = CYLINDRICAL_SURFACE ( 'NONE', #1200, 1.000000000000000444 ) ;
#933 = LINE ( 'NONE', #25, #1168 ) ;
#934 = ORIENTED_EDGE ( 'NONE', *, *, #526, .F. ) ;
#935 = VECTOR ( 'NONE', #351, 1000.000000000000000 ) ;
#936 = CARTESIAN_POINT ( 'NONE',  ( -94.00000000000000000, -7.599999999999999645, 5.000000000000000000 ) ) ;
#937 = VECTOR ( 'NONE', #876, 1000.000000000000000 ) ;
#938 = PLANE ( 'NONE',  #858 ) ;
#939 = DIRECTION ( 'NONE',  ( 0.000000000000000000, 0.000000000000000000, -1.000000000000000000 ) ) ;
#940 = APPROVAL_PERSON_ORGANIZATION ( #664, #1162, #381 ) ;
#941 = CALENDAR_DATE ( 2025, 3, 6 ) ;
#942 = CC_DESIGN_DATE_AND_TIME_ASSIGNMENT ( #296, #202, ( #473 ) ) ;
#943 = ORIENTED_EDGE ( 'NONE', *, *, #104, .T. ) ;
#944 = CARTESIAN_POINT ( 'NONE',  ( -75.00000000000000000, -2.500000000000000000, 3.500000000000000000 ) ) ;
#945 = LINE ( 'NONE', #565, #457 ) ;
#946 = CARTESIAN_POINT ( 'NONE',  ( 76.00000000000000000, 2.500000000000000000, -2.500000000000000000 ) ) ;
#947 = COORDINATED_UNIVERSAL_TIME_OFFSET ( 1, 0, .AHEAD. ) ;
#948 = AXIS2_PLACEMENT_3D ( 'NONE', #560, #96, #830 ) ;
#949 = AXIS2_PLACEMENT_3D ( 'NONE', #237, #312, #610 ) ;
#950 = ORIENTED_EDGE ( 'NONE', *, *, #956, .F. ) ;
#951 = DIRECTION ( 'NONE',  ( 0.000000000000000000, 0.000000000000000000, 1.000000000000000000 ) ) ;
#952 = CARTESIAN_POINT ( 'NONE',  ( -95.00000000000000000, -2.500000000000000000, -6.000000000000000000 ) ) ;
#953 = LINE ( 'NONE', #187, #155 ) ;
#954 = ADVANCED_FACE ( 'NONE', ( #476, #656 ), #938, .F. ) ;
#955 = DATE_AND_TIME ( #1039, #101 ) ;
#956 = EDGE_CURVE ( 'NONE', #609, #1047, #882, .T. ) ;
#957 = EDGE_LOOP ( 'NONE', ( #873, #875, #640, #449, #775, #998, #337, #95 ) ) ;
#958 = DIRECTION ( 'NONE',  ( 1.000000000000000000, 0.000000000000000000, 0.000000000000000000 ) ) ;
#959 = LINE ( 'NONE', #771, #257 ) ;
#960 = CARTESIAN_POINT ( 'NONE',  ( -88.00000000000000000, 2.500000000000000000, -2.500000000000000000 ) ) ;
#961 = VECTOR ( 'NONE', #1049, 1000.000000000000000 ) ;
#962 = EDGE_LOOP ( 'NONE', ( #174, #1098, #166, #887 ) ) ;
#963 = APPROVAL_DATE_TIME ( #756, #1162 ) ;
#964 = SECURITY_CLASSIFICATION ( '', '', #986 ) ;
#965 = ORIENTED_EDGE ( 'NONE', *, *, #701, .F. ) ;
#966 = ADVANCED_BREP_SHAPE_REPRESENTATION ( '', ( #479, #589 ), #414 ) ;
#967 = FACE_OUTER_BOUND ( 'NONE', #223, .T. ) ;
#968 = DIRECTION ( 'NONE',  ( 1.000000000000000000, 0.000000000000000000, 0.000000000000000000 ) ) ;
#969 = DIRECTION ( 'NONE',  ( 0.000000000000000000, -1.000000000000000000, 0.000000000000000000 ) ) ;
#970 = EDGE_LOOP ( 'NONE', ( #750, #563, #35, #690 ) ) ;
#971 = DIRECTION ( 'NONE',  ( 0.000000000000000000, 1.000000000000000000, 0.000000000000000000 ) ) ;
#972 = VERTEX_POINT ( 'NONE', #97 ) ;
#973 = AXIS2_PLACEMENT_3D ( 'NONE', #725, #776, #1053 ) ;
#974 = ADVANCED_FACE ( 'NONE', ( #544 ), #580, .T. ) ;
#975 = CARTESIAN_POINT ( 'NONE',  ( 76.00000000000000000, -2.500000000000000000, -6.000000000000000000 ) ) ;
#976 = DIRECTION ( 'NONE',  ( 0.000000000000000000, -1.000000000000000000, 0.000000000000000000 ) ) ;
#977 = EDGE_CURVE ( 'NONE', #925, #1000, #782, .T. ) ;
#978 = VERTEX_POINT ( 'NONE', #110 ) ;
#979 = CARTESIAN_POINT ( 'NONE',  ( -75.00000000000000000, -7.599999999999999645, -2.500000000000000000 ) ) ;
#980 = CC_DESIGN_DATE_AND_TIME_ASSIGNMENT ( #710, #632, ( #964 ) ) ;
#981 = DIRECTION ( 'NONE',  ( 0.000000000000000000, 1.000000000000000000, 0.000000000000000000 ) ) ;
#982 = ORIENTED_EDGE ( 'NONE', *, *, #608, .T. ) ;
#983 = FACE_OUTER_BOUND ( 'NONE', #467, .T. ) ;
#984 = PRODUCT_DEFINITION_SHAPE ( 'NONE', 'NONE',  #454 ) ;
#985 = AXIS2_PLACEMENT_3D ( 'NONE', #759, #1128, #561 ) ;
#986 = SECURITY_CLASSIFICATION_LEVEL ( 'unclassified' ) ;
#987 =( REPRESENTATION_RELATIONSHIP ('NONE','NONE', #444, #1106 ) REPRESENTATION_RELATIONSHIP_WITH_TRANSFORMATION ( #843 )SHAPE_REPRESENTATION_RELATIONSHIP( ) );
#988 = ORIENTED_EDGE ( 'NONE', *, *, #19, .F. ) ;
#989 = CARTESIAN_POINT ( 'NONE',  ( -95.00000000000000000, 2.500000000000000000, -6.000000000000000000 ) ) ;
#990 = COORDINATED_UNIVERSAL_TIME_OFFSET ( 1, 0, .AHEAD. ) ;
#991 = VECTOR ( 'NONE', #663, 1000.000000000000000 ) ;
#992 = AXIS2_PLACEMENT_3D ( 'NONE', #11, #374, #939 ) ;
#993 = ORIENTED_EDGE ( 'NONE', *, *, #58, .F. ) ;
#994 = LINE ( 'NONE', #605, #559 ) ;
#995 = EDGE_CURVE ( 'NONE', #76, #404, #283, .T. ) ;
#996 = PERSON_AND_ORGANIZATION_ROLE ( 'classification_officer' ) ;
#997 = EDGE_CURVE ( 'NONE', #136, #699, #277, .T. ) ;
#998 = ORIENTED_EDGE ( 'NONE', *, *, #1101, .F. ) ;
#999 = DIRECTION ( 'NONE',  ( 1.000000000000000000, 0.000000000000000000, 0.000000000000000000 ) ) ;
#1000 = VERTEX_POINT ( 'NONE', #15 ) ;
#1001 = FACE_OUTER_BOUND ( 'NONE', #348, .T. ) ;
#1002 = DATE_AND_TIME ( #333, #1077 ) ;
#1003 = CIRCLE ( 'NONE', #435, 1.000000000000000000 ) ;
#1004 = CC_DESIGN_SECURITY_CLASSIFICATION ( #1159, ( #8 ) ) ;
#1005 = ORIENTED_EDGE ( 'NONE', *, *, #182, .F. ) ;
#1006 = CYLINDRICAL_SURFACE ( 'NONE', #556, 1.000000000000000000 ) ;
#1007 = LINE ( 'NONE', #832, #831 ) ;
#1008 = ORIENTED_EDGE ( 'NONE', *, *, #861, .F. ) ;
#1009 = EDGE_CURVE ( 'NONE', #264, #133, #1007, .T. ) ;
#1010 = ORIENTED_EDGE ( 'NONE', *, *, #106, .T. ) ;
#1011 = VECTOR ( 'NONE', #162, 1000.000000000000000 ) ;
#1012 = PLANE ( 'NONE',  #890 ) ;
#1013 = EDGE_CURVE ( 'NONE', #699, #972, #802, .T. ) ;
#1014 = CC_DESIGN_PERSON_AND_ORGANIZATION_ASSIGNMENT ( #788, #806, ( #85 ) ) ;
#1015 = ORIENTED_EDGE ( 'NONE', *, *, #62, .F. ) ;
#1016 = CARTESIAN_POINT ( 'NONE',  ( -75.00000000000000000, -7.599999999999999645, 5.000000000000000000 ) ) ;
#1017 = EDGE_LOOP ( 'NONE', ( #916, #604, #1021, #496, #733, #826, #326, #1150, #804, #864, #588, #498, #799, #275 ) ) ;
#1018 = LOCAL_TIME ( 14, 32, 3.000000000000000000, #439 ) ;
#1019 = LINE ( 'NONE', #579, #1026 ) ;
#1020 = CARTESIAN_POINT ( 'NONE',  ( -88.00000000000000000, 2.500000000000000000, -2.500000000000000000 ) ) ;
#1021 = ORIENTED_EDGE ( 'NONE', *, *, #573, .T. ) ;
#1022 = UNCERTAINTY_MEASURE_WITH_UNIT (LENGTH_MEASURE( 1.000000000000000082E-05 ), #494, 'distance_accuracy_value', 'NONE');
#1023 = DIRECTION ( 'NONE',  ( 1.000000000000000000, 0.000000000000000000, 0.000000000000000000 ) ) ;
#1024 = DIRECTION ( 'NONE',  ( 0.000000000000000000, -1.000000000000000000, 0.000000000000000000 ) ) ;
#1025 = CYLINDRICAL_SURFACE ( 'NONE', #300, 1.000000000000000000 ) ;
#1026 = VECTOR ( 'NONE', #951, 1000.000000000000000 ) ;
#1027 = AXIS2_PLACEMENT_3D ( 'NONE', #98, #1125, #834 ) ;
#1028 = ORIENTED_EDGE ( 'NONE', *, *, #659, .T. ) ;
#1029 = DIRECTION ( 'NONE',  ( 0.000000000000000000, 0.000000000000000000, -1.000000000000000000 ) ) ;
#1030 = DIRECTION ( 'NONE',  ( 0.000000000000000000, -1.000000000000000000, 0.000000000000000000 ) ) ;
#1031 = CARTESIAN_POINT ( 'NONE',  ( 75.00000000000000000, -2.500000000000000000, -3.500000000000000000 ) ) ;
#1032 = CALENDAR_DATE ( 2025, 3, 6 ) ;
#1033 = ORIENTED_EDGE ( 'NONE', *, *, #995, .F. ) ;
#1034 = DIRECTION ( 'NONE',  ( 0.000000000000000000, 0.000000000000000000, -1.000000000000000000 ) ) ;
#1035 = APPROVAL_PERSON_ORGANIZATION ( #1193, #631, #716 ) ;
#1036 = CARTESIAN_POINT ( 'NONE',  ( 0.000000000000000000, 2.500000000000000000, 0.000000000000000000 ) ) ;
#1037 = FACE_OUTER_BOUND ( 'NONE', #1, .T. ) ;
#1038 = LOCAL_TIME ( 14, 32, 3.000000000000000000, #947 ) ;
#1039 = CALENDAR_DATE ( 2025, 3, 6 ) ;
#1040 = VERTEX_POINT ( 'NONE', #186 ) ;
#1041 = CARTESIAN_POINT ( 'NONE',  ( 76.00000000000000000, -2.500000000000000000, -5.000000000000000000 ) ) ;
#1042 = FACE_OUTER_BOUND ( 'NONE', #1017, .T. ) ;
#1043 = DIRECTION ( 'NONE',  ( -1.000000000000000000, 0.000000000000000000, 0.000000000000000000 ) ) ;
#1044 = PERSON_AND_ORGANIZATION ( #1190, #274 ) ;
#1045 = VECTOR ( 'NONE', #349, 1000.000000000000000 ) ;
#1046 = ADVANCED_FACE ( 'NONE', ( #1042 ), #379, .T. ) ;
#1047 = VERTEX_POINT ( 'NONE', #1124 ) ;
#1048 = LINE ( 'NONE', #397, #928 ) ;
#1049 = DIRECTION ( 'NONE',  ( 0.000000000000000000, 1.000000000000000000, 0.000000000000000000 ) ) ;
#1050 = EDGE_CURVE ( 'NONE', #387, #136, #740, .T. ) ;
#1051 = DIRECTION ( 'NONE',  ( 0.000000000000000000, 0.000000000000000000, -1.000000000000000000 ) ) ;
#1052 = ORIENTED_EDGE ( 'NONE', *, *, #1194, .F. ) ;
#1053 = DIRECTION ( 'NONE',  ( 0.000000000000000000, 0.000000000000000000, -1.000000000000000000 ) ) ;
#1054 = CARTESIAN_POINT ( 'NONE',  ( -95.00000000000000000, 2.500000000000000000, -5.000000000000000000 ) ) ;
#1055 = CARTESIAN_POINT ( 'NONE',  ( -94.00000000000000000, -7.599999999999999645, -5.000000000000000000 ) ) ;
#1056 = ORIENTED_EDGE ( 'NONE', *, *, #58, .T. ) ;
#1057 = APPROVAL_ROLE ( '' ) ;
#1058 = CC_DESIGN_APPROVAL ( #838, ( #964 ) ) ;
#1059 = DIRECTION ( 'NONE',  ( 0.000000000000000000, -1.000000000000000000, 0.000000000000000000 ) ) ;
#1060 = VERTEX_POINT ( 'NONE', #662 ) ;
#1061 = EDGE_CURVE ( 'NONE', #911, #1081, #1135, .T. ) ;
#1062 = CARTESIAN_POINT ( 'NONE',  ( 94.00000000000000000, 2.500000000000000000, -5.000000000000000000 ) ) ;
#1063 = CARTESIAN_POINT ( 'NONE',  ( 95.00000000000000000, -7.599999999999999645, 6.000000000000000000 ) ) ;
#1064 = CARTESIAN_POINT ( 'NONE',  ( 88.00000000000000000, 2.500000000000000000, 0.000000000000000000 ) ) ;
#1065 = ORIENTED_EDGE ( 'NONE', *, *, #104, .F. ) ;
#1066 = CC_DESIGN_PERSON_AND_ORGANIZATION_ASSIGNMENT ( #518, #996, ( #964 ) ) ;
#1067 = CARTESIAN_POINT ( 'NONE',  ( -95.00000000000000000, 2.500000000000000000, 5.000000000000000000 ) ) ;
#1068 = VECTOR ( 'NONE', #570, 1000.000000000000000 ) ;
#1069 = DIRECTION ( 'NONE',  ( 0.000000000000000000, 0.000000000000000000, -1.000000000000000000 ) ) ;
#1070 = ORIENTED_EDGE ( 'NONE', *, *, #790, .F. ) ;
#1071 = CARTESIAN_POINT ( 'NONE',  ( 88.00000000000000000, 2.500000000000000000, 0.000000000000000000 ) ) ;
#1072 = CC_DESIGN_PERSON_AND_ORGANIZATION_ASSIGNMENT ( #386, #26, ( #1159 ) ) ;
#1073 = APPROVAL_DATE_TIME ( #812, #327 ) ;
#1074 = CARTESIAN_POINT ( 'NONE',  ( 88.00000000000000000, 2.500000000000000000, -2.500000000000000000 ) ) ;
#1075 = ORIENTED_EDGE ( 'NONE', *, *, #924, .T. ) ;
#1076 = DIRECTION ( 'NONE',  ( 0.000000000000000000, 0.000000000000000000, -1.000000000000000000 ) ) ;
#1077 = LOCAL_TIME ( 14, 32, 3.000000000000000000, #990 ) ;
#1078 = APPROVAL_ROLE ( '' ) ;
#1079 = CALENDAR_DATE ( 2025, 3, 6 ) ;
#1080 = EDGE_CURVE ( 'NONE', #634, #430, #1199, .T. ) ;
#1081 = VERTEX_POINT ( 'NONE', #29 ) ;
#1082 = ADVANCED_FACE ( 'NONE', ( #391 ), #932, .T. ) ;
#1083 = DIRECTION ( 'NONE',  ( 0.000000000000000000, -1.000000000000000000, 0.000000000000000000 ) ) ;
#1084 = COORDINATED_UNIVERSAL_TIME_OFFSET ( 1, 0, .AHEAD. ) ;
#1085 = ORIENTED_EDGE ( 'NONE', *, *, #308, .T. ) ;
#1086 = VECTOR ( 'NONE', #181, 1000.000000000000000 ) ;
#1087 = CIRCLE ( 'NONE', #949, 1.000000000000000000 ) ;
#1088 = PERSON_AND_ORGANIZATION_ROLE ( 'design_owner' ) ;
#1089 = CARTESIAN_POINT ( 'NONE',  ( -94.00000000000000000, 2.500000000000000000, 6.000000000000000000 ) ) ;
#1090 = PLANE ( 'NONE',  #360 ) ;
#1091 = PERSON_AND_ORGANIZATION ( #633, #144 ) ;
#1092 = ORIENTED_EDGE ( 'NONE', *, *, #773, .T. ) ;
#1093 = PERSON_AND_ORGANIZATION ( #633, #144 ) ;
#1094 = CARTESIAN_POINT ( 'NONE',  ( -88.00000000000000000, -7.599999999999999645, -2.500000000000000000 ) ) ;
#1095 = DIRECTION ( 'NONE',  ( 1.000000000000000000, 0.000000000000000000, 0.000000000000000000 ) ) ;
#1096 = CALENDAR_DATE ( 2025, 3, 6 ) ;
#1097 = AXIS2_PLACEMENT_3D ( 'NONE', #324, #527, #67 ) ;
#1098 = ORIENTED_EDGE ( 'NONE', *, *, #558, .F. ) ;
#1099 = EDGE_CURVE ( 'NONE', #509, #12, #273, .T. ) ;
#1100 = CC_DESIGN_SECURITY_CLASSIFICATION ( #258, ( #1208 ) ) ;
#1101 = EDGE_CURVE ( 'NONE', #695, #925, #680, .T. ) ;
#1102 = LINE ( 'NONE', #261, #413 ) ;
#1103 = LINE ( 'NONE', #272, #1011 ) ;
#1104 = CC_DESIGN_PERSON_AND_ORGANIZATION_ASSIGNMENT ( #159, #1184, ( #8 ) ) ;
#1105 = EDGE_LOOP ( 'NONE', ( #59, #672, #412, #922 ) ) ;
#1106 = SHAPE_REPRESENTATION ( 'rail_mobile_dessus_P.step', ( #589 ), #414 ) ;
#1107 = AXIS2_PLACEMENT_3D ( 'NONE', #583, #958, #121 ) ;
#1108 = ORIENTED_EDGE ( 'NONE', *, *, #643, .T. ) ;
#1109 = VECTOR ( 'NONE', #596, 1000.000000000000000 ) ;
#1110 = LINE ( 'NONE', #1206, #206 ) ;
#1111 = EDGE_LOOP ( 'NONE', ( #1139, #988, #1015, #1180 ) ) ;
#1112 = LINE ( 'NONE', #926, #447 ) ;
#1113 = DIRECTION ( 'NONE',  ( 0.000000000000000000, 0.000000000000000000, -1.000000000000000000 ) ) ;
#1114 = ORIENTED_EDGE ( 'NONE', *, *, #1140, .T. ) ;
#1115 = AXIS2_PLACEMENT_3D ( 'NONE', #57, #777, #123 ) ;
#1116 = APPROVAL_PERSON_ORGANIZATION ( #1044, #290, #671 ) ;
#1117 = FACE_OUTER_BOUND ( 'NONE', #179, .T. ) ;
#1118 = DIRECTION ( 'NONE',  ( 0.000000000000000000, 0.000000000000000000, -1.000000000000000000 ) ) ;
#1119 = EDGE_CURVE ( 'NONE', #708, #89, #584, .T. ) ;
#1120 = FACE_OUTER_BOUND ( 'NONE', #355, .T. ) ;
#1121 = EDGE_CURVE ( 'NONE', #786, #634, #1163, .T. ) ;
#1122 = ORIENTED_EDGE ( 'NONE', *, *, #789, .T. ) ;
#1123 = CARTESIAN_POINT ( 'NONE',  ( -94.00000000000000000, 2.500000000000000000, -5.000000000000000000 ) ) ;
#1124 = CARTESIAN_POINT ( 'NONE',  ( -75.00000000000000000, -7.599999999999999645, -5.000000000000000000 ) ) ;
#1125 = DIRECTION ( 'NONE',  ( -1.000000000000000000, 0.000000000000000000, -3.965082230804130614E-15 ) ) ;
#1126 = ORIENTED_EDGE ( 'NONE', *, *, #735, .F. ) ;
#1127 = CARTESIAN_POINT ( 'NONE',  ( -75.00000000000000000, -7.599999999999999645, -5.000000000000000000 ) ) ;
#1128 = DIRECTION ( 'NONE',  ( 0.000000000000000000, -1.000000000000000000, 0.000000000000000000 ) ) ;
#1129 = CARTESIAN_POINT ( 'NONE',  ( -94.00000000000000000, 2.500000000000000000, 5.000000000000000000 ) ) ;
#1130 = COORDINATED_UNIVERSAL_TIME_OFFSET ( 1, 0, .AHEAD. ) ;
#1131 = ORIENTED_EDGE ( 'NONE', *, *, #1061, .F. ) ;
#1132 = DIRECTION ( 'NONE',  ( 0.000000000000000000, 0.000000000000000000, 1.000000000000000000 ) ) ;
#1133 = ADVANCED_FACE ( 'NONE', ( #429 ), #307, .T. ) ;
#1134 = AXIS2_PLACEMENT_3D ( 'NONE', #230, #146, #517 ) ;
#1135 = LINE ( 'NONE', #952, #817 ) ;
#1136 = DIRECTION ( 'NONE',  ( 0.000000000000000000, 0.000000000000000000, 1.000000000000000000 ) ) ;
#1137 = EDGE_CURVE ( 'NONE', #1197, #458, #519, .T. ) ;
#1138 = COORDINATED_UNIVERSAL_TIME_OFFSET ( 1, 0, .AHEAD. ) ;
#1139 = ORIENTED_EDGE ( 'NONE', *, *, #905, .F. ) ;
#1140 = EDGE_CURVE ( 'NONE', #1060, #430, #1003, .T. ) ;
#1141 = DIRECTION ( 'NONE',  ( 0.000000000000000000, 0.000000000000000000, -1.000000000000000000 ) ) ;
#1142 = CARTESIAN_POINT ( 'NONE',  ( 76.00000000000000000, 2.500000000000000000, 3.500000000000000000 ) ) ;
#1143 = DIRECTION ( 'NONE',  ( 1.000000000000000000, 0.000000000000000000, 0.000000000000000000 ) ) ;
#1144 = AXIS2_PLACEMENT_3D ( 'NONE', #471, #117, #1136 ) ;
#1145 = VECTOR ( 'NONE', #888, 1000.000000000000000 ) ;
#1146 = ORIENTED_EDGE ( 'NONE', *, *, #1173, .T. ) ;
#1147 = CARTESIAN_POINT ( 'NONE',  ( 75.00000000000000000, -2.500000000000000000, 5.000000000000000000 ) ) ;
#1148 = DIRECTION ( 'NONE',  ( 0.000000000000000000, 1.000000000000000000, 0.000000000000000000 ) ) ;
#1149 = CARTESIAN_POINT ( 'NONE',  ( -95.00000000000000000, 2.500000000000000000, -5.000000000000000000 ) ) ;
#1150 = ORIENTED_EDGE ( 'NONE', *, *, #735, .T. ) ;
#1151 = LINE ( 'NONE', #979, #197 ) ;
#1152 = ORIENTED_EDGE ( 'NONE', *, *, #298, .T. ) ;
#1153 = DIRECTION ( 'NONE',  ( 0.000000000000000000, 1.000000000000000000, 0.000000000000000000 ) ) ;
#1154 = DIRECTION ( 'NONE',  ( 0.000000000000000000, 0.000000000000000000, -1.000000000000000000 ) ) ;
#1155 = APPROVAL_PERSON_ORGANIZATION ( #1093, #327, #539 ) ;
#1156 = ORIENTED_EDGE ( 'NONE', *, *, #1137, .F. ) ;
#1157 = EDGE_CURVE ( 'NONE', #430, #911, #234, .T. ) ;
#1158 = DATE_AND_TIME ( #941, #904 ) ;
#1159 = SECURITY_CLASSIFICATION ( '', '', #259 ) ;
#1160 = LINE ( 'NONE', #989, #617 ) ;
#1161 = EDGE_LOOP ( 'NONE', ( #820, #1156, #211, #620 ) ) ;
#1162 = APPROVAL ( #113, 'UNKNOWN' ) ;
#1163 = LINE ( 'NONE', #675, #686 ) ;
#1164 = LINE ( 'NONE', #1149, #209 ) ;
#1165 = ORIENTED_EDGE ( 'NONE', *, *, #1061, .T. ) ;
#1166 = FACE_OUTER_BOUND ( 'NONE', #970, .T. ) ;
#1167 = APPROVAL_STATUS ( 'not_yet_approved' ) ;
#1168 = VECTOR ( 'NONE', #16, 1000.000000000000000 ) ;
#1169 =( NAMED_UNIT ( * ) PLANE_ANGLE_UNIT ( ) SI_UNIT ( $, .RADIAN. ) );
#1170 = ORIENTED_EDGE ( 'NONE', *, *, #396, .T. ) ;
#1171 = DIRECTION ( 'NONE',  ( 0.000000000000000000, 0.000000000000000000, -1.000000000000000000 ) ) ;
#1172 = CALENDAR_DATE ( 2025, 3, 6 ) ;
#1173 = EDGE_CURVE ( 'NONE', #638, #76, #959, .T. ) ;
#1174 = CARTESIAN_POINT ( 'NONE',  ( 0.000000000000000000, 0.000000000000000000, 0.000000000000000000 ) ) ;
#1175 = VERTEX_POINT ( 'NONE', #1054 ) ;
#1176 = CARTESIAN_POINT ( 'NONE',  ( 94.00000000000000000, 2.500000000000000000, -6.000000000000000000 ) ) ;
#1177 = VECTOR ( 'NONE', #10, 1000.000000000000000 ) ;
#1178 = CIRCLE ( 'NONE', #762, 1.000000000000000000 ) ;
#1179 = DATE_AND_TIME ( #1096, #164 ) ;
#1180 = ORIENTED_EDGE ( 'NONE', *, *, #684, .F. ) ;
#1181 = MECHANICAL_CONTEXT ( 'NONE', #422, 'mechanical' ) ;
#1182 = CARTESIAN_POINT ( 'NONE',  ( -75.00000000000000000, -2.500000000000000000, 6.000000000000000000 ) ) ;
#1183 = FACE_OUTER_BOUND ( 'NONE', #678, .T. ) ;
#1184 = PERSON_AND_ORGANIZATION_ROLE ( 'creator' ) ;
#1185 = ORIENTED_EDGE ( 'NONE', *, *, #1140, .F. ) ;
#1186 = VECTOR ( 'NONE', #1143, 1000.000000000000000 ) ;
#1187 = AXIS2_PLACEMENT_3D ( 'NONE', #778, #976, #1154 ) ;
#1188 = APPLICATION_PROTOCOL_DEFINITION ( 'international standard', 'config_control_design', 1994, #792 ) ;
#1189 = DIRECTION ( 'NONE',  ( 0.000000000000000000, 0.000000000000000000, -1.000000000000000000 ) ) ;
#1190 = PERSON ( 'NAUO-PER2', 'UNSPECIFIED', 'UNSPECIFIED', ('UNSPECIFIED'), ('UNSPECIFIED'), ('UNSPECIFIED') ) ;
#1191 = CARTESIAN_POINT ( 'NONE',  ( 95.00000000000000000, -7.599999999999999645, -5.000000000000000000 ) ) ;
#1192 = EDGE_CURVE ( 'NONE', #458, #638, #1178, .T. ) ;
#1193 = PERSON_AND_ORGANIZATION ( #633, #144 ) ;
#1194 = EDGE_CURVE ( 'NONE', #878, #1197, #417, .T. ) ;
#1195 = ORIENTED_EDGE ( 'NONE', *, *, #191, .F. ) ;
#1196 = ADVANCED_FACE ( 'NONE', ( #317 ), #50, .T. ) ;
#1197 = VERTEX_POINT ( 'NONE', #221 ) ;
#1198 = CARTESIAN_POINT ( 'NONE',  ( 76.00000000000000000, -7.599999999999999645, -6.000000000000000000 ) ) ;
#1199 = LINE ( 'NONE', #487, #100 ) ;
#1200 = AXIS2_PLACEMENT_3D ( 'NONE', #1142, #301, #169 ) ;
#1201 = PRODUCT_DEFINITION_SHAPE ( 'NONE', 'NONE',  #1208 ) ;
#1202 = CARTESIAN_POINT ( 'NONE',  ( -94.00000000000000000, -7.599999999999999645, 6.000000000000000000 ) ) ;
#1203 = FACE_OUTER_BOUND ( 'NONE', #215, .T. ) ;
#1204 = VERTEX_POINT ( 'NONE', #794 ) ;
#1205 = AXIS2_PLACEMENT_3D ( 'NONE', #1062, #212, #1141 ) ;
#1206 = CARTESIAN_POINT ( 'NONE',  ( -95.00000000000000000, -7.599999999999999645, -6.000000000000000000 ) ) ;
#1207 = NEXT_ASSEMBLY_USAGE_OCCURRENCE ( 'NAUO1', ' ', ' ', #796, #454, $ ) ;
#1208 = NEXT_ASSEMBLY_USAGE_OCCURRENCE ( 'NAUO2', ' ', ' ', #796, #454, $ ) ;
ENDSEC;
END-ISO-10303-21;
