ISO-10303-21;
HEADER;
FILE_DESCRIPTION (( 'STEP AP203' ),
    '1' );
FILE_NAME ('pattes_mobiles_bottom_rail_6.STEP',
    '2025-06-03T09:07:35',
    ( '' ),
    ( '' ),
    'SwSTEP 2.0',
    'SolidWorks 2023',
    '' );
FILE_SCHEMA (( 'CONFIG_CONTROL_DESIGN' ));
ENDSEC;

DATA;
#1 = EDGE_CURVE ( 'NONE', #506, #181, #38, .T. ) ;
#2 = DIRECTION ( 'NONE',  ( -1.548860246407863583E-16, 1.000000000000000000, -0.000000000000000000 ) ) ;
#3 = CIRCLE ( 'NONE', #254, 0.5000000000000004441 ) ;
#4 = CIRCLE ( 'NONE', #686, 0.5000000000000004441 ) ;
#5 = CARTESIAN_POINT ( 'NONE',  ( -2.399999999999999911, -2.799999999999999822, 3.000000000000000000 ) ) ;
#6 = ORIENTED_EDGE ( 'NONE', *, *, #465, .T. ) ;
#7 = CARTESIAN_POINT ( 'NONE',  ( -7.000000000000000888, -2.000000000000000444, 3.000000000000000000 ) ) ;
#8 = CALENDAR_DATE ( 2025, 3, 6 ) ;
#9 = EDGE_CURVE ( 'NONE', #557, #506, #199, .T. ) ;
#10 = CARTESIAN_POINT ( 'NONE',  ( -14.00000000000000000, 2.499999999999999556, 3.000000000000000000 ) ) ;
#11 = CARTESIAN_POINT ( 'NONE',  ( -14.00000000000000000, 2.999999999999999556, 3.000000000000000000 ) ) ;
#12 = VERTEX_POINT ( 'NONE', #297 ) ;
#13 = PERSON_AND_ORGANIZATION ( #818, #512 ) ;
#14 = EDGE_CURVE ( 'NONE', #270, #268, #523, .T. ) ;
#15 = ORIENTED_EDGE ( 'NONE', *, *, #674, .T. ) ;
#16 = VECTOR ( 'NONE', #623, 1000.000000000000000 ) ;
#17 = VERTEX_POINT ( 'NONE', #768 ) ;
#18 = AXIS2_PLACEMENT_3D ( 'NONE', #334, #316, #1020 ) ;
#19 = CARTESIAN_POINT ( 'NONE',  ( -13.50000000000000000, 0.3339745962155618586, -3.000000000000000000 ) ) ;
#20 = DIRECTION ( 'NONE',  ( 0.8660254037844379305, -0.5000000000000012212, 0.000000000000000000 ) ) ;
#21 = ADVANCED_BREP_SHAPE_REPRESENTATION ( 'pattes_mobiles_bottom_rail_6', ( #1005, #237 ), #373 ) ;
#22 = EDGE_LOOP ( 'NONE', ( #35, #587, #55, #137 ) ) ;
#23 = ORIENTED_EDGE ( 'NONE', *, *, #384, .F. ) ;
#24 = CARTESIAN_POINT ( 'NONE',  ( -14.00000000000000000, 0.3339745962155616366, -2.999999999999999556 ) ) ;
#25 = ORIENTED_EDGE ( 'NONE', *, *, #548, .F. ) ;
#26 = EDGE_CURVE ( 'NONE', #257, #92, #998, .T. ) ;
#27 = CARTESIAN_POINT ( 'NONE',  ( -7.000000000000000888, -2.000000000000000444, 3.000000000000000000 ) ) ;
#28 = VERTEX_POINT ( 'NONE', #291 ) ;
#29 = VERTEX_POINT ( 'NONE', #386 ) ;
#30 = VECTOR ( 'NONE', #468, 1000.000000000000000 ) ;
#31 = DIRECTION ( 'NONE',  ( 1.772003075187619659E-16, 1.000000000000000000, -0.000000000000000000 ) ) ;
#32 = VECTOR ( 'NONE', #296, 1000.000000000000000 ) ;
#33 = VECTOR ( 'NONE', #779, 1000.000000000000000 ) ;
#34 = AXIS2_PLACEMENT_3D ( 'NONE', #262, #741, #815 ) ;
#35 = ORIENTED_EDGE ( 'NONE', *, *, #336, .F. ) ;
#36 = ORIENTED_EDGE ( 'NONE', *, *, #76, .T. ) ;
#37 = EDGE_CURVE ( 'NONE', #988, #259, #351, .T. ) ;
#38 = LINE ( 'NONE', #136, #132 ) ;
#39 = ORIENTED_EDGE ( 'NONE', *, *, #787, .T. ) ;
#40 = LINE ( 'NONE', #381, #426 ) ;
#41 = LINE ( 'NONE', #290, #217 ) ;
#42 = PLANE ( 'NONE',  #88 ) ;
#43 = EDGE_CURVE ( 'NONE', #517, #432, #687, .T. ) ;
#44 = CARTESIAN_POINT ( 'NONE',  ( -9.000000000000001776, -5.000000000000000888, 3.000000000000000000 ) ) ;
#45 = ORIENTED_EDGE ( 'NONE', *, *, #43, .T. ) ;
#46 = FACE_OUTER_BOUND ( 'NONE', #823, .T. ) ;
#47 = CARTESIAN_POINT ( 'NONE',  ( -2.399999999999999911, -2.299999999999999822, -3.000000000000000000 ) ) ;
#48 = DIRECTION ( 'NONE',  ( 0.000000000000000000, 0.000000000000000000, 1.000000000000000000 ) ) ;
#49 = AXIS2_PLACEMENT_3D ( 'NONE', #831, #915, #608 ) ;
#50 = VECTOR ( 'NONE', #332, 1000.000000000000000 ) ;
#51 = CYLINDRICAL_SURFACE ( 'NONE', #543, 0.5000000000000000000 ) ;
#52 = ORIENTED_EDGE ( 'NONE', *, *, #645, .F. ) ;
#53 = CARTESIAN_POINT ( 'NONE',  ( 6.000000000000000000, 0.4999999999999994449, -3.000000000000000000 ) ) ;
#54 = DIRECTION ( 'NONE',  ( 0.000000000000000000, 0.000000000000000000, -1.000000000000000000 ) ) ;
#55 = ORIENTED_EDGE ( 'NONE', *, *, #979, .T. ) ;
#56 = DIRECTION ( 'NONE',  ( 0.000000000000000000, 0.000000000000000000, -1.000000000000000000 ) ) ;
#57 = EDGE_CURVE ( 'NONE', #274, #270, #842, .T. ) ;
#58 = DIRECTION ( 'NONE',  ( 0.000000000000000000, 0.000000000000000000, -1.000000000000000000 ) ) ;
#59 = CARTESIAN_POINT ( 'NONE',  ( 0.000000000000000000, 0.000000000000000000, -3.000000000000000000 ) ) ;
#60 = DIRECTION ( 'NONE',  ( -0.000000000000000000, -0.000000000000000000, 1.000000000000000000 ) ) ;
#61 = VERTEX_POINT ( 'NONE', #698 ) ;
#62 = DIRECTION ( 'NONE',  ( -0.000000000000000000, -0.000000000000000000, 1.000000000000000000 ) ) ;
#63 = LINE ( 'NONE', #702, #50 ) ;
#64 = AXIS2_PLACEMENT_3D ( 'NONE', #844, #1000, #130 ) ;
#65 = DIRECTION ( 'NONE',  ( -0.000000000000000000, -0.000000000000000000, 1.000000000000000000 ) ) ;
#66 = AXIS2_PLACEMENT_3D ( 'NONE', #583, #971, #124 ) ;
#67 = ORIENTED_EDGE ( 'NONE', *, *, #69, .T. ) ;
#68 = LINE ( 'NONE', #945, #354 ) ;
#69 = EDGE_CURVE ( 'NONE', #557, #832, #929, .T. ) ;
#70 = DIRECTION ( 'NONE',  ( 0.000000000000000000, 0.000000000000000000, 1.000000000000000000 ) ) ;
#71 = CYLINDRICAL_SURFACE ( 'NONE', #492, 0.9999999999999995559 ) ;
#72 = ORIENTED_EDGE ( 'NONE', *, *, #645, .T. ) ;
#73 = DIRECTION ( 'NONE',  ( -1.000000000000000000, 0.000000000000000000, 0.000000000000000000 ) ) ;
#74 = COORDINATED_UNIVERSAL_TIME_OFFSET ( 1, 0, .AHEAD. ) ;
#75 = DIRECTION ( 'NONE',  ( 0.000000000000000000, 0.000000000000000000, -1.000000000000000000 ) ) ;
#76 = EDGE_CURVE ( 'NONE', #259, #1006, #601, .T. ) ;
#77 = CYLINDRICAL_SURFACE ( 'NONE', #620, 0.5000000000000004441 ) ;
#78 = DIRECTION ( 'NONE',  ( 0.000000000000000000, 0.000000000000000000, -1.000000000000000000 ) ) ;
#79 = ORIENTED_EDGE ( 'NONE', *, *, #708, .T. ) ;
#80 = DESIGN_CONTEXT ( 'detailed design', #957, 'design' ) ;
#81 = CARTESIAN_POINT ( 'NONE',  ( -6.000000000000000000, -6.379211070675434126E-16, 3.000000000000000000 ) ) ;
#82 = FACE_OUTER_BOUND ( 'NONE', #667, .T. ) ;
#83 = AXIS2_PLACEMENT_3D ( 'NONE', #81, #155, #462 ) ;
#84 = ORIENTED_EDGE ( 'NONE', *, *, #689, .F. ) ;
#85 = EDGE_CURVE ( 'NONE', #838, #506, #777, .T. ) ;
#86 = CIRCLE ( 'NONE', #965, 0.5000000000000000000 ) ;
#87 = PERSON_AND_ORGANIZATION_ROLE ( 'design_supplier' ) ;
#88 = AXIS2_PLACEMENT_3D ( 'NONE', #196, #192, #598 ) ;
#89 = CARTESIAN_POINT ( 'NONE',  ( -12.49888930010696875, -2.400000000000001243, -3.000000000000000000 ) ) ;
#90 = CYLINDRICAL_SURFACE ( 'NONE', #353, 0.9999999999999991118 ) ;
#91 = CARTESIAN_POINT ( 'NONE',  ( -2.400000000000000355, -0.6840402866513447533, -3.000000000000000000 ) ) ;
#92 = VERTEX_POINT ( 'NONE', #987 ) ;
#93 = DATE_TIME_ROLE ( 'creation_date' ) ;
#94 = ADVANCED_FACE ( 'NONE', ( #616 ), #994, .T. ) ;
#95 = CARTESIAN_POINT ( 'NONE',  ( 1.899999999999999689, -2.299999999999999822, -3.000000000000000000 ) ) ;
#96 = ORIENTED_EDGE ( 'NONE', *, *, #1, .F. ) ;
#97 = ORIENTED_EDGE ( 'NONE', *, *, #14, .T. ) ;
#98 = CARTESIAN_POINT ( 'NONE',  ( 1.900000000000000133, -2.799999999999999822, 3.000000000000000000 ) ) ;
#99 = CARTESIAN_POINT ( 'NONE',  ( -13.50000000000000000, 2.499999999999999556, 3.000000000000000000 ) ) ;
#100 = ORIENTED_EDGE ( 'NONE', *, *, #628, .T. ) ;
#101 = ORIENTED_EDGE ( 'NONE', *, *, #649, .F. ) ;
#102 = AXIS2_PLACEMENT_3D ( 'NONE', #377, #774, #713 ) ;
#103 = CC_DESIGN_APPROVAL ( #344, ( #204 ) ) ;
#104 = CARTESIAN_POINT ( 'NONE',  ( 4.279385241571813658, -1.444447458290426890E-31, 3.000000000000000000 ) ) ;
#105 = ADVANCED_FACE ( 'NONE', ( #366 ), #51, .T. ) ;
#106 = EDGE_LOOP ( 'NONE', ( #67, #699, #393, #499 ) ) ;
#107 = ORIENTED_EDGE ( 'NONE', *, *, #417, .F. ) ;
#108 = EDGE_CURVE ( 'NONE', #710, #181, #763, .T. ) ;
#109 = ORIENTED_EDGE ( 'NONE', *, *, #767, .F. ) ;
#110 = ORIENTED_EDGE ( 'NONE', *, *, #309, .T. ) ;
#111 = FACE_OUTER_BOUND ( 'NONE', #609, .T. ) ;
#112 = ORIENTED_EDGE ( 'NONE', *, *, #434, .T. ) ;
#113 = VECTOR ( 'NONE', #450, 1000.000000000000000 ) ;
#114 = ORIENTED_EDGE ( 'NONE', *, *, #917, .F. ) ;
#115 = EDGE_CURVE ( 'NONE', #329, #536, #865, .T. ) ;
#116 = AXIS2_PLACEMENT_3D ( 'NONE', #208, #1001, #533 ) ;
#117 = AXIS2_PLACEMENT_3D ( 'NONE', #27, #428, #976 ) ;
#118 = DIRECTION ( 'NONE',  ( -0.000000000000000000, -0.000000000000000000, 1.000000000000000000 ) ) ;
#119 = DIRECTION ( 'NONE',  ( 0.000000000000000000, 0.000000000000000000, 1.000000000000000000 ) ) ;
#120 = VERTEX_POINT ( 'NONE', #440 ) ;
#121 = DIRECTION ( 'NONE',  ( 0.000000000000000000, -0.000000000000000000, 1.000000000000000000 ) ) ;
#122 = CARTESIAN_POINT ( 'NONE',  ( -9.000000000000001776, -2.000000000000000888, -2.999999999999999556 ) ) ;
#123 = EDGE_CURVE ( 'NONE', #243, #359, #281, .T. ) ;
#124 = DIRECTION ( 'NONE',  ( -1.000000000000000000, 0.000000000000000000, 0.000000000000000000 ) ) ;
#125 = CARTESIAN_POINT ( 'NONE',  ( 6.000000000000000000, 2.499999999999999556, 3.000000000000000000 ) ) ;
#126 = ORIENTED_EDGE ( 'NONE', *, *, #37, .T. ) ;
#127 = CARTESIAN_POINT ( 'NONE',  ( 6.000000000000000000, -6.379211070675434126E-16, -3.000000000000000000 ) ) ;
#128 = CARTESIAN_POINT ( 'NONE',  ( 5.500000000000000000, 0.4999999999999994449, -3.000000000000000000 ) ) ;
#129 = DIRECTION ( 'NONE',  ( 1.000000000000000000, -1.772003075187619659E-16, -0.000000000000000000 ) ) ;
#130 = DIRECTION ( 'NONE',  ( -1.000000000000000000, 0.000000000000000000, 0.000000000000000000 ) ) ;
#131 = LINE ( 'NONE', #775, #389 ) ;
#132 = VECTOR ( 'NONE', #277, 1000.000000000000000 ) ;
#133 = VECTOR ( 'NONE', #483, 1000.000000000000000 ) ;
#134 = CIRCLE ( 'NONE', #116, 0.9999999999999991118 ) ;
#135 = EDGE_CURVE ( 'NONE', #226, #315, #837, .T. ) ;
#136 = CARTESIAN_POINT ( 'NONE',  ( -9.000000000000001776, -2.000000000000000888, 3.000000000000000000 ) ) ;
#137 = ORIENTED_EDGE ( 'NONE', *, *, #926, .T. ) ;
#138 = DIRECTION ( 'NONE',  ( -0.5000000000000012212, 0.8660254037844380415, -0.000000000000000000 ) ) ;
#139 = CARTESIAN_POINT ( 'NONE',  ( 6.000000000000000000, 0.4999999999999994449, 3.000000000000000000 ) ) ;
#140 = DIRECTION ( 'NONE',  ( 0.000000000000000000, 0.000000000000000000, -1.000000000000000000 ) ) ;
#141 = DIRECTION ( 'NONE',  ( 0.000000000000000000, 1.000000000000000000, 0.000000000000000000 ) ) ;
#142 = EDGE_CURVE ( 'NONE', #209, #315, #495, .T. ) ;
#143 = EDGE_LOOP ( 'NONE', ( #439, #437 ) ) ;
#144 = CARTESIAN_POINT ( 'NONE',  ( -9.500000000000001776, -4.500000000000001776, -3.000000000000000000 ) ) ;
#145 = CARTESIAN_POINT ( 'NONE',  ( -9.000000000000001776, -2.000000000000000888, 3.000000000000000000 ) ) ;
#146 = ORIENTED_EDGE ( 'NONE', *, *, #534, .T. ) ;
#147 = ADVANCED_FACE ( 'NONE', ( #82 ), #1029, .T. ) ;
#148 = FACE_OUTER_BOUND ( 'NONE', #106, .T. ) ;
#149 = CIRCLE ( 'NONE', #285, 0.9999999999999991118 ) ;
#150 = CARTESIAN_POINT ( 'NONE',  ( -13.13397459621556251, -5.000000000000001776, -2.999999999999999556 ) ) ;
#151 = ORIENTED_EDGE ( 'NONE', *, *, #189, .F. ) ;
#152 = DIRECTION ( 'NONE',  ( -0.000000000000000000, -0.000000000000000000, 1.000000000000000000 ) ) ;
#153 = CALENDAR_DATE ( 2025, 3, 6 ) ;
#154 = EDGE_CURVE ( 'NONE', #778, #662, #563, .T. ) ;
#155 = DIRECTION ( 'NONE',  ( -1.772003075187619906E-16, 1.000000000000000000, 0.000000000000000000 ) ) ;
#156 = CARTESIAN_POINT ( 'NONE',  ( -3.339692620785907007, -0.3420201433256727097, 3.000000000000000000 ) ) ;
#157 = LINE ( 'NONE', #400, #436 ) ;
#158 = VERTEX_POINT ( 'NONE', #642 ) ;
#159 = CARTESIAN_POINT ( 'NONE',  ( 5.500000000000000000, 2.499999999999999556, 3.000000000000000000 ) ) ;
#160 = SHAPE_DEFINITION_REPRESENTATION ( #487, #21 ) ;
#161 = DIRECTION ( 'NONE',  ( -1.000000000000000000, 0.000000000000000000, -0.000000000000000000 ) ) ;
#162 = EDGE_CURVE ( 'NONE', #1006, #346, #491, .T. ) ;
#163 = CARTESIAN_POINT ( 'NONE',  ( -9.500000000000001776, -4.500000000000001776, 0.000000000000000000 ) ) ;
#164 = ORIENTED_EDGE ( 'NONE', *, *, #614, .T. ) ;
#165 = FACE_OUTER_BOUND ( 'NONE', #586, .T. ) ;
#166 = APPROVAL_ROLE ( '' ) ;
#167 = LINE ( 'NONE', #342, #603 ) ;
#168 = AXIS2_PLACEMENT_3D ( 'NONE', #788, #877, #70 ) ;
#169 = CYLINDRICAL_SURFACE ( 'NONE', #617, 0.5000000000000004441 ) ;
#170 = ADVANCED_FACE ( 'NONE', ( #236 ), #169, .T. ) ;
#171 = VECTOR ( 'NONE', #121, 1000.000000000000000 ) ;
#172 = VECTOR ( 'NONE', #648, 1000.000000000000000 ) ;
#173 = ORIENTED_EDGE ( 'NONE', *, *, #231, .T. ) ;
#174 = AXIS2_PLACEMENT_3D ( 'NONE', #99, #419, #973 ) ;
#175 = LINE ( 'NONE', #98, #946 ) ;
#176 = EDGE_LOOP ( 'NONE', ( #367, #36, #907, #625 ) ) ;
#177 = VERTEX_POINT ( 'NONE', #723 ) ;
#178 = DATE_AND_TIME ( #153, #982 ) ;
#179 = CARTESIAN_POINT ( 'NONE',  ( 2.339692620785907451, -0.3420201433256727097, 3.000000000000000000 ) ) ;
#180 = ORIENTED_EDGE ( 'NONE', *, *, #559, .F. ) ;
#181 = VERTEX_POINT ( 'NONE', #145 ) ;
#182 = EDGE_CURVE ( 'NONE', #643, #832, #414, .T. ) ;
#183 = DIRECTION ( 'NONE',  ( -1.000000000000000000, 1.772003075187619659E-16, 0.000000000000000000 ) ) ;
#184 = EDGE_LOOP ( 'NONE', ( #952, #427, #996, #410 ) ) ;
#185 = AXIS2_PLACEMENT_3D ( 'NONE', #5, #574, #322 ) ;
#186 = EDGE_LOOP ( 'NONE', ( #324, #970, #447, #97 ) ) ;
#187 = CIRCLE ( 'NONE', #769, 2.000000000000000000 ) ;
#188 = LOCAL_TIME ( 11, 7, 35.00000000000000000, #416 ) ;
#189 = EDGE_CURVE ( 'NONE', #346, #988, #157, .T. ) ;
#190 = ORIENTED_EDGE ( 'NONE', *, *, #628, .F. ) ;
#191 = ORIENTED_EDGE ( 'NONE', *, *, #154, .F. ) ;
#192 = DIRECTION ( 'NONE',  ( 0.000000000000000000, -1.000000000000000000, 0.000000000000000000 ) ) ;
#193 = ADVANCED_FACE ( 'NONE', ( #936, #246 ), #556, .F. ) ;
#194 = ORIENTED_EDGE ( 'NONE', *, *, #289, .T. ) ;
#195 = EDGE_LOOP ( 'NONE', ( #1015, #292, #634, #191 ) ) ;
#196 = CARTESIAN_POINT ( 'NONE',  ( -6.000000000000000000, 2.999999999999999556, 3.000000000000000000 ) ) ;
#197 = CARTESIAN_POINT ( 'NONE',  ( -1.899999999999999689, -2.299999999999999822, 3.000000000000000000 ) ) ;
#198 = EDGE_CURVE ( 'NONE', #120, #732, #864, .T. ) ;
#199 = CIRCLE ( 'NONE', #423, 2.000000000000000000 ) ;
#200 = ORIENTED_EDGE ( 'NONE', *, *, #260, .F. ) ;
#201 = DIRECTION ( 'NONE',  ( 1.000000000000000000, 1.191190382581906851E-16, 0.000000000000000000 ) ) ;
#202 = VECTOR ( 'NONE', #530, 1000.000000000000000 ) ;
#203 = AXIS2_PLACEMENT_3D ( 'NONE', #694, #214, #201 ) ;
#204 = PRODUCT_DEFINITION_FORMATION_WITH_SPECIFIED_SOURCE ( 'ANY', '', #613, .NOT_KNOWN. ) ;
#205 = CARTESIAN_POINT ( 'NONE',  ( -13.93301270189221874, 0.08397459621556103981, -3.000000000000000000 ) ) ;
#206 = ORIENTED_EDGE ( 'NONE', *, *, #26, .T. ) ;
#207 = CARTESIAN_POINT ( 'NONE',  ( -1.899999999999999689, -2.799999999999999822, 3.000000000000000000 ) ) ;
#208 = CARTESIAN_POINT ( 'NONE',  ( 3.339692620785907007, -0.3420201433256727097, 3.000000000000000000 ) ) ;
#209 = VERTEX_POINT ( 'NONE', #224 ) ;
#210 = CARTESIAN_POINT ( 'NONE',  ( -2.400000000000000355, -0.6840402866513447533, 3.000000000000000000 ) ) ;
#211 = ADVANCED_FACE ( 'NONE', ( #474 ), #71, .F. ) ;
#212 = ORIENTED_EDGE ( 'NONE', *, *, #539, .F. ) ;
#213 = ORIENTED_EDGE ( 'NONE', *, *, #743, .F. ) ;
#214 = DIRECTION ( 'NONE',  ( 1.191190382581906851E-16, -1.000000000000000000, 0.000000000000000000 ) ) ;
#215 = CARTESIAN_POINT ( 'NONE',  ( -2.399999999999999911, -2.299999999999999822, 3.000000000000000000 ) ) ;
#216 = EDGE_CURVE ( 'NONE', #710, #838, #808, .T. ) ;
#217 = VECTOR ( 'NONE', #62, 1000.000000000000000 ) ;
#218 = CARTESIAN_POINT ( 'NONE',  ( -13.50000000000000000, 0.3339745962155618586, 3.000000000000000000 ) ) ;
#219 = CIRCLE ( 'NONE', #34, 0.5000000000000000000 ) ;
#220 = CARTESIAN_POINT ( 'NONE',  ( -7.000000000000000888, -2.000000000000000444, -3.000000000000000000 ) ) ;
#221 = EDGE_LOOP ( 'NONE', ( #345, #754, #107, #866 ) ) ;
#222 = LINE ( 'NONE', #760, #33 ) ;
#223 = CYLINDRICAL_SURFACE ( 'NONE', #669, 0.9999999999999995559 ) ;
#224 = CARTESIAN_POINT ( 'NONE',  ( 6.000000000000000000, 0.4999999999999994449, 3.000000000000000000 ) ) ;
#225 = ADVANCED_FACE ( 'NONE', ( #646 ), #90, .F. ) ;
#226 = VERTEX_POINT ( 'NONE', #624 ) ;
#227 = LINE ( 'NONE', #139, #589 ) ;
#228 = DIRECTION ( 'NONE',  ( -0.000000000000000000, -0.000000000000000000, -1.000000000000000000 ) ) ;
#229 = DIRECTION ( 'NONE',  ( -1.000000000000000000, 0.000000000000000000, 0.000000000000000000 ) ) ;
#230 = ORIENTED_EDGE ( 'NONE', *, *, #701, .F. ) ;
#231 = EDGE_CURVE ( 'NONE', #590, #541, #552, .T. ) ;
#232 = CALENDAR_DATE ( 2025, 3, 6 ) ;
#233 = FACE_OUTER_BOUND ( 'NONE', #592, .T. ) ;
#234 = AXIS2_PLACEMENT_3D ( 'NONE', #949, #140, #859 ) ;
#235 = VECTOR ( 'NONE', #711, 1000.000000000000000 ) ;
#236 = FACE_OUTER_BOUND ( 'NONE', #693, .T. ) ;
#237 = AXIS2_PLACEMENT_3D ( 'NONE', #544, #48, #371 ) ;
#238 = EDGE_LOOP ( 'NONE', ( #975, #578, #795, #339 ) ) ;
#239 = CARTESIAN_POINT ( 'NONE',  ( -6.000000000000000000, 2.999999999999999556, 3.000000000000000000 ) ) ;
#240 = PERSON_AND_ORGANIZATION ( #818, #512 ) ;
#241 = CARTESIAN_POINT ( 'NONE',  ( 2.339692620785907451, -0.3420201433256727097, 3.000000000000000000 ) ) ;
#242 = DIRECTION ( 'NONE',  ( -0.000000000000000000, -0.000000000000000000, -1.000000000000000000 ) ) ;
#243 = VERTEX_POINT ( 'NONE', #486 ) ;
#244 = DIRECTION ( 'NONE',  ( -1.000000000000000000, 0.000000000000000000, 0.000000000000000000 ) ) ;
#245 = EDGE_CURVE ( 'NONE', #469, #518, #798, .T. ) ;
#246 = FACE_OUTER_BOUND ( 'NONE', #715, .T. ) ;
#247 = ORIENTED_EDGE ( 'NONE', *, *, #588, .F. ) ;
#248 = DIRECTION ( 'NONE',  ( 0.000000000000000000, 0.000000000000000000, -1.000000000000000000 ) ) ;
#249 = COORDINATED_UNIVERSAL_TIME_OFFSET ( 1, 0, .AHEAD. ) ;
#250 = DIRECTION ( 'NONE',  ( 1.000000000000000000, 1.772003075187619906E-16, 0.000000000000000000 ) ) ;
#251 = CYLINDRICAL_SURFACE ( 'NONE', #496, 0.5000000000000004441 ) ;
#252 = VECTOR ( 'NONE', #379, 1000.000000000000000 ) ;
#253 = CARTESIAN_POINT ( 'NONE',  ( -6.000000000000000000, 2.999999999999999556, -3.000000000000000000 ) ) ;
#254 = AXIS2_PLACEMENT_3D ( 'NONE', #19, #959, #327 ) ;
#255 = CYLINDRICAL_SURFACE ( 'NONE', #545, 0.5000000000000000000 ) ;
#256 = LOCAL_TIME ( 11, 7, 35.00000000000000000, #947 ) ;
#257 = VERTEX_POINT ( 'NONE', #10 ) ;
#258 = APPROVAL_ROLE ( '' ) ;
#259 = VERTEX_POINT ( 'NONE', #650 ) ;
#260 = EDGE_CURVE ( 'NONE', #518, #177, #961, .T. ) ;
#261 = ORIENTED_EDGE ( 'NONE', *, *, #401, .F. ) ;
#262 = CARTESIAN_POINT ( 'NONE',  ( -1.899999999999999689, -2.299999999999999822, -3.000000000000000000 ) ) ;
#263 = CARTESIAN_POINT ( 'NONE',  ( 3.339692620785907007, -0.3420201433256727097, -3.000000000000000000 ) ) ;
#264 = VERTEX_POINT ( 'NONE', #333 ) ;
#265 = VERTEX_POINT ( 'NONE', #854 ) ;
#266 = EDGE_CURVE ( 'NONE', #541, #521, #615, .T. ) ;
#267 = DIRECTION ( 'NONE',  ( 0.000000000000000000, 0.000000000000000000, 1.000000000000000000 ) ) ;
#268 = VERTEX_POINT ( 'NONE', #793 ) ;
#269 = AXIS2_PLACEMENT_3D ( 'NONE', #682, #141, #119 ) ;
#270 = VERTEX_POINT ( 'NONE', #555 ) ;
#271 = AXIS2_PLACEMENT_3D ( 'NONE', #956, #152, #244 ) ;
#272 = LOCAL_TIME ( 11, 7, 35.00000000000000000, #404 ) ;
#273 = EDGE_CURVE ( 'NONE', #92, #177, #425, .T. ) ;
#274 = VERTEX_POINT ( 'NONE', #934 ) ;
#275 = ORIENTED_EDGE ( 'NONE', *, *, #76, .F. ) ;
#276 = ADVANCED_FACE ( 'NONE', ( #233 ), #561, .F. ) ;
#277 = DIRECTION ( 'NONE',  ( 0.000000000000000000, 0.000000000000000000, 1.000000000000000000 ) ) ;
#278 = ORIENTED_EDGE ( 'NONE', *, *, #37, .F. ) ;
#279 = CYLINDRICAL_SURFACE ( 'NONE', #1013, 0.5000000000000004441 ) ;
#280 = DIRECTION ( 'NONE',  ( -1.000000000000000000, 0.000000000000000000, 0.000000000000000000 ) ) ;
#281 = LINE ( 'NONE', #205, #202 ) ;
#282 = EDGE_LOOP ( 'NONE', ( #579, #647, #173, #415 ) ) ;
#283 = LINE ( 'NONE', #765, #494 ) ;
#284 = CARTESIAN_POINT ( 'NONE',  ( -14.00000000000000000, -5.000000000000001776, -2.999999999999999556 ) ) ;
#285 = AXIS2_PLACEMENT_3D ( 'NONE', #156, #56, #448 ) ;
#286 = CARTESIAN_POINT ( 'NONE',  ( -13.50000000000000000, 2.499999999999999556, 0.000000000000000000 ) ) ;
#287 = DIRECTION ( 'NONE',  ( -0.000000000000000000, -0.000000000000000000, 1.000000000000000000 ) ) ;
#288 = ORIENTED_EDGE ( 'NONE', *, *, #756, .T. ) ;
#289 = EDGE_CURVE ( 'NONE', #832, #590, #901, .T. ) ;
#290 = CARTESIAN_POINT ( 'NONE',  ( -13.50000000000000000, 2.999999999999999556, 3.000000000000000000 ) ) ;
#291 = CARTESIAN_POINT ( 'NONE',  ( -2.400000000000000355, -0.6840402866513447533, 3.000000000000000000 ) ) ;
#292 = ORIENTED_EDGE ( 'NONE', *, *, #266, .F. ) ;
#293 = DIRECTION ( 'NONE',  ( 0.000000000000000000, 0.000000000000000000, -1.000000000000000000 ) ) ;
#294 = ADVANCED_FACE ( 'NONE', ( #398 ), #313, .T. ) ;
#295 = APPLICATION_PROTOCOL_DEFINITION ( 'international standard', 'config_control_design', 1994, #326 ) ;
#296 = DIRECTION ( 'NONE',  ( -0.000000000000000000, -0.000000000000000000, -1.000000000000000000 ) ) ;
#297 = CARTESIAN_POINT ( 'NONE',  ( 1.900000000000000133, -2.799999999999999822, -3.000000000000000000 ) ) ;
#298 = ORIENTED_EDGE ( 'NONE', *, *, #289, .F. ) ;
#299 = CYLINDRICAL_SURFACE ( 'NONE', #304, 1.250000000000000000 ) ;
#300 = VECTOR ( 'NONE', #919, 1000.000000000000000 ) ;
#301 = ADVANCED_FACE ( 'NONE', ( #148 ), #473, .F. ) ;
#302 = AXIS2_PLACEMENT_3D ( 'NONE', #286, #908, #515 ) ;
#303 = CARTESIAN_POINT ( 'NONE',  ( -13.50000000000000000, 2.499999999999999556, -3.000000000000000000 ) ) ;
#304 = AXIS2_PLACEMENT_3D ( 'NONE', #442, #619, #479 ) ;
#305 = DIRECTION ( 'NONE',  ( -0.000000000000000000, -0.000000000000000000, -1.000000000000000000 ) ) ;
#306 = EDGE_LOOP ( 'NONE', ( #513, #1030, #666, #349 ) ) ;
#307 = CARTESIAN_POINT ( 'NONE',  ( -12.49888930010696875, -2.400000000000001243, -3.000000000000000000 ) ) ;
#308 = DIRECTION ( 'NONE',  ( 0.000000000000000000, 0.000000000000000000, -1.000000000000000000 ) ) ;
#309 = EDGE_CURVE ( 'NONE', #61, #243, #406, .T. ) ;
#310 = DIRECTION ( 'NONE',  ( 0.000000000000000000, 0.000000000000000000, -1.000000000000000000 ) ) ;
#311 = ORIENTED_EDGE ( 'NONE', *, *, #767, .T. ) ;
#312 = DIRECTION ( 'NONE',  ( -0.000000000000000000, -0.000000000000000000, 1.000000000000000000 ) ) ;
#313 = PLANE ( 'NONE',  #454 ) ;
#314 = DIRECTION ( 'NONE',  ( -1.548860246407863583E-16, -1.000000000000000000, 0.000000000000000000 ) ) ;
#315 = VERTEX_POINT ( 'NONE', #1026 ) ;
#316 = DIRECTION ( 'NONE',  ( -1.000000000000000000, -1.548860246407863583E-16, 0.000000000000000000 ) ) ;
#317 = APPROVAL_STATUS ( 'not_yet_approved' ) ;
#318 = CARTESIAN_POINT ( 'NONE',  ( 2.400000000000000355, -0.6840402866513447533, 3.000000000000000000 ) ) ;
#319 = VECTOR ( 'NONE', #65, 1000.000000000000000 ) ;
#320 = CARTESIAN_POINT ( 'NONE',  ( -13.13397459621556251, -5.000000000000001776, -2.999999999999999556 ) ) ;
#321 = CIRCLE ( 'NONE', #408, 1.250000000000000000 ) ;
#322 = DIRECTION ( 'NONE',  ( 0.000000000000000000, -0.000000000000000000, 1.000000000000000000 ) ) ;
#323 = VECTOR ( 'NONE', #871, 999.9999999999998863 ) ;
#324 = ORIENTED_EDGE ( 'NONE', *, *, #708, .F. ) ;
#325 = EDGE_CURVE ( 'NONE', #17, #557, #385, .T. ) ;
#326 = APPLICATION_CONTEXT ( 'configuration controlled 3d designs of mechanical parts and assemblies' ) ;
#327 = DIRECTION ( 'NONE',  ( -1.000000000000000000, 0.000000000000000000, 0.000000000000000000 ) ) ;
#328 = CARTESIAN_POINT ( 'NONE',  ( 3.339692620785907007, -0.3420201433256727097, 3.000000000000000000 ) ) ;
#329 = VERTEX_POINT ( 'NONE', #395 ) ;
#330 = CARTESIAN_POINT ( 'NONE',  ( 2.399999999999999467, -1.444447458290426890E-31, -3.000000000000000000 ) ) ;
#331 = APPROVAL_STATUS ( 'not_yet_approved' ) ;
#332 = DIRECTION ( 'NONE',  ( -0.000000000000000000, -0.000000000000000000, -1.000000000000000000 ) ) ;
#333 = CARTESIAN_POINT ( 'NONE',  ( 2.399999999999999911, -2.299999999999999822, 3.000000000000000000 ) ) ;
#334 = CARTESIAN_POINT ( 'NONE',  ( 2.399999999999999467, -1.444447458290426890E-31, 3.000000000000000000 ) ) ;
#335 = ORIENTED_EDGE ( 'NONE', *, *, #986, .T. ) ;
#336 = EDGE_CURVE ( 'NONE', #265, #329, #707, .T. ) ;
#337 = VECTOR ( 'NONE', #242, 1000.000000000000000 ) ;
#338 = CIRCLE ( 'NONE', #670, 0.5000000000000004441 ) ;
#339 = ORIENTED_EDGE ( 'NONE', *, *, #245, .F. ) ;
#340 = SECURITY_CLASSIFICATION ( '', '', #413 ) ;
#341 = ORIENTED_EDGE ( 'NONE', *, *, #841, .F. ) ;
#342 = CARTESIAN_POINT ( 'NONE',  ( -6.000000000000000000, -6.379211070675434126E-16, 3.000000000000000000 ) ) ;
#343 = CARTESIAN_POINT ( 'NONE',  ( 2.399999999999999911, -2.299999999999999822, -3.000000000000000000 ) ) ;
#344 = APPROVAL ( #558, 'UNSPECIFIED' ) ;
#345 = ORIENTED_EDGE ( 'NONE', *, *, #717, .F. ) ;
#346 = VERTEX_POINT ( 'NONE', #1011 ) ;
#347 = DIRECTION ( 'NONE',  ( -1.000000000000000000, 0.000000000000000000, 0.000000000000000000 ) ) ;
#348 = CARTESIAN_POINT ( 'NONE',  ( 3.339692620785907007, -0.3420201433256727097, 3.000000000000000000 ) ) ;
#349 = ORIENTED_EDGE ( 'NONE', *, *, #477, .T. ) ;
#350 = ADVANCED_FACE ( 'NONE', ( #391 ), #223, .F. ) ;
#351 = CIRCLE ( 'NONE', #49, 0.9999999999999991118 ) ;
#352 = ORIENTED_EDGE ( 'NONE', *, *, #516, .T. ) ;
#353 = AXIS2_PLACEMENT_3D ( 'NONE', #951, #305, #569 ) ;
#354 = VECTOR ( 'NONE', #867, 1000.000000000000000 ) ;
#355 = EDGE_CURVE ( 'NONE', #675, #158, #478, .T. ) ;
#356 = CIRCLE ( 'NONE', #933, 0.5000000000000004441 ) ;
#357 = CARTESIAN_POINT ( 'NONE',  ( -12.78756443470178361, -2.900000000000002576, -3.000000000000000000 ) ) ;
#358 = DIRECTION ( 'NONE',  ( 0.000000000000000000, 1.000000000000000000, 0.000000000000000000 ) ) ;
#359 = VERTEX_POINT ( 'NONE', #551 ) ;
#360 = VERTEX_POINT ( 'NONE', #568 ) ;
#361 = DIRECTION ( 'NONE',  ( -1.000000000000000000, 0.000000000000000000, 0.000000000000000000 ) ) ;
#362 = ORIENTED_EDGE ( 'NONE', *, *, #85, .F. ) ;
#363 = LINE ( 'NONE', #127, #524 ) ;
#364 = DIRECTION ( 'NONE',  ( 0.000000000000000000, 1.000000000000000000, 0.000000000000000000 ) ) ;
#365 = ADVANCED_FACE ( 'NONE', ( #641 ), #1017, .F. ) ;
#366 = FACE_OUTER_BOUND ( 'NONE', #195, .T. ) ;
#367 = ORIENTED_EDGE ( 'NONE', *, *, #756, .F. ) ;
#368 = DIRECTION ( 'NONE',  ( 0.000000000000000000, 0.000000000000000000, -1.000000000000000000 ) ) ;
#369 = LINE ( 'NONE', #284, #850 ) ;
#370 = AXIS2_PLACEMENT_3D ( 'NONE', #144, #467, #781 ) ;
#371 = DIRECTION ( 'NONE',  ( 1.000000000000000000, 0.000000000000000000, 0.000000000000000000 ) ) ;
#372 = VECTOR ( 'NONE', #538, 1000.000000000000000 ) ;
#373 =( GEOMETRIC_REPRESENTATION_CONTEXT ( 3 ) GLOBAL_UNCERTAINTY_ASSIGNED_CONTEXT ( ( #734 ) ) GLOBAL_UNIT_ASSIGNED_CONTEXT ( ( #673, #660, #514 ) ) REPRESENTATION_CONTEXT ( 'NONE', 'WORKASPACE' ) );
#374 = CARTESIAN_POINT ( 'NONE',  ( 6.000000000000000000, -6.379211070675434126E-16, -3.000000000000000000 ) ) ;
#375 = EDGE_CURVE ( 'NONE', #421, #688, #938, .T. ) ;
#376 = ORIENTED_EDGE ( 'NONE', *, *, #388, .F. ) ;
#377 = CARTESIAN_POINT ( 'NONE',  ( 0.000000000000000000, -2.799999999999999822, 0.000000000000000000 ) ) ;
#378 = LINE ( 'NONE', #690, #930 ) ;
#379 = DIRECTION ( 'NONE',  ( -1.191190382581906605E-16, 1.000000000000000000, -0.000000000000000000 ) ) ;
#380 = EDGE_LOOP ( 'NONE', ( #458, #352, #230, #822 ) ) ;
#381 = CARTESIAN_POINT ( 'NONE',  ( -14.00000000000000000, 0.1999999999999996503, -3.000000000000000000 ) ) ;
#382 = CARTESIAN_POINT ( 'NONE',  ( 0.000000000000000000, 2.999999999999999556, 1.250000000000000000 ) ) ;
#383 = APPLICATION_PROTOCOL_DEFINITION ( 'international standard', 'config_control_design', 1994, #957 ) ;
#384 = EDGE_CURVE ( 'NONE', #838, #564, #816, .T. ) ;
#385 = LINE ( 'NONE', #697, #133 ) ;
#386 = CARTESIAN_POINT ( 'NONE',  ( 1.900000000000000133, -2.799999999999999822, 3.000000000000000000 ) ) ;
#387 = ORIENTED_EDGE ( 'NONE', *, *, #57, .F. ) ;
#388 = EDGE_CURVE ( 'NONE', #977, #274, #63, .T. ) ;
#389 = VECTOR ( 'NONE', #771, 999.9999999999998863 ) ;
#390 = CC_DESIGN_APPROVAL ( #846, ( #340 ) ) ;
#391 = FACE_OUTER_BOUND ( 'NONE', #739, .T. ) ;
#392 = DIRECTION ( 'NONE',  ( 0.000000000000000000, 0.000000000000000000, -1.000000000000000000 ) ) ;
#393 = ORIENTED_EDGE ( 'NONE', *, *, #445, .F. ) ;
#394 = PERSON_AND_ORGANIZATION_ROLE ( 'creator' ) ;
#395 = CARTESIAN_POINT ( 'NONE',  ( 1.530808498934191571E-16, 2.999999999999999556, -1.250000000000000000 ) ) ;
#396 = VERTEX_POINT ( 'NONE', #654 ) ;
#397 = CARTESIAN_POINT ( 'NONE',  ( 6.000000000000000000, -6.379211070675434126E-16, 3.000000000000000000 ) ) ;
#398 = FACE_OUTER_BOUND ( 'NONE', #684, .T. ) ;
#399 = CARTESIAN_POINT ( 'NONE',  ( -13.13397459621556251, -4.500000000000002665, 0.000000000000000000 ) ) ;
#400 = CARTESIAN_POINT ( 'NONE',  ( -12.78756443470178361, -2.900000000000002576, -3.000000000000000000 ) ) ;
#401 = EDGE_CURVE ( 'NONE', #268, #209, #638, .T. ) ;
#402 = ORIENTED_EDGE ( 'NONE', *, *, #108, .T. ) ;
#403 = PLANE ( 'NONE',  #18 ) ;
#404 = COORDINATED_UNIVERSAL_TIME_OFFSET ( 1, 0, .AHEAD. ) ;
#405 = CARTESIAN_POINT ( 'NONE',  ( -9.500000000000001776, -5.000000000000000888, 3.000000000000000000 ) ) ;
#406 = CIRCLE ( 'NONE', #560, 0.5000000000000004441 ) ;
#407 = CARTESIAN_POINT ( 'NONE',  ( -14.00000000000000000, 0.1999999999999996503, -3.000000000000000000 ) ) ;
#408 = AXIS2_PLACEMENT_3D ( 'NONE', #721, #418, #990 ) ;
#409 = DIRECTION ( 'NONE',  ( -1.000000000000000000, 0.000000000000000000, 0.000000000000000000 ) ) ;
#410 = ORIENTED_EDGE ( 'NONE', *, *, #979, .F. ) ;
#411 = ADVANCED_FACE ( 'NONE', ( #812 ), #279, .T. ) ;
#412 = CARTESIAN_POINT ( 'NONE',  ( -1.899999999999999689, -2.799999999999999822, -3.000000000000000000 ) ) ;
#413 = SECURITY_CLASSIFICATION_LEVEL ( 'unclassified' ) ;
#414 = LINE ( 'NONE', #1022, #1012 ) ;
#415 = ORIENTED_EDGE ( 'NONE', *, *, #266, .T. ) ;
#416 = COORDINATED_UNIVERSAL_TIME_OFFSET ( 1, 0, .AHEAD. ) ;
#417 = EDGE_CURVE ( 'NONE', #904, #12, #655, .T. ) ;
#418 = DIRECTION ( 'NONE',  ( 0.000000000000000000, 1.000000000000000000, 0.000000000000000000 ) ) ;
#419 = DIRECTION ( 'NONE',  ( -0.000000000000000000, -0.000000000000000000, 1.000000000000000000 ) ) ;
#420 = ORIENTED_EDGE ( 'NONE', *, *, #325, .F. ) ;
#421 = VERTEX_POINT ( 'NONE', #179 ) ;
#422 = EDGE_CURVE ( 'NONE', #359, #983, #3, .T. ) ;
#423 = AXIS2_PLACEMENT_3D ( 'NONE', #220, #287, #757 ) ;
#424 = DIRECTION ( 'NONE',  ( 0.8660254037844379305, 0.5000000000000012212, 0.000000000000000000 ) ) ;
#425 = CIRCLE ( 'NONE', #928, 0.5000000000000004441 ) ;
#426 = VECTOR ( 'NONE', #138, 999.9999999999998863 ) ;
#427 = ORIENTED_EDGE ( 'NONE', *, *, #336, .T. ) ;
#428 = DIRECTION ( 'NONE',  ( 0.000000000000000000, 0.000000000000000000, -1.000000000000000000 ) ) ;
#429 = PLANE ( 'NONE',  #887 ) ;
#430 = EDGE_LOOP ( 'NONE', ( #261, #931, #212, #857 ) ) ;
#431 = ORIENTED_EDGE ( 'NONE', *, *, #876, .F. ) ;
#432 = VERTEX_POINT ( 'NONE', #572 ) ;
#433 = EDGE_LOOP ( 'NONE', ( #39, #6, #671, #79, #985, #658, #164, #843, #747, #190, #110, #604, #1019, #341, #676, #753, #918, #402, #72, #827, #889, #984, #906, #651, #851 ) ) ;
#434 = EDGE_CURVE ( 'NONE', #12, #29, #175, .T. ) ;
#435 = ORIENTED_EDGE ( 'NONE', *, *, #142, .F. ) ;
#436 = VECTOR ( 'NONE', #714, 1000.000000000000000 ) ;
#437 = ORIENTED_EDGE ( 'NONE', *, *, #484, .T. ) ;
#438 = CIRCLE ( 'NONE', #868, 1.250000000000000000 ) ;
#439 = ORIENTED_EDGE ( 'NONE', *, *, #457, .T. ) ;
#440 = CARTESIAN_POINT ( 'NONE',  ( -13.13397459621556251, -5.000000000000001776, 3.000000000000000000 ) ) ;
#441 = ORIENTED_EDGE ( 'NONE', *, *, #154, .T. ) ;
#442 = CARTESIAN_POINT ( 'NONE',  ( 0.000000000000000000, -2.799999999999999822, 0.000000000000000000 ) ) ;
#443 = DIRECTION ( 'NONE',  ( 0.5000000000000012212, 0.8660254037844380415, -0.000000000000000000 ) ) ;
#444 = CYLINDRICAL_SURFACE ( 'NONE', #117, 2.000000000000000000 ) ;
#445 = EDGE_CURVE ( 'NONE', #17, #643, #167, .T. ) ;
#446 = DIRECTION ( 'NONE',  ( -0.000000000000000000, 0.000000000000000000, 1.000000000000000000 ) ) ;
#447 = ORIENTED_EDGE ( 'NONE', *, *, #57, .T. ) ;
#448 = DIRECTION ( 'NONE',  ( -1.000000000000000000, 0.000000000000000000, 0.000000000000000000 ) ) ;
#449 = ADVANCED_FACE ( 'NONE', ( #500 ), #911, .F. ) ;
#450 = DIRECTION ( 'NONE',  ( -1.191190382581906605E-16, 1.000000000000000000, -0.000000000000000000 ) ) ;
#451 = VERTEX_POINT ( 'NONE', #405 ) ;
#452 = CYLINDRICAL_SURFACE ( 'NONE', #102, 1.250000000000000000 ) ;
#453 = CARTESIAN_POINT ( 'NONE',  ( 5.500000000000000000, 2.999999999999999556, 3.000000000000000000 ) ) ;
#454 = AXIS2_PLACEMENT_3D ( 'NONE', #59, #308, #161 ) ;
#455 = CIRCLE ( 'NONE', #528, 1.250000000000000000 ) ;
#456 = CARTESIAN_POINT ( 'NONE',  ( 5.500000000000000000, -5.493209533081623064E-16, 3.000000000000000000 ) ) ;
#457 = EDGE_CURVE ( 'NONE', #360, #265, #321, .T. ) ;
#458 = ORIENTED_EDGE ( 'NONE', *, *, #260, .T. ) ;
#459 = DIRECTION ( 'NONE',  ( 1.000000000000000000, 0.000000000000000000, 0.000000000000000000 ) ) ;
#460 = CARTESIAN_POINT ( 'NONE',  ( -7.000000000000000888, -8.151214145863055265E-16, -3.000000000000000000 ) ) ;
#461 = PERSON_AND_ORGANIZATION_ROLE ( 'design_owner' ) ;
#462 = DIRECTION ( 'NONE',  ( -1.000000000000000000, -1.772003075187619906E-16, 0.000000000000000000 ) ) ;
#463 = CARTESIAN_POINT ( 'NONE',  ( -13.56698729810778126, -4.250000000000002665, 3.000000000000000000 ) ) ;
#464 = ORIENTED_EDGE ( 'NONE', *, *, #780, .F. ) ;
#465 = EDGE_CURVE ( 'NONE', #675, #421, #134, .T. ) ;
#466 = DIRECTION ( 'NONE',  ( 0.000000000000000000, 0.000000000000000000, 1.000000000000000000 ) ) ;
#467 = DIRECTION ( 'NONE',  ( 0.000000000000000000, 0.000000000000000000, -1.000000000000000000 ) ) ;
#468 = DIRECTION ( 'NONE',  ( 0.000000000000000000, 0.000000000000000000, -1.000000000000000000 ) ) ;
#469 = VERTEX_POINT ( 'NONE', #453 ) ;
#470 = DIRECTION ( 'NONE',  ( 0.000000000000000000, 0.000000000000000000, -1.000000000000000000 ) ) ;
#471 = AXIS2_PLACEMENT_3D ( 'NONE', #476, #248, #705 ) ;
#472 = APPROVAL_PERSON_ORGANIZATION ( #482, #344, #258 ) ;
#473 = PLANE ( 'NONE',  #83 ) ;
#474 = FACE_OUTER_BOUND ( 'NONE', #770, .T. ) ;
#475 = ORIENTED_EDGE ( 'NONE', *, *, #498, .T. ) ;
#476 = CARTESIAN_POINT ( 'NONE',  ( -13.13397459621556251, -4.500000000000002665, -3.000000000000000000 ) ) ;
#477 = EDGE_CURVE ( 'NONE', #564, #451, #222, .T. ) ;
#478 = LINE ( 'NONE', #318, #803 ) ;
#479 = DIRECTION ( 'NONE',  ( 0.000000000000000000, 0.000000000000000000, 1.000000000000000000 ) ) ;
#480 = ORIENTED_EDGE ( 'NONE', *, *, #216, .F. ) ;
#481 = DIRECTION ( 'NONE',  ( -1.000000000000000000, 0.000000000000000000, 0.000000000000000000 ) ) ;
#482 = PERSON_AND_ORGANIZATION ( #818, #512 ) ;
#483 = DIRECTION ( 'NONE',  ( -0.000000000000000000, 0.000000000000000000, -1.000000000000000000 ) ) ;
#484 = EDGE_CURVE ( 'NONE', #265, #360, #438, .T. ) ;
#485 = PLANE ( 'NONE',  #546 ) ;
#486 = CARTESIAN_POINT ( 'NONE',  ( -13.93301270189221874, 0.08397459621556108145, 3.000000000000000000 ) ) ;
#487 = PRODUCT_DEFINITION_SHAPE ( 'NONE', 'NONE',  #503 ) ;
#488 = ORIENTED_EDGE ( 'NONE', *, *, #355, .T. ) ;
#489 = CARTESIAN_POINT ( 'NONE',  ( -4.279385241571813658, -1.444447458290426890E-31, 3.000000000000000000 ) ) ;
#490 = VECTOR ( 'NONE', #446, 1000.000000000000000 ) ;
#491 = CIRCLE ( 'NONE', #653, 0.9999999999999991118 ) ;
#492 = AXIS2_PLACEMENT_3D ( 'NONE', #328, #1018, #1014 ) ;
#493 = CARTESIAN_POINT ( 'NONE',  ( 5.500000000000000000, 0.4999999999999994449, 3.000000000000000000 ) ) ;
#494 = VECTOR ( 'NONE', #459, 1000.000000000000000 ) ;
#495 = LINE ( 'NONE', #879, #885 ) ;
#496 = AXIS2_PLACEMENT_3D ( 'NONE', #493, #661, #807 ) ;
#497 = LINE ( 'NONE', #11, #913 ) ;
#498 = EDGE_CURVE ( 'NONE', #209, #744, #227, .T. ) ;
#499 = ORIENTED_EDGE ( 'NONE', *, *, #325, .T. ) ;
#500 = FACE_OUTER_BOUND ( 'NONE', #282, .T. ) ;
#501 = ORIENTED_EDGE ( 'NONE', *, *, #465, .F. ) ;
#502 = ORIENTED_EDGE ( 'NONE', *, *, #516, .F. ) ;
#503 = PRODUCT_DEFINITION ( 'UNKNOWN', '', #204, #80 ) ;
#504 = CARTESIAN_POINT ( 'NONE',  ( -2.399999999999999467, -7.222237291452134449E-32, 3.000000000000000000 ) ) ;
#505 = ORIENTED_EDGE ( 'NONE', *, *, #273, .T. ) ;
#506 = VERTEX_POINT ( 'NONE', #122 ) ;
#507 = DIRECTION ( 'NONE',  ( -0.000000000000000000, 1.000000000000000000, -0.000000000000000000 ) ) ;
#508 = CARTESIAN_POINT ( 'NONE',  ( 5.500000000000000000, 2.499999999999999556, 3.000000000000000000 ) ) ;
#509 = AXIS2_PLACEMENT_3D ( 'NONE', #163, #955, #229 ) ;
#510 = CIRCLE ( 'NONE', #621, 0.5000000000000004441 ) ;
#511 = ORIENTED_EDGE ( 'NONE', *, *, #787, .F. ) ;
#512 = ORGANIZATION ( 'UNSPECIFIED', 'UNSPECIFIED', '' ) ;
#513 = ORIENTED_EDGE ( 'NONE', *, *, #527, .T. ) ;
#514 =( NAMED_UNIT ( * ) SI_UNIT ( $, .STERADIAN. ) SOLID_ANGLE_UNIT ( ) );
#515 = DIRECTION ( 'NONE',  ( 1.000000000000000000, 0.000000000000000000, 0.000000000000000000 ) ) ;
#516 = EDGE_CURVE ( 'NONE', #177, #396, #41, .T. ) ;
#517 = VERTEX_POINT ( 'NONE', #700 ) ;
#518 = VERTEX_POINT ( 'NONE', #607 ) ;
#519 = CARTESIAN_POINT ( 'NONE',  ( 5.500000000000000000, 2.499999999999999556, -3.000000000000000000 ) ) ;
#520 = ORIENTED_EDGE ( 'NONE', *, *, #422, .T. ) ;
#521 = VERTEX_POINT ( 'NONE', #215 ) ;
#522 = FACE_OUTER_BOUND ( 'NONE', #606, .T. ) ;
#523 = LINE ( 'NONE', #456, #802 ) ;
#524 = VECTOR ( 'NONE', #537, 1000.000000000000000 ) ;
#525 = ORIENTED_EDGE ( 'NONE', *, *, #841, .T. ) ;
#526 = LINE ( 'NONE', #932, #323 ) ;
#527 = EDGE_CURVE ( 'NONE', #451, #120, #1016, .T. ) ;
#528 = AXIS2_PLACEMENT_3D ( 'NONE', #680, #358, #267 ) ;
#529 = DIRECTION ( 'NONE',  ( 1.000000000000000000, -1.548860246407863583E-16, 0.000000000000000000 ) ) ;
#530 = DIRECTION ( 'NONE',  ( 0.000000000000000000, -0.000000000000000000, -1.000000000000000000 ) ) ;
#531 = EDGE_LOOP ( 'NONE', ( #525, #937, #916, #45 ) ) ;
#532 = CARTESIAN_POINT ( 'NONE',  ( 3.339692620785907007, -0.3420201433256727097, -3.000000000000000000 ) ) ;
#533 = DIRECTION ( 'NONE',  ( 1.000000000000000000, 0.000000000000000000, 0.000000000000000000 ) ) ;
#534 = EDGE_CURVE ( 'NONE', #517, #988, #853, .T. ) ;
#535 = DIRECTION ( 'NONE',  ( 0.000000000000000000, 0.000000000000000000, -1.000000000000000000 ) ) ;
#536 = VERTEX_POINT ( 'NONE', #382 ) ;
#537 = DIRECTION ( 'NONE',  ( 0.000000000000000000, 1.000000000000000000, 0.000000000000000000 ) ) ;
#538 = DIRECTION ( 'NONE',  ( -0.000000000000000000, -0.000000000000000000, -1.000000000000000000 ) ) ;
#539 = EDGE_CURVE ( 'NONE', #744, #270, #338, .T. ) ;
#540 = VECTOR ( 'NONE', #595, 1000.000000000000000 ) ;
#541 = VERTEX_POINT ( 'NONE', #47 ) ;
#542 = CARTESIAN_POINT ( 'NONE',  ( 2.399999999999999467, -1.444447458290426890E-31, 3.000000000000000000 ) ) ;
#543 = AXIS2_PLACEMENT_3D ( 'NONE', #197, #54, #361 ) ;
#544 = CARTESIAN_POINT ( 'NONE',  ( 0.000000000000000000, 0.000000000000000000, 0.000000000000000000 ) ) ;
#545 = AXIS2_PLACEMENT_3D ( 'NONE', #863, #940, #565 ) ;
#546 = AXIS2_PLACEMENT_3D ( 'NONE', #89, #20, #585 ) ;
#547 = DIRECTION ( 'NONE',  ( -0.000000000000000000, -0.000000000000000000, -1.000000000000000000 ) ) ;
#548 = EDGE_CURVE ( 'NONE', #732, #564, #369, .T. ) ;
#549 = CARTESIAN_POINT ( 'NONE',  ( -6.000000000000000000, -6.379211070675434126E-16, -3.000000000000000000 ) ) ;
#550 = DIRECTION ( 'NONE',  ( 1.000000000000000000, 0.000000000000000000, 0.000000000000000000 ) ) ;
#551 = CARTESIAN_POINT ( 'NONE',  ( -13.93301270189221874, 0.08397459621556108145, -3.000000000000000000 ) ) ;
#552 = LINE ( 'NONE', #709, #912 ) ;
#553 = EDGE_LOOP ( 'NONE', ( #618, #825 ) ) ;
#554 = MECHANICAL_CONTEXT ( 'NONE', #326, 'mechanical' ) ;
#555 = CARTESIAN_POINT ( 'NONE',  ( 5.500000000000000000, -5.493209533081623064E-16, -3.000000000000000000 ) ) ;
#556 = PLANE ( 'NONE',  #185 ) ;
#557 = VERTEX_POINT ( 'NONE', #460 ) ;
#558 = APPROVAL_STATUS ( 'not_yet_approved' ) ;
#559 = EDGE_CURVE ( 'NONE', #28, #590, #605, .T. ) ;
#560 = AXIS2_PLACEMENT_3D ( 'NONE', #218, #712, #1003 ) ;
#561 = PLANE ( 'NONE',  #168 ) ;
#562 = CARTESIAN_POINT ( 'NONE',  ( -9.000000000000001776, -4.500000000000001776, -2.999999999999999556 ) ) ;
#563 = LINE ( 'NONE', #872, #963 ) ;
#564 = VERTEX_POINT ( 'NONE', #845 ) ;
#565 = DIRECTION ( 'NONE',  ( -1.000000000000000000, 0.000000000000000000, 0.000000000000000000 ) ) ;
#566 = DATE_TIME_ROLE ( 'classification_date' ) ;
#567 = CC_DESIGN_DATE_AND_TIME_ASSIGNMENT ( #178, #566, ( #340 ) ) ;
#568 = CARTESIAN_POINT ( 'NONE',  ( 0.000000000000000000, -2.799999999999999822, 1.250000000000000000 ) ) ;
#569 = DIRECTION ( 'NONE',  ( -1.000000000000000000, 0.000000000000000000, 0.000000000000000000 ) ) ;
#570 = ORIENTED_EDGE ( 'NONE', *, *, #85, .T. ) ;
#571 = CARTESIAN_POINT ( 'NONE',  ( -9.000000000000001776, -4.500000000000001776, 3.000000000000000000 ) ) ;
#572 = CARTESIAN_POINT ( 'NONE',  ( -13.56698729810778126, -4.250000000000002665, 3.000000000000000000 ) ) ;
#573 = EDGE_CURVE ( 'NONE', #1006, #243, #131, .T. ) ;
#574 = DIRECTION ( 'NONE',  ( 0.000000000000000000, 1.000000000000000000, 0.000000000000000000 ) ) ;
#575 = AXIS2_PLACEMENT_3D ( 'NONE', #972, #529, #834 ) ;
#576 = APPROVAL_PERSON_ORGANIZATION ( #631, #954, #166 ) ;
#577 = EDGE_CURVE ( 'NONE', #264, #904, #378, .T. ) ;
#578 = ORIENTED_EDGE ( 'NONE', *, *, #135, .F. ) ;
#579 = ORIENTED_EDGE ( 'NONE', *, *, #882, .F. ) ;
#580 = PERSON_AND_ORGANIZATION_ROLE ( 'creator' ) ;
#581 = ORIENTED_EDGE ( 'NONE', *, *, #674, .F. ) ;
#582 = ORIENTED_EDGE ( 'NONE', *, *, #577, .T. ) ;
#583 = CARTESIAN_POINT ( 'NONE',  ( -13.65358983848622110, -2.400000000000001243, -3.000000000000000000 ) ) ;
#584 = DIRECTION ( 'NONE',  ( -1.000000000000000000, 0.000000000000000000, 0.000000000000000000 ) ) ;
#585 = DIRECTION ( 'NONE',  ( 0.5000000000000012212, 0.8660254037844379305, 0.000000000000000000 ) ) ;
#586 = EDGE_LOOP ( 'NONE', ( #910, #704, #511, #582 ) ) ;
#587 = ORIENTED_EDGE ( 'NONE', *, *, #457, .F. ) ;
#588 = EDGE_CURVE ( 'NONE', #662, #12, #925, .T. ) ;
#589 = VECTOR ( 'NONE', #293, 1000.000000000000000 ) ;
#590 = VERTEX_POINT ( 'NONE', #91 ) ;
#591 = VECTOR ( 'NONE', #819, 1000.000000000000000 ) ;
#592 = EDGE_LOOP ( 'NONE', ( #939, #964, #435, #475 ) ) ;
#593 = ORIENTED_EDGE ( 'NONE', *, *, #588, .T. ) ;
#594 = ADVANCED_FACE ( 'NONE', ( #165 ), #403, .F. ) ;
#595 = DIRECTION ( 'NONE',  ( -0.000000000000000000, -0.000000000000000000, 1.000000000000000000 ) ) ;
#596 = ORIENTED_EDGE ( 'NONE', *, *, #375, .F. ) ;
#597 = DIRECTION ( 'NONE',  ( 0.000000000000000000, 0.000000000000000000, -1.000000000000000000 ) ) ;
#598 = DIRECTION ( 'NONE',  ( 0.000000000000000000, -0.000000000000000000, -1.000000000000000000 ) ) ;
#599 = FACE_BOUND ( 'NONE', #553, .T. ) ;
#600 = AXIS2_PLACEMENT_3D ( 'NONE', #855, #772, #909 ) ;
#601 = LINE ( 'NONE', #692, #490 ) ;
#602 = ADVANCED_FACE ( 'NONE', ( #716 ), #801, .F. ) ;
#603 = VECTOR ( 'NONE', #250, 1000.000000000000000 ) ;
#604 = ORIENTED_EDGE ( 'NONE', *, *, #573, .F. ) ;
#605 = LINE ( 'NONE', #210, #372 ) ;
#606 = EDGE_LOOP ( 'NONE', ( #278, #151, #659, #275 ) ) ;
#607 = CARTESIAN_POINT ( 'NONE',  ( 5.500000000000000000, 2.999999999999999556, -3.000000000000000000 ) ) ;
#608 = DIRECTION ( 'NONE',  ( -1.000000000000000000, 0.000000000000000000, 0.000000000000000000 ) ) ;
#609 = EDGE_LOOP ( 'NONE', ( #974, #420, #52, #96 ) ) ;
#610 = FACE_OUTER_BOUND ( 'NONE', #22, .T. ) ;
#611 = DIRECTION ( 'NONE',  ( 1.000000000000000000, 1.191190382581906851E-16, 0.000000000000000000 ) ) ;
#612 = PERSON_AND_ORGANIZATION ( #818, #512 ) ;
#613 = PRODUCT ( 'pattes_mobiles_bottom_rail_6', 'pattes_mobiles_bottom_rail_6', '', ( #554 ) ) ;
#614 = EDGE_CURVE ( 'NONE', #315, #469, #510, .T. ) ;
#615 = LINE ( 'NONE', #942, #16 ) ;
#616 = FACE_OUTER_BOUND ( 'NONE', #629, .T. ) ;
#617 = AXIS2_PLACEMENT_3D ( 'NONE', #703, #78, #409 ) ;
#618 = ORIENTED_EDGE ( 'NONE', *, *, #926, .F. ) ;
#619 = DIRECTION ( 'NONE',  ( -0.000000000000000000, 1.000000000000000000, -0.000000000000000000 ) ) ;
#620 = AXIS2_PLACEMENT_3D ( 'NONE', #399, #759, #839 ) ;
#621 = AXIS2_PLACEMENT_3D ( 'NONE', #159, #312, #481 ) ;
#622 = AXIS2_PLACEMENT_3D ( 'NONE', #900, #31, #183 ) ;
#623 = DIRECTION ( 'NONE',  ( -0.000000000000000000, -0.000000000000000000, 1.000000000000000000 ) ) ;
#624 = CARTESIAN_POINT ( 'NONE',  ( 6.000000000000000000, 2.499999999999999556, -3.000000000000000000 ) ) ;
#625 = ORIENTED_EDGE ( 'NONE', *, *, #123, .T. ) ;
#626 = DIRECTION ( 'NONE',  ( -1.000000000000000000, 0.000000000000000000, 0.000000000000000000 ) ) ;
#627 = CARTESIAN_POINT ( 'NONE',  ( -9.000000000000001776, -4.500000000000001776, -2.999999999999999556 ) ) ;
#628 = EDGE_CURVE ( 'NONE', #61, #257, #497, .T. ) ;
#629 = EDGE_LOOP ( 'NONE', ( #724, #311, #100, #206 ) ) ;
#630 = LINE ( 'NONE', #397, #235 ) ;
#631 = PERSON_AND_ORGANIZATION ( #818, #512 ) ;
#632 = CARTESIAN_POINT ( 'NONE',  ( -3.339692620785907007, -0.3420201433256727097, -3.000000000000000000 ) ) ;
#633 = DIRECTION ( 'NONE',  ( 0.000000000000000000, 1.000000000000000000, 0.000000000000000000 ) ) ;
#634 = ORIENTED_EDGE ( 'NONE', *, *, #1002, .F. ) ;
#635 = ADVANCED_FACE ( 'NONE', ( #784 ), #255, .T. ) ;
#636 = DIRECTION ( 'NONE',  ( -1.000000000000000000, -1.191190382581906605E-16, 0.000000000000000000 ) ) ;
#637 = APPROVAL_DATE_TIME ( #809, #954 ) ;
#638 = CIRCLE ( 'NONE', #639, 0.5000000000000004441 ) ;
#639 = AXIS2_PLACEMENT_3D ( 'NONE', #888, #893, #584 ) ;
#640 = VECTOR ( 'NONE', #507, 1000.000000000000000 ) ;
#641 = FACE_OUTER_BOUND ( 'NONE', #433, .T. ) ;
#642 = CARTESIAN_POINT ( 'NONE',  ( 2.399999999999999467, -0.6840402866513453084, -3.000000000000000000 ) ) ;
#643 = VERTEX_POINT ( 'NONE', #489 ) ;
#644 = DIRECTION ( 'NONE',  ( -1.000000000000000000, 0.000000000000000000, 0.000000000000000000 ) ) ;
#645 = EDGE_CURVE ( 'NONE', #181, #17, #187, .T. ) ;
#646 = FACE_OUTER_BOUND ( 'NONE', #891, .T. ) ;
#647 = ORIENTED_EDGE ( 'NONE', *, *, #559, .T. ) ;
#648 = DIRECTION ( 'NONE',  ( -1.000000000000000000, -0.000000000000000000, -0.000000000000000000 ) ) ;
#649 = EDGE_CURVE ( 'NONE', #451, #710, #902, .T. ) ;
#650 = CARTESIAN_POINT ( 'NONE',  ( -12.78756443470178361, -1.899999999999999689, -3.000000000000000000 ) ) ;
#651 = ORIENTED_EDGE ( 'NONE', *, *, #743, .T. ) ;
#652 = PERSON_AND_ORGANIZATION ( #818, #512 ) ;
#653 = AXIS2_PLACEMENT_3D ( 'NONE', #943, #310, #789 ) ;
#654 = CARTESIAN_POINT ( 'NONE',  ( -13.50000000000000000, 2.999999999999999556, 3.000000000000000000 ) ) ;
#655 = CIRCLE ( 'NONE', #785, 0.5000000000000000000 ) ;
#656 = LINE ( 'NONE', #504, #591 ) ;
#657 = CC_DESIGN_APPROVAL ( #954, ( #503 ) ) ;
#658 = ORIENTED_EDGE ( 'NONE', *, *, #142, .T. ) ;
#659 = ORIENTED_EDGE ( 'NONE', *, *, #162, .F. ) ;
#660 =( NAMED_UNIT ( * ) PLANE_ANGLE_UNIT ( ) SI_UNIT ( $, .RADIAN. ) );
#661 = DIRECTION ( 'NONE',  ( 0.000000000000000000, 0.000000000000000000, -1.000000000000000000 ) ) ;
#662 = VERTEX_POINT ( 'NONE', #412 ) ;
#663 = EDGE_CURVE ( 'NONE', #92, #983, #68, .T. ) ;
#664 = ORIENTED_EDGE ( 'NONE', *, *, #69, .F. ) ;
#665 = CARTESIAN_POINT ( 'NONE',  ( 0.000000000000000000, -2.799999999999999822, 1.250000000000000000 ) ) ;
#666 = ORIENTED_EDGE ( 'NONE', *, *, #548, .T. ) ;
#667 = EDGE_LOOP ( 'NONE', ( #23, #480, #101, #745 ) ) ;
#668 = PRODUCT_RELATED_PRODUCT_CATEGORY ( 'detail', '', ( #613 ) ) ;
#669 = AXIS2_PLACEMENT_3D ( 'NONE', #870, #547, #626 ) ;
#670 = AXIS2_PLACEMENT_3D ( 'NONE', #128, #766, #920 ) ;
#671 = ORIENTED_EDGE ( 'NONE', *, *, #917, .T. ) ;
#672 = APPROVAL_PERSON_ORGANIZATION ( #958, #846, #792 ) ;
#673 =( LENGTH_UNIT ( ) NAMED_UNIT ( * ) SI_UNIT ( .MILLI., .METRE. ) );
#674 = EDGE_CURVE ( 'NONE', #732, #517, #981, .T. ) ;
#675 = VERTEX_POINT ( 'NONE', #953 ) ;
#676 = ORIENTED_EDGE ( 'NONE', *, *, #948, .T. ) ;
#677 = CC_DESIGN_PERSON_AND_ORGANIZATION_ASSIGNMENT ( #612, #461, ( #613 ) ) ;
#678 = DIRECTION ( 'NONE',  ( 1.000000000000000000, 1.772003075187619906E-16, 0.000000000000000000 ) ) ;
#679 = LINE ( 'NONE', #997, #171 ) ;
#680 = CARTESIAN_POINT ( 'NONE',  ( 0.000000000000000000, 2.999999999999999556, 0.000000000000000000 ) ) ;
#681 = VECTOR ( 'NONE', #883, 1000.000000000000000 ) ;
#682 = CARTESIAN_POINT ( 'NONE',  ( 0.000000000000000000, 2.999999999999999556, 0.000000000000000000 ) ) ;
#683 = VECTOR ( 'NONE', #840, 1000.000000000000000 ) ;
#684 = EDGE_LOOP ( 'NONE', ( #464, #84, #814, #247, #978, #895, #298, #664, #783, #362, #790, #25, #15, #146, #126, #288, #520, #944, #505, #200, #335, #1024, #969, #387, #810 ) ) ;
#685 = DIRECTION ( 'NONE',  ( -1.000000000000000000, 0.000000000000000000, 0.000000000000000000 ) ) ;
#686 = AXIS2_PLACEMENT_3D ( 'NONE', #828, #118, #280 ) ;
#687 = LINE ( 'NONE', #463, #540 ) ;
#688 = VERTEX_POINT ( 'NONE', #791 ) ;
#689 = EDGE_CURVE ( 'NONE', #904, #158, #725, .T. ) ;
#690 = CARTESIAN_POINT ( 'NONE',  ( 2.399999999999999911, -2.299999999999999822, 3.000000000000000000 ) ) ;
#691 = DIRECTION ( 'NONE',  ( -0.000000000000000000, 1.000000000000000000, -0.000000000000000000 ) ) ;
#692 = CARTESIAN_POINT ( 'NONE',  ( -12.78756443470178361, -1.899999999999999467, 3.000000000000000000 ) ) ;
#693 = EDGE_LOOP ( 'NONE', ( #820, #894, #899, #109 ) ) ;
#694 = CARTESIAN_POINT ( 'NONE',  ( 5.955951912909532532E-16, -5.000000000000000000, 0.000000000000000000 ) ) ;
#695 = CARTESIAN_POINT ( 'NONE',  ( -14.00000000000000000, -5.000000000000001776, 3.000000000000000000 ) ) ;
#696 = CC_DESIGN_PERSON_AND_ORGANIZATION_ASSIGNMENT ( #652, #580, ( #204 ) ) ;
#697 = CARTESIAN_POINT ( 'NONE',  ( -7.000000000000000888, -8.151214145863055265E-16, -3.000000000000000000 ) ) ;
#698 = CARTESIAN_POINT ( 'NONE',  ( -14.00000000000000000, 0.3339745962155616366, 3.000000000000000000 ) ) ;
#699 = ORIENTED_EDGE ( 'NONE', *, *, #182, .F. ) ;
#700 = CARTESIAN_POINT ( 'NONE',  ( -13.56698729810778126, -4.250000000000002665, -3.000000000000000000 ) ) ;
#701 = EDGE_CURVE ( 'NONE', #469, #396, #796, .T. ) ;
#702 = CARTESIAN_POINT ( 'NONE',  ( 4.279385241571813658, -1.444447458290426890E-31, 3.000000000000000000 ) ) ;
#703 = CARTESIAN_POINT ( 'NONE',  ( -13.50000000000000000, 0.3339745962155618586, 0.000000000000000000 ) ) ;
#704 = ORIENTED_EDGE ( 'NONE', *, *, #355, .F. ) ;
#705 = DIRECTION ( 'NONE',  ( -1.000000000000000000, 0.000000000000000000, 0.000000000000000000 ) ) ;
#706 = PERSON_AND_ORGANIZATION_ROLE ( 'classification_officer' ) ;
#707 = LINE ( 'NONE', #797, #848 ) ;
#708 = EDGE_CURVE ( 'NONE', #977, #268, #630, .T. ) ;
#709 = CARTESIAN_POINT ( 'NONE',  ( -2.399999999999999467, -7.222237291452134449E-32, -3.000000000000000000 ) ) ;
#710 = VERTEX_POINT ( 'NONE', #571 ) ;
#711 = DIRECTION ( 'NONE',  ( 1.000000000000000000, -1.772003075187619659E-16, -0.000000000000000000 ) ) ;
#712 = DIRECTION ( 'NONE',  ( -0.000000000000000000, -0.000000000000000000, 1.000000000000000000 ) ) ;
#713 = DIRECTION ( 'NONE',  ( 0.000000000000000000, 0.000000000000000000, 1.000000000000000000 ) ) ;
#714 = DIRECTION ( 'NONE',  ( -0.000000000000000000, -0.000000000000000000, -1.000000000000000000 ) ) ;
#715 = EDGE_LOOP ( 'NONE', ( #213, #441, #593, #112 ) ) ;
#716 = FACE_OUTER_BOUND ( 'NONE', #1004, .T. ) ;
#717 = EDGE_CURVE ( 'NONE', #29, #264, #86, .T. ) ;
#718 = DATE_AND_TIME ( #232, #256 ) ;
#719 = VECTOR ( 'NONE', #728, 1000.000000000000000 ) ;
#720 = VECTOR ( 'NONE', #443, 999.9999999999998863 ) ;
#721 = CARTESIAN_POINT ( 'NONE',  ( 0.000000000000000000, -2.799999999999999822, 0.000000000000000000 ) ) ;
#722 = FACE_OUTER_BOUND ( 'NONE', #531, .T. ) ;
#723 = CARTESIAN_POINT ( 'NONE',  ( -13.50000000000000000, 2.999999999999999556, -3.000000000000000000 ) ) ;
#724 = ORIENTED_EDGE ( 'NONE', *, *, #663, .T. ) ;
#725 = LINE ( 'NONE', #330, #804 ) ;
#726 = CALENDAR_DATE ( 2025, 3, 6 ) ;
#727 = EDGE_CURVE ( 'NONE', #744, #226, #363, .T. ) ;
#728 = DIRECTION ( 'NONE',  ( -1.000000000000000000, -0.000000000000000000, -0.000000000000000000 ) ) ;
#729 = DIRECTION ( 'NONE',  ( 1.191190382581906605E-16, -1.000000000000000000, 0.000000000000000000 ) ) ;
#730 = ORIENTED_EDGE ( 'NONE', *, *, #1, .T. ) ;
#731 = APPROVAL_DATE_TIME ( #869, #344 ) ;
#732 = VERTEX_POINT ( 'NONE', #320 ) ;
#733 = ORIENTED_EDGE ( 'NONE', *, *, #375, .T. ) ;
#734 = UNCERTAINTY_MEASURE_WITH_UNIT (LENGTH_MEASURE( 1.000000000000000082E-05 ), #673, 'distance_accuracy_value', 'NONE');
#735 = VECTOR ( 'NONE', #550, 1000.000000000000000 ) ;
#736 = DIRECTION ( 'NONE',  ( -0.5000000000000012212, 0.8660254037844379305, 0.000000000000000000 ) ) ;
#737 = ADVANCED_FACE ( 'NONE', ( #46 ), #77, .T. ) ;
#738 = CIRCLE ( 'NONE', #174, 0.5000000000000004441 ) ;
#739 = EDGE_LOOP ( 'NONE', ( #596, #501, #488, #746 ) ) ;
#740 = ORIENTED_EDGE ( 'NONE', *, *, #26, .F. ) ;
#741 = DIRECTION ( 'NONE',  ( 0.000000000000000000, 0.000000000000000000, -1.000000000000000000 ) ) ;
#742 = DIRECTION ( 'NONE',  ( -1.000000000000000000, 0.000000000000000000, 0.000000000000000000 ) ) ;
#743 = EDGE_CURVE ( 'NONE', #778, #29, #283, .T. ) ;
#744 = VERTEX_POINT ( 'NONE', #53 ) ;
#745 = ORIENTED_EDGE ( 'NONE', *, *, #477, .F. ) ;
#746 = ORIENTED_EDGE ( 'NONE', *, *, #780, .T. ) ;
#747 = ORIENTED_EDGE ( 'NONE', *, *, #876, .T. ) ;
#748 = EDGE_CURVE ( 'NONE', #643, #28, #149, .T. ) ;
#749 = FACE_OUTER_BOUND ( 'NONE', #186, .T. ) ;
#750 = VECTOR ( 'NONE', #678, 1000.000000000000000 ) ;
#751 = AXIS2_PLACEMENT_3D ( 'NONE', #532, #368, #685 ) ;
#752 = AXIS2_PLACEMENT_3D ( 'NONE', #263, #898, #742 ) ;
#753 = ORIENTED_EDGE ( 'NONE', *, *, #527, .F. ) ;
#754 = ORIENTED_EDGE ( 'NONE', *, *, #434, .F. ) ;
#755 = DIRECTION ( 'NONE',  ( -1.000000000000000000, 0.000000000000000000, 0.000000000000000000 ) ) ;
#756 = EDGE_CURVE ( 'NONE', #259, #359, #40, .T. ) ;
#757 = DIRECTION ( 'NONE',  ( -1.000000000000000000, 0.000000000000000000, 0.000000000000000000 ) ) ;
#758 = ORIENTED_EDGE ( 'NONE', *, *, #43, .F. ) ;
#759 = DIRECTION ( 'NONE',  ( 0.000000000000000000, 0.000000000000000000, 1.000000000000000000 ) ) ;
#760 = CARTESIAN_POINT ( 'NONE',  ( -9.500000000000001776, -5.000000000000000888, 3.000000000000000000 ) ) ;
#761 = CARTESIAN_POINT ( 'NONE',  ( -12.78756443470178361, -1.899999999999999689, 3.000000000000000000 ) ) ;
#762 = FACE_OUTER_BOUND ( 'NONE', #380, .T. ) ;
#763 = LINE ( 'NONE', #44, #252 ) ;
#764 = ORIENTED_EDGE ( 'NONE', *, *, #905, .T. ) ;
#765 = CARTESIAN_POINT ( 'NONE',  ( -2.399999999999999911, -2.799999999999999822, 3.000000000000000000 ) ) ;
#766 = DIRECTION ( 'NONE',  ( 0.000000000000000000, 0.000000000000000000, -1.000000000000000000 ) ) ;
#767 = EDGE_CURVE ( 'NONE', #983, #61, #679, .T. ) ;
#768 = CARTESIAN_POINT ( 'NONE',  ( -7.000000000000000888, -8.151214145863055265E-16, 3.000000000000000000 ) ) ;
#769 = AXIS2_PLACEMENT_3D ( 'NONE', #7, #470, #73 ) ;
#770 = EDGE_LOOP ( 'NONE', ( #114, #733, #764, #376 ) ) ;
#771 = DIRECTION ( 'NONE',  ( -0.5000000000000012212, 0.8660254037844380415, -0.000000000000000000 ) ) ;
#772 = DIRECTION ( 'NONE',  ( -1.000000000000000000, 0.000000000000000000, 0.000000000000000000 ) ) ;
#773 = ORIENTED_EDGE ( 'NONE', *, *, #948, .F. ) ;
#774 = DIRECTION ( 'NONE',  ( -0.000000000000000000, 1.000000000000000000, -0.000000000000000000 ) ) ;
#775 = CARTESIAN_POINT ( 'NONE',  ( -14.00000000000000000, 0.1999999999999996503, 3.000000000000000000 ) ) ;
#776 = DIRECTION ( 'NONE',  ( -1.000000000000000000, 0.000000000000000000, 0.000000000000000000 ) ) ;
#777 = LINE ( 'NONE', #922, #113 ) ;
#778 = VERTEX_POINT ( 'NONE', #207 ) ;
#779 = DIRECTION ( 'NONE',  ( 0.000000000000000000, 0.000000000000000000, 1.000000000000000000 ) ) ;
#780 = EDGE_CURVE ( 'NONE', #158, #688, #993, .T. ) ;
#781 = DIRECTION ( 'NONE',  ( -1.000000000000000000, 0.000000000000000000, 0.000000000000000000 ) ) ;
#782 = DIRECTION ( 'NONE',  ( -0.000000000000000000, -0.000000000000000000, -1.000000000000000000 ) ) ;
#783 = ORIENTED_EDGE ( 'NONE', *, *, #9, .T. ) ;
#784 = FACE_OUTER_BOUND ( 'NONE', #221, .T. ) ;
#785 = AXIS2_PLACEMENT_3D ( 'NONE', #95, #597, #755 ) ;
#786 = APPROVAL_DATE_TIME ( #875, #846 ) ;
#787 = EDGE_CURVE ( 'NONE', #264, #675, #989, .T. ) ;
#788 = CARTESIAN_POINT ( 'NONE',  ( 6.000000000000000000, -6.379211070675434126E-16, 3.000000000000000000 ) ) ;
#789 = DIRECTION ( 'NONE',  ( -1.000000000000000000, 0.000000000000000000, 0.000000000000000000 ) ) ;
#790 = ORIENTED_EDGE ( 'NONE', *, *, #384, .T. ) ;
#791 = CARTESIAN_POINT ( 'NONE',  ( 2.339692620785907451, -0.3420201433256727097, -3.000000000000000000 ) ) ;
#792 = APPROVAL_ROLE ( '' ) ;
#793 = CARTESIAN_POINT ( 'NONE',  ( 5.500000000000000000, -5.493209533081623064E-16, 3.000000000000000000 ) ) ;
#794 = FACE_OUTER_BOUND ( 'NONE', #430, .T. ) ;
#795 = ORIENTED_EDGE ( 'NONE', *, *, #986, .F. ) ;
#796 = LINE ( 'NONE', #239, #172 ) ;
#797 = CARTESIAN_POINT ( 'NONE',  ( 1.530808498934191571E-16, -2.799999999999999822, -1.250000000000000000 ) ) ;
#798 = LINE ( 'NONE', #860, #30 ) ;
#799 = EDGE_CURVE ( 'NONE', #521, #778, #886, .T. ) ;
#800 = ORIENTED_EDGE ( 'NONE', *, *, #216, .T. ) ;
#801 = PLANE ( 'NONE',  #829 ) ;
#802 = VECTOR ( 'NONE', #60, 1000.000000000000000 ) ;
#803 = VECTOR ( 'NONE', #228, 1000.000000000000000 ) ;
#804 = VECTOR ( 'NONE', #2, 1000.000000000000000 ) ;
#805 = CIRCLE ( 'NONE', #966, 0.9999999999999991118 ) ;
#806 = DIRECTION ( 'NONE',  ( -1.000000000000000000, 0.000000000000000000, 0.000000000000000000 ) ) ;
#807 = DIRECTION ( 'NONE',  ( -1.000000000000000000, 0.000000000000000000, 0.000000000000000000 ) ) ;
#808 = LINE ( 'NONE', #627, #337 ) ;
#809 = DATE_AND_TIME ( #941, #272 ) ;
#810 = ORIENTED_EDGE ( 'NONE', *, *, #905, .F. ) ;
#811 = ADVANCED_FACE ( 'NONE', ( #610 ), #452, .F. ) ;
#812 = FACE_OUTER_BOUND ( 'NONE', #238, .T. ) ;
#813 = FACE_OUTER_BOUND ( 'NONE', #176, .T. ) ;
#814 = ORIENTED_EDGE ( 'NONE', *, *, #417, .T. ) ;
#815 = DIRECTION ( 'NONE',  ( -1.000000000000000000, 0.000000000000000000, 0.000000000000000000 ) ) ;
#816 = CIRCLE ( 'NONE', #370, 0.5000000000000004441 ) ;
#817 = CC_DESIGN_PERSON_AND_ORGANIZATION_ASSIGNMENT ( #892, #706, ( #340 ) ) ;
#818 = PERSON ( 'UNSPECIFIED', 'UNSPECIFIED', 'UNSPECIFIED', ('UNSPECIFIED'), ('UNSPECIFIED'), ('UNSPECIFIED') ) ;
#819 = DIRECTION ( 'NONE',  ( -1.548860246407863583E-16, -1.000000000000000000, 0.000000000000000000 ) ) ;
#820 = ORIENTED_EDGE ( 'NONE', *, *, #422, .F. ) ;
#821 = ADVANCED_FACE ( 'NONE', ( #1027 ), #924, .T. ) ;
#822 = ORIENTED_EDGE ( 'NONE', *, *, #245, .T. ) ;
#823 = EDGE_LOOP ( 'NONE', ( #773, #758, #581, #999 ) ) ;
#824 = CYLINDRICAL_SURFACE ( 'NONE', #66, 0.9999999999999991118 ) ;
#825 = ORIENTED_EDGE ( 'NONE', *, *, #115, .F. ) ;
#826 = ADVANCED_FACE ( 'NONE', ( #1007 ), #299, .F. ) ;
#827 = ORIENTED_EDGE ( 'NONE', *, *, #445, .T. ) ;
#828 = CARTESIAN_POINT ( 'NONE',  ( -13.13397459621556251, -4.500000000000002665, 3.000000000000000000 ) ) ;
#829 = AXIS2_PLACEMENT_3D ( 'NONE', #884, #636, #729 ) ;
#830 = LOCAL_TIME ( 11, 7, 35.00000000000000000, #249 ) ;
#831 = CARTESIAN_POINT ( 'NONE',  ( -13.65358983848622110, -2.400000000000001243, -3.000000000000000000 ) ) ;
#832 = VERTEX_POINT ( 'NONE', #833 ) ;
#833 = CARTESIAN_POINT ( 'NONE',  ( -4.279385241571813658, -1.444447458290426890E-31, -3.000000000000000000 ) ) ;
#834 = DIRECTION ( 'NONE',  ( 1.548860246407863583E-16, 1.000000000000000000, 0.000000000000000000 ) ) ;
#835 = DIRECTION ( 'NONE',  ( 0.000000000000000000, 0.000000000000000000, -1.000000000000000000 ) ) ;
#836 = FACE_OUTER_BOUND ( 'NONE', #923, .T. ) ;
#837 = LINE ( 'NONE', #125, #319 ) ;
#838 = VERTEX_POINT ( 'NONE', #562 ) ;
#839 = DIRECTION ( 'NONE',  ( 1.000000000000000000, 0.000000000000000000, 0.000000000000000000 ) ) ;
#840 = DIRECTION ( 'NONE',  ( -1.000000000000000000, -1.191190382581906851E-16, -0.000000000000000000 ) ) ;
#841 = EDGE_CURVE ( 'NONE', #432, #346, #526, .T. ) ;
#842 = LINE ( 'NONE', #374, #1010 ) ;
#843 = ORIENTED_EDGE ( 'NONE', *, *, #701, .T. ) ;
#844 = CARTESIAN_POINT ( 'NONE',  ( -1.899999999999999689, -2.299999999999999822, 3.000000000000000000 ) ) ;
#845 = CARTESIAN_POINT ( 'NONE',  ( -9.500000000000001776, -5.000000000000000888, -2.999999999999999556 ) ) ;
#846 = APPROVAL ( #331, 'UNSPECIFIED' ) ;
#847 = VECTOR ( 'NONE', #535, 1000.000000000000000 ) ;
#848 = VECTOR ( 'NONE', #691, 1000.000000000000000 ) ;
#849 = CARTESIAN_POINT ( 'NONE',  ( -14.00000000000000000, 2.499999999999999556, -3.000000000000000000 ) ) ;
#850 = VECTOR ( 'NONE', #611, 1000.000000000000000 ) ;
#851 = ORIENTED_EDGE ( 'NONE', *, *, #717, .T. ) ;
#852 = CC_DESIGN_SECURITY_CLASSIFICATION ( #340, ( #204 ) ) ;
#853 = LINE ( 'NONE', #307, #720 ) ;
#854 = CARTESIAN_POINT ( 'NONE',  ( 1.530808498934191571E-16, -2.799999999999999822, -1.250000000000000000 ) ) ;
#855 = CARTESIAN_POINT ( 'NONE',  ( -14.00000000000000000, 0.000000000000000000, 0.000000000000000000 ) ) ;
#856 = ADVANCED_FACE ( 'NONE', ( #794 ), #251, .T. ) ;
#857 = ORIENTED_EDGE ( 'NONE', *, *, #498, .F. ) ;
#858 = CARTESIAN_POINT ( 'NONE',  ( 0.000000000000000000, -2.799999999999999822, 0.000000000000000000 ) ) ;
#859 = DIRECTION ( 'NONE',  ( -1.000000000000000000, 0.000000000000000000, -0.000000000000000000 ) ) ;
#860 = CARTESIAN_POINT ( 'NONE',  ( 5.500000000000000000, 2.999999999999999556, 3.000000000000000000 ) ) ;
#861 = ORIENTED_EDGE ( 'NONE', *, *, #108, .F. ) ;
#862 = ADVANCED_FACE ( 'NONE', ( #722 ), #485, .F. ) ;
#863 = CARTESIAN_POINT ( 'NONE',  ( 1.899999999999999689, -2.299999999999999822, 3.000000000000000000 ) ) ;
#864 = LINE ( 'NONE', #150, #681 ) ;
#865 = CIRCLE ( 'NONE', #269, 1.250000000000000000 ) ;
#866 = ORIENTED_EDGE ( 'NONE', *, *, #577, .F. ) ;
#867 = DIRECTION ( 'NONE',  ( 0.000000000000000000, -1.000000000000000000, 1.445602896647339410E-16 ) ) ;
#868 = AXIS2_PLACEMENT_3D ( 'NONE', #858, #364, #466 ) ;
#869 = DATE_AND_TIME ( #726, #188 ) ;
#870 = CARTESIAN_POINT ( 'NONE',  ( 3.339692620785907007, -0.3420201433256727097, 3.000000000000000000 ) ) ;
#871 = DIRECTION ( 'NONE',  ( 0.5000000000000012212, 0.8660254037844380415, -0.000000000000000000 ) ) ;
#872 = CARTESIAN_POINT ( 'NONE',  ( -1.899999999999999689, -2.799999999999999822, 3.000000000000000000 ) ) ;
#873 = ORIENTED_EDGE ( 'NONE', *, *, #273, .F. ) ;
#874 = CARTESIAN_POINT ( 'NONE',  ( 1.899999999999999689, -2.299999999999999822, 3.000000000000000000 ) ) ;
#875 = DATE_AND_TIME ( #8, #830 ) ;
#876 = EDGE_CURVE ( 'NONE', #396, #257, #738, .T. ) ;
#877 = DIRECTION ( 'NONE',  ( -1.000000000000000000, 0.000000000000000000, 0.000000000000000000 ) ) ;
#878 = DIRECTION ( 'NONE',  ( 1.000000000000000000, 0.000000000000000000, 0.000000000000000000 ) ) ;
#879 = CARTESIAN_POINT ( 'NONE',  ( 6.000000000000000000, -6.379211070675434126E-16, 3.000000000000000000 ) ) ;
#880 = ORIENTED_EDGE ( 'NONE', *, *, #748, .F. ) ;
#881 = DIRECTION ( 'NONE',  ( -0.000000000000000000, -0.000000000000000000, 1.000000000000000000 ) ) ;
#882 = EDGE_CURVE ( 'NONE', #28, #521, #656, .T. ) ;
#883 = DIRECTION ( 'NONE',  ( 0.000000000000000000, 0.000000000000000000, -1.000000000000000000 ) ) ;
#884 = CARTESIAN_POINT ( 'NONE',  ( -9.000000000000001776, -5.000000000000000888, 3.000000000000000000 ) ) ;
#885 = VECTOR ( 'NONE', #633, 1000.000000000000000 ) ;
#886 = CIRCLE ( 'NONE', #64, 0.5000000000000000000 ) ;
#887 = AXIS2_PLACEMENT_3D ( 'NONE', #407, #424, #736 ) ;
#888 = CARTESIAN_POINT ( 'NONE',  ( 5.500000000000000000, 0.4999999999999994449, 3.000000000000000000 ) ) ;
#889 = ORIENTED_EDGE ( 'NONE', *, *, #748, .T. ) ;
#890 = ADVANCED_FACE ( 'NONE', ( #813 ), #429, .F. ) ;
#891 = EDGE_LOOP ( 'NONE', ( #194, #180, #880, #903 ) ) ;
#892 = PERSON_AND_ORGANIZATION ( #818, #512 ) ;
#893 = DIRECTION ( 'NONE',  ( -0.000000000000000000, -0.000000000000000000, 1.000000000000000000 ) ) ;
#894 = ORIENTED_EDGE ( 'NONE', *, *, #123, .F. ) ;
#895 = ORIENTED_EDGE ( 'NONE', *, *, #231, .F. ) ;
#896 = CC_DESIGN_DATE_AND_TIME_ASSIGNMENT ( #718, #93, ( #503 ) ) ;
#897 = PLANE ( 'NONE',  #622 ) ;
#898 = DIRECTION ( 'NONE',  ( 0.000000000000000000, 0.000000000000000000, -1.000000000000000000 ) ) ;
#899 = ORIENTED_EDGE ( 'NONE', *, *, #309, .F. ) ;
#900 = CARTESIAN_POINT ( 'NONE',  ( 6.000000000000000000, -6.379211070675434126E-16, 3.000000000000000000 ) ) ;
#901 = CIRCLE ( 'NONE', #991, 0.9999999999999991118 ) ;
#902 = CIRCLE ( 'NONE', #271, 0.5000000000000004441 ) ;
#903 = ORIENTED_EDGE ( 'NONE', *, *, #182, .T. ) ;
#904 = VERTEX_POINT ( 'NONE', #343 ) ;
#905 = EDGE_CURVE ( 'NONE', #688, #274, #914, .T. ) ;
#906 = ORIENTED_EDGE ( 'NONE', *, *, #799, .T. ) ;
#907 = ORIENTED_EDGE ( 'NONE', *, *, #573, .T. ) ;
#908 = DIRECTION ( 'NONE',  ( 0.000000000000000000, 0.000000000000000000, 1.000000000000000000 ) ) ;
#909 = DIRECTION ( 'NONE',  ( 0.000000000000000000, 0.000000000000000000, 1.000000000000000000 ) ) ;
#910 = ORIENTED_EDGE ( 'NONE', *, *, #689, .T. ) ;
#911 = PLANE ( 'NONE',  #575 ) ;
#912 = VECTOR ( 'NONE', #314, 1000.000000000000000 ) ;
#913 = VECTOR ( 'NONE', #962, 1000.000000000000000 ) ;
#914 = CIRCLE ( 'NONE', #752, 0.9999999999999995559 ) ;
#915 = DIRECTION ( 'NONE',  ( -0.000000000000000000, -0.000000000000000000, 1.000000000000000000 ) ) ;
#916 = ORIENTED_EDGE ( 'NONE', *, *, #534, .F. ) ;
#917 = EDGE_CURVE ( 'NONE', #421, #977, #805, .T. ) ;
#918 = ORIENTED_EDGE ( 'NONE', *, *, #649, .T. ) ;
#919 = DIRECTION ( 'NONE',  ( -1.548860246407863583E-16, 1.000000000000000000, -0.000000000000000000 ) ) ;
#920 = DIRECTION ( 'NONE',  ( -1.000000000000000000, 0.000000000000000000, 0.000000000000000000 ) ) ;
#921 = CC_DESIGN_PERSON_AND_ORGANIZATION_ASSIGNMENT ( #240, #87, ( #204 ) ) ;
#922 = CARTESIAN_POINT ( 'NONE',  ( -9.000000000000001776, -5.000000000000000888, -2.999999999999999556 ) ) ;
#923 = EDGE_LOOP ( 'NONE', ( #431, #502, #873, #740 ) ) ;
#924 = PLANE ( 'NONE',  #203 ) ;
#925 = LINE ( 'NONE', #1008, #735 ) ;
#926 = EDGE_CURVE ( 'NONE', #536, #329, #455, .T. ) ;
#927 = DIRECTION ( 'NONE',  ( -1.000000000000000000, 0.000000000000000000, 0.000000000000000000 ) ) ;
#928 = AXIS2_PLACEMENT_3D ( 'NONE', #303, #1021, #776 ) ;
#929 = LINE ( 'NONE', #549, #750 ) ;
#930 = VECTOR ( 'NONE', #58, 1000.000000000000000 ) ;
#931 = ORIENTED_EDGE ( 'NONE', *, *, #14, .F. ) ;
#932 = CARTESIAN_POINT ( 'NONE',  ( -12.49888930010696875, -2.400000000000001243, 3.000000000000000000 ) ) ;
#933 = AXIS2_PLACEMENT_3D ( 'NONE', #519, #835, #347 ) ;
#934 = CARTESIAN_POINT ( 'NONE',  ( 4.279385241571813658, -1.444447458290426890E-31, -3.000000000000000000 ) ) ;
#935 = ADVANCED_FACE ( 'NONE', ( #836 ), #992, .T. ) ;
#936 = FACE_BOUND ( 'NONE', #143, .T. ) ;
#937 = ORIENTED_EDGE ( 'NONE', *, *, #189, .T. ) ;
#938 = LINE ( 'NONE', #241, #32 ) ;
#939 = ORIENTED_EDGE ( 'NONE', *, *, #727, .T. ) ;
#940 = DIRECTION ( 'NONE',  ( 0.000000000000000000, 0.000000000000000000, -1.000000000000000000 ) ) ;
#941 = CALENDAR_DATE ( 2025, 3, 6 ) ;
#942 = CARTESIAN_POINT ( 'NONE',  ( -2.399999999999999911, -2.299999999999999822, 3.000000000000000000 ) ) ;
#943 = CARTESIAN_POINT ( 'NONE',  ( -13.65358983848622110, -2.400000000000001243, 3.000000000000000000 ) ) ;
#944 = ORIENTED_EDGE ( 'NONE', *, *, #663, .F. ) ;
#945 = CARTESIAN_POINT ( 'NONE',  ( -14.00000000000000000, 2.999999999999999556, -3.000000000000000000 ) ) ;
#946 = VECTOR ( 'NONE', #881, 1000.000000000000000 ) ;
#947 = COORDINATED_UNIVERSAL_TIME_OFFSET ( 1, 0, .AHEAD. ) ;
#948 = EDGE_CURVE ( 'NONE', #432, #120, #4, .T. ) ;
#949 = CARTESIAN_POINT ( 'NONE',  ( 0.000000000000000000, 0.000000000000000000, 3.000000000000000000 ) ) ;
#950 = DIRECTION ( 'NONE',  ( -0.000000000000000000, 0.000000000000000000, -1.000000000000000000 ) ) ;
#951 = CARTESIAN_POINT ( 'NONE',  ( -3.339692620785907007, -0.3420201433256727097, 3.000000000000000000 ) ) ;
#952 = ORIENTED_EDGE ( 'NONE', *, *, #484, .F. ) ;
#953 = CARTESIAN_POINT ( 'NONE',  ( 2.400000000000000355, -0.6840402866513447533, 3.000000000000000000 ) ) ;
#954 = APPROVAL ( #317, 'UNSPECIFIED' ) ;
#955 = DIRECTION ( 'NONE',  ( 0.000000000000000000, 0.000000000000000000, -1.000000000000000000 ) ) ;
#956 = CARTESIAN_POINT ( 'NONE',  ( -9.500000000000001776, -4.500000000000001776, 3.000000000000000000 ) ) ;
#957 = APPLICATION_CONTEXT ( 'configuration controlled 3d designs of mechanical parts and assemblies' ) ;
#958 = PERSON_AND_ORGANIZATION ( #818, #512 ) ;
#959 = DIRECTION ( 'NONE',  ( 0.000000000000000000, 0.000000000000000000, -1.000000000000000000 ) ) ;
#960 = ADVANCED_FACE ( 'NONE', ( #599, #762 ), #42, .F. ) ;
#961 = LINE ( 'NONE', #253, #719 ) ;
#962 = DIRECTION ( 'NONE',  ( -0.000000000000000000, 1.000000000000000000, -0.000000000000000000 ) ) ;
#963 = VECTOR ( 'NONE', #392, 1000.000000000000000 ) ;
#964 = ORIENTED_EDGE ( 'NONE', *, *, #135, .T. ) ;
#965 = AXIS2_PLACEMENT_3D ( 'NONE', #874, #1025, #644 ) ;
#966 = AXIS2_PLACEMENT_3D ( 'NONE', #348, #950, #878 ) ;
#967 = DIRECTION ( 'NONE',  ( 0.000000000000000000, 0.000000000000000000, -1.000000000000000000 ) ) ;
#968 = CC_DESIGN_PERSON_AND_ORGANIZATION_ASSIGNMENT ( #13, #394, ( #503 ) ) ;
#969 = ORIENTED_EDGE ( 'NONE', *, *, #539, .T. ) ;
#970 = ORIENTED_EDGE ( 'NONE', *, *, #388, .T. ) ;
#971 = DIRECTION ( 'NONE',  ( 0.000000000000000000, 0.000000000000000000, -1.000000000000000000 ) ) ;
#972 = CARTESIAN_POINT ( 'NONE',  ( -2.399999999999999467, -7.222237291452134449E-32, 3.000000000000000000 ) ) ;
#973 = DIRECTION ( 'NONE',  ( -1.000000000000000000, 0.000000000000000000, 0.000000000000000000 ) ) ;
#974 = ORIENTED_EDGE ( 'NONE', *, *, #9, .F. ) ;
#975 = ORIENTED_EDGE ( 'NONE', *, *, #614, .F. ) ;
#976 = DIRECTION ( 'NONE',  ( -1.000000000000000000, 0.000000000000000000, 0.000000000000000000 ) ) ;
#977 = VERTEX_POINT ( 'NONE', #104 ) ;
#978 = ORIENTED_EDGE ( 'NONE', *, *, #1002, .T. ) ;
#979 = EDGE_CURVE ( 'NONE', #360, #536, #980, .T. ) ;
#980 = LINE ( 'NONE', #665, #640 ) ;
#981 = CIRCLE ( 'NONE', #471, 0.5000000000000004441 ) ;
#982 = LOCAL_TIME ( 11, 7, 35.00000000000000000, #74 ) ;
#983 = VERTEX_POINT ( 'NONE', #24 ) ;
#984 = ORIENTED_EDGE ( 'NONE', *, *, #882, .T. ) ;
#985 = ORIENTED_EDGE ( 'NONE', *, *, #401, .T. ) ;
#986 = EDGE_CURVE ( 'NONE', #518, #226, #356, .T. ) ;
#987 = CARTESIAN_POINT ( 'NONE',  ( -14.00000000000000000, 2.499999999999999556, -3.000000000000000000 ) ) ;
#988 = VERTEX_POINT ( 'NONE', #357 ) ;
#989 = LINE ( 'NONE', #542, #300 ) ;
#990 = DIRECTION ( 'NONE',  ( 0.000000000000000000, 0.000000000000000000, 1.000000000000000000 ) ) ;
#991 = AXIS2_PLACEMENT_3D ( 'NONE', #632, #75, #927 ) ;
#992 = CYLINDRICAL_SURFACE ( 'NONE', #302, 0.5000000000000004441 ) ;
#993 = CIRCLE ( 'NONE', #751, 0.9999999999999995559 ) ;
#994 = PLANE ( 'NONE',  #600 ) ;
#995 = ADVANCED_FACE ( 'NONE', ( #522 ), #824, .F. ) ;
#996 = ORIENTED_EDGE ( 'NONE', *, *, #115, .T. ) ;
#997 = CARTESIAN_POINT ( 'NONE',  ( -14.00000000000000000, 0.3339745962155618586, 3.000000000000000000 ) ) ;
#998 = LINE ( 'NONE', #849, #847 ) ;
#999 = ORIENTED_EDGE ( 'NONE', *, *, #198, .F. ) ;
#1000 = DIRECTION ( 'NONE',  ( -0.000000000000000000, -0.000000000000000000, 1.000000000000000000 ) ) ;
#1001 = DIRECTION ( 'NONE',  ( -0.000000000000000000, 0.000000000000000000, -1.000000000000000000 ) ) ;
#1002 = EDGE_CURVE ( 'NONE', #662, #541, #219, .T. ) ;
#1003 = DIRECTION ( 'NONE',  ( -1.000000000000000000, 0.000000000000000000, 0.000000000000000000 ) ) ;
#1004 = EDGE_LOOP ( 'NONE', ( #570, #730, #861, #800 ) ) ;
#1005 = MANIFOLD_SOLID_BREP ( 'Enlèv. mat.-Extru.4', #1028 ) ;
#1006 = VERTEX_POINT ( 'NONE', #761 ) ;
#1007 = FACE_OUTER_BOUND ( 'NONE', #184, .T. ) ;
#1008 = CARTESIAN_POINT ( 'NONE',  ( -2.399999999999999911, -2.799999999999999822, -3.000000000000000000 ) ) ;
#1009 = ADVANCED_FACE ( 'NONE', ( #111 ), #444, .F. ) ;
#1010 = VECTOR ( 'NONE', #129, 1000.000000000000000 ) ;
#1011 = CARTESIAN_POINT ( 'NONE',  ( -12.78756443470178361, -2.900000000000002576, 3.000000000000000000 ) ) ;
#1012 = VECTOR ( 'NONE', #782, 1000.000000000000000 ) ;
#1013 = AXIS2_PLACEMENT_3D ( 'NONE', #508, #967, #806 ) ;
#1014 = DIRECTION ( 'NONE',  ( -1.000000000000000000, 0.000000000000000000, 0.000000000000000000 ) ) ;
#1015 = ORIENTED_EDGE ( 'NONE', *, *, #799, .F. ) ;
#1016 = LINE ( 'NONE', #695, #683 ) ;
#1017 = PLANE ( 'NONE',  #234 ) ;
#1018 = DIRECTION ( 'NONE',  ( -0.000000000000000000, -0.000000000000000000, -1.000000000000000000 ) ) ;
#1019 = ORIENTED_EDGE ( 'NONE', *, *, #162, .T. ) ;
#1020 = DIRECTION ( 'NONE',  ( 1.548860246407863583E-16, -1.000000000000000000, 0.000000000000000000 ) ) ;
#1021 = DIRECTION ( 'NONE',  ( 0.000000000000000000, 0.000000000000000000, -1.000000000000000000 ) ) ;
#1022 = CARTESIAN_POINT ( 'NONE',  ( -4.279385241571813658, -1.444447458290426890E-31, 3.000000000000000000 ) ) ;
#1023 = ADVANCED_FACE ( 'NONE', ( #749 ), #897, .F. ) ;
#1024 = ORIENTED_EDGE ( 'NONE', *, *, #727, .F. ) ;
#1025 = DIRECTION ( 'NONE',  ( -0.000000000000000000, -0.000000000000000000, 1.000000000000000000 ) ) ;
#1026 = CARTESIAN_POINT ( 'NONE',  ( 6.000000000000000000, 2.499999999999999556, 3.000000000000000000 ) ) ;
#1027 = FACE_OUTER_BOUND ( 'NONE', #306, .T. ) ;
#1028 = CLOSED_SHELL ( 'NONE', ( #211, #826, #301, #276, #960, #449, #193, #594, #1023, #365, #294, #811, #94, #602, #821, #890, #862, #170, #935, #737, #147, #105, #635, #411, #856, #1009, #995, #225, #350 ) ) ;
#1029 = CYLINDRICAL_SURFACE ( 'NONE', #509, 0.5000000000000004441 ) ;
#1030 = ORIENTED_EDGE ( 'NONE', *, *, #198, .T. ) ;
ENDSEC;
END-ISO-10303-21;
