ISO-10303-21;
HEADER;
FILE_DESCRIPTION (( 'STEP AP203' ),
    '1' );
FILE_NAME ('pattes_mobiles_rail.STEP',
    '2025-06-03T09:09:34',
    ( '' ),
    ( '' ),
    'SwSTEP 2.0',
    'SolidWorks 2023',
    '' );
FILE_SCHEMA (( 'CONFIG_CONTROL_DESIGN' ));
ENDSEC;

DATA;
#1 = EDGE_CURVE ( 'NONE', #690, #673, #507, .T. ) ;
#2 = ORIENTED_EDGE ( 'NONE', *, *, #607, .F. ) ;
#3 = DIRECTION ( 'NONE',  ( -1.000000000000000000, 1.772003075187620152E-16, 0.000000000000000000 ) ) ;
#4 = ORIENTED_EDGE ( 'NONE', *, *, #497, .F. ) ;
#5 = CARTESIAN_POINT ( 'NONE',  ( -2.399999999999999911, -1.499999999999999556, 3.000000000000000000 ) ) ;
#6 = EDGE_CURVE ( 'NONE', #389, #290, #581, .T. ) ;
#7 = ORIENTED_EDGE ( 'NONE', *, *, #798, .F. ) ;
#8 = EDGE_LOOP ( 'NONE', ( #528, #188, #348, #815 ) ) ;
#9 = DIRECTION ( 'NONE',  ( 0.000000000000000000, 0.000000000000000000, 1.000000000000000000 ) ) ;
#10 = AXIS2_PLACEMENT_3D ( 'NONE', #580, #847, #714 ) ;
#11 = DIRECTION ( 'NONE',  ( 1.000000000000000000, -1.772003075187620152E-16, -0.000000000000000000 ) ) ;
#12 = AXIS2_PLACEMENT_3D ( 'NONE', #496, #697, #106 ) ;
#13 = ORIENTED_EDGE ( 'NONE', *, *, #533, .T. ) ;
#14 = DIRECTION ( 'NONE',  ( 0.000000000000000000, 0.000000000000000000, 1.000000000000000000 ) ) ;
#15 = DIRECTION ( 'NONE',  ( -1.000000000000000000, 0.000000000000000000, 0.000000000000000000 ) ) ;
#16 = ORIENTED_EDGE ( 'NONE', *, *, #656, .T. ) ;
#17 = DIRECTION ( 'NONE',  ( -0.000000000000000000, -0.000000000000000000, 1.000000000000000000 ) ) ;
#18 = EDGE_CURVE ( 'NONE', #765, #717, #783, .T. ) ;
#19 = DIRECTION ( 'NONE',  ( -1.000000000000000000, 0.000000000000000000, 0.000000000000000000 ) ) ;
#20 = ORIENTED_EDGE ( 'NONE', *, *, #191, .T. ) ;
#21 = CALENDAR_DATE ( 2025, 3, 6 ) ;
#22 = VERTEX_POINT ( 'NONE', #659 ) ;
#23 = DIRECTION ( 'NONE',  ( -0.5000000000000012212, 0.8660254037844380415, -0.000000000000000000 ) ) ;
#24 = DIRECTION ( 'NONE',  ( -1.000000000000000000, 0.000000000000000000, 0.000000000000000000 ) ) ;
#25 = VECTOR ( 'NONE', #336, 1000.000000000000000 ) ;
#26 = VECTOR ( 'NONE', #594, 1000.000000000000000 ) ;
#27 = LINE ( 'NONE', #674, #725 ) ;
#28 = CARTESIAN_POINT ( 'NONE',  ( 1.899999999999999245, -2.000000000000000888, 3.000000000000000000 ) ) ;
#29 = ORIENTED_EDGE ( 'NONE', *, *, #221, .T. ) ;
#30 = EDGE_CURVE ( 'NONE', #55, #280, #119, .T. ) ;
#31 = ORIENTED_EDGE ( 'NONE', *, *, #260, .T. ) ;
#32 = DIRECTION ( 'NONE',  ( -1.000000000000000000, -3.469446951953611033E-15, 0.000000000000000000 ) ) ;
#33 = ADVANCED_BREP_SHAPE_REPRESENTATION ( 'pattes_mobiles_rail', ( #667, #838 ), #43 ) ;
#34 = LINE ( 'NONE', #301, #822 ) ;
#35 = EDGE_LOOP ( 'NONE', ( #379, #446, #453, #562 ) ) ;
#36 = CC_DESIGN_PERSON_AND_ORGANIZATION_ASSIGNMENT ( #461, #190, ( #108 ) ) ;
#37 = FACE_OUTER_BOUND ( 'NONE', #494, .T. ) ;
#38 = CARTESIAN_POINT ( 'NONE',  ( -10.56698729810777770, 0.7500000000000000000, 3.000000000000000000 ) ) ;
#39 = ORIENTED_EDGE ( 'NONE', *, *, #741, .T. ) ;
#40 = ORIENTED_EDGE ( 'NONE', *, *, #235, .F. ) ;
#41 = VECTOR ( 'NONE', #160, 1000.000000000000000 ) ;
#42 = CARTESIAN_POINT ( 'NONE',  ( 6.000000000000000000, 4.499999999999999112, 3.000000000000000000 ) ) ;
#43 =( GEOMETRIC_REPRESENTATION_CONTEXT ( 3 ) GLOBAL_UNCERTAINTY_ASSIGNED_CONTEXT ( ( #50 ) ) GLOBAL_UNIT_ASSIGNED_CONTEXT ( ( #531, #194, #456 ) ) REPRESENTATION_CONTEXT ( 'NONE', 'WORKASPACE' ) );
#44 = AXIS2_PLACEMENT_3D ( 'NONE', #89, #825, #488 ) ;
#45 = DIRECTION ( 'NONE',  ( 0.000000000000000000, 0.000000000000000000, 1.000000000000000000 ) ) ;
#46 = EDGE_LOOP ( 'NONE', ( #432, #482, #769, #794 ) ) ;
#47 = CARTESIAN_POINT ( 'NONE',  ( 6.000000000000000000, 0.4999999999999994449, 3.000000000000000000 ) ) ;
#48 = EDGE_CURVE ( 'NONE', #209, #810, #451, .T. ) ;
#49 = CYLINDRICAL_SURFACE ( 'NONE', #723, 1.250000000000000000 ) ;
#50 = UNCERTAINTY_MEASURE_WITH_UNIT (LENGTH_MEASURE( 1.000000000000000082E-05 ), #531, 'distance_accuracy_value', 'NONE');
#51 = FACE_OUTER_BOUND ( 'NONE', #296, .T. ) ;
#52 = EDGE_LOOP ( 'NONE', ( #617, #704, #175, #286 ) ) ;
#53 = CARTESIAN_POINT ( 'NONE',  ( -2.399999999999999467, -4.814824860968089633E-32, -3.000000000000000000 ) ) ;
#54 = LINE ( 'NONE', #860, #377 ) ;
#55 = VERTEX_POINT ( 'NONE', #398 ) ;
#56 = VECTOR ( 'NONE', #23, 999.9999999999998863 ) ;
#57 = CARTESIAN_POINT ( 'NONE',  ( 6.000000000000000000, -6.379211070675434126E-16, 3.000000000000000000 ) ) ;
#58 = CARTESIAN_POINT ( 'NONE',  ( -10.13397459621556074, -1.370462676791690568E-15, 3.000000000000000000 ) ) ;
#59 = FACE_OUTER_BOUND ( 'NONE', #52, .T. ) ;
#60 = FACE_OUTER_BOUND ( 'NONE', #259, .T. ) ;
#61 = PERSON_AND_ORGANIZATION ( #101, #754 ) ;
#62 = EDGE_CURVE ( 'NONE', #567, #534, #86, .T. ) ;
#63 = DIRECTION ( 'NONE',  ( 0.000000000000000000, 1.000000000000000000, 0.000000000000000000 ) ) ;
#64 = APPROVAL ( #353, 'UNSPECIFIED' ) ;
#65 = CIRCLE ( 'NONE', #807, 1.000000000000000444 ) ;
#66 = EDGE_CURVE ( 'NONE', #471, #123, #455, .T. ) ;
#67 = AXIS2_PLACEMENT_3D ( 'NONE', #313, #410, #604 ) ;
#68 = CC_DESIGN_APPROVAL ( #615, ( #334 ) ) ;
#69 = DIRECTION ( 'NONE',  ( -1.000000000000000000, 0.000000000000000000, 0.000000000000000000 ) ) ;
#70 = EDGE_CURVE ( 'NONE', #76, #637, #142, .T. ) ;
#71 = CARTESIAN_POINT ( 'NONE',  ( 2.399999999999999467, 0.000000000000000000, -3.000000000000000000 ) ) ;
#72 = ORIENTED_EDGE ( 'NONE', *, *, #154, .T. ) ;
#73 = DIRECTION ( 'NONE',  ( -0.000000000000000000, 1.000000000000000000, -0.000000000000000000 ) ) ;
#74 = FACE_OUTER_BOUND ( 'NONE', #46, .T. ) ;
#75 = ORIENTED_EDGE ( 'NONE', *, *, #719, .F. ) ;
#76 = VERTEX_POINT ( 'NONE', #521 ) ;
#77 = DIRECTION ( 'NONE',  ( 0.000000000000000000, 0.000000000000000000, 1.000000000000000000 ) ) ;
#78 = AXIS2_PLACEMENT_3D ( 'NONE', #122, #787, #388 ) ;
#79 = CARTESIAN_POINT ( 'NONE',  ( -10.13397459621556074, -1.370462676791690568E-15, 3.000000000000000000 ) ) ;
#80 = VECTOR ( 'NONE', #706, 1000.000000000000000 ) ;
#81 = ORIENTED_EDGE ( 'NONE', *, *, #70, .T. ) ;
#82 = PERSON_AND_ORGANIZATION ( #101, #754 ) ;
#83 = ADVANCED_FACE ( 'NONE', ( #710 ), #197, .F. ) ;
#84 = EDGE_LOOP ( 'NONE', ( #112, #770, #13, #487, #72, #178, #629, #827, #423, #691, #409, #503, #577, #818, #81, #31, #2, #408, #401, #686 ) ) ;
#85 = CARTESIAN_POINT ( 'NONE',  ( -10.13397459621556074, 0.4999999999999985012, -3.000000000000000000 ) ) ;
#86 = CIRCLE ( 'NONE', #382, 0.5000000000000000000 ) ;
#87 = LINE ( 'NONE', #473, #414 ) ;
#88 = ORIENTED_EDGE ( 'NONE', *, *, #742, .F. ) ;
#89 = CARTESIAN_POINT ( 'NONE',  ( 3.339692620785907451, -0.3420201433256728762, 3.000000000000000000 ) ) ;
#90 = ADVANCED_FACE ( 'NONE', ( #60 ), #328, .F. ) ;
#91 = FACE_OUTER_BOUND ( 'NONE', #8, .T. ) ;
#92 = EDGE_LOOP ( 'NONE', ( #478, #104, #683, #238 ) ) ;
#93 = VERTEX_POINT ( 'NONE', #800 ) ;
#94 = PLANE ( 'NONE',  #186 ) ;
#95 = EDGE_CURVE ( 'NONE', #500, #679, #202, .T. ) ;
#96 = LINE ( 'NONE', #298, #753 ) ;
#97 = VECTOR ( 'NONE', #357, 1000.000000000000000 ) ;
#98 = ORIENTED_EDGE ( 'NONE', *, *, #607, .T. ) ;
#99 = CIRCLE ( 'NONE', #116, 0.5000000000000004441 ) ;
#100 = CARTESIAN_POINT ( 'NONE',  ( 2.400000000000000355, -0.6840402866513448643, 3.000000000000000000 ) ) ;
#101 = PERSON ( 'UNSPECIFIED', 'UNSPECIFIED', 'UNSPECIFIED', ('UNSPECIFIED'), ('UNSPECIFIED'), ('UNSPECIFIED') ) ;
#102 = CARTESIAN_POINT ( 'NONE',  ( -10.63397459621555896, 4.499999999999999112, -3.000000000000000000 ) ) ;
#103 = ADVANCED_FACE ( 'NONE', ( #51 ), #326, .F. ) ;
#104 = ORIENTED_EDGE ( 'NONE', *, *, #730, .F. ) ;
#105 = DIRECTION ( 'NONE',  ( 0.000000000000000000, 0.000000000000000000, -1.000000000000000000 ) ) ;
#106 = DIRECTION ( 'NONE',  ( 0.000000000000000000, 0.000000000000000000, 1.000000000000000000 ) ) ;
#107 = CARTESIAN_POINT ( 'NONE',  ( 6.000000000000000000, 0.4999999999999994449, 3.000000000000000000 ) ) ;
#108 = PRODUCT ( 'pattes_mobiles_rail', 'pattes_mobiles_rail', '', ( #447 ) ) ;
#109 = ORIENTED_EDGE ( 'NONE', *, *, #719, .T. ) ;
#110 = DIRECTION ( 'NONE',  ( -1.000000000000000000, 0.000000000000000000, 0.000000000000000000 ) ) ;
#111 = DIRECTION ( 'NONE',  ( -0.000000000000000000, -0.000000000000000000, 1.000000000000000000 ) ) ;
#112 = ORIENTED_EDGE ( 'NONE', *, *, #195, .T. ) ;
#113 = EDGE_LOOP ( 'NONE', ( #149, #845, #547, #433 ) ) ;
#114 = CIRCLE ( 'NONE', #415, 0.5000000000000004441 ) ;
#115 = CARTESIAN_POINT ( 'NONE',  ( 0.000000000000000000, 0.000000000000000000, 3.000000000000000000 ) ) ;
#116 = AXIS2_PLACEMENT_3D ( 'NONE', #85, #291, #476 ) ;
#117 = ADVANCED_FACE ( 'NONE', ( #320 ), #858, .F. ) ;
#118 = FACE_OUTER_BOUND ( 'NONE', #537, .T. ) ;
#119 = LINE ( 'NONE', #512, #590 ) ;
#120 = DIRECTION ( 'NONE',  ( -0.000000000000000000, -0.000000000000000000, 1.000000000000000000 ) ) ;
#121 = DIRECTION ( 'NONE',  ( 2.710505431213761085E-16, 1.000000000000000000, -0.000000000000000000 ) ) ;
#122 = CARTESIAN_POINT ( 'NONE',  ( -2.399999999999999467, -4.814824860968089633E-32, 3.000000000000000000 ) ) ;
#123 = VERTEX_POINT ( 'NONE', #814 ) ;
#124 = VERTEX_POINT ( 'NONE', #743 ) ;
#125 = EDGE_CURVE ( 'NONE', #500, #162, #737, .T. ) ;
#126 = CARTESIAN_POINT ( 'NONE',  ( 0.000000000000000000, -2.000000000000000888, 0.000000000000000000 ) ) ;
#127 = VERTEX_POINT ( 'NONE', #411 ) ;
#128 = CIRCLE ( 'NONE', #738, 0.5000000000000004441 ) ;
#129 = CARTESIAN_POINT ( 'NONE',  ( 1.530808498934191571E-16, -2.000000000000000888, -1.250000000000000000 ) ) ;
#130 = ORIENTED_EDGE ( 'NONE', *, *, #776, .T. ) ;
#131 = ADVANCED_FACE ( 'NONE', ( #222 ), #530, .F. ) ;
#132 = APPLICATION_PROTOCOL_DEFINITION ( 'international standard', 'config_control_design', 1994, #751 ) ;
#133 = DIRECTION ( 'NONE',  ( -1.000000000000000000, 0.000000000000000000, 0.000000000000000000 ) ) ;
#134 = ORIENTED_EDGE ( 'NONE', *, *, #369, .T. ) ;
#135 = LINE ( 'NONE', #71, #797 ) ;
#136 = EDGE_CURVE ( 'NONE', #534, #669, #400, .T. ) ;
#137 = AXIS2_PLACEMENT_3D ( 'NONE', #304, #111, #571 ) ;
#138 = AXIS2_PLACEMENT_3D ( 'NONE', #756, #819, #480 ) ;
#139 = DIRECTION ( 'NONE',  ( -0.5000000000000012212, 0.8660254037844379305, 0.000000000000000000 ) ) ;
#140 = DATE_AND_TIME ( #285, #681 ) ;
#141 = ORIENTED_EDGE ( 'NONE', *, *, #168, .F. ) ;
#142 = CIRCLE ( 'NONE', #758, 0.5000000000000004441 ) ;
#143 = LINE ( 'NONE', #733, #25 ) ;
#144 = ORIENTED_EDGE ( 'NONE', *, *, #62, .F. ) ;
#145 = DIRECTION ( 'NONE',  ( -1.000000000000000000, 0.000000000000000000, 0.000000000000000000 ) ) ;
#146 = DIRECTION ( 'NONE',  ( 0.000000000000000000, 0.000000000000000000, -1.000000000000000000 ) ) ;
#147 = ORIENTED_EDGE ( 'NONE', *, *, #813, .T. ) ;
#148 = SECURITY_CLASSIFICATION_LEVEL ( 'unclassified' ) ;
#149 = ORIENTED_EDGE ( 'NONE', *, *, #274, .F. ) ;
#150 = DIRECTION ( 'NONE',  ( 0.000000000000000000, 0.000000000000000000, -1.000000000000000000 ) ) ;
#151 = AXIS2_PLACEMENT_3D ( 'NONE', #561, #294, #551 ) ;
#152 = VECTOR ( 'NONE', #573, 1000.000000000000000 ) ;
#153 = DIRECTION ( 'NONE',  ( 0.8660254037844379305, 0.5000000000000012212, 0.000000000000000000 ) ) ;
#154 = EDGE_CURVE ( 'NONE', #438, #249, #417, .T. ) ;
#155 = ORIENTED_EDGE ( 'NONE', *, *, #436, .T. ) ;
#156 = DATE_TIME_ROLE ( 'classification_date' ) ;
#157 = CC_DESIGN_SECURITY_CLASSIFICATION ( #335, ( #334 ) ) ;
#158 = ORIENTED_EDGE ( 'NONE', *, *, #790, .T. ) ;
#159 = FACE_OUTER_BOUND ( 'NONE', #225, .T. ) ;
#160 = DIRECTION ( 'NONE',  ( -0.000000000000000000, -0.000000000000000000, 1.000000000000000000 ) ) ;
#161 = ORIENTED_EDGE ( 'NONE', *, *, #309, .F. ) ;
#162 = VERTEX_POINT ( 'NONE', #682 ) ;
#163 = DIRECTION ( 'NONE',  ( -0.5000000000000012212, 0.8660254037844380415, -0.000000000000000000 ) ) ;
#164 = ADVANCED_FACE ( 'NONE', ( #208 ), #542, .T. ) ;
#165 = ORIENTED_EDGE ( 'NONE', *, *, #747, .T. ) ;
#166 = ORIENTED_EDGE ( 'NONE', *, *, #798, .T. ) ;
#167 = CARTESIAN_POINT ( 'NONE',  ( 2.399999999999999467, -0.6840402866513451974, -3.000000000000000000 ) ) ;
#168 = EDGE_CURVE ( 'NONE', #690, #343, #87, .T. ) ;
#169 = CYLINDRICAL_SURFACE ( 'NONE', #538, 0.5000000000000000000 ) ;
#170 = ORIENTED_EDGE ( 'NONE', *, *, #48, .F. ) ;
#171 = VECTOR ( 'NONE', #782, 1000.000000000000000 ) ;
#172 = CC_DESIGN_APPROVAL ( #64, ( #335 ) ) ;
#173 = CARTESIAN_POINT ( 'NONE',  ( -6.000000000000000000, 4.999999999999999112, 3.000000000000000000 ) ) ;
#174 = VERTEX_POINT ( 'NONE', #404 ) ;
#175 = ORIENTED_EDGE ( 'NONE', *, *, #195, .F. ) ;
#176 = CARTESIAN_POINT ( 'NONE',  ( -10.56698729810777770, 4.249999999999997335, 3.000000000000000000 ) ) ;
#177 = DIRECTION ( 'NONE',  ( -0.000000000000000000, 0.000000000000000000, -1.000000000000000000 ) ) ;
#178 = ORIENTED_EDGE ( 'NONE', *, *, #386, .T. ) ;
#179 = EDGE_CURVE ( 'NONE', #389, #22, #677, .T. ) ;
#180 = DIRECTION ( 'NONE',  ( 0.000000000000000000, 0.000000000000000000, -1.000000000000000000 ) ) ;
#181 = AXIS2_PLACEMENT_3D ( 'NONE', #655, #331, #183 ) ;
#182 = CARTESIAN_POINT ( 'NONE',  ( 6.000000000000000000, 4.499999999999999112, 3.000000000000000000 ) ) ;
#183 = DIRECTION ( 'NONE',  ( -1.000000000000000000, 0.000000000000000000, 0.000000000000000000 ) ) ;
#184 = AXIS2_PLACEMENT_3D ( 'NONE', #652, #187, #133 ) ;
#185 = CARTESIAN_POINT ( 'NONE',  ( 2.339692620785907007, -0.3420201433256728762, -3.000000000000000000 ) ) ;
#186 = AXIS2_PLACEMENT_3D ( 'NONE', #574, #244, #434 ) ;
#187 = DIRECTION ( 'NONE',  ( 0.000000000000000000, 0.000000000000000000, -1.000000000000000000 ) ) ;
#188 = ORIENTED_EDGE ( 'NONE', *, *, #70, .F. ) ;
#189 = ORIENTED_EDGE ( 'NONE', *, *, #6, .F. ) ;
#190 = PERSON_AND_ORGANIZATION_ROLE ( 'design_owner' ) ;
#191 = EDGE_CURVE ( 'NONE', #276, #352, #444, .T. ) ;
#192 = FACE_OUTER_BOUND ( 'NONE', #699, .T. ) ;
#193 = DIRECTION ( 'NONE',  ( -0.000000000000000000, 1.000000000000000000, -0.000000000000000000 ) ) ;
#194 =( NAMED_UNIT ( * ) PLANE_ANGLE_UNIT ( ) SI_UNIT ( $, .RADIAN. ) );
#195 = EDGE_CURVE ( 'NONE', #209, #124, #270, .T. ) ;
#196 = DIRECTION ( 'NONE',  ( -0.000000000000000000, 1.000000000000000000, -0.000000000000000000 ) ) ;
#197 = CYLINDRICAL_SURFACE ( 'NONE', #181, 1.000000000000000444 ) ;
#198 = AXIS2_PLACEMENT_3D ( 'NONE', #675, #616, #468 ) ;
#199 = VECTOR ( 'NONE', #501, 1000.000000000000000 ) ;
#200 = LOCAL_TIME ( 11, 9, 34.00000000000000000, #744 ) ;
#201 = FACE_OUTER_BOUND ( 'NONE', #806, .T. ) ;
#202 = LINE ( 'NONE', #597, #254 ) ;
#203 = CALENDAR_DATE ( 2025, 3, 6 ) ;
#204 = VECTOR ( 'NONE', #392, 1000.000000000000000 ) ;
#205 = CARTESIAN_POINT ( 'NONE',  ( -6.000000000000000000, -6.379211070675434126E-16, 3.000000000000000000 ) ) ;
#206 = EDGE_CURVE ( 'NONE', #850, #281, #215, .T. ) ;
#207 = PERSON_AND_ORGANIZATION ( #101, #754 ) ;
#208 = FACE_OUTER_BOUND ( 'NONE', #364, .T. ) ;
#209 = VERTEX_POINT ( 'NONE', #79 ) ;
#210 = AXIS2_PLACEMENT_3D ( 'NONE', #337, #600, #3 ) ;
#211 = CIRCLE ( 'NONE', #772, 1.250000000000000000 ) ;
#212 = CARTESIAN_POINT ( 'NONE',  ( -10.13397459621555896, 4.499999999999999112, 3.000000000000000000 ) ) ;
#213 = ORIENTED_EDGE ( 'NONE', *, *, #429, .F. ) ;
#214 = DIRECTION ( 'NONE',  ( -0.000000000000000000, -0.000000000000000000, 1.000000000000000000 ) ) ;
#215 = LINE ( 'NONE', #466, #640 ) ;
#216 = APPLICATION_CONTEXT ( 'configuration controlled 3d designs of mechanical parts and assemblies' ) ;
#217 = ORIENTED_EDGE ( 'NONE', *, *, #221, .F. ) ;
#218 = PERSON_AND_ORGANIZATION_ROLE ( 'design_supplier' ) ;
#219 = ORIENTED_EDGE ( 'NONE', *, *, #1, .F. ) ;
#220 = CARTESIAN_POINT ( 'NONE',  ( -11.00000000000000000, 4.999999999999999112, -3.000000000000000000 ) ) ;
#221 = EDGE_CURVE ( 'NONE', #679, #578, #143, .T. ) ;
#222 = FACE_OUTER_BOUND ( 'NONE', #395, .T. ) ;
#223 = ORIENTED_EDGE ( 'NONE', *, *, #136, .T. ) ;
#224 = PERSON_AND_ORGANIZATION_ROLE ( 'creator' ) ;
#225 = EDGE_LOOP ( 'NONE', ( #623, #253, #636, #619 ) ) ;
#226 = CARTESIAN_POINT ( 'NONE',  ( 2.399999999999999911, -1.500000000000000666, 3.000000000000000000 ) ) ;
#227 = AXIS2_PLACEMENT_3D ( 'NONE', #587, #481, #69 ) ;
#228 = APPROVAL_PERSON_ORGANIZATION ( #61, #839, #515 ) ;
#229 = LINE ( 'NONE', #371, #97 ) ;
#230 = ORIENTED_EDGE ( 'NONE', *, *, #399, .T. ) ;
#231 = CARTESIAN_POINT ( 'NONE',  ( 5.500000000000000000, 0.4999999999999994449, 3.000000000000000000 ) ) ;
#232 = CLOSED_SHELL ( 'NONE', ( #90, #545, #508, #821, #805, #406, #103, #472, #705, #248, #781, #321, #650, #131, #492, #621, #269, #449, #356, #283, #164, #117, #700, #83 ) ) ;
#233 = DIRECTION ( 'NONE',  ( -1.000000000000000000, 0.000000000000000000, -0.000000000000000000 ) ) ;
#234 = EDGE_LOOP ( 'NONE', ( #213, #844, #144, #831 ) ) ;
#235 = EDGE_CURVE ( 'NONE', #343, #765, #135, .T. ) ;
#236 = CARTESIAN_POINT ( 'NONE',  ( -1.899999999999999911, -1.999999999999999556, -3.000000000000000000 ) ) ;
#237 = CARTESIAN_POINT ( 'NONE',  ( 0.000000000000000000, 4.999999999999999112, 1.250000000000000000 ) ) ;
#238 = ORIENTED_EDGE ( 'NONE', *, *, #66, .F. ) ;
#239 = CARTESIAN_POINT ( 'NONE',  ( -10.13397459621555896, 4.499999999999999112, -3.000000000000000000 ) ) ;
#240 = DIRECTION ( 'NONE',  ( -2.168404344971009361E-16, -1.000000000000000000, 0.000000000000000000 ) ) ;
#241 = CARTESIAN_POINT ( 'NONE',  ( 3.339692620785907451, -0.3420201433256728762, 3.000000000000000000 ) ) ;
#242 = CIRCLE ( 'NONE', #345, 0.5000000000000004441 ) ;
#243 = ORIENTED_EDGE ( 'NONE', *, *, #303, .F. ) ;
#244 = DIRECTION ( 'NONE',  ( -1.000000000000000000, -2.168404344971007882E-16, 0.000000000000000000 ) ) ;
#245 = CARTESIAN_POINT ( 'NONE',  ( -10.13397459621555896, 4.499999999999999112, -3.000000000000000000 ) ) ;
#246 = CARTESIAN_POINT ( 'NONE',  ( 0.000000000000000000, -2.000000000000000888, 0.000000000000000000 ) ) ;
#247 = DIRECTION ( 'NONE',  ( -1.000000000000000000, 0.000000000000000000, 0.000000000000000000 ) ) ;
#248 = ADVANCED_FACE ( 'NONE', ( #347 ), #808, .F. ) ;
#249 = VERTEX_POINT ( 'NONE', #601 ) ;
#250 = CARTESIAN_POINT ( 'NONE',  ( -2.400000000000000355, -0.6840402866513448643, 3.000000000000000000 ) ) ;
#251 = PLANE ( 'NONE',  #292 ) ;
#252 = DIRECTION ( 'NONE',  ( -1.000000000000000000, 0.000000000000000000, 0.000000000000000000 ) ) ;
#253 = ORIENTED_EDGE ( 'NONE', *, *, #338, .F. ) ;
#254 = VECTOR ( 'NONE', #647, 1000.000000000000000 ) ;
#255 = DATE_TIME_ROLE ( 'creation_date' ) ;
#256 = DIRECTION ( 'NONE',  ( 0.000000000000000000, -0.000000000000000000, -1.000000000000000000 ) ) ;
#257 = CIRCLE ( 'NONE', #307, 1.000000000000000888 ) ;
#258 = DIRECTION ( 'NONE',  ( -1.000000000000000000, 2.710505431213761085E-16, 0.000000000000000000 ) ) ;
#259 = EDGE_LOOP ( 'NONE', ( #161, #165, #761, #368 ) ) ;
#260 = EDGE_CURVE ( 'NONE', #637, #711, #114, .T. ) ;
#261 = DIRECTION ( 'NONE',  ( -1.000000000000000000, -1.772003075187620152E-16, 0.000000000000000000 ) ) ;
#262 = CARTESIAN_POINT ( 'NONE',  ( -9.845299461620745873, 3.000000000000000888, 3.000000000000000000 ) ) ;
#263 = COORDINATED_UNIVERSAL_TIME_OFFSET ( 1, 0, .AHEAD. ) ;
#264 = DIRECTION ( 'NONE',  ( 0.000000000000000000, 0.000000000000000000, -1.000000000000000000 ) ) ;
#265 = CARTESIAN_POINT ( 'NONE',  ( 2.399999999999999467, 0.000000000000000000, 3.000000000000000000 ) ) ;
#266 = ORIENTED_EDGE ( 'NONE', *, *, #599, .T. ) ;
#267 = AXIS2_PLACEMENT_3D ( 'NONE', #748, #477, #273 ) ;
#268 = AXIS2_PLACEMENT_3D ( 'NONE', #231, #214, #277 ) ;
#269 = ADVANCED_FACE ( 'NONE', ( #74 ), #341, .T. ) ;
#270 = LINE ( 'NONE', #205, #853 ) ;
#271 = DIRECTION ( 'NONE',  ( 1.000000000000000000, -2.710505431213761085E-16, 0.000000000000000000 ) ) ;
#272 = ORIENTED_EDGE ( 'NONE', *, *, #458, .F. ) ;
#273 = DIRECTION ( 'NONE',  ( 1.000000000000000000, 0.000000000000000000, 0.000000000000000000 ) ) ;
#274 = EDGE_CURVE ( 'NONE', #358, #76, #546, .T. ) ;
#275 = EDGE_CURVE ( 'NONE', #637, #352, #820, .T. ) ;
#276 = VERTEX_POINT ( 'NONE', #685 ) ;
#277 = DIRECTION ( 'NONE',  ( -1.000000000000000000, 0.000000000000000000, 0.000000000000000000 ) ) ;
#278 = CIRCLE ( 'NONE', #137, 0.5000000000000000000 ) ;
#279 = CARTESIAN_POINT ( 'NONE',  ( 6.000000000000000000, -6.379211070675434126E-16, 3.000000000000000000 ) ) ;
#280 = VERTEX_POINT ( 'NONE', #440 ) ;
#281 = VERTEX_POINT ( 'NONE', #698 ) ;
#282 = DIRECTION ( 'NONE',  ( 1.000000000000000000, 1.772003075187620152E-16, 0.000000000000000000 ) ) ;
#283 = ADVANCED_FACE ( 'NONE', ( #91 ), #703, .T. ) ;
#284 = DIRECTION ( 'NONE',  ( 0.5000000000000012212, 0.8660254037844380415, -0.000000000000000000 ) ) ;
#285 = CALENDAR_DATE ( 2025, 3, 6 ) ;
#286 = ORIENTED_EDGE ( 'NONE', *, *, #48, .T. ) ;
#287 = CARTESIAN_POINT ( 'NONE',  ( -11.00000000000000000, 4.999999999999999112, 3.000000000000000000 ) ) ;
#288 = CARTESIAN_POINT ( 'NONE',  ( 5.500000000000000000, 4.499999999999999112, -3.000000000000000000 ) ) ;
#289 = DATE_AND_TIME ( #21, #200 ) ;
#290 = VERTEX_POINT ( 'NONE', #237 ) ;
#291 = DIRECTION ( 'NONE',  ( 0.000000000000000000, 0.000000000000000000, -1.000000000000000000 ) ) ;
#292 = AXIS2_PLACEMENT_3D ( 'NONE', #510, #121, #258 ) ;
#293 = AXIS2_PLACEMENT_3D ( 'NONE', #173, #852, #256 ) ;
#294 = DIRECTION ( 'NONE',  ( 0.000000000000000000, 0.000000000000000000, -1.000000000000000000 ) ) ;
#295 = EDGE_CURVE ( 'NONE', #123, #422, #402, .T. ) ;
#296 = EDGE_LOOP ( 'NONE', ( #349, #39, #166, #223 ) ) ;
#297 = CARTESIAN_POINT ( 'NONE',  ( -3.339692620785907451, -0.3420201433256728762, 3.000000000000000000 ) ) ;
#298 = CARTESIAN_POINT ( 'NONE',  ( -9.556624327025931009, 2.499999999999999112, 3.000000000000000000 ) ) ;
#299 = ORIENTED_EDGE ( 'NONE', *, *, #179, .T. ) ;
#300 = DIRECTION ( 'NONE',  ( 0.000000000000000000, 0.000000000000000000, 1.000000000000000000 ) ) ;
#301 = CARTESIAN_POINT ( 'NONE',  ( 5.500000000000000000, -5.493209533081623064E-16, 3.000000000000000000 ) ) ;
#302 = EDGE_LOOP ( 'NONE', ( #299, #130 ) ) ;
#303 = EDGE_CURVE ( 'NONE', #174, #759, #229, .T. ) ;
#304 = CARTESIAN_POINT ( 'NONE',  ( 1.899999999999999689, -1.500000000000000666, 3.000000000000000000 ) ) ;
#305 = EDGE_LOOP ( 'NONE', ( #824, #437 ) ) ;
#306 = ORIENTED_EDGE ( 'NONE', *, *, #849, .T. ) ;
#307 = AXIS2_PLACEMENT_3D ( 'NONE', #509, #120, #841 ) ;
#308 = CARTESIAN_POINT ( 'NONE',  ( -10.13397459621555896, 4.999999999999999112, -3.000000000000000000 ) ) ;
#309 = EDGE_CURVE ( 'NONE', #696, #500, #65, .T. ) ;
#310 = DIRECTION ( 'NONE',  ( 0.5000000000000012212, 0.8660254037844379305, 0.000000000000000000 ) ) ;
#311 = ORIENTED_EDGE ( 'NONE', *, *, #206, .T. ) ;
#312 = CARTESIAN_POINT ( 'NONE',  ( -9.845299461620745873, 1.999999999999997780, -3.000000000000000000 ) ) ;
#313 = CARTESIAN_POINT ( 'NONE',  ( -10.13397459621555896, 4.499999999999999112, -3.000000000000000000 ) ) ;
#314 = EDGE_CURVE ( 'NONE', #711, #276, #557, .T. ) ;
#315 = CARTESIAN_POINT ( 'NONE',  ( -1.899999999999999689, -1.499999999999999778, -3.000000000000000000 ) ) ;
#316 = ORIENTED_EDGE ( 'NONE', *, *, #235, .T. ) ;
#317 = COORDINATED_UNIVERSAL_TIME_OFFSET ( 1, 0, .AHEAD. ) ;
#318 = FACE_OUTER_BOUND ( 'NONE', #113, .T. ) ;
#319 = CARTESIAN_POINT ( 'NONE',  ( -1.899999999999999911, -1.999999999999999556, 3.000000000000000000 ) ) ;
#320 = FACE_OUTER_BOUND ( 'NONE', #92, .T. ) ;
#321 = ADVANCED_FACE ( 'NONE', ( #486 ), #826, .T. ) ;
#322 = VECTOR ( 'NONE', #391, 1000.000000000000000 ) ;
#323 = APPROVAL_STATUS ( 'not_yet_approved' ) ;
#324 = CIRCLE ( 'NONE', #403, 1.250000000000000000 ) ;
#325 = DIRECTION ( 'NONE',  ( 0.000000000000000000, 1.000000000000000000, 0.000000000000000000 ) ) ;
#326 = PLANE ( 'NONE',  #78 ) ;
#327 = CARTESIAN_POINT ( 'NONE',  ( -2.399999999999999467, -4.814824860968089633E-32, 3.000000000000000000 ) ) ;
#328 = CYLINDRICAL_SURFACE ( 'NONE', #460, 1.000000000000000444 ) ;
#329 = PERSON_AND_ORGANIZATION_ROLE ( 'creator' ) ;
#330 = EDGE_CURVE ( 'NONE', #93, #249, #635, .T. ) ;
#331 = DIRECTION ( 'NONE',  ( -0.000000000000000000, -0.000000000000000000, -1.000000000000000000 ) ) ;
#332 = VECTOR ( 'NONE', #193, 1000.000000000000000 ) ;
#333 = CIRCLE ( 'NONE', #837, 1.000000000000000444 ) ;
#334 = PRODUCT_DEFINITION_FORMATION_WITH_SPECIFIED_SOURCE ( 'ANY', '', #108, .NOT_KNOWN. ) ;
#335 = SECURITY_CLASSIFICATION ( '', '', #148 ) ;
#336 = DIRECTION ( 'NONE',  ( 1.000000000000000000, -1.772003075187620152E-16, -0.000000000000000000 ) ) ;
#337 = CARTESIAN_POINT ( 'NONE',  ( 6.000000000000000000, -6.379211070675434126E-16, 3.000000000000000000 ) ) ;
#338 = EDGE_CURVE ( 'NONE', #673, #696, #333, .T. ) ;
#339 = ORIENTED_EDGE ( 'NONE', *, *, #497, .T. ) ;
#340 = CARTESIAN_POINT ( 'NONE',  ( 0.000000000000000000, -2.000000000000000888, 0.000000000000000000 ) ) ;
#341 = CYLINDRICAL_SURFACE ( 'NONE', #784, 0.5000000000000004441 ) ;
#342 = EDGE_CURVE ( 'NONE', #365, #422, #96, .T. ) ;
#343 = VERTEX_POINT ( 'NONE', #363 ) ;
#344 = CARTESIAN_POINT ( 'NONE',  ( -10.13397459621555896, 4.999999999999999112, 3.000000000000000000 ) ) ;
#345 = AXIS2_PLACEMENT_3D ( 'NONE', #457, #722, #709 ) ;
#346 = CIRCLE ( 'NONE', #556, 1.000000000000000444 ) ;
#347 = FACE_OUTER_BOUND ( 'NONE', #745, .T. ) ;
#348 = ORIENTED_EDGE ( 'NONE', *, *, #564, .F. ) ;
#349 = ORIENTED_EDGE ( 'NONE', *, *, #533, .F. ) ;
#350 = DIRECTION ( 'NONE',  ( -0.000000000000000000, -0.000000000000000000, 1.000000000000000000 ) ) ;
#351 = CARTESIAN_POINT ( 'NONE',  ( 0.000000000000000000, -2.000000000000000888, 0.000000000000000000 ) ) ;
#352 = VERTEX_POINT ( 'NONE', #829 ) ;
#353 = APPROVAL_STATUS ( 'not_yet_approved' ) ;
#354 = ORIENTED_EDGE ( 'NONE', *, *, #62, .T. ) ;
#355 = CARTESIAN_POINT ( 'NONE',  ( -3.339692620785907451, -0.3420201433256728762, -3.000000000000000000 ) ) ;
#356 = ADVANCED_FACE ( 'NONE', ( #768 ), #169, .T. ) ;
#357 = DIRECTION ( 'NONE',  ( -1.000000000000000000, -0.000000000000000000, -0.000000000000000000 ) ) ;
#358 = VERTEX_POINT ( 'NONE', #367 ) ;
#359 = EDGE_LOOP ( 'NONE', ( #316, #755, #219, #553 ) ) ;
#360 = LINE ( 'NONE', #624, #470 ) ;
#361 = AXIS2_PLACEMENT_3D ( 'NONE', #351, #536, #803 ) ;
#362 = VECTOR ( 'NONE', #240, 1000.000000000000000 ) ;
#363 = CARTESIAN_POINT ( 'NONE',  ( 2.399999999999999911, -1.500000000000000666, -3.000000000000000000 ) ) ;
#364 = EDGE_LOOP ( 'NONE', ( #633, #170, #88, #603 ) ) ;
#365 = VERTEX_POINT ( 'NONE', #38 ) ;
#366 = PLANE ( 'NONE',  #293 ) ;
#367 = CARTESIAN_POINT ( 'NONE',  ( 5.500000000000000000, 4.999999999999999112, 3.000000000000000000 ) ) ;
#368 = ORIENTED_EDGE ( 'NONE', *, *, #95, .F. ) ;
#369 = EDGE_CURVE ( 'NONE', #578, #162, #34, .T. ) ;
#370 = CARTESIAN_POINT ( 'NONE',  ( -4.279385241571814547, 0.000000000000000000, -3.000000000000000000 ) ) ;
#371 = CARTESIAN_POINT ( 'NONE',  ( -6.000000000000000000, 4.999999999999999112, -3.000000000000000000 ) ) ;
#372 = VERTEX_POINT ( 'NONE', #107 ) ;
#373 = ORIENTED_EDGE ( 'NONE', *, *, #6, .T. ) ;
#374 = CC_DESIGN_DATE_AND_TIME_ASSIGNMENT ( #851, #255, ( #593 ) ) ;
#375 = CARTESIAN_POINT ( 'NONE',  ( -10.13397459621556074, 0.4999999999999985012, 3.000000000000000000 ) ) ;
#376 = CARTESIAN_POINT ( 'NONE',  ( 0.000000000000000000, -2.000000000000000888, 1.250000000000000000 ) ) ;
#377 = VECTOR ( 'NONE', #450, 1000.000000000000000 ) ;
#378 = LOCAL_TIME ( 11, 9, 34.00000000000000000, #263 ) ;
#379 = ORIENTED_EDGE ( 'NONE', *, *, #342, .T. ) ;
#380 = DIRECTION ( 'NONE',  ( 0.000000000000000000, 0.000000000000000000, -1.000000000000000000 ) ) ;
#381 = CC_DESIGN_PERSON_AND_ORGANIZATION_ASSIGNMENT ( #739, #467, ( #335 ) ) ;
#382 = AXIS2_PLACEMENT_3D ( 'NONE', #315, #721, #856 ) ;
#383 = CYLINDRICAL_SURFACE ( 'NONE', #67, 0.5000000000000004441 ) ;
#384 = DIRECTION ( 'NONE',  ( -0.000000000000000000, -0.000000000000000000, -1.000000000000000000 ) ) ;
#385 = LINE ( 'NONE', #250, #80 ) ;
#386 = EDGE_CURVE ( 'NONE', #249, #690, #278, .T. ) ;
#387 = LINE ( 'NONE', #57, #498 ) ;
#388 = DIRECTION ( 'NONE',  ( 2.168404344971009361E-16, 1.000000000000000000, 0.000000000000000000 ) ) ;
#389 = VERTEX_POINT ( 'NONE', #376 ) ;
#390 = APPROVAL_ROLE ( '' ) ;
#391 = DIRECTION ( 'NONE',  ( 1.000000000000000000, -2.710505431213761085E-16, 0.000000000000000000 ) ) ;
#392 = DIRECTION ( 'NONE',  ( -0.000000000000000000, 0.000000000000000000, 1.000000000000000000 ) ) ;
#393 = VECTOR ( 'NONE', #834, 1000.000000000000000 ) ;
#394 = AXIS2_PLACEMENT_3D ( 'NONE', #355, #150, #750 ) ;
#395 = EDGE_LOOP ( 'NONE', ( #412, #426, #98, #479 ) ) ;
#396 = PERSON_AND_ORGANIZATION ( #101, #754 ) ;
#397 = FACE_OUTER_BOUND ( 'NONE', #740, .T. ) ;
#398 = CARTESIAN_POINT ( 'NONE',  ( 6.000000000000000000, 0.4999999999999994449, -3.000000000000000000 ) ) ;
#399 = EDGE_CURVE ( 'NONE', #174, #280, #584, .T. ) ;
#400 = LINE ( 'NONE', #5, #596 ) ;
#401 = ORIENTED_EDGE ( 'NONE', *, *, #342, .F. ) ;
#402 = CIRCLE ( 'NONE', #151, 1.000000000000000888 ) ;
#403 = AXIS2_PLACEMENT_3D ( 'NONE', #246, #505, #300 ) ;
#404 = CARTESIAN_POINT ( 'NONE',  ( 5.500000000000000000, 4.999999999999999112, -3.000000000000000000 ) ) ;
#405 = EDGE_LOOP ( 'NONE', ( #16, #475, #543, #147 ) ) ;
#406 = ADVANCED_FACE ( 'NONE', ( #59 ), #857, .F. ) ;
#407 = DIRECTION ( 'NONE',  ( -0.000000000000000000, -0.000000000000000000, 1.000000000000000000 ) ) ;
#408 = ORIENTED_EDGE ( 'NONE', *, *, #295, .T. ) ;
#409 = ORIENTED_EDGE ( 'NONE', *, *, #662, .T. ) ;
#410 = DIRECTION ( 'NONE',  ( 0.000000000000000000, 0.000000000000000000, -1.000000000000000000 ) ) ;
#411 = CARTESIAN_POINT ( 'NONE',  ( -2.400000000000000355, -0.6840402866513448643, -3.000000000000000000 ) ) ;
#412 = ORIENTED_EDGE ( 'NONE', *, *, #628, .F. ) ;
#413 = CARTESIAN_POINT ( 'NONE',  ( 2.400000000000000355, -0.6840402866513448643, 3.000000000000000000 ) ) ;
#414 = VECTOR ( 'NONE', #146, 1000.000000000000000 ) ;
#415 = AXIS2_PLACEMENT_3D ( 'NONE', #212, #407, #671 ) ;
#416 = AXIS2_PLACEMENT_3D ( 'NONE', #560, #762, #544 ) ;
#417 = LINE ( 'NONE', #532, #484 ) ;
#418 = APPROVAL_DATE_TIME ( #672, #615 ) ;
#419 = EDGE_CURVE ( 'NONE', #358, #174, #54, .T. ) ;
#420 = ORIENTED_EDGE ( 'NONE', *, *, #550, .F. ) ;
#421 = LINE ( 'NONE', #287, #56 ) ;
#422 = VERTEX_POINT ( 'NONE', #642 ) ;
#423 = ORIENTED_EDGE ( 'NONE', *, *, #309, .T. ) ;
#424 = CARTESIAN_POINT ( 'NONE',  ( -2.399999999999999911, -1.499999999999999556, 3.000000000000000000 ) ) ;
#425 = CARTESIAN_POINT ( 'NONE',  ( -10.56698729810777770, 4.249999999999997335, -3.000000000000000000 ) ) ;
#426 = ORIENTED_EDGE ( 'NONE', *, *, #66, .T. ) ;
#427 = LINE ( 'NONE', #692, #598 ) ;
#428 = AXIS2_PLACEMENT_3D ( 'NONE', #288, #264, #576 ) ;
#429 = EDGE_CURVE ( 'NONE', #669, #438, #525, .T. ) ;
#430 = VECTOR ( 'NONE', #17, 1000.000000000000000 ) ;
#431 = CARTESIAN_POINT ( 'NONE',  ( -1.899999999999999689, -1.499999999999999778, 3.000000000000000000 ) ) ;
#432 = ORIENTED_EDGE ( 'NONE', *, *, #662, .F. ) ;
#433 = ORIENTED_EDGE ( 'NONE', *, *, #564, .T. ) ;
#434 = DIRECTION ( 'NONE',  ( 2.168404344971007882E-16, -1.000000000000000000, 0.000000000000000000 ) ) ;
#435 = DIRECTION ( 'NONE',  ( 0.000000000000000000, 0.000000000000000000, -1.000000000000000000 ) ) ;
#436 = EDGE_CURVE ( 'NONE', #22, #611, #842, .T. ) ;
#437 = ORIENTED_EDGE ( 'NONE', *, *, #586, .F. ) ;
#438 = VERTEX_POINT ( 'NONE', #319 ) ;
#439 = LINE ( 'NONE', #312, #199 ) ;
#440 = CARTESIAN_POINT ( 'NONE',  ( 6.000000000000000000, 4.499999999999999112, -3.000000000000000000 ) ) ;
#441 = VERTEX_POINT ( 'NONE', #855 ) ;
#442 = LINE ( 'NONE', #638, #694 ) ;
#443 = DIRECTION ( 'NONE',  ( -0.000000000000000000, 1.000000000000000000, -0.000000000000000000 ) ) ;
#444 = CIRCLE ( 'NONE', #198, 0.5000000000000004441 ) ;
#445 = ORIENTED_EDGE ( 'NONE', *, *, #191, .F. ) ;
#446 = ORIENTED_EDGE ( 'NONE', *, *, #730, .T. ) ;
#447 = MECHANICAL_CONTEXT ( 'NONE', #751, 'mechanical' ) ;
#448 = LINE ( 'NONE', #47, #171 ) ;
#449 = ADVANCED_FACE ( 'NONE', ( #201 ), #728, .T. ) ;
#450 = DIRECTION ( 'NONE',  ( 0.000000000000000000, 0.000000000000000000, -1.000000000000000000 ) ) ;
#451 = LINE ( 'NONE', #58, #727 ) ;
#452 = ORIENTED_EDGE ( 'NONE', *, *, #18, .F. ) ;
#453 = ORIENTED_EDGE ( 'NONE', *, *, #206, .F. ) ;
#454 = CARTESIAN_POINT ( 'NONE',  ( -6.000000000000000000, -6.379211070675434126E-16, 3.000000000000000000 ) ) ;
#455 = LINE ( 'NONE', #262, #204 ) ;
#456 =( NAMED_UNIT ( * ) SI_UNIT ( $, .STERADIAN. ) SOLID_ANGLE_UNIT ( ) );
#457 = CARTESIAN_POINT ( 'NONE',  ( 5.500000000000000000, 0.4999999999999994449, -3.000000000000000000 ) ) ;
#458 = EDGE_CURVE ( 'NONE', #372, #540, #387, .T. ) ;
#459 = CARTESIAN_POINT ( 'NONE',  ( 3.339692620785907451, -0.3420201433256728762, -3.000000000000000000 ) ) ;
#460 = AXIS2_PLACEMENT_3D ( 'NONE', #526, #384, #595 ) ;
#461 = PERSON_AND_ORGANIZATION ( #101, #754 ) ;
#462 = DIRECTION ( 'NONE',  ( 0.000000000000000000, 0.000000000000000000, -1.000000000000000000 ) ) ;
#463 = ORIENTED_EDGE ( 'NONE', *, *, #275, .T. ) ;
#464 = EDGE_CURVE ( 'NONE', #717, #679, #555, .T. ) ;
#465 = CARTESIAN_POINT ( 'NONE',  ( 0.000000000000000000, 0.000000000000000000, 0.000000000000000000 ) ) ;
#466 = CARTESIAN_POINT ( 'NONE',  ( -9.556624327025931009, 2.499999999999999112, -3.000000000000000000 ) ) ;
#467 = PERSON_AND_ORGANIZATION_ROLE ( 'classification_officer' ) ;
#468 = DIRECTION ( 'NONE',  ( -1.000000000000000000, 0.000000000000000000, 0.000000000000000000 ) ) ;
#469 = AXIS2_PLACEMENT_3D ( 'NONE', #245, #627, #24 ) ;
#470 = VECTOR ( 'NONE', #282, 1000.000000000000000 ) ;
#471 = VERTEX_POINT ( 'NONE', #646 ) ;
#472 = ADVANCED_FACE ( 'NONE', ( #658, #192 ), #251, .F. ) ;
#473 = CARTESIAN_POINT ( 'NONE',  ( 2.399999999999999911, -1.500000000000000666, 3.000000000000000000 ) ) ;
#474 = COORDINATED_UNIVERSAL_TIME_OFFSET ( 1, 0, .AHEAD. ) ;
#475 = ORIENTED_EDGE ( 'NONE', *, *, #741, .F. ) ;
#476 = DIRECTION ( 'NONE',  ( -1.000000000000000000, 0.000000000000000000, 0.000000000000000000 ) ) ;
#477 = DIRECTION ( 'NONE',  ( 0.000000000000000000, 0.000000000000000000, 1.000000000000000000 ) ) ;
#478 = ORIENTED_EDGE ( 'NONE', *, *, #773, .F. ) ;
#479 = ORIENTED_EDGE ( 'NONE', *, *, #314, .T. ) ;
#480 = DIRECTION ( 'NONE',  ( -1.000000000000000000, 0.000000000000000000, 0.000000000000000000 ) ) ;
#481 = DIRECTION ( 'NONE',  ( 0.000000000000000000, 0.000000000000000000, -1.000000000000000000 ) ) ;
#482 = ORIENTED_EDGE ( 'NONE', *, *, #369, .F. ) ;
#483 = DIRECTION ( 'NONE',  ( 0.000000000000000000, 1.000000000000000000, 0.000000000000000000 ) ) ;
#484 = VECTOR ( 'NONE', #271, 1000.000000000000000 ) ;
#485 = CC_DESIGN_APPROVAL ( #839, ( #593 ) ) ;
#486 = FACE_OUTER_BOUND ( 'NONE', #749, .T. ) ;
#487 = ORIENTED_EDGE ( 'NONE', *, *, #429, .T. ) ;
#488 = DIRECTION ( 'NONE',  ( -1.000000000000000000, 0.000000000000000000, 0.000000000000000000 ) ) ;
#489 = DIRECTION ( 'NONE',  ( 1.000000000000000000, 0.000000000000000000, 0.000000000000000000 ) ) ;
#490 = ORIENTED_EDGE ( 'NONE', *, *, #776, .F. ) ;
#491 = LINE ( 'NONE', #220, #641 ) ;
#492 = ADVANCED_FACE ( 'NONE', ( #524 ), #520, .F. ) ;
#493 = CARTESIAN_POINT ( 'NONE',  ( 3.339692620785907451, -0.3420201433256728762, 3.000000000000000000 ) ) ;
#494 = EDGE_LOOP ( 'NONE', ( #559, #644, #272, #158 ) ) ;
#495 = DIRECTION ( 'NONE',  ( -1.000000000000000000, 0.000000000000000000, 0.000000000000000000 ) ) ;
#496 = CARTESIAN_POINT ( 'NONE',  ( 6.000000000000000000, -6.379211070675434126E-16, 3.000000000000000000 ) ) ;
#497 = EDGE_CURVE ( 'NONE', #567, #93, #517, .T. ) ;
#498 = VECTOR ( 'NONE', #325, 1000.000000000000000 ) ;
#499 = DIRECTION ( 'NONE',  ( 0.5000000000000012212, 0.8660254037844380415, -0.000000000000000000 ) ) ;
#500 = VERTEX_POINT ( 'NONE', #791 ) ;
#501 = DIRECTION ( 'NONE',  ( -0.000000000000000000, -0.000000000000000000, -1.000000000000000000 ) ) ;
#502 = CC_DESIGN_DATE_AND_TIME_ASSIGNMENT ( #140, #156, ( #335 ) ) ;
#503 = ORIENTED_EDGE ( 'NONE', *, *, #458, .T. ) ;
#504 = ORIENTED_EDGE ( 'NONE', *, *, #832, .T. ) ;
#505 = DIRECTION ( 'NONE',  ( 0.000000000000000000, 1.000000000000000000, 0.000000000000000000 ) ) ;
#506 = LINE ( 'NONE', #327, #26 ) ;
#507 = LINE ( 'NONE', #265, #639 ) ;
#508 = ADVANCED_FACE ( 'NONE', ( #720 ), #49, .F. ) ;
#509 = CARTESIAN_POINT ( 'NONE',  ( -10.71132486540518336, 2.499999999999999112, -3.000000000000000000 ) ) ;
#510 = CARTESIAN_POINT ( 'NONE',  ( -2.399999999999999911, -1.999999999999999556, 3.000000000000000000 ) ) ;
#511 = AXIS2_PLACEMENT_3D ( 'NONE', #757, #775, #233 ) ;
#512 = CARTESIAN_POINT ( 'NONE',  ( 6.000000000000000000, -6.379211070675434126E-16, -3.000000000000000000 ) ) ;
#513 = ORIENTED_EDGE ( 'NONE', *, *, #330, .F. ) ;
#514 = LOCAL_TIME ( 11, 9, 34.00000000000000000, #589 ) ;
#515 = APPROVAL_ROLE ( '' ) ;
#516 = CARTESIAN_POINT ( 'NONE',  ( -10.13397459621556074, -1.370462676791690568E-15, -3.000000000000000000 ) ) ;
#517 = LINE ( 'NONE', #591, #322 ) ;
#518 = DIRECTION ( 'NONE',  ( 0.000000000000000000, 0.000000000000000000, -1.000000000000000000 ) ) ;
#519 = EDGE_CURVE ( 'NONE', #55, #578, #242, .T. ) ;
#520 = PLANE ( 'NONE',  #606 ) ;
#521 = CARTESIAN_POINT ( 'NONE',  ( -10.13397459621555896, 4.999999999999999112, 3.000000000000000000 ) ) ;
#522 = CALENDAR_DATE ( 2025, 3, 6 ) ;
#523 = CC_DESIGN_PERSON_AND_ORGANIZATION_ASSIGNMENT ( #396, #329, ( #593 ) ) ;
#524 = FACE_OUTER_BOUND ( 'NONE', #35, .T. ) ;
#525 = CIRCLE ( 'NONE', #10, 0.5000000000000000000 ) ;
#526 = CARTESIAN_POINT ( 'NONE',  ( 3.339692620785907451, -0.3420201433256728762, 3.000000000000000000 ) ) ;
#527 = VECTOR ( 'NONE', #645, 1000.000000000000000 ) ;
#528 = ORIENTED_EDGE ( 'NONE', *, *, #275, .F. ) ;
#529 = CIRCLE ( 'NONE', #654, 0.5000000000000004441 ) ;
#530 = PLANE ( 'NONE',  #569 ) ;
#531 =( LENGTH_UNIT ( ) NAMED_UNIT ( * ) SI_UNIT ( .MILLI., .METRE. ) );
#532 = CARTESIAN_POINT ( 'NONE',  ( -2.399999999999999911, -1.999999999999999556, 3.000000000000000000 ) ) ;
#533 = EDGE_CURVE ( 'NONE', #441, #669, #506, .T. ) ;
#534 = VERTEX_POINT ( 'NONE', #796 ) ;
#535 = EDGE_LOOP ( 'NONE', ( #861, #588, #373, #266 ) ) ;
#536 = DIRECTION ( 'NONE',  ( 0.000000000000000000, 1.000000000000000000, 0.000000000000000000 ) ) ;
#537 = EDGE_LOOP ( 'NONE', ( #643, #463, #445, #582 ) ) ;
#538 = AXIS2_PLACEMENT_3D ( 'NONE', #431, #695, #19 ) ;
#539 = CIRCLE ( 'NONE', #585, 0.5000000000000000000 ) ;
#540 = VERTEX_POINT ( 'NONE', #182 ) ;
#541 = DIRECTION ( 'NONE',  ( 0.000000000000000000, 0.000000000000000000, -1.000000000000000000 ) ) ;
#542 = CYLINDRICAL_SURFACE ( 'NONE', #267, 0.5000000000000004441 ) ;
#543 = ORIENTED_EDGE ( 'NONE', *, *, #575, .F. ) ;
#544 = DIRECTION ( 'NONE',  ( 0.000000000000000000, 0.000000000000000000, 1.000000000000000000 ) ) ;
#545 = ADVANCED_FACE ( 'NONE', ( #118 ), #383, .T. ) ;
#546 = LINE ( 'NONE', #817, #393 ) ;
#547 = ORIENTED_EDGE ( 'NONE', *, *, #303, .T. ) ;
#548 = ORIENTED_EDGE ( 'NONE', *, *, #586, .T. ) ;
#549 = CARTESIAN_POINT ( 'NONE',  ( 2.339692620785907007, -0.3420201433256728762, 3.000000000000000000 ) ) ;
#550 = EDGE_CURVE ( 'NONE', #810, #823, #360, .T. ) ;
#551 = DIRECTION ( 'NONE',  ( -1.000000000000000000, 0.000000000000000000, 0.000000000000000000 ) ) ;
#552 = APPROVAL_DATE_TIME ( #289, #64 ) ;
#553 = ORIENTED_EDGE ( 'NONE', *, *, #168, .T. ) ;
#554 = CARTESIAN_POINT ( 'NONE',  ( 5.500000000000000000, 4.499999999999999112, 3.000000000000000000 ) ) ;
#555 = CIRCLE ( 'NONE', #663, 1.000000000000000444 ) ;
#556 = AXIS2_PLACEMENT_3D ( 'NONE', #297, #541, #145 ) ;
#557 = LINE ( 'NONE', #425, #795 ) ;
#558 = EDGE_CURVE ( 'NONE', #850, #365, #27, .T. ) ;
#559 = ORIENTED_EDGE ( 'NONE', *, *, #30, .T. ) ;
#560 = CARTESIAN_POINT ( 'NONE',  ( 0.000000000000000000, 4.999999999999999112, 0.000000000000000000 ) ) ;
#561 = CARTESIAN_POINT ( 'NONE',  ( -10.71132486540518336, 2.499999999999999112, 3.000000000000000000 ) ) ;
#562 = ORIENTED_EDGE ( 'NONE', *, *, #558, .T. ) ;
#563 = ORIENTED_EDGE ( 'NONE', *, *, #689, .F. ) ;
#564 = EDGE_CURVE ( 'NONE', #759, #76, #620, .T. ) ;
#565 = PLANE ( 'NONE',  #12 ) ;
#566 = DIRECTION ( 'NONE',  ( -0.000000000000000000, -0.000000000000000000, 1.000000000000000000 ) ) ;
#567 = VERTEX_POINT ( 'NONE', #236 ) ;
#568 = LINE ( 'NONE', #836, #152 ) ;
#569 = AXIS2_PLACEMENT_3D ( 'NONE', #752, #153, #139 ) ;
#570 = AXIS2_PLACEMENT_3D ( 'NONE', #340, #73, #9 ) ;
#571 = DIRECTION ( 'NONE',  ( -1.000000000000000000, 0.000000000000000000, 0.000000000000000000 ) ) ;
#572 = ORIENTED_EDGE ( 'NONE', *, *, #386, .F. ) ;
#573 = DIRECTION ( 'NONE',  ( 0.000000000000000000, 0.000000000000000000, -1.000000000000000000 ) ) ;
#574 = CARTESIAN_POINT ( 'NONE',  ( 2.399999999999999467, 0.000000000000000000, 3.000000000000000000 ) ) ;
#575 = EDGE_CURVE ( 'NONE', #124, #441, #346, .T. ) ;
#576 = DIRECTION ( 'NONE',  ( -1.000000000000000000, 0.000000000000000000, 0.000000000000000000 ) ) ;
#577 = ORIENTED_EDGE ( 'NONE', *, *, #689, .T. ) ;
#578 = VERTEX_POINT ( 'NONE', #609 ) ;
#579 = DIRECTION ( 'NONE',  ( -0.000000000000000000, -0.000000000000000000, 1.000000000000000000 ) ) ;
#580 = CARTESIAN_POINT ( 'NONE',  ( -1.899999999999999689, -1.499999999999999778, 3.000000000000000000 ) ) ;
#581 = LINE ( 'NONE', #848, #332 ) ;
#582 = ORIENTED_EDGE ( 'NONE', *, *, #314, .F. ) ;
#583 = FACE_BOUND ( 'NONE', #305, .T. ) ;
#584 = CIRCLE ( 'NONE', #428, 0.5000000000000004441 ) ;
#585 = AXIS2_PLACEMENT_3D ( 'NONE', #702, #380, #110 ) ;
#586 = EDGE_CURVE ( 'NONE', #611, #290, #211, .T. ) ;
#587 = CARTESIAN_POINT ( 'NONE',  ( -10.71132486540518336, 2.499999999999999112, -3.000000000000000000 ) ) ;
#588 = ORIENTED_EDGE ( 'NONE', *, *, #179, .F. ) ;
#589 = COORDINATED_UNIVERSAL_TIME_OFFSET ( 1, 0, .AHEAD. ) ;
#590 = VECTOR ( 'NONE', #63, 1000.000000000000000 ) ;
#591 = CARTESIAN_POINT ( 'NONE',  ( -2.399999999999999911, -1.999999999999999556, -3.000000000000000000 ) ) ;
#592 = DIRECTION ( 'NONE',  ( -2.168404344971007882E-16, 1.000000000000000000, -0.000000000000000000 ) ) ;
#593 = PRODUCT_DEFINITION ( 'UNKNOWN', '', #334, #843 ) ;
#594 = DIRECTION ( 'NONE',  ( -2.168404344971009361E-16, -1.000000000000000000, 0.000000000000000000 ) ) ;
#595 = DIRECTION ( 'NONE',  ( -1.000000000000000000, 0.000000000000000000, 0.000000000000000000 ) ) ;
#596 = VECTOR ( 'NONE', #802, 1000.000000000000000 ) ;
#597 = CARTESIAN_POINT ( 'NONE',  ( 4.279385241571814547, 0.000000000000000000, 3.000000000000000000 ) ) ;
#598 = VECTOR ( 'NONE', #631, 1000.000000000000000 ) ;
#599 = EDGE_CURVE ( 'NONE', #290, #611, #678, .T. ) ;
#600 = DIRECTION ( 'NONE',  ( 1.772003075187620152E-16, 1.000000000000000000, -0.000000000000000000 ) ) ;
#601 = CARTESIAN_POINT ( 'NONE',  ( 1.899999999999999245, -2.000000000000000888, 3.000000000000000000 ) ) ;
#602 = PRODUCT_RELATED_PRODUCT_CATEGORY ( 'detail', '', ( #108 ) ) ;
#603 = ORIENTED_EDGE ( 'NONE', *, *, #558, .F. ) ;
#604 = DIRECTION ( 'NONE',  ( -1.000000000000000000, 0.000000000000000000, 0.000000000000000000 ) ) ;
#605 = CARTESIAN_POINT ( 'NONE',  ( 5.500000000000000000, 0.4999999999999994449, 3.000000000000000000 ) ) ;
#606 = AXIS2_PLACEMENT_3D ( 'NONE', #779, #786, #310 ) ;
#607 = EDGE_CURVE ( 'NONE', #123, #711, #421, .T. ) ;
#608 = ORIENTED_EDGE ( 'NONE', *, *, #464, .F. ) ;
#609 = CARTESIAN_POINT ( 'NONE',  ( 5.500000000000000000, -5.493209533081623064E-16, -3.000000000000000000 ) ) ;
#610 = DIRECTION ( 'NONE',  ( 0.000000000000000000, 0.000000000000000000, -1.000000000000000000 ) ) ;
#611 = VERTEX_POINT ( 'NONE', #828 ) ;
#612 = PERSON_AND_ORGANIZATION ( #101, #754 ) ;
#613 = ORIENTED_EDGE ( 'NONE', *, *, #676, .T. ) ;
#614 = DIRECTION ( 'NONE',  ( -1.000000000000000000, 0.000000000000000000, 0.000000000000000000 ) ) ;
#615 = APPROVAL ( #718, 'UNSPECIFIED' ) ;
#616 = DIRECTION ( 'NONE',  ( 0.000000000000000000, 0.000000000000000000, -1.000000000000000000 ) ) ;
#617 = ORIENTED_EDGE ( 'NONE', *, *, #550, .T. ) ;
#618 = CALENDAR_DATE ( 2025, 3, 6 ) ;
#619 = ORIENTED_EDGE ( 'NONE', *, *, #18, .T. ) ;
#620 = LINE ( 'NONE', #344, #430 ) ;
#621 = ADVANCED_FACE ( 'NONE', ( #397 ), #816, .T. ) ;
#622 = DIRECTION ( 'NONE',  ( 0.000000000000000000, 0.000000000000000000, -1.000000000000000000 ) ) ;
#623 = ORIENTED_EDGE ( 'NONE', *, *, #747, .F. ) ;
#624 = CARTESIAN_POINT ( 'NONE',  ( -6.000000000000000000, -6.379211070675434126E-16, -3.000000000000000000 ) ) ;
#625 = VECTOR ( 'NONE', #11, 1000.000000000000000 ) ;
#626 = CIRCLE ( 'NONE', #394, 1.000000000000000444 ) ;
#627 = DIRECTION ( 'NONE',  ( 0.000000000000000000, 0.000000000000000000, -1.000000000000000000 ) ) ;
#628 = EDGE_CURVE ( 'NONE', #471, #276, #491, .T. ) ;
#629 = ORIENTED_EDGE ( 'NONE', *, *, #1, .T. ) ;
#630 = ORIENTED_EDGE ( 'NONE', *, *, #519, .T. ) ;
#631 = DIRECTION ( 'NONE',  ( -0.000000000000000000, -0.000000000000000000, -1.000000000000000000 ) ) ;
#632 = DIRECTION ( 'NONE',  ( -0.000000000000000000, 0.000000000000000000, -1.000000000000000000 ) ) ;
#633 = ORIENTED_EDGE ( 'NONE', *, *, #676, .F. ) ;
#634 = LINE ( 'NONE', #42, #665 ) ;
#635 = LINE ( 'NONE', #28, #41 ) ;
#636 = ORIENTED_EDGE ( 'NONE', *, *, #760, .T. ) ;
#637 = VERTEX_POINT ( 'NONE', #766 ) ;
#638 = CARTESIAN_POINT ( 'NONE',  ( 2.339692620785907007, -0.3420201433256728762, 3.000000000000000000 ) ) ;
#639 = VECTOR ( 'NONE', #592, 1000.000000000000000 ) ;
#640 = VECTOR ( 'NONE', #284, 999.9999999999998863 ) ;
#641 = VECTOR ( 'NONE', #163, 999.9999999999998863 ) ;
#642 = CARTESIAN_POINT ( 'NONE',  ( -9.845299461620745873, 1.999999999999997780, 3.000000000000000000 ) ) ;
#643 = ORIENTED_EDGE ( 'NONE', *, *, #260, .F. ) ;
#644 = ORIENTED_EDGE ( 'NONE', *, *, #713, .T. ) ;
#645 = DIRECTION ( 'NONE',  ( -0.000000000000000000, -0.000000000000000000, -1.000000000000000000 ) ) ;
#646 = CARTESIAN_POINT ( 'NONE',  ( -9.845299461620745873, 3.000000000000001332, -3.000000000000000000 ) ) ;
#647 = DIRECTION ( 'NONE',  ( -0.000000000000000000, -0.000000000000000000, -1.000000000000000000 ) ) ;
#648 = DATE_AND_TIME ( #522, #378 ) ;
#649 = DIRECTION ( 'NONE',  ( -1.000000000000000000, 0.000000000000000000, -0.000000000000000000 ) ) ;
#650 = ADVANCED_FACE ( 'NONE', ( #680 ), #670, .F. ) ;
#651 = CARTESIAN_POINT ( 'NONE',  ( 3.339692620785907451, -0.3420201433256728762, -3.000000000000000000 ) ) ;
#652 = CARTESIAN_POINT ( 'NONE',  ( 1.899999999999999689, -1.500000000000000666, 3.000000000000000000 ) ) ;
#653 = VECTOR ( 'NONE', #435, 1000.000000000000000 ) ;
#654 = AXIS2_PLACEMENT_3D ( 'NONE', #239, #105, #495 ) ;
#655 = CARTESIAN_POINT ( 'NONE',  ( -3.339692620785907451, -0.3420201433256728762, 3.000000000000000000 ) ) ;
#656 = EDGE_CURVE ( 'NONE', #823, #127, #626, .T. ) ;
#657 = DIRECTION ( 'NONE',  ( 0.000000000000000000, 0.000000000000000000, 1.000000000000000000 ) ) ;
#658 = FACE_BOUND ( 'NONE', #302, .T. ) ;
#659 = CARTESIAN_POINT ( 'NONE',  ( 1.530808498934191571E-16, -2.000000000000000888, -1.250000000000000000 ) ) ;
#660 = DIRECTION ( 'NONE',  ( -0.000000000000000000, -0.000000000000000000, 1.000000000000000000 ) ) ;
#661 = CARTESIAN_POINT ( 'NONE',  ( -10.56698729810777770, 0.7500000000000000000, -3.000000000000000000 ) ) ;
#662 = EDGE_CURVE ( 'NONE', #162, #372, #799, .T. ) ;
#663 = AXIS2_PLACEMENT_3D ( 'NONE', #651, #462, #247 ) ;
#664 = DIRECTION ( 'NONE',  ( -2.168404344971007882E-16, 1.000000000000000000, -0.000000000000000000 ) ) ;
#665 = VECTOR ( 'NONE', #579, 1000.000000000000000 ) ;
#666 = APPROVAL_PERSON_ORGANIZATION ( #612, #64, #804 ) ;
#667 = MANIFOLD_SOLID_BREP ( 'Enlèv. mat.-Extru.5', #232 ) ;
#668 = DIRECTION ( 'NONE',  ( 1.000000000000000000, 1.772003075187620152E-16, 0.000000000000000000 ) ) ;
#669 = VERTEX_POINT ( 'NONE', #424 ) ;
#670 = CYLINDRICAL_SURFACE ( 'NONE', #570, 1.250000000000000000 ) ;
#671 = DIRECTION ( 'NONE',  ( -1.000000000000000000, 0.000000000000000000, 0.000000000000000000 ) ) ;
#672 = DATE_AND_TIME ( #618, #514 ) ;
#673 = VERTEX_POINT ( 'NONE', #413 ) ;
#674 = CARTESIAN_POINT ( 'NONE',  ( -10.56698729810777770, 0.7499999999999993339, -3.000000000000000000 ) ) ;
#675 = CARTESIAN_POINT ( 'NONE',  ( -10.13397459621555896, 4.499999999999999112, -3.000000000000000000 ) ) ;
#676 = EDGE_CURVE ( 'NONE', #810, #850, #99, .T. ) ;
#677 = CIRCLE ( 'NONE', #361, 1.250000000000000000 ) ;
#678 = CIRCLE ( 'NONE', #416, 1.250000000000000000 ) ;
#679 = VERTEX_POINT ( 'NONE', #746 ) ;
#680 = FACE_OUTER_BOUND ( 'NONE', #535, .T. ) ;
#681 = LOCAL_TIME ( 11, 9, 34.00000000000000000, #474 ) ;
#682 = CARTESIAN_POINT ( 'NONE',  ( 5.500000000000000000, -5.493209533081623064E-16, 3.000000000000000000 ) ) ;
#683 = ORIENTED_EDGE ( 'NONE', *, *, #295, .F. ) ;
#684 = CYLINDRICAL_SURFACE ( 'NONE', #44, 1.000000000000000444 ) ;
#685 = CARTESIAN_POINT ( 'NONE',  ( -10.56698729810777770, 4.249999999999997335, -3.000000000000000000 ) ) ;
#686 = ORIENTED_EDGE ( 'NONE', *, *, #742, .T. ) ;
#687 = ORIENTED_EDGE ( 'NONE', *, *, #419, .F. ) ;
#688 = FACE_OUTER_BOUND ( 'NONE', #359, .T. ) ;
#689 = EDGE_CURVE ( 'NONE', #540, #358, #128, .T. ) ;
#690 = VERTEX_POINT ( 'NONE', #226 ) ;
#691 = ORIENTED_EDGE ( 'NONE', *, *, #125, .T. ) ;
#692 = CARTESIAN_POINT ( 'NONE',  ( -4.279385241571814547, 0.000000000000000000, 3.000000000000000000 ) ) ;
#693 = VECTOR ( 'NONE', #443, 1000.000000000000000 ) ;
#694 = VECTOR ( 'NONE', #833, 1000.000000000000000 ) ;
#695 = DIRECTION ( 'NONE',  ( 0.000000000000000000, 0.000000000000000000, -1.000000000000000000 ) ) ;
#696 = VERTEX_POINT ( 'NONE', #549 ) ;
#697 = DIRECTION ( 'NONE',  ( -1.000000000000000000, 0.000000000000000000, 0.000000000000000000 ) ) ;
#698 = CARTESIAN_POINT ( 'NONE',  ( -9.845299461620745873, 1.999999999999997780, -3.000000000000000000 ) ) ;
#699 = EDGE_LOOP ( 'NONE', ( #339, #801, #777, #504 ) ) ;
#700 = ADVANCED_FACE ( 'NONE', ( #159 ), #684, .F. ) ;
#701 = ORIENTED_EDGE ( 'NONE', *, *, #628, .T. ) ;
#702 = CARTESIAN_POINT ( 'NONE',  ( 1.899999999999999689, -1.500000000000000666, -3.000000000000000000 ) ) ;
#703 = CYLINDRICAL_SURFACE ( 'NONE', #469, 0.5000000000000004441 ) ;
#704 = ORIENTED_EDGE ( 'NONE', *, *, #813, .F. ) ;
#705 = ADVANCED_FACE ( 'NONE', ( #688 ), #94, .F. ) ;
#706 = DIRECTION ( 'NONE',  ( -0.000000000000000000, -0.000000000000000000, -1.000000000000000000 ) ) ;
#707 = LOCAL_TIME ( 11, 9, 34.00000000000000000, #317 ) ;
#708 = APPROVAL_PERSON_ORGANIZATION ( #789, #615, #390 ) ;
#709 = DIRECTION ( 'NONE',  ( -1.000000000000000000, 0.000000000000000000, 0.000000000000000000 ) ) ;
#710 = FACE_OUTER_BOUND ( 'NONE', #405, .T. ) ;
#711 = VERTEX_POINT ( 'NONE', #176 ) ;
#712 = LINE ( 'NONE', #53, #362 ) ;
#713 = EDGE_CURVE ( 'NONE', #280, #540, #634, .T. ) ;
#714 = DIRECTION ( 'NONE',  ( -1.000000000000000000, 0.000000000000000000, 0.000000000000000000 ) ) ;
#715 = DIRECTION ( 'NONE',  ( -1.000000000000000000, 0.000000000000000000, 0.000000000000000000 ) ) ;
#716 = ORIENTED_EDGE ( 'NONE', *, *, #656, .F. ) ;
#717 = VERTEX_POINT ( 'NONE', #185 ) ;
#718 = APPROVAL_STATUS ( 'not_yet_approved' ) ;
#719 = EDGE_CURVE ( 'NONE', #343, #93, #539, .T. ) ;
#720 = FACE_OUTER_BOUND ( 'NONE', #788, .T. ) ;
#721 = DIRECTION ( 'NONE',  ( 0.000000000000000000, 0.000000000000000000, -1.000000000000000000 ) ) ;
#722 = DIRECTION ( 'NONE',  ( 0.000000000000000000, 0.000000000000000000, -1.000000000000000000 ) ) ;
#723 = AXIS2_PLACEMENT_3D ( 'NONE', #126, #196, #45 ) ;
#724 = CC_DESIGN_PERSON_AND_ORGANIZATION_ASSIGNMENT ( #207, #218, ( #334 ) ) ;
#725 = VECTOR ( 'NONE', #77, 1000.000000000000000 ) ;
#726 = CARTESIAN_POINT ( 'NONE',  ( -10.13397459621555896, 4.499999999999999112, 3.000000000000000000 ) ) ;
#727 = VECTOR ( 'NONE', #780, 1000.000000000000000 ) ;
#728 = CYLINDRICAL_SURFACE ( 'NONE', #184, 0.5000000000000000000 ) ;
#729 = ORIENTED_EDGE ( 'NONE', *, *, #95, .T. ) ;
#730 = EDGE_CURVE ( 'NONE', #422, #281, #439, .T. ) ;
#731 = ORIENTED_EDGE ( 'NONE', *, *, #125, .F. ) ;
#732 = DIRECTION ( 'NONE',  ( 1.000000000000000000, 0.000000000000000000, 0.000000000000000000 ) ) ;
#733 = CARTESIAN_POINT ( 'NONE',  ( 6.000000000000000000, -6.379211070675434126E-16, -3.000000000000000000 ) ) ;
#734 = SHAPE_DEFINITION_REPRESENTATION ( #764, #33 ) ;
#735 = AXIS2_PLACEMENT_3D ( 'NONE', #459, #518, #252 ) ;
#736 = AXIS2_PLACEMENT_3D ( 'NONE', #454, #793, #261 ) ;
#737 = LINE ( 'NONE', #279, #625 ) ;
#738 = AXIS2_PLACEMENT_3D ( 'NONE', #554, #350, #614 ) ;
#739 = PERSON_AND_ORGANIZATION ( #101, #754 ) ;
#740 = EDGE_LOOP ( 'NONE', ( #563, #811, #835, #687 ) ) ;
#741 = EDGE_CURVE ( 'NONE', #441, #127, #385, .T. ) ;
#742 = EDGE_CURVE ( 'NONE', #365, #209, #854, .T. ) ;
#743 = CARTESIAN_POINT ( 'NONE',  ( -4.279385241571814547, 0.000000000000000000, 3.000000000000000000 ) ) ;
#744 = COORDINATED_UNIVERSAL_TIME_OFFSET ( 1, 0, .AHEAD. ) ;
#745 = EDGE_LOOP ( 'NONE', ( #731, #729, #29, #134 ) ) ;
#746 = CARTESIAN_POINT ( 'NONE',  ( 4.279385241571814547, 0.000000000000000000, -3.000000000000000000 ) ) ;
#747 = EDGE_CURVE ( 'NONE', #696, #717, #442, .T. ) ;
#748 = CARTESIAN_POINT ( 'NONE',  ( -10.13397459621556074, 0.4999999999999985012, -3.000000000000000000 ) ) ;
#749 = EDGE_LOOP ( 'NONE', ( #716, #420, #613, #311, #840, #701, #20, #306, #243, #230, #830, #630, #217, #608, #452, #40, #109, #4, #354, #7 ) ) ;
#750 = DIRECTION ( 'NONE',  ( -1.000000000000000000, 0.000000000000000000, 0.000000000000000000 ) ) ;
#751 = APPLICATION_CONTEXT ( 'configuration controlled 3d designs of mechanical parts and assemblies' ) ;
#752 = CARTESIAN_POINT ( 'NONE',  ( -11.00000000000000000, 4.999999999999999112, -3.000000000000000000 ) ) ;
#753 = VECTOR ( 'NONE', #499, 999.9999999999998863 ) ;
#754 = ORGANIZATION ( 'UNSPECIFIED', 'UNSPECIFIED', '' ) ;
#755 = ORIENTED_EDGE ( 'NONE', *, *, #760, .F. ) ;
#756 = CARTESIAN_POINT ( 'NONE',  ( 5.500000000000000000, 4.499999999999999112, 3.000000000000000000 ) ) ;
#757 = CARTESIAN_POINT ( 'NONE',  ( 0.000000000000000000, 0.000000000000000000, -3.000000000000000000 ) ) ;
#758 = AXIS2_PLACEMENT_3D ( 'NONE', #726, #660, #715 ) ;
#759 = VERTEX_POINT ( 'NONE', #308 ) ;
#760 = EDGE_CURVE ( 'NONE', #673, #765, #771, .T. ) ;
#761 = ORIENTED_EDGE ( 'NONE', *, *, #464, .T. ) ;
#762 = DIRECTION ( 'NONE',  ( 0.000000000000000000, 1.000000000000000000, 0.000000000000000000 ) ) ;
#763 = DIRECTION ( 'NONE',  ( 1.000000000000000000, 0.000000000000000000, 0.000000000000000000 ) ) ;
#764 = PRODUCT_DEFINITION_SHAPE ( 'NONE', 'NONE',  #593 ) ;
#765 = VERTEX_POINT ( 'NONE', #167 ) ;
#766 = CARTESIAN_POINT ( 'NONE',  ( -10.63397459621555896, 4.499999999999999112, 3.000000000000000000 ) ) ;
#767 = CC_DESIGN_PERSON_AND_ORGANIZATION_ASSIGNMENT ( #82, #224, ( #334 ) ) ;
#768 = FACE_OUTER_BOUND ( 'NONE', #234, .T. ) ;
#769 = ORIENTED_EDGE ( 'NONE', *, *, #519, .F. ) ;
#770 = ORIENTED_EDGE ( 'NONE', *, *, #575, .T. ) ;
#771 = LINE ( 'NONE', #100, #527 ) ;
#772 = AXIS2_PLACEMENT_3D ( 'NONE', #812, #483, #14 ) ;
#773 = EDGE_CURVE ( 'NONE', #281, #471, #257, .T. ) ;
#774 = DIRECTION ( 'NONE',  ( -0.000000000000000000, -0.000000000000000000, 1.000000000000000000 ) ) ;
#775 = DIRECTION ( 'NONE',  ( 0.000000000000000000, 0.000000000000000000, -1.000000000000000000 ) ) ;
#776 = EDGE_CURVE ( 'NONE', #22, #389, #324, .T. ) ;
#777 = ORIENTED_EDGE ( 'NONE', *, *, #154, .F. ) ;
#778 = PLANE ( 'NONE',  #809 ) ;
#779 = CARTESIAN_POINT ( 'NONE',  ( -9.556624327025931009, 2.499999999999999112, -3.000000000000000000 ) ) ;
#780 = DIRECTION ( 'NONE',  ( -0.000000000000000000, -0.000000000000000000, -1.000000000000000000 ) ) ;
#781 = ADVANCED_FACE ( 'NONE', ( #846 ), #778, .F. ) ;
#782 = DIRECTION ( 'NONE',  ( 0.000000000000000000, 0.000000000000000000, -1.000000000000000000 ) ) ;
#783 = CIRCLE ( 'NONE', #735, 1.000000000000000444 ) ;
#784 = AXIS2_PLACEMENT_3D ( 'NONE', #605, #610, #15 ) ;
#785 = AXIS2_PLACEMENT_3D ( 'NONE', #375, #774, #32 ) ;
#786 = DIRECTION ( 'NONE',  ( 0.8660254037844379305, -0.5000000000000012212, 0.000000000000000000 ) ) ;
#787 = DIRECTION ( 'NONE',  ( 1.000000000000000000, -2.168404344971009361E-16, 0.000000000000000000 ) ) ;
#788 = EDGE_LOOP ( 'NONE', ( #490, #155, #548, #189 ) ) ;
#789 = PERSON_AND_ORGANIZATION ( #101, #754 ) ;
#790 = EDGE_CURVE ( 'NONE', #372, #55, #448, .T. ) ;
#791 = CARTESIAN_POINT ( 'NONE',  ( 4.279385241571814547, 0.000000000000000000, 3.000000000000000000 ) ) ;
#792 = APPROVAL_DATE_TIME ( #648, #839 ) ;
#793 = DIRECTION ( 'NONE',  ( -1.772003075187620152E-16, 1.000000000000000000, 0.000000000000000000 ) ) ;
#794 = ORIENTED_EDGE ( 'NONE', *, *, #790, .F. ) ;
#795 = VECTOR ( 'NONE', #622, 1000.000000000000000 ) ;
#796 = CARTESIAN_POINT ( 'NONE',  ( -2.399999999999999911, -1.499999999999999556, -3.000000000000000000 ) ) ;
#797 = VECTOR ( 'NONE', #664, 1000.000000000000000 ) ;
#798 = EDGE_CURVE ( 'NONE', #127, #534, #712, .T. ) ;
#799 = CIRCLE ( 'NONE', #268, 0.5000000000000004441 ) ;
#800 = CARTESIAN_POINT ( 'NONE',  ( 1.899999999999999245, -2.000000000000000888, -3.000000000000000000 ) ) ;
#801 = ORIENTED_EDGE ( 'NONE', *, *, #330, .T. ) ;
#802 = DIRECTION ( 'NONE',  ( -0.000000000000000000, -0.000000000000000000, 1.000000000000000000 ) ) ;
#803 = DIRECTION ( 'NONE',  ( 0.000000000000000000, 0.000000000000000000, 1.000000000000000000 ) ) ;
#804 = APPROVAL_ROLE ( '' ) ;
#805 = ADVANCED_FACE ( 'NONE', ( #583, #318 ), #366, .F. ) ;
#806 = EDGE_LOOP ( 'NONE', ( #572, #513, #75, #141 ) ) ;
#807 = AXIS2_PLACEMENT_3D ( 'NONE', #493, #632, #763 ) ;
#808 = PLANE ( 'NONE',  #210 ) ;
#809 = AXIS2_PLACEMENT_3D ( 'NONE', #115, #180, #649 ) ;
#810 = VERTEX_POINT ( 'NONE', #516 ) ;
#811 = ORIENTED_EDGE ( 'NONE', *, *, #713, .F. ) ;
#812 = CARTESIAN_POINT ( 'NONE',  ( 0.000000000000000000, 4.999999999999999112, 0.000000000000000000 ) ) ;
#813 = EDGE_CURVE ( 'NONE', #124, #823, #427, .T. ) ;
#814 = CARTESIAN_POINT ( 'NONE',  ( -9.845299461620745873, 3.000000000000001332, 3.000000000000000000 ) ) ;
#815 = ORIENTED_EDGE ( 'NONE', *, *, #849, .F. ) ;
#816 = CYLINDRICAL_SURFACE ( 'NONE', #138, 0.5000000000000004441 ) ;
#817 = CARTESIAN_POINT ( 'NONE',  ( -6.000000000000000000, 4.999999999999999112, 3.000000000000000000 ) ) ;
#818 = ORIENTED_EDGE ( 'NONE', *, *, #274, .T. ) ;
#819 = DIRECTION ( 'NONE',  ( 0.000000000000000000, 0.000000000000000000, -1.000000000000000000 ) ) ;
#820 = LINE ( 'NONE', #102, #653 ) ;
#821 = ADVANCED_FACE ( 'NONE', ( #37 ), #565, .F. ) ;
#822 = VECTOR ( 'NONE', #566, 1000.000000000000000 ) ;
#823 = VERTEX_POINT ( 'NONE', #370 ) ;
#824 = ORIENTED_EDGE ( 'NONE', *, *, #599, .F. ) ;
#825 = DIRECTION ( 'NONE',  ( -0.000000000000000000, -0.000000000000000000, -1.000000000000000000 ) ) ;
#826 = PLANE ( 'NONE',  #511 ) ;
#827 = ORIENTED_EDGE ( 'NONE', *, *, #338, .T. ) ;
#828 = CARTESIAN_POINT ( 'NONE',  ( 1.530808498934191571E-16, 4.999999999999999112, -1.250000000000000000 ) ) ;
#829 = CARTESIAN_POINT ( 'NONE',  ( -10.63397459621555896, 4.499999999999999112, -3.000000000000000000 ) ) ;
#830 = ORIENTED_EDGE ( 'NONE', *, *, #30, .F. ) ;
#831 = ORIENTED_EDGE ( 'NONE', *, *, #832, .F. ) ;
#832 = EDGE_CURVE ( 'NONE', #438, #567, #568, .T. ) ;
#833 = DIRECTION ( 'NONE',  ( -0.000000000000000000, -0.000000000000000000, -1.000000000000000000 ) ) ;
#834 = DIRECTION ( 'NONE',  ( -1.000000000000000000, -0.000000000000000000, -0.000000000000000000 ) ) ;
#835 = ORIENTED_EDGE ( 'NONE', *, *, #399, .F. ) ;
#836 = CARTESIAN_POINT ( 'NONE',  ( -1.899999999999999911, -1.999999999999999556, 3.000000000000000000 ) ) ;
#837 = AXIS2_PLACEMENT_3D ( 'NONE', #241, #177, #489 ) ;
#838 = AXIS2_PLACEMENT_3D ( 'NONE', #465, #657, #732 ) ;
#839 = APPROVAL ( #323, 'UNSPECIFIED' ) ;
#840 = ORIENTED_EDGE ( 'NONE', *, *, #773, .T. ) ;
#841 = DIRECTION ( 'NONE',  ( -1.000000000000000000, 0.000000000000000000, 0.000000000000000000 ) ) ;
#842 = LINE ( 'NONE', #129, #693 ) ;
#843 = DESIGN_CONTEXT ( 'detailed design', #216, 'design' ) ;
#844 = ORIENTED_EDGE ( 'NONE', *, *, #136, .F. ) ;
#845 = ORIENTED_EDGE ( 'NONE', *, *, #419, .T. ) ;
#846 = FACE_OUTER_BOUND ( 'NONE', #84, .T. ) ;
#847 = DIRECTION ( 'NONE',  ( -0.000000000000000000, -0.000000000000000000, 1.000000000000000000 ) ) ;
#848 = CARTESIAN_POINT ( 'NONE',  ( 0.000000000000000000, -2.000000000000000888, 1.250000000000000000 ) ) ;
#849 = EDGE_CURVE ( 'NONE', #352, #759, #529, .T. ) ;
#850 = VERTEX_POINT ( 'NONE', #661 ) ;
#851 = DATE_AND_TIME ( #203, #707 ) ;
#852 = DIRECTION ( 'NONE',  ( 0.000000000000000000, -1.000000000000000000, 0.000000000000000000 ) ) ;
#853 = VECTOR ( 'NONE', #668, 1000.000000000000000 ) ;
#854 = CIRCLE ( 'NONE', #785, 0.5000000000000004441 ) ;
#855 = CARTESIAN_POINT ( 'NONE',  ( -2.400000000000000355, -0.6840402866513448643, 3.000000000000000000 ) ) ;
#856 = DIRECTION ( 'NONE',  ( -1.000000000000000000, 0.000000000000000000, 0.000000000000000000 ) ) ;
#857 = PLANE ( 'NONE',  #736 ) ;
#858 = CYLINDRICAL_SURFACE ( 'NONE', #227, 1.000000000000000888 ) ;
#859 = APPLICATION_PROTOCOL_DEFINITION ( 'international standard', 'config_control_design', 1994, #216 ) ;
#860 = CARTESIAN_POINT ( 'NONE',  ( 5.500000000000000000, 4.999999999999999112, 3.000000000000000000 ) ) ;
#861 = ORIENTED_EDGE ( 'NONE', *, *, #436, .F. ) ;
ENDSEC;
END-ISO-10303-21;
