ISO-10303-21;
HEADER;
FILE_DESCRIPTION (( 'STEP AP203' ),
    '1' );
FILE_NAME ('piece_up_serrage_rails_mobiles.STEP',
    '2025-06-03T09:08:13',
    ( '' ),
    ( '' ),
    'SwSTEP 2.0',
    'SolidWorks 2023',
    '' );
FILE_SCHEMA (( 'CONFIG_CONTROL_DESIGN' ));
ENDSEC;

DATA;
#1 = VERTEX_POINT ( 'NONE', #241 ) ;
#2 = ADVANCED_FACE ( 'NONE', ( #94, #638 ), #537, .F. ) ;
#3 = DIRECTION ( 'NONE',  ( 1.772003075187620152E-16, -1.000000000000000000, -0.000000000000000000 ) ) ;
#4 = PRODUCT_DEFINITION_SHAPE ( 'NONE', 'NONE',  #634 ) ;
#5 = ORIENTED_EDGE ( 'NONE', *, *, #685, .F. ) ;
#6 = ORIENTED_EDGE ( 'NONE', *, *, #233, .T. ) ;
#7 = CARTESIAN_POINT ( 'NONE',  ( -6.000000000000000000, 2.499999999999999556, -2.499999999999999556 ) ) ;
#8 = VECTOR ( 'NONE', #201, 1000.000000000000000 ) ;
#9 = ORIENTED_EDGE ( 'NONE', *, *, #114, .F. ) ;
#10 = ORIENTED_EDGE ( 'NONE', *, *, #332, .T. ) ;
#11 = DIRECTION ( 'NONE',  ( -0.000000000000000000, 1.000000000000000000, -0.000000000000000000 ) ) ;
#12 = DIRECTION ( 'NONE',  ( -1.807003620809173892E-16, 1.000000000000000000, 0.000000000000000000 ) ) ;
#13 = EDGE_CURVE ( 'NONE', #690, #559, #703, .T. ) ;
#14 = EDGE_LOOP ( 'NONE', ( #145, #353, #19, #682 ) ) ;
#15 = DIRECTION ( 'NONE',  ( -1.000000000000000000, -0.000000000000000000, -0.000000000000000000 ) ) ;
#16 = ORIENTED_EDGE ( 'NONE', *, *, #375, .F. ) ;
#17 = CYLINDRICAL_SURFACE ( 'NONE', #111, 0.5000000000000000000 ) ;
#18 = VERTEX_POINT ( 'NONE', #369 ) ;
#19 = ORIENTED_EDGE ( 'NONE', *, *, #689, .F. ) ;
#20 = DIRECTION ( 'NONE',  ( 0.000000000000000000, -1.000000000000000000, -0.000000000000000000 ) ) ;
#21 = DIRECTION ( 'NONE',  ( -1.000000000000000000, 0.000000000000000000, 0.000000000000000000 ) ) ;
#22 = VERTEX_POINT ( 'NONE', #542 ) ;
#23 = EDGE_CURVE ( 'NONE', #158, #236, #76, .T. ) ;
#24 = CARTESIAN_POINT ( 'NONE',  ( -5.500000000000000000, 2.499999999999999556, 3.000000000000000000 ) ) ;
#25 = CIRCLE ( 'NONE', #86, 1.699999999999999956 ) ;
#26 = CARTESIAN_POINT ( 'NONE',  ( 5.500000000000000000, 2.499999999999999556, 3.000000000000000000 ) ) ;
#27 = EDGE_LOOP ( 'NONE', ( #510, #371, #64, #599 ) ) ;
#28 = CARTESIAN_POINT ( 'NONE',  ( 0.000000000000000000, -3.500000000000000444, 0.000000000000000000 ) ) ;
#29 = EDGE_CURVE ( 'NONE', #217, #354, #487, .T. ) ;
#30 = DIRECTION ( 'NONE',  ( 0.000000000000000000, 0.000000000000000000, 1.000000000000000000 ) ) ;
#31 = ORIENTED_EDGE ( 'NONE', *, *, #294, .T. ) ;
#32 = CARTESIAN_POINT ( 'NONE',  ( 2.399999999999999467, -4.814824860968089633E-32, -2.499999999999999556 ) ) ;
#33 = CARTESIAN_POINT ( 'NONE',  ( -6.000000000000000000, -6.379211070675434126E-16, 3.000000000000000000 ) ) ;
#34 = ORIENTED_EDGE ( 'NONE', *, *, #57, .T. ) ;
#35 = FACE_OUTER_BOUND ( 'NONE', #515, .T. ) ;
#36 = CARTESIAN_POINT ( 'NONE',  ( 5.500000000000000000, -6.379211070675434126E-16, -2.499999999999999556 ) ) ;
#37 = VECTOR ( 'NONE', #555, 1000.000000000000000 ) ;
#38 = DIRECTION ( 'NONE',  ( 0.000000000000000000, 0.000000000000000000, 1.000000000000000000 ) ) ;
#39 = PRODUCT_DEFINITION_FORMATION_WITH_SPECIFIED_SOURCE ( 'ANY', '', #668, .NOT_KNOWN. ) ;
#40 = LINE ( 'NONE', #254, #258 ) ;
#41 = ADVANCED_FACE ( 'NONE', ( #202 ), #311, .F. ) ;
#42 = PERSON_AND_ORGANIZATION_ROLE ( 'creator' ) ;
#43 = CYLINDRICAL_SURFACE ( 'NONE', #440, 1.699999999999999956 ) ;
#44 = VERTEX_POINT ( 'NONE', #32 ) ;
#45 = EDGE_CURVE ( 'NONE', #706, #467, #544, .T. ) ;
#46 = DIRECTION ( 'NONE',  ( 0.000000000000000000, 0.000000000000000000, -1.000000000000000000 ) ) ;
#47 = PERSON_AND_ORGANIZATION_ROLE ( 'design_supplier' ) ;
#48 = ADVANCED_FACE ( 'NONE', ( #138 ), #645, .T. ) ;
#49 = CYLINDRICAL_SURFACE ( 'NONE', #336, 0.5000000000000000000 ) ;
#50 = CIRCLE ( 'NONE', #165, 0.5000000000000000000 ) ;
#51 = AXIS2_PLACEMENT_3D ( 'NONE', #631, #459, #420 ) ;
#52 = DATE_AND_TIME ( #551, #602 ) ;
#53 = DIRECTION ( 'NONE',  ( 0.000000000000000000, 0.000000000000000000, 1.000000000000000000 ) ) ;
#54 = CARTESIAN_POINT ( 'NONE',  ( -6.000000000000000000, -6.379211070675434126E-16, 2.500000000000000000 ) ) ;
#55 = LINE ( 'NONE', #397, #684 ) ;
#56 = ORIENTED_EDGE ( 'NONE', *, *, #173, .F. ) ;
#57 = EDGE_CURVE ( 'NONE', #88, #694, #496, .T. ) ;
#58 = VECTOR ( 'NONE', #246, 1000.000000000000000 ) ;
#59 = CARTESIAN_POINT ( 'NONE',  ( -6.000000000000000000, -6.379211070675434126E-16, -2.499999999999999556 ) ) ;
#60 = EDGE_LOOP ( 'NONE', ( #286, #620, #577, #623 ) ) ;
#61 = ORIENTED_EDGE ( 'NONE', *, *, #170, .F. ) ;
#62 = EDGE_CURVE ( 'NONE', #88, #541, #649, .T. ) ;
#63 = DIRECTION ( 'NONE',  ( -1.000000000000000000, 0.000000000000000000, 0.000000000000000000 ) ) ;
#64 = ORIENTED_EDGE ( 'NONE', *, *, #301, .F. ) ;
#65 = LINE ( 'NONE', #211, #388 ) ;
#66 = VECTOR ( 'NONE', #97, 1000.000000000000000 ) ;
#67 = VERTEX_POINT ( 'NONE', #98 ) ;
#68 = VERTEX_POINT ( 'NONE', #245 ) ;
#69 = CARTESIAN_POINT ( 'NONE',  ( -6.000000000000000000, -6.379211070675434126E-16, 3.000000000000000000 ) ) ;
#70 = ORIENTED_EDGE ( 'NONE', *, *, #586, .F. ) ;
#71 = ORIENTED_EDGE ( 'NONE', *, *, #84, .T. ) ;
#72 = ORIENTED_EDGE ( 'NONE', *, *, #45, .F. ) ;
#73 = CARTESIAN_POINT ( 'NONE',  ( 2.081899558550500280E-16, -3.500000000000000444, -1.699999999999999956 ) ) ;
#74 = CYLINDRICAL_SURFACE ( 'NONE', #434, 1.699999999999999956 ) ;
#75 = ORIENTED_EDGE ( 'NONE', *, *, #713, .F. ) ;
#76 = CIRCLE ( 'NONE', #383, 1.699999999999999956 ) ;
#77 = DIRECTION ( 'NONE',  ( 0.000000000000000000, 0.000000000000000000, 1.000000000000000000 ) ) ;
#78 = VERTEX_POINT ( 'NONE', #580 ) ;
#79 = DIRECTION ( 'NONE',  ( -1.000000000000000000, 1.772003075187617934E-16, 0.000000000000000000 ) ) ;
#80 = DIRECTION ( 'NONE',  ( -0.000000000000000000, 1.000000000000000000, -0.000000000000000000 ) ) ;
#81 = ORIENTED_EDGE ( 'NONE', *, *, #479, .T. ) ;
#82 = DIRECTION ( 'NONE',  ( -1.000000000000000000, 1.772003075187620399E-16, 0.000000000000000000 ) ) ;
#83 = DIRECTION ( 'NONE',  ( 0.000000000000000000, 0.000000000000000000, 1.000000000000000000 ) ) ;
#84 = EDGE_CURVE ( 'NONE', #22, #68, #40, .T. ) ;
#85 = DIRECTION ( 'NONE',  ( 0.000000000000000000, 0.000000000000000000, 1.000000000000000000 ) ) ;
#86 = AXIS2_PLACEMENT_3D ( 'NONE', #617, #670, #722 ) ;
#87 = CARTESIAN_POINT ( 'NONE',  ( -2.399999999999999467, -2.407412430484044816E-32, -2.499999999999999556 ) ) ;
#88 = VERTEX_POINT ( 'NONE', #314 ) ;
#89 = DIRECTION ( 'NONE',  ( -1.000000000000000000, -2.478176394252582127E-16, 0.000000000000000000 ) ) ;
#90 = DIRECTION ( 'NONE',  ( -1.772003075187620152E-16, 1.000000000000000000, 0.000000000000000000 ) ) ;
#91 = ORIENTED_EDGE ( 'NONE', *, *, #23, .T. ) ;
#92 = DIRECTION ( 'NONE',  ( -2.478176394252582127E-16, 1.000000000000000000, 0.000000000000000000 ) ) ;
#93 = ORIENTED_EDGE ( 'NONE', *, *, #657, .F. ) ;
#94 = FACE_BOUND ( 'NONE', #676, .T. ) ;
#95 = AXIS2_PLACEMENT_3D ( 'NONE', #130, #21, #30 ) ;
#96 = CALENDAR_DATE ( 2025, 3, 6 ) ;
#97 = DIRECTION ( 'NONE',  ( -0.000000000000000000, -1.000000000000000000, -0.000000000000000000 ) ) ;
#98 = CARTESIAN_POINT ( 'NONE',  ( 5.500000000000000000, -5.493209533081623064E-16, -3.000000000000000000 ) ) ;
#99 = PERSON_AND_ORGANIZATION ( #614, #616 ) ;
#100 = FACE_OUTER_BOUND ( 'NONE', #583, .T. ) ;
#101 = ORIENTED_EDGE ( 'NONE', *, *, #271, .T. ) ;
#102 = EDGE_CURVE ( 'NONE', #285, #119, #666, .T. ) ;
#103 = DIRECTION ( 'NONE',  ( 1.000000000000000000, 1.807003620809174139E-16, 0.000000000000000000 ) ) ;
#104 = PLANE ( 'NONE',  #624 ) ;
#105 = CALENDAR_DATE ( 2025, 3, 6 ) ;
#106 = AXIS2_PLACEMENT_3D ( 'NONE', #319, #90, #306 ) ;
#107 = LINE ( 'NONE', #720, #346 ) ;
#108 = APPROVAL ( #543, 'UNSPECIFIED' ) ;
#109 = APPROVAL_ROLE ( '' ) ;
#110 = CARTESIAN_POINT ( 'NONE',  ( 6.000000000000000000, 2.499999999999999556, 2.500000000000000000 ) ) ;
#111 = AXIS2_PLACEMENT_3D ( 'NONE', #421, #92, #237 ) ;
#112 = CARTESIAN_POINT ( 'NONE',  ( 2.081899558550500280E-16, -3.500000000000000444, -1.699999999999999956 ) ) ;
#113 = DIRECTION ( 'NONE',  ( 1.807003620809173892E-16, -1.000000000000000000, -0.000000000000000000 ) ) ;
#114 = EDGE_CURVE ( 'NONE', #566, #401, #651, .T. ) ;
#115 = CARTESIAN_POINT ( 'NONE',  ( 5.500000000000000000, 2.499999999999999556, -3.000000000000000000 ) ) ;
#116 = ORIENTED_EDGE ( 'NONE', *, *, #23, .F. ) ;
#117 = APPROVAL_PERSON_ORGANIZATION ( #99, #108, #373 ) ;
#118 = PLANE ( 'NONE',  #366 ) ;
#119 = VERTEX_POINT ( 'NONE', #195 ) ;
#120 = ORIENTED_EDGE ( 'NONE', *, *, #482, .F. ) ;
#121 = CARTESIAN_POINT ( 'NONE',  ( -5.500000000000000000, -5.493209533081623064E-16, -2.499999999999999556 ) ) ;
#122 = ADVANCED_BREP_SHAPE_REPRESENTATION ( 'piece_up_serrage_rails_mobiles', ( #289, #663 ), #347 ) ;
#123 = ORIENTED_EDGE ( 'NONE', *, *, #389, .T. ) ;
#124 = EDGE_CURVE ( 'NONE', #433, #571, #323, .T. ) ;
#125 = DIRECTION ( 'NONE',  ( -1.000000000000000000, 0.000000000000000000, 0.000000000000000000 ) ) ;
#126 = VECTOR ( 'NONE', #334, 1000.000000000000000 ) ;
#127 = EDGE_LOOP ( 'NONE', ( #75, #469, #486, #412, #407, #6, #61, #396 ) ) ;
#128 = CARTESIAN_POINT ( 'NONE',  ( 5.500000000000000000, -6.379211070675434126E-16, -3.000000000000000000 ) ) ;
#129 = VERTEX_POINT ( 'NONE', #359 ) ;
#130 = CARTESIAN_POINT ( 'NONE',  ( 6.000000000000000000, -6.379211070675434126E-16, 3.000000000000000000 ) ) ;
#131 = ORIENTED_EDGE ( 'NONE', *, *, #689, .T. ) ;
#132 = ORIENTED_EDGE ( 'NONE', *, *, #685, .T. ) ;
#133 = DIRECTION ( 'NONE',  ( -1.772003075187620152E-16, -1.000000000000000000, 0.000000000000000000 ) ) ;
#134 =( NAMED_UNIT ( * ) PLANE_ANGLE_UNIT ( ) SI_UNIT ( $, .RADIAN. ) );
#135 = VERTEX_POINT ( 'NONE', #415 ) ;
#136 = DIRECTION ( 'NONE',  ( 0.000000000000000000, 1.000000000000000000, 0.000000000000000000 ) ) ;
#137 = EDGE_CURVE ( 'NONE', #509, #135, #581, .T. ) ;
#138 = FACE_OUTER_BOUND ( 'NONE', #570, .T. ) ;
#139 = PERSON_AND_ORGANIZATION_ROLE ( 'design_owner' ) ;
#140 = ORIENTED_EDGE ( 'NONE', *, *, #84, .F. ) ;
#141 = PLANE ( 'NONE',  #333 ) ;
#142 = AXIS2_PLACEMENT_3D ( 'NONE', #151, #187, #144 ) ;
#143 = VECTOR ( 'NONE', #406, 1000.000000000000000 ) ;
#144 = DIRECTION ( 'NONE',  ( 0.000000000000000000, 0.000000000000000000, -1.000000000000000000 ) ) ;
#145 = ORIENTED_EDGE ( 'NONE', *, *, #498, .T. ) ;
#146 = DIRECTION ( 'NONE',  ( 0.000000000000000000, -1.000000000000000000, 0.000000000000000000 ) ) ;
#147 = CARTESIAN_POINT ( 'NONE',  ( -5.500000000000000000, 2.499999999999999556, -2.499999999999999556 ) ) ;
#148 = EDGE_CURVE ( 'NONE', #401, #541, #512, .T. ) ;
#149 = APPROVAL_DATE_TIME ( #267, #381 ) ;
#150 = ORIENTED_EDGE ( 'NONE', *, *, #57, .F. ) ;
#151 = CARTESIAN_POINT ( 'NONE',  ( 5.500000000000000000, 2.499999999999999556, 2.500000000000000000 ) ) ;
#152 = DESIGN_CONTEXT ( 'detailed design', #213, 'design' ) ;
#153 = COORDINATED_UNIVERSAL_TIME_OFFSET ( 1, 0, .AHEAD. ) ;
#154 = DIRECTION ( 'NONE',  ( -1.000000000000000000, 0.000000000000000000, -0.000000000000000000 ) ) ;
#155 = DIRECTION ( 'NONE',  ( -0.000000000000000000, 1.000000000000000000, -0.000000000000000000 ) ) ;
#156 = CIRCLE ( 'NONE', #364, 0.5000000000000000000 ) ;
#157 = CARTESIAN_POINT ( 'NONE',  ( 1.900000000000000133, -3.499999999999999556, -3.000000000000000000 ) ) ;
#158 = VERTEX_POINT ( 'NONE', #73 ) ;
#159 = AXIS2_PLACEMENT_3D ( 'NONE', #197, #472, #125 ) ;
#160 = EDGE_CURVE ( 'NONE', #129, #669, #554, .T. ) ;
#161 = CARTESIAN_POINT ( 'NONE',  ( -1.899999999999999245, 0.000000000000000000, 3.000000000000000000 ) ) ;
#162 = DIRECTION ( 'NONE',  ( -0.000000000000000000, -0.000000000000000000, -1.000000000000000000 ) ) ;
#163 = LINE ( 'NONE', #661, #594 ) ;
#164 = DIRECTION ( 'NONE',  ( 2.478176394252582127E-16, -1.000000000000000000, -0.000000000000000000 ) ) ;
#165 = AXIS2_PLACEMENT_3D ( 'NONE', #490, #268, #432 ) ;
#166 = APPROVAL_PERSON_ORGANIZATION ( #264, #381, #207 ) ;
#167 = DIRECTION ( 'NONE',  ( 0.000000000000000000, -1.000000000000000000, 0.000000000000000000 ) ) ;
#168 = AXIS2_PLACEMENT_3D ( 'NONE', #430, #155, #426 ) ;
#169 = LINE ( 'NONE', #59, #126 ) ;
#170 = EDGE_CURVE ( 'NONE', #433, #217, #163, .T. ) ;
#171 = ORIENTED_EDGE ( 'NONE', *, *, #479, .F. ) ;
#172 = FACE_OUTER_BOUND ( 'NONE', #453, .T. ) ;
#173 = EDGE_CURVE ( 'NONE', #669, #292, #190, .T. ) ;
#174 = ORIENTED_EDGE ( 'NONE', *, *, #148, .T. ) ;
#175 = CARTESIAN_POINT ( 'NONE',  ( 5.500000000000000000, -5.493209533081623064E-16, -2.499999999999999556 ) ) ;
#176 = ORIENTED_EDGE ( 'NONE', *, *, #62, .T. ) ;
#177 = CC_DESIGN_PERSON_AND_ORGANIZATION_ASSIGNMENT ( #597, #42, ( #39 ) ) ;
#178 = CARTESIAN_POINT ( 'NONE',  ( 2.400000000000000355, -3.499999999999999556, 2.500000000000000000 ) ) ;
#179 = ORIENTED_EDGE ( 'NONE', *, *, #62, .F. ) ;
#180 = ORIENTED_EDGE ( 'NONE', *, *, #458, .T. ) ;
#181 = LINE ( 'NONE', #69, #491 ) ;
#182 = LINE ( 'NONE', #362, #66 ) ;
#183 = AXIS2_PLACEMENT_3D ( 'NONE', #455, #451, #565 ) ;
#184 = ORIENTED_EDGE ( 'NONE', *, *, #160, .F. ) ;
#185 = VERTEX_POINT ( 'NONE', #417 ) ;
#186 = CARTESIAN_POINT ( 'NONE',  ( 0.000000000000000000, 0.000000000000000000, 0.000000000000000000 ) ) ;
#187 = DIRECTION ( 'NONE',  ( -0.000000000000000000, 1.000000000000000000, -0.000000000000000000 ) ) ;
#188 = DIRECTION ( 'NONE',  ( 0.000000000000000000, -0.000000000000000000, -1.000000000000000000 ) ) ;
#189 = CARTESIAN_POINT ( 'NONE',  ( 2.399999999999999467, -4.814824860968089633E-32, 3.000000000000000000 ) ) ;
#190 = LINE ( 'NONE', #648, #528 ) ;
#191 = DIRECTION ( 'NONE',  ( -1.000000000000000000, 0.000000000000000000, -0.000000000000000000 ) ) ;
#192 = EDGE_CURVE ( 'NONE', #467, #433, #351, .T. ) ;
#193 =( LENGTH_UNIT ( ) NAMED_UNIT ( * ) SI_UNIT ( .MILLI., .METRE. ) );
#194 = DIRECTION ( 'NONE',  ( -0.000000000000000000, 1.000000000000000000, -0.000000000000000000 ) ) ;
#195 = CARTESIAN_POINT ( 'NONE',  ( 0.000000000000000000, 2.499999999999999556, 1.699999999999999956 ) ) ;
#196 = AXIS2_PLACEMENT_3D ( 'NONE', #656, #203, #38 ) ;
#197 = CARTESIAN_POINT ( 'NONE',  ( 1.900000000000000133, -3.499999999999999556, -2.499999999999999556 ) ) ;
#198 = FACE_OUTER_BOUND ( 'NONE', #678, .T. ) ;
#199 = DIRECTION ( 'NONE',  ( -1.000000000000000000, 0.000000000000000000, 0.000000000000000000 ) ) ;
#200 = COORDINATED_UNIVERSAL_TIME_OFFSET ( 1, 0, .AHEAD. ) ;
#201 = DIRECTION ( 'NONE',  ( -0.000000000000000000, 1.000000000000000000, -0.000000000000000000 ) ) ;
#202 = FACE_OUTER_BOUND ( 'NONE', #14, .T. ) ;
#203 = DIRECTION ( 'NONE',  ( 0.000000000000000000, 1.000000000000000000, 0.000000000000000000 ) ) ;
#204 = ORIENTED_EDGE ( 'NONE', *, *, #352, .T. ) ;
#205 = CARTESIAN_POINT ( 'NONE',  ( -5.500000000000000000, -6.379211070675434126E-16, -2.499999999999999556 ) ) ;
#206 = CIRCLE ( 'NONE', #557, 0.5000000000000000000 ) ;
#207 = APPROVAL_ROLE ( '' ) ;
#208 = FACE_OUTER_BOUND ( 'NONE', #615, .T. ) ;
#209 = DIRECTION ( 'NONE',  ( -0.000000000000000000, 1.000000000000000000, 0.000000000000000000 ) ) ;
#210 = ADVANCED_FACE ( 'NONE', ( #313 ), #141, .F. ) ;
#211 = CARTESIAN_POINT ( 'NONE',  ( -5.500000000000000000, 0.000000000000000000, 3.000000000000000000 ) ) ;
#212 = CIRCLE ( 'NONE', #422, 0.5000000000000000000 ) ;
#213 = APPLICATION_CONTEXT ( 'configuration controlled 3d designs of mechanical parts and assemblies' ) ;
#214 = LOCAL_TIME ( 11, 8, 13.00000000000000000, #539 ) ;
#215 = ADVANCED_FACE ( 'NONE', ( #35 ), #578, .F. ) ;
#216 = CYLINDRICAL_SURFACE ( 'NONE', #284, 0.5000000000000000000 ) ;
#217 = VERTEX_POINT ( 'NONE', #87 ) ;
#218 = AXIS2_PLACEMENT_3D ( 'NONE', #474, #481, #707 ) ;
#219 = DIRECTION ( 'NONE',  ( -1.000000000000000000, -1.772003075187617934E-16, 0.000000000000000000 ) ) ;
#220 = ORIENTED_EDGE ( 'NONE', *, *, #137, .T. ) ;
#221 = ORIENTED_EDGE ( 'NONE', *, *, #579, .T. ) ;
#222 = CARTESIAN_POINT ( 'NONE',  ( -1.899999999999999245, -3.500000000000000444, -2.499999999999999556 ) ) ;
#223 = CIRCLE ( 'NONE', #582, 0.5000000000000000000 ) ;
#224 = ADVANCED_FACE ( 'NONE', ( #688 ), #17, .T. ) ;
#225 = APPROVAL_PERSON_ORGANIZATION ( #385, #438, #109 ) ;
#226 = ORIENTED_EDGE ( 'NONE', *, *, #389, .F. ) ;
#227 = LINE ( 'NONE', #667, #315 ) ;
#228 = VERTEX_POINT ( 'NONE', #425 ) ;
#229 = CARTESIAN_POINT ( 'NONE',  ( 6.000000000000000000, -6.379211070675434126E-16, 3.000000000000000000 ) ) ;
#230 = ORIENTED_EDGE ( 'NONE', *, *, #102, .F. ) ;
#231 = DIRECTION ( 'NONE',  ( -1.772003075187620152E-16, 1.000000000000000000, 0.000000000000000000 ) ) ;
#232 = EDGE_LOOP ( 'NONE', ( #150, #349, #280, #171 ) ) ;
#233 = EDGE_CURVE ( 'NONE', #559, #217, #212, .T. ) ;
#234 = CARTESIAN_POINT ( 'NONE',  ( 5.500000000000000000, -5.493209533081623064E-16, 2.500000000000000000 ) ) ;
#235 = DIRECTION ( 'NONE',  ( 1.000000000000000000, 1.772003075187620152E-16, 0.000000000000000000 ) ) ;
#236 = VERTEX_POINT ( 'NONE', #686 ) ;
#237 = DIRECTION ( 'NONE',  ( -1.000000000000000000, -2.478176394252582620E-16, 0.000000000000000000 ) ) ;
#238 = ORIENTED_EDGE ( 'NONE', *, *, #604, .T. ) ;
#239 = VERTEX_POINT ( 'NONE', #643 ) ;
#240 = FACE_OUTER_BOUND ( 'NONE', #277, .T. ) ;
#241 = CARTESIAN_POINT ( 'NONE',  ( -5.500000000000000000, -5.493209533081623064E-16, 3.000000000000000000 ) ) ;
#242 = CARTESIAN_POINT ( 'NONE',  ( -6.000000000000000000, 2.499999999999999556, 3.000000000000000000 ) ) ;
#243 = AXIS2_PLACEMENT_3D ( 'NONE', #691, #636, #199 ) ;
#244 = CARTESIAN_POINT ( 'NONE',  ( -2.399999999999999467, -2.407412430484044816E-32, 3.000000000000000000 ) ) ;
#245 = CARTESIAN_POINT ( 'NONE',  ( 1.900000000000000577, -3.499999999999999556, -3.000000000000000000 ) ) ;
#246 = DIRECTION ( 'NONE',  ( -0.000000000000000000, -0.000000000000000000, -1.000000000000000000 ) ) ;
#247 = CARTESIAN_POINT ( 'NONE',  ( 2.081899558550500280E-16, 2.499999999999999556, -1.699999999999999956 ) ) ;
#248 = EDGE_CURVE ( 'NONE', #292, #418, #377, .T. ) ;
#249 = CARTESIAN_POINT ( 'NONE',  ( 0.000000000000000000, -3.500000000000000444, 0.000000000000000000 ) ) ;
#250 = UNCERTAINTY_MEASURE_WITH_UNIT (LENGTH_MEASURE( 1.000000000000000082E-05 ), #193, 'distance_accuracy_value', 'NONE');
#251 = VECTOR ( 'NONE', #20, 1000.000000000000000 ) ;
#252 = CARTESIAN_POINT ( 'NONE',  ( 1.899999999999999245, 8.860015375938111855E-17, -2.499999999999999556 ) ) ;
#253 = ORIENTED_EDGE ( 'NONE', *, *, #160, .T. ) ;
#254 = CARTESIAN_POINT ( 'NONE',  ( -2.399999999999999467, -3.500000000000000444, -3.000000000000000000 ) ) ;
#255 = PERSON_AND_ORGANIZATION ( #614, #616 ) ;
#256 = CARTESIAN_POINT ( 'NONE',  ( -5.500000000000000000, 2.499999999999999556, -3.000000000000000000 ) ) ;
#257 = ORIENTED_EDGE ( 'NONE', *, *, #721, .T. ) ;
#258 = VECTOR ( 'NONE', #103, 1000.000000000000000 ) ;
#259 = DIRECTION ( 'NONE',  ( 0.000000000000000000, 1.000000000000000000, 0.000000000000000000 ) ) ;
#260 = AXIS2_PLACEMENT_3D ( 'NONE', #147, #11, #402 ) ;
#261 = ADVANCED_FACE ( 'NONE', ( #573 ), #513, .T. ) ;
#262 = DIRECTION ( 'NONE',  ( 0.000000000000000000, 1.000000000000000000, 0.000000000000000000 ) ) ;
#263 = VECTOR ( 'NONE', #164, 1000.000000000000000 ) ;
#264 = PERSON_AND_ORGANIZATION ( #614, #616 ) ;
#265 = VECTOR ( 'NONE', #697, 1000.000000000000000 ) ;
#266 = FACE_OUTER_BOUND ( 'NONE', #350, .T. ) ;
#267 = DATE_AND_TIME ( #105, #627 ) ;
#268 = DIRECTION ( 'NONE',  ( -0.000000000000000000, 1.000000000000000000, -0.000000000000000000 ) ) ;
#269 = VECTOR ( 'NONE', #194, 1000.000000000000000 ) ;
#270 = CARTESIAN_POINT ( 'NONE',  ( -1.899999999999999023, 8.860015375938106925E-17, 3.000000000000000000 ) ) ;
#271 = EDGE_CURVE ( 'NONE', #418, #129, #182, .T. ) ;
#272 = DIRECTION ( 'NONE',  ( 1.000000000000000000, 1.807003620809174139E-16, 0.000000000000000000 ) ) ;
#273 = CIRCLE ( 'NONE', #535, 0.5000000000000000000 ) ;
#274 = ORIENTED_EDGE ( 'NONE', *, *, #713, .T. ) ;
#275 = CARTESIAN_POINT ( 'NONE',  ( 1.899999999999999245, -1.239088197126291556E-16, -2.499999999999999556 ) ) ;
#276 = ORIENTED_EDGE ( 'NONE', *, *, #395, .F. ) ;
#277 = EDGE_LOOP ( 'NONE', ( #683, #642, #140, #534, #448, #463, #9, #132 ) ) ;
#278 = AXIS2_PLACEMENT_3D ( 'NONE', #591, #146, #188 ) ;
#279 = CARTESIAN_POINT ( 'NONE',  ( -2.399999999999999467, -3.500000000000000444, 3.000000000000000000 ) ) ;
#280 = ORIENTED_EDGE ( 'NONE', *, *, #639, .F. ) ;
#281 = ORIENTED_EDGE ( 'NONE', *, *, #560, .F. ) ;
#282 = LINE ( 'NONE', #279, #600 ) ;
#283 = AXIS2_PLACEMENT_3D ( 'NONE', #391, #650, #154 ) ;
#284 = AXIS2_PLACEMENT_3D ( 'NONE', #275, #444, #446 ) ;
#285 = VERTEX_POINT ( 'NONE', #247 ) ;
#286 = ORIENTED_EDGE ( 'NONE', *, *, #384, .F. ) ;
#287 = EDGE_LOOP ( 'NONE', ( #116, #410, #572, #16 ) ) ;
#288 = EDGE_CURVE ( 'NONE', #239, #618, #303, .T. ) ;
#289 = MANIFOLD_SOLID_BREP ( 'Congé2', #355 ) ;
#290 = ORIENTED_EDGE ( 'NONE', *, *, #536, .T. ) ;
#291 = CARTESIAN_POINT ( 'NONE',  ( -5.500000000000000000, -5.493209533081623064E-16, -3.000000000000000000 ) ) ;
#292 = VERTEX_POINT ( 'NONE', #26 ) ;
#293 = DIRECTION ( 'NONE',  ( 0.000000000000000000, 0.000000000000000000, -1.000000000000000000 ) ) ;
#294 = EDGE_CURVE ( 'NONE', #304, #67, #693, .T. ) ;
#295 = ORIENTED_EDGE ( 'NONE', *, *, #708, .T. ) ;
#296 = APPLICATION_PROTOCOL_DEFINITION ( 'international standard', 'config_control_design', 1994, #456 ) ;
#297 = CARTESIAN_POINT ( 'NONE',  ( 2.399999999999999467, -4.814824860968089633E-32, 2.500000000000000000 ) ) ;
#298 = ORIENTED_EDGE ( 'NONE', *, *, #447, .T. ) ;
#299 = DIRECTION ( 'NONE',  ( 1.000000000000000000, 1.772003075187620152E-16, 0.000000000000000000 ) ) ;
#300 = CC_DESIGN_APPROVAL ( #438, ( #39 ) ) ;
#301 = EDGE_CURVE ( 'NONE', #78, #239, #156, .T. ) ;
#302 = LINE ( 'NONE', #242, #398 ) ;
#303 = LINE ( 'NONE', #297, #327 ) ;
#304 = VERTEX_POINT ( 'NONE', #700 ) ;
#305 = DIRECTION ( 'NONE',  ( 0.000000000000000000, -1.000000000000000000, 0.000000000000000000 ) ) ;
#306 = DIRECTION ( 'NONE',  ( -1.000000000000000000, -1.772003075187620152E-16, 0.000000000000000000 ) ) ;
#307 = MECHANICAL_CONTEXT ( 'NONE', #456, 'mechanical' ) ;
#308 = ADVANCED_FACE ( 'NONE', ( #240 ), #518, .T. ) ;
#309 = CARTESIAN_POINT ( 'NONE',  ( -2.399999999999999467, -2.407412430484044816E-32, 2.500000000000000000 ) ) ;
#310 = ORIENTED_EDGE ( 'NONE', *, *, #233, .F. ) ;
#311 = PLANE ( 'NONE',  #471 ) ;
#312 = APPROVAL_DATE_TIME ( #52, #438 ) ;
#313 = FACE_OUTER_BOUND ( 'NONE', #127, .T. ) ;
#314 = CARTESIAN_POINT ( 'NONE',  ( -6.000000000000000000, 2.499999999999999556, 2.500000000000000000 ) ) ;
#315 = VECTOR ( 'NONE', #403, 1000.000000000000000 ) ;
#316 = APPROVAL_STATUS ( 'not_yet_approved' ) ;
#317 = CARTESIAN_POINT ( 'NONE',  ( 0.000000000000000000, -3.500000000000000444, 0.000000000000000000 ) ) ;
#318 = ORIENTED_EDGE ( 'NONE', *, *, #352, .F. ) ;
#319 = CARTESIAN_POINT ( 'NONE',  ( -1.899999999999999245, 8.860015375938106925E-17, 2.500000000000000000 ) ) ;
#320 = ADVANCED_FACE ( 'NONE', ( #589 ), #468, .F. ) ;
#321 = CALENDAR_DATE ( 2025, 3, 6 ) ;
#322 = DIRECTION ( 'NONE',  ( 0.000000000000000000, 0.000000000000000000, -1.000000000000000000 ) ) ;
#323 = CIRCLE ( 'NONE', #106, 0.5000000000000000000 ) ;
#324 = ADVANCED_FACE ( 'NONE', ( #198 ), #372, .T. ) ;
#325 = VECTOR ( 'NONE', #646, 1000.000000000000000 ) ;
#326 = CARTESIAN_POINT ( 'NONE',  ( -2.399999999999999467, -2.407412430484044816E-32, 2.500000000000000000 ) ) ;
#327 = VECTOR ( 'NONE', #409, 1000.000000000000000 ) ;
#328 = DATE_AND_TIME ( #547, #715 ) ;
#329 = ADVANCED_FACE ( 'NONE', ( #548 ), #43, .F. ) ;
#330 = CARTESIAN_POINT ( 'NONE',  ( -1.899999999999999245, 0.000000000000000000, 2.500000000000000000 ) ) ;
#331 = PLANE ( 'NONE',  #499 ) ;
#332 = EDGE_CURVE ( 'NONE', #119, #285, #478, .T. ) ;
#333 = AXIS2_PLACEMENT_3D ( 'NONE', #413, #231, #465 ) ;
#334 = DIRECTION ( 'NONE',  ( 0.000000000000000000, -1.000000000000000000, 0.000000000000000000 ) ) ;
#335 = FACE_OUTER_BOUND ( 'NONE', #590, .T. ) ;
#336 = AXIS2_PLACEMENT_3D ( 'NONE', #205, #209, #492 ) ;
#337 = AXIS2_PLACEMENT_3D ( 'NONE', #175, #561, #558 ) ;
#338 = ORIENTED_EDGE ( 'NONE', *, *, #659, .T. ) ;
#339 = CARTESIAN_POINT ( 'NONE',  ( 6.000000000000000000, -6.379211070675434126E-16, 3.000000000000000000 ) ) ;
#340 = ORIENTED_EDGE ( 'NONE', *, *, #659, .F. ) ;
#341 = ORIENTED_EDGE ( 'NONE', *, *, #124, .F. ) ;
#342 = FACE_OUTER_BOUND ( 'NONE', #232, .T. ) ;
#343 = ORIENTED_EDGE ( 'NONE', *, *, #405, .F. ) ;
#344 = LINE ( 'NONE', #33, #58 ) ;
#345 = EDGE_CURVE ( 'NONE', #135, #566, #50, .T. ) ;
#346 = VECTOR ( 'NONE', #162, 1000.000000000000000 ) ;
#347 =( GEOMETRIC_REPRESENTATION_CONTEXT ( 3 ) GLOBAL_UNCERTAINTY_ASSIGNED_CONTEXT ( ( #250 ) ) GLOBAL_UNIT_ASSIGNED_CONTEXT ( ( #193, #134, #523 ) ) REPRESENTATION_CONTEXT ( 'NONE', 'WORKASPACE' ) );
#348 = EDGE_LOOP ( 'NONE', ( #238, #91 ) ) ;
#349 = ORIENTED_EDGE ( 'NONE', *, *, #447, .F. ) ;
#350 = EDGE_LOOP ( 'NONE', ( #530, #281, #70, #120 ) ) ;
#351 = LINE ( 'NONE', #309, #269 ) ;
#352 = EDGE_CURVE ( 'NONE', #44, #304, #223, .T. ) ;
#353 = ORIENTED_EDGE ( 'NONE', *, *, #695, .T. ) ;
#354 = VERTEX_POINT ( 'NONE', #480 ) ;
#355 = CLOSED_SHELL ( 'NONE', ( #329, #215, #2, #452, #210, #320, #612, #41, #516, #431, #308, #717, #574, #48, #324, #224, #427, #506, #436, #261 ) ) ;
#356 = CARTESIAN_POINT ( 'NONE',  ( 5.500000000000000000, -5.493209533081623064E-16, 3.000000000000000000 ) ) ;
#357 = DIRECTION ( 'NONE',  ( 1.000000000000000000, -1.772003075187620152E-16, -0.000000000000000000 ) ) ;
#358 = DIRECTION ( 'NONE',  ( 0.000000000000000000, 0.000000000000000000, -1.000000000000000000 ) ) ;
#359 = CARTESIAN_POINT ( 'NONE',  ( 6.000000000000000000, -6.379211070675434126E-16, 2.500000000000000000 ) ) ;
#360 = APPLICATION_PROTOCOL_DEFINITION ( 'international standard', 'config_control_design', 1994, #213 ) ;
#361 = ORIENTED_EDGE ( 'NONE', *, *, #192, .F. ) ;
#362 = CARTESIAN_POINT ( 'NONE',  ( 6.000000000000000000, -6.379211070675434126E-16, 2.500000000000000000 ) ) ;
#363 = ORIENTED_EDGE ( 'NONE', *, *, #173, .T. ) ;
#364 = AXIS2_PLACEMENT_3D ( 'NONE', #477, #628, #82 ) ;
#365 = CARTESIAN_POINT ( 'NONE',  ( -6.000000000000000000, -6.379211070675434126E-16, -3.000000000000000000 ) ) ;
#366 = AXIS2_PLACEMENT_3D ( 'NONE', #508, #12, #677 ) ;
#367 = EDGE_CURVE ( 'NONE', #304, #68, #485, .T. ) ;
#368 = DIRECTION ( 'NONE',  ( 1.000000000000000000, 0.000000000000000000, -0.000000000000000000 ) ) ;
#369 = CARTESIAN_POINT ( 'NONE',  ( 2.400000000000000355, -3.499999999999999556, -2.499999999999999556 ) ) ;
#370 = APPROVAL_DATE_TIME ( #712, #108 ) ;
#371 = ORIENTED_EDGE ( 'NONE', *, *, #288, .F. ) ;
#372 = CYLINDRICAL_SURFACE ( 'NONE', #408, 0.5000000000000000000 ) ;
#373 = APPROVAL_ROLE ( '' ) ;
#374 = CARTESIAN_POINT ( 'NONE',  ( -6.000000000000000000, -6.379211070675434126E-16, 2.500000000000000000 ) ) ;
#375 = EDGE_CURVE ( 'NONE', #236, #119, #552, .T. ) ;
#376 = ORIENTED_EDGE ( 'NONE', *, *, #489, .T. ) ;
#377 = CIRCLE ( 'NONE', #142, 0.5000000000000000000 ) ;
#378 = CIRCLE ( 'NONE', #51, 0.5000000000000004441 ) ;
#379 = CARTESIAN_POINT ( 'NONE',  ( -6.000000000000000000, -6.379211070675434126E-16, 3.000000000000000000 ) ) ;
#380 = ORIENTED_EDGE ( 'NONE', *, *, #248, .F. ) ;
#381 = APPROVAL ( #316, 'UNSPECIFIED' ) ;
#382 = DIRECTION ( 'NONE',  ( 0.000000000000000000, -1.000000000000000000, 0.000000000000000000 ) ) ;
#383 = AXIS2_PLACEMENT_3D ( 'NONE', #249, #259, #83 ) ;
#384 = EDGE_CURVE ( 'NONE', #467, #354, #107, .T. ) ;
#385 = PERSON_AND_ORGANIZATION ( #614, #616 ) ;
#386 = LINE ( 'NONE', #658, #8 ) ;
#387 = DIRECTION ( 'NONE',  ( -0.000000000000000000, -0.000000000000000000, -1.000000000000000000 ) ) ;
#388 = VECTOR ( 'NONE', #167, 1000.000000000000000 ) ;
#389 = EDGE_CURVE ( 'NONE', #571, #706, #705, .T. ) ;
#390 = CC_DESIGN_SECURITY_CLASSIFICATION ( #644, ( #39 ) ) ;
#391 = CARTESIAN_POINT ( 'NONE',  ( 0.000000000000000000, 0.000000000000000000, 3.000000000000000000 ) ) ;
#392 = CARTESIAN_POINT ( 'NONE',  ( 1.900000000000000133, -3.499999999999999556, 2.500000000000000000 ) ) ;
#393 = VECTOR ( 'NONE', #299, 1000.000000000000000 ) ;
#394 = CARTESIAN_POINT ( 'NONE',  ( -1.899999999999999023, 8.860015375938106925E-17, -3.000000000000000000 ) ) ;
#395 = EDGE_CURVE ( 'NONE', #22, #559, #386, .T. ) ;
#396 = ORIENTED_EDGE ( 'NONE', *, *, #124, .T. ) ;
#397 = CARTESIAN_POINT ( 'NONE',  ( -5.500000000000000000, 2.499999999999999556, -3.000000000000000000 ) ) ;
#398 = VECTOR ( 'NONE', #15, 1000.000000000000000 ) ;
#399 = ORIENTED_EDGE ( 'NONE', *, *, #564, .F. ) ;
#400 = CARTESIAN_POINT ( 'NONE',  ( 6.000000000000000000, -6.379211070675434126E-16, 3.000000000000000000 ) ) ;
#401 = VERTEX_POINT ( 'NONE', #256 ) ;
#402 = DIRECTION ( 'NONE',  ( 0.000000000000000000, 0.000000000000000000, -1.000000000000000000 ) ) ;
#403 = DIRECTION ( 'NONE',  ( -0.000000000000000000, -0.000000000000000000, -1.000000000000000000 ) ) ;
#404 = ORIENTED_EDGE ( 'NONE', *, *, #405, .T. ) ;
#405 = EDGE_CURVE ( 'NONE', #418, #135, #608, .T. ) ;
#406 = DIRECTION ( 'NONE',  ( 1.000000000000000000, -1.772003075187620152E-16, -0.000000000000000000 ) ) ;
#407 = ORIENTED_EDGE ( 'NONE', *, *, #13, .T. ) ;
#408 = AXIS2_PLACEMENT_3D ( 'NONE', #595, #262, #53 ) ;
#409 = DIRECTION ( 'NONE',  ( 2.478176394252582127E-16, -1.000000000000000000, -0.000000000000000000 ) ) ;
#410 = ORIENTED_EDGE ( 'NONE', *, *, #443, .T. ) ;
#411 = DIRECTION ( 'NONE',  ( 0.000000000000000000, 0.000000000000000000, 1.000000000000000000 ) ) ;
#412 = ORIENTED_EDGE ( 'NONE', *, *, #586, .T. ) ;
#413 = CARTESIAN_POINT ( 'NONE',  ( -6.000000000000000000, -6.379211070675434126E-16, 3.000000000000000000 ) ) ;
#414 = CARTESIAN_POINT ( 'NONE',  ( -2.399999999999999467, -3.500000000000000444, -2.499999999999999556 ) ) ;
#415 = CARTESIAN_POINT ( 'NONE',  ( 6.000000000000000000, 2.499999999999999556, -2.499999999999999556 ) ) ;
#416 = PERSON_AND_ORGANIZATION ( #614, #616 ) ;
#417 = CARTESIAN_POINT ( 'NONE',  ( 1.900000000000000577, -3.499999999999999556, 3.000000000000000000 ) ) ;
#418 = VERTEX_POINT ( 'NONE', #110 ) ;
#419 = CC_DESIGN_PERSON_AND_ORGANIZATION_ASSIGNMENT ( #255, #47, ( #39 ) ) ;
#420 = DIRECTION ( 'NONE',  ( -1.000000000000000000, -1.772003075187617934E-16, 0.000000000000000000 ) ) ;
#421 = CARTESIAN_POINT ( 'NONE',  ( 1.899999999999999245, 4.708535149079904266E-16, 2.500000000000000000 ) ) ;
#422 = AXIS2_PLACEMENT_3D ( 'NONE', #633, #461, #681 ) ;
#423 = CARTESIAN_POINT ( 'NONE',  ( 6.000000000000000000, 2.499999999999999556, -2.499999999999999556 ) ) ;
#424 = CARTESIAN_POINT ( 'NONE',  ( 2.399999999999999467, -4.814824860968089633E-32, -2.499999999999999556 ) ) ;
#425 = CARTESIAN_POINT ( 'NONE',  ( -6.000000000000000000, -6.379211070675434126E-16, -2.499999999999999556 ) ) ;
#426 = DIRECTION ( 'NONE',  ( 0.000000000000000000, 0.000000000000000000, -1.000000000000000000 ) ) ;
#427 = ADVANCED_FACE ( 'NONE', ( #208 ), #429, .T. ) ;
#428 = DATE_TIME_ROLE ( 'classification_date' ) ;
#429 = CYLINDRICAL_SURFACE ( 'NONE', #641, 0.5000000000000000000 ) ;
#430 = CARTESIAN_POINT ( 'NONE',  ( -5.500000000000000000, 2.499999999999999556, 2.500000000000000000 ) ) ;
#431 = ADVANCED_FACE ( 'NONE', ( #660 ), #495, .F. ) ;
#432 = DIRECTION ( 'NONE',  ( 0.000000000000000000, 0.000000000000000000, -1.000000000000000000 ) ) ;
#433 = VERTEX_POINT ( 'NONE', #326 ) ;
#434 = AXIS2_PLACEMENT_3D ( 'NONE', #28, #80, #85 ) ;
#435 = DIRECTION ( 'NONE',  ( -0.000000000000000000, 1.000000000000000000, -0.000000000000000000 ) ) ;
#436 = ADVANCED_FACE ( 'NONE', ( #266 ), #49, .T. ) ;
#437 = CARTESIAN_POINT ( 'NONE',  ( 0.000000000000000000, -3.500000000000000444, 1.699999999999999956 ) ) ;
#438 = APPROVAL ( #532, 'UNSPECIFIED' ) ;
#439 = DIRECTION ( 'NONE',  ( -0.000000000000000000, -0.000000000000000000, -1.000000000000000000 ) ) ;
#440 = AXIS2_PLACEMENT_3D ( 'NONE', #317, #435, #710 ) ;
#441 = CC_DESIGN_APPROVAL ( #381, ( #644 ) ) ;
#442 = FACE_BOUND ( 'NONE', #348, .T. ) ;
#443 = EDGE_CURVE ( 'NONE', #158, #285, #610, .T. ) ;
#444 = DIRECTION ( 'NONE',  ( 2.478176394252582127E-16, -1.000000000000000000, 0.000000000000000000 ) ) ;
#445 = ORIENTED_EDGE ( 'NONE', *, *, #29, .F. ) ;
#446 = DIRECTION ( 'NONE',  ( 1.000000000000000000, 2.478176394252582620E-16, 0.000000000000000000 ) ) ;
#447 = EDGE_CURVE ( 'NONE', #567, #88, #545, .T. ) ;
#448 = ORIENTED_EDGE ( 'NONE', *, *, #13, .F. ) ;
#449 = ORIENTED_EDGE ( 'NONE', *, *, #367, .F. ) ;
#450 = VECTOR ( 'NONE', #382, 1000.000000000000000 ) ;
#451 = DIRECTION ( 'NONE',  ( 0.000000000000000000, -1.000000000000000000, 0.000000000000000000 ) ) ;
#452 = ADVANCED_FACE ( 'NONE', ( #100 ), #104, .F. ) ;
#453 = EDGE_LOOP ( 'NONE', ( #71, #295, #462, #454, #460, #507, #457, #376 ) ) ;
#454 = ORIENTED_EDGE ( 'NONE', *, *, #626, .T. ) ;
#455 = CARTESIAN_POINT ( 'NONE',  ( -5.500000000000000000, 0.000000000000000000, 2.500000000000000000 ) ) ;
#456 = APPLICATION_CONTEXT ( 'configuration controlled 3d designs of mechanical parts and assemblies' ) ;
#457 = ORIENTED_EDGE ( 'NONE', *, *, #384, .T. ) ;
#458 = EDGE_CURVE ( 'NONE', #185, #78, #665, .T. ) ;
#459 = DIRECTION ( 'NONE',  ( 1.772003075187620152E-16, -1.000000000000000000, -0.000000000000000000 ) ) ;
#460 = ORIENTED_EDGE ( 'NONE', *, *, #536, .F. ) ;
#461 = DIRECTION ( 'NONE',  ( -1.772003075187620152E-16, 1.000000000000000000, 0.000000000000000000 ) ) ;
#462 = ORIENTED_EDGE ( 'NONE', *, *, #498, .F. ) ;
#463 = ORIENTED_EDGE ( 'NONE', *, *, #560, .T. ) ;
#464 = VECTOR ( 'NONE', #533, 1000.000000000000000 ) ;
#465 = DIRECTION ( 'NONE',  ( -1.000000000000000000, -1.772003075187620152E-16, 0.000000000000000000 ) ) ;
#466 = VECTOR ( 'NONE', #569, 1000.000000000000000 ) ;
#467 = VERTEX_POINT ( 'NONE', #505 ) ;
#468 = PLANE ( 'NONE',  #568 ) ;
#469 = ORIENTED_EDGE ( 'NONE', *, *, #639, .T. ) ;
#470 = DIRECTION ( 'NONE',  ( 2.478176394252582127E-16, -1.000000000000000000, 0.000000000000000000 ) ) ;
#471 = AXIS2_PLACEMENT_3D ( 'NONE', #531, #89, #470 ) ;
#472 = DIRECTION ( 'NONE',  ( 1.807003620809173892E-16, -1.000000000000000000, -0.000000000000000000 ) ) ;
#473 = DIRECTION ( 'NONE',  ( 0.000000000000000000, 1.000000000000000000, 0.000000000000000000 ) ) ;
#474 = CARTESIAN_POINT ( 'NONE',  ( 0.000000000000000000, 2.499999999999999556, 0.000000000000000000 ) ) ;
#475 = LINE ( 'NONE', #128, #251 ) ;
#476 = ORIENTED_EDGE ( 'NONE', *, *, #271, .F. ) ;
#477 = CARTESIAN_POINT ( 'NONE',  ( 1.899999999999999245, 8.860015375938097064E-17, 2.500000000000000000 ) ) ;
#478 = CIRCLE ( 'NONE', #196, 1.699999999999999956 ) ;
#479 = EDGE_CURVE ( 'NONE', #694, #1, #65, .T. ) ;
#480 = CARTESIAN_POINT ( 'NONE',  ( -2.399999999999999467, -3.500000000000000444, -2.499999999999999556 ) ) ;
#481 = DIRECTION ( 'NONE',  ( 0.000000000000000000, 1.000000000000000000, 0.000000000000000000 ) ) ;
#482 = EDGE_CURVE ( 'NONE', #541, #228, #169, .T. ) ;
#483 = COORDINATED_UNIVERSAL_TIME_OFFSET ( 1, 0, .AHEAD. ) ;
#484 = AXIS2_PLACEMENT_3D ( 'NONE', #36, #305, #358 ) ;
#485 = LINE ( 'NONE', #157, #263 ) ;
#486 = ORIENTED_EDGE ( 'NONE', *, *, #657, .T. ) ;
#487 = LINE ( 'NONE', #414, #719 ) ;
#488 = SHAPE_DEFINITION_REPRESENTATION ( #4, #122 ) ;
#489 = EDGE_CURVE ( 'NONE', #354, #22, #273, .T. ) ;
#490 = CARTESIAN_POINT ( 'NONE',  ( 5.500000000000000000, 2.499999999999999556, -2.499999999999999556 ) ) ;
#491 = VECTOR ( 'NONE', #235, 1000.000000000000000 ) ;
#492 = DIRECTION ( 'NONE',  ( 0.000000000000000000, 0.000000000000000000, 1.000000000000000000 ) ) ;
#493 = CC_DESIGN_DATE_AND_TIME_ASSIGNMENT ( #328, #428, ( #644 ) ) ;
#494 = DATE_AND_TIME ( #96, #214 ) ;
#495 = PLANE ( 'NONE',  #283 ) ;
#496 = CIRCLE ( 'NONE', #168, 0.5000000000000000000 ) ;
#497 = FACE_OUTER_BOUND ( 'NONE', #514, .T. ) ;
#498 = EDGE_CURVE ( 'NONE', #618, #18, #227, .T. ) ;
#499 = AXIS2_PLACEMENT_3D ( 'NONE', #339, #553, #619 ) ;
#500 = CARTESIAN_POINT ( 'NONE',  ( 1.899999999999999245, 4.708535149079904266E-16, 3.000000000000000000 ) ) ;
#501 = ORIENTED_EDGE ( 'NONE', *, *, #604, .F. ) ;
#502 = CC_DESIGN_PERSON_AND_ORGANIZATION_ASSIGNMENT ( #709, #592, ( #644 ) ) ;
#503 = CARTESIAN_POINT ( 'NONE',  ( 6.000000000000000000, -6.379211070675434126E-16, -2.499999999999999556 ) ) ;
#504 = ORIENTED_EDGE ( 'NONE', *, *, #248, .T. ) ;
#505 = CARTESIAN_POINT ( 'NONE',  ( -2.399999999999999467, -3.500000000000000444, 2.500000000000000000 ) ) ;
#506 = ADVANCED_FACE ( 'NONE', ( #342 ), #621, .T. ) ;
#507 = ORIENTED_EDGE ( 'NONE', *, *, #45, .T. ) ;
#508 = CARTESIAN_POINT ( 'NONE',  ( -2.399999999999999467, -3.500000000000000444, 3.000000000000000000 ) ) ;
#509 = VERTEX_POINT ( 'NONE', #503 ) ;
#510 = ORIENTED_EDGE ( 'NONE', *, *, #626, .F. ) ;
#511 = ORIENTED_EDGE ( 'NONE', *, *, #375, .T. ) ;
#512 = CIRCLE ( 'NONE', #260, 0.5000000000000000000 ) ;
#513 = CYLINDRICAL_SURFACE ( 'NONE', #609, 0.5000000000000000000 ) ;
#514 = EDGE_LOOP ( 'NONE', ( #31, #221, #399, #253, #588, #679, #131, #204 ) ) ;
#515 = EDGE_LOOP ( 'NONE', ( #687, #220, #343, #101 ) ) ;
#516 = ADVANCED_FACE ( 'NONE', ( #497 ), #331, .F. ) ;
#517 = LINE ( 'NONE', #189, #265 ) ;
#518 = PLANE ( 'NONE',  #556 ) ;
#519 = ORIENTED_EDGE ( 'NONE', *, *, #443, .F. ) ;
#520 = AXIS2_PLACEMENT_3D ( 'NONE', #121, #3, #219 ) ;
#521 = DIRECTION ( 'NONE',  ( -1.000000000000000000, -0.000000000000000000, -0.000000000000000000 ) ) ;
#522 = CC_DESIGN_PERSON_AND_ORGANIZATION_ASSIGNMENT ( #704, #652, ( #634 ) ) ;
#523 =( NAMED_UNIT ( * ) SI_UNIT ( $, .STERADIAN. ) SOLID_ANGLE_UNIT ( ) );
#524 = CARTESIAN_POINT ( 'NONE',  ( 0.000000000000000000, 0.000000000000000000, -3.000000000000000000 ) ) ;
#525 = DIRECTION ( 'NONE',  ( -0.000000000000000000, -0.000000000000000000, -1.000000000000000000 ) ) ;
#526 = FACE_OUTER_BOUND ( 'NONE', #630, .T. ) ;
#527 = ORIENTED_EDGE ( 'NONE', *, *, #345, .F. ) ;
#528 = VECTOR ( 'NONE', #473, 1000.000000000000000 ) ;
#529 = DIRECTION ( 'NONE',  ( -0.000000000000000000, 0.000000000000000000, -1.000000000000000000 ) ) ;
#530 = ORIENTED_EDGE ( 'NONE', *, *, #148, .F. ) ;
#531 = CARTESIAN_POINT ( 'NONE',  ( 2.399999999999999467, -4.814824860968089633E-32, 3.000000000000000000 ) ) ;
#532 = APPROVAL_STATUS ( 'not_yet_approved' ) ;
#533 = DIRECTION ( 'NONE',  ( -0.000000000000000000, 1.000000000000000000, -0.000000000000000000 ) ) ;
#534 = ORIENTED_EDGE ( 'NONE', *, *, #395, .T. ) ;
#535 = AXIS2_PLACEMENT_3D ( 'NONE', #222, #113, #63 ) ;
#536 = EDGE_CURVE ( 'NONE', #706, #185, #282, .T. ) ;
#537 = PLANE ( 'NONE',  #278 ) ;
#538 = CC_DESIGN_APPROVAL ( #108, ( #634 ) ) ;
#539 = COORDINATED_UNIVERSAL_TIME_OFFSET ( 1, 0, .AHEAD. ) ;
#540 = DIRECTION ( 'NONE',  ( 0.000000000000000000, -1.000000000000000000, 0.000000000000000000 ) ) ;
#541 = VERTEX_POINT ( 'NONE', #7 ) ;
#542 = CARTESIAN_POINT ( 'NONE',  ( -1.899999999999999245, -3.500000000000000444, -3.000000000000000000 ) ) ;
#543 = APPROVAL_STATUS ( 'not_yet_approved' ) ;
#544 = CIRCLE ( 'NONE', #243, 0.5000000000000000000 ) ;
#545 = LINE ( 'NONE', #374, #698 ) ;
#546 = CC_DESIGN_DATE_AND_TIME_ASSIGNMENT ( #494, #607, ( #634 ) ) ;
#547 = CALENDAR_DATE ( 2025, 3, 6 ) ;
#548 = FACE_OUTER_BOUND ( 'NONE', #287, .T. ) ;
#549 = VECTOR ( 'NONE', #357, 1000.000000000000000 ) ;
#550 = LOCAL_TIME ( 11, 8, 13.00000000000000000, #647 ) ;
#551 = CALENDAR_DATE ( 2025, 3, 6 ) ;
#552 = LINE ( 'NONE', #437, #662 ) ;
#553 = DIRECTION ( 'NONE',  ( 1.772003075187620152E-16, 1.000000000000000000, -0.000000000000000000 ) ) ;
#554 = CIRCLE ( 'NONE', #606, 0.5000000000000004441 ) ;
#555 = DIRECTION ( 'NONE',  ( -2.478176394252582127E-16, 1.000000000000000000, 0.000000000000000000 ) ) ;
#556 = AXIS2_PLACEMENT_3D ( 'NONE', #524, #293, #191 ) ;
#557 = AXIS2_PLACEMENT_3D ( 'NONE', #392, #611, #587 ) ;
#558 = DIRECTION ( 'NONE',  ( -1.000000000000000000, 1.772003075187617934E-16, 0.000000000000000000 ) ) ;
#559 = VERTEX_POINT ( 'NONE', #394 ) ;
#560 = EDGE_CURVE ( 'NONE', #690, #401, #55, .T. ) ;
#561 = DIRECTION ( 'NONE',  ( -1.772003075187620152E-16, -1.000000000000000000, 0.000000000000000000 ) ) ;
#562 = ORIENTED_EDGE ( 'NONE', *, *, #332, .F. ) ;
#563 = EDGE_LOOP ( 'NONE', ( #310, #276, #711, #445 ) ) ;
#564 = EDGE_CURVE ( 'NONE', #129, #509, #613, .T. ) ;
#565 = DIRECTION ( 'NONE',  ( 0.000000000000000000, 0.000000000000000000, -1.000000000000000000 ) ) ;
#566 = VERTEX_POINT ( 'NONE', #115 ) ;
#567 = VERTEX_POINT ( 'NONE', #54 ) ;
#568 = AXIS2_PLACEMENT_3D ( 'NONE', #244, #368, #529 ) ;
#569 = DIRECTION ( 'NONE',  ( -2.478176394252582127E-16, 1.000000000000000000, 0.000000000000000000 ) ) ;
#570 = EDGE_LOOP ( 'NONE', ( #699, #5, #527, #673 ) ) ;
#571 = VERTEX_POINT ( 'NONE', #270 ) ;
#572 = ORIENTED_EDGE ( 'NONE', *, *, #102, .T. ) ;
#573 = FACE_OUTER_BOUND ( 'NONE', #563, .T. ) ;
#574 = ADVANCED_FACE ( 'NONE', ( #335 ), #216, .T. ) ;
#575 = VECTOR ( 'NONE', #525, 1000.000000000000000 ) ;
#576 = DIRECTION ( 'NONE',  ( 1.000000000000000000, 0.000000000000000000, 0.000000000000000000 ) ) ;
#577 = ORIENTED_EDGE ( 'NONE', *, *, #170, .T. ) ;
#578 = PLANE ( 'NONE',  #95 ) ;
#579 = EDGE_CURVE ( 'NONE', #67, #509, #674, .T. ) ;
#580 = CARTESIAN_POINT ( 'NONE',  ( 1.899999999999999023, 8.860015375938106925E-17, 3.000000000000000000 ) ) ;
#581 = LINE ( 'NONE', #423, #325 ) ;
#582 = AXIS2_PLACEMENT_3D ( 'NONE', #252, #605, #653 ) ;
#583 = EDGE_LOOP ( 'NONE', ( #93, #298, #176, #625 ) ) ;
#584 = CARTESIAN_POINT ( 'NONE',  ( 6.000000000000000000, -6.379211070675434126E-16, -3.000000000000000000 ) ) ;
#585 = CIRCLE ( 'NONE', #520, 0.5000000000000004441 ) ;
#586 = EDGE_CURVE ( 'NONE', #228, #690, #585, .T. ) ;
#587 = DIRECTION ( 'NONE',  ( -1.000000000000000000, 0.000000000000000000, 0.000000000000000000 ) ) ;
#588 = ORIENTED_EDGE ( 'NONE', *, *, #721, .F. ) ;
#589 = FACE_OUTER_BOUND ( 'NONE', #60, .T. ) ;
#590 = EDGE_LOOP ( 'NONE', ( #622, #449, #318, #629 ) ) ;
#591 = CARTESIAN_POINT ( 'NONE',  ( -6.000000000000000000, 2.499999999999999556, 3.000000000000000000 ) ) ;
#592 = PERSON_AND_ORGANIZATION_ROLE ( 'classification_officer' ) ;
#593 = PRODUCT_RELATED_PRODUCT_CATEGORY ( 'detail', '', ( #668 ) ) ;
#594 = VECTOR ( 'NONE', #387, 1000.000000000000000 ) ;
#595 = CARTESIAN_POINT ( 'NONE',  ( 5.500000000000000000, 0.000000000000000000, 2.500000000000000000 ) ) ;
#596 = CARTESIAN_POINT ( 'NONE',  ( -6.000000000000000000, 2.499999999999999556, 3.000000000000000000 ) ) ;
#597 = PERSON_AND_ORGANIZATION ( #614, #616 ) ;
#598 = DIRECTION ( 'NONE',  ( -0.000000000000000000, 1.000000000000000000, -0.000000000000000000 ) ) ;
#599 = ORIENTED_EDGE ( 'NONE', *, *, #458, .F. ) ;
#600 = VECTOR ( 'NONE', #272, 1000.000000000000000 ) ;
#601 = DIRECTION ( 'NONE',  ( 0.000000000000000000, -1.000000000000000000, 0.000000000000000000 ) ) ;
#602 = LOCAL_TIME ( 11, 8, 13.00000000000000000, #200 ) ;
#603 = DIRECTION ( 'NONE',  ( 1.000000000000000000, 0.000000000000000000, 0.000000000000000000 ) ) ;
#604 = EDGE_CURVE ( 'NONE', #236, #158, #25, .T. ) ;
#605 = DIRECTION ( 'NONE',  ( 1.772003075187620152E-16, 1.000000000000000000, -0.000000000000000000 ) ) ;
#606 = AXIS2_PLACEMENT_3D ( 'NONE', #234, #133, #79 ) ;
#607 = DATE_TIME_ROLE ( 'creation_date' ) ;
#608 = LINE ( 'NONE', #716, #671 ) ;
#609 = AXIS2_PLACEMENT_3D ( 'NONE', #637, #136, #77 ) ;
#610 = LINE ( 'NONE', #112, #464 ) ;
#611 = DIRECTION ( 'NONE',  ( 1.807003620809173892E-16, -1.000000000000000000, -0.000000000000000000 ) ) ;
#612 = ADVANCED_FACE ( 'NONE', ( #442, #172 ), #118, .F. ) ;
#613 = LINE ( 'NONE', #400, #655 ) ;
#614 = PERSON ( 'UNSPECIFIED', 'UNSPECIFIED', 'UNSPECIFIED', ('UNSPECIFIED'), ('UNSPECIFIED'), ('UNSPECIFIED') ) ;
#615 = EDGE_LOOP ( 'NONE', ( #341, #361, #72, #226 ) ) ;
#616 = ORGANIZATION ( 'UNSPECIFIED', 'UNSPECIFIED', '' ) ;
#617 = CARTESIAN_POINT ( 'NONE',  ( 0.000000000000000000, -3.500000000000000444, 0.000000000000000000 ) ) ;
#618 = VERTEX_POINT ( 'NONE', #178 ) ;
#619 = DIRECTION ( 'NONE',  ( -1.000000000000000000, 1.772003075187620152E-16, 0.000000000000000000 ) ) ;
#620 = ORIENTED_EDGE ( 'NONE', *, *, #192, .T. ) ;
#621 = CYLINDRICAL_SURFACE ( 'NONE', #183, 0.5000000000000000000 ) ;
#622 = ORIENTED_EDGE ( 'NONE', *, *, #708, .F. ) ;
#623 = ORIENTED_EDGE ( 'NONE', *, *, #29, .T. ) ;
#624 = AXIS2_PLACEMENT_3D ( 'NONE', #379, #603, #322 ) ;
#625 = ORIENTED_EDGE ( 'NONE', *, *, #482, .T. ) ;
#626 = EDGE_CURVE ( 'NONE', #618, #185, #206, .T. ) ;
#627 = LOCAL_TIME ( 11, 8, 13.00000000000000000, #483 ) ;
#628 = DIRECTION ( 'NONE',  ( 1.772003075187620152E-16, 1.000000000000000000, -0.000000000000000000 ) ) ;
#629 = ORIENTED_EDGE ( 'NONE', *, *, #695, .F. ) ;
#630 = EDGE_LOOP ( 'NONE', ( #519, #501, #511, #10 ) ) ;
#631 = CARTESIAN_POINT ( 'NONE',  ( -5.500000000000000000, -5.493209533081623064E-16, 2.500000000000000000 ) ) ;
#632 = ORIENTED_EDGE ( 'NONE', *, *, #345, .T. ) ;
#633 = CARTESIAN_POINT ( 'NONE',  ( -1.899999999999999245, 8.860015375938104460E-17, -2.499999999999999556 ) ) ;
#634 = PRODUCT_DEFINITION ( 'UNKNOWN', '', #39, #152 ) ;
#635 = VECTOR ( 'NONE', #521, 1000.000000000000000 ) ;
#636 = DIRECTION ( 'NONE',  ( 1.807003620809173892E-16, -1.000000000000000000, -0.000000000000000000 ) ) ;
#637 = CARTESIAN_POINT ( 'NONE',  ( -1.899999999999999245, -2.407412430484044816E-32, -2.499999999999999556 ) ) ;
#638 = FACE_OUTER_BOUND ( 'NONE', #701, .T. ) ;
#639 = EDGE_CURVE ( 'NONE', #1, #567, #378, .T. ) ;
#640 = CARTESIAN_POINT ( 'NONE',  ( -1.899999999999999245, -3.500000000000000444, 3.000000000000000000 ) ) ;
#641 = AXIS2_PLACEMENT_3D ( 'NONE', #330, #540, #46 ) ;
#642 = ORIENTED_EDGE ( 'NONE', *, *, #367, .T. ) ;
#643 = CARTESIAN_POINT ( 'NONE',  ( 2.399999999999999467, -4.814824860968089633E-32, 2.500000000000000000 ) ) ;
#644 = SECURITY_CLASSIFICATION ( '', '', #718 ) ;
#645 = CYLINDRICAL_SURFACE ( 'NONE', #484, 0.5000000000000000000 ) ;
#646 = DIRECTION ( 'NONE',  ( 0.000000000000000000, 1.000000000000000000, 0.000000000000000000 ) ) ;
#647 = COORDINATED_UNIVERSAL_TIME_OFFSET ( 1, 0, .AHEAD. ) ;
#648 = CARTESIAN_POINT ( 'NONE',  ( 5.500000000000000000, 0.000000000000000000, 3.000000000000000000 ) ) ;
#649 = LINE ( 'NONE', #596, #575 ) ;
#650 = DIRECTION ( 'NONE',  ( 0.000000000000000000, 0.000000000000000000, -1.000000000000000000 ) ) ;
#651 = LINE ( 'NONE', #696, #635 ) ;
#652 = PERSON_AND_ORGANIZATION_ROLE ( 'creator' ) ;
#653 = DIRECTION ( 'NONE',  ( -1.000000000000000000, 1.772003075187620399E-16, 0.000000000000000000 ) ) ;
#654 = ORIENTED_EDGE ( 'NONE', *, *, #114, .T. ) ;
#655 = VECTOR ( 'NONE', #675, 1000.000000000000000 ) ;
#656 = CARTESIAN_POINT ( 'NONE',  ( 0.000000000000000000, 2.499999999999999556, 0.000000000000000000 ) ) ;
#657 = EDGE_CURVE ( 'NONE', #567, #228, #344, .T. ) ;
#658 = CARTESIAN_POINT ( 'NONE',  ( -1.899999999999999245, -2.407412430484044816E-32, -3.000000000000000000 ) ) ;
#659 = EDGE_CURVE ( 'NONE', #292, #694, #302, .T. ) ;
#660 = FACE_OUTER_BOUND ( 'NONE', #672, .T. ) ;
#661 = CARTESIAN_POINT ( 'NONE',  ( -2.399999999999999467, -2.407412430484044816E-32, 3.000000000000000000 ) ) ;
#662 = VECTOR ( 'NONE', #714, 1000.000000000000000 ) ;
#663 = AXIS2_PLACEMENT_3D ( 'NONE', #186, #411, #576 ) ;
#664 = CC_DESIGN_PERSON_AND_ORGANIZATION_ASSIGNMENT ( #416, #139, ( #668 ) ) ;
#665 = LINE ( 'NONE', #500, #37 ) ;
#666 = CIRCLE ( 'NONE', #218, 1.699999999999999956 ) ;
#667 = CARTESIAN_POINT ( 'NONE',  ( 2.400000000000000355, -3.499999999999999556, 3.000000000000000000 ) ) ;
#668 = PRODUCT ( 'piece_up_serrage_rails_mobiles', 'piece_up_serrage_rails_mobiles', '', ( #307 ) ) ;
#669 = VERTEX_POINT ( 'NONE', #356 ) ;
#670 = DIRECTION ( 'NONE',  ( 0.000000000000000000, 1.000000000000000000, 0.000000000000000000 ) ) ;
#671 = VECTOR ( 'NONE', #439, 1000.000000000000000 ) ;
#672 = EDGE_LOOP ( 'NONE', ( #257, #363, #338, #81, #274, #123, #290, #180 ) ) ;
#673 = ORIENTED_EDGE ( 'NONE', *, *, #137, .F. ) ;
#674 = CIRCLE ( 'NONE', #337, 0.5000000000000004441 ) ;
#675 = DIRECTION ( 'NONE',  ( -0.000000000000000000, -0.000000000000000000, -1.000000000000000000 ) ) ;
#676 = EDGE_LOOP ( 'NONE', ( #562, #230 ) ) ;
#677 = DIRECTION ( 'NONE',  ( -1.000000000000000000, -1.807003620809173892E-16, 0.000000000000000000 ) ) ;
#678 = EDGE_LOOP ( 'NONE', ( #184, #476, #380, #56 ) ) ;
#679 = ORIENTED_EDGE ( 'NONE', *, *, #301, .T. ) ;
#680 = LINE ( 'NONE', #424, #466 ) ;
#681 = DIRECTION ( 'NONE',  ( -1.000000000000000000, -1.772003075187620152E-16, 0.000000000000000000 ) ) ;
#682 = ORIENTED_EDGE ( 'NONE', *, *, #288, .T. ) ;
#683 = ORIENTED_EDGE ( 'NONE', *, *, #294, .F. ) ;
#684 = VECTOR ( 'NONE', #723, 1000.000000000000000 ) ;
#685 = EDGE_CURVE ( 'NONE', #566, #67, #475, .T. ) ;
#686 = CARTESIAN_POINT ( 'NONE',  ( 0.000000000000000000, -3.500000000000000444, 1.699999999999999956 ) ) ;
#687 = ORIENTED_EDGE ( 'NONE', *, *, #564, .T. ) ;
#688 = FACE_OUTER_BOUND ( 'NONE', #27, .T. ) ;
#689 = EDGE_CURVE ( 'NONE', #239, #44, #517, .T. ) ;
#690 = VERTEX_POINT ( 'NONE', #291 ) ;
#691 = CARTESIAN_POINT ( 'NONE',  ( -1.899999999999999245, -3.500000000000000444, 2.500000000000000000 ) ) ;
#692 = LINE ( 'NONE', #229, #143 ) ;
#693 = LINE ( 'NONE', #584, #549 ) ;
#694 = VERTEX_POINT ( 'NONE', #24 ) ;
#695 = EDGE_CURVE ( 'NONE', #18, #44, #680, .T. ) ;
#696 = CARTESIAN_POINT ( 'NONE',  ( -6.000000000000000000, 2.499999999999999556, -3.000000000000000000 ) ) ;
#697 = DIRECTION ( 'NONE',  ( -0.000000000000000000, -0.000000000000000000, -1.000000000000000000 ) ) ;
#698 = VECTOR ( 'NONE', #598, 1000.000000000000000 ) ;
#699 = ORIENTED_EDGE ( 'NONE', *, *, #579, .F. ) ;
#700 = CARTESIAN_POINT ( 'NONE',  ( 1.899999999999999245, 8.860015375938085971E-17, -3.000000000000000000 ) ) ;
#701 = EDGE_LOOP ( 'NONE', ( #404, #632, #654, #174, #179, #34, #340, #504 ) ) ;
#702 = CIRCLE ( 'NONE', #159, 0.5000000000000000000 ) ;
#703 = LINE ( 'NONE', #365, #393 ) ;
#704 = PERSON_AND_ORGANIZATION ( #614, #616 ) ;
#705 = LINE ( 'NONE', #161, #450 ) ;
#706 = VERTEX_POINT ( 'NONE', #640 ) ;
#707 = DIRECTION ( 'NONE',  ( 0.000000000000000000, 0.000000000000000000, 1.000000000000000000 ) ) ;
#708 = EDGE_CURVE ( 'NONE', #68, #18, #702, .T. ) ;
#709 = PERSON_AND_ORGANIZATION ( #614, #616 ) ;
#710 = DIRECTION ( 'NONE',  ( 0.000000000000000000, 0.000000000000000000, 1.000000000000000000 ) ) ;
#711 = ORIENTED_EDGE ( 'NONE', *, *, #489, .F. ) ;
#712 = DATE_AND_TIME ( #321, #550 ) ;
#713 = EDGE_CURVE ( 'NONE', #1, #571, #181, .T. ) ;
#714 = DIRECTION ( 'NONE',  ( -0.000000000000000000, 1.000000000000000000, -0.000000000000000000 ) ) ;
#715 = LOCAL_TIME ( 11, 8, 13.00000000000000000, #153 ) ;
#716 = CARTESIAN_POINT ( 'NONE',  ( 6.000000000000000000, 2.499999999999999556, 3.000000000000000000 ) ) ;
#717 = ADVANCED_FACE ( 'NONE', ( #526 ), #74, .F. ) ;
#718 = SECURITY_CLASSIFICATION_LEVEL ( 'unclassified' ) ;
#719 = VECTOR ( 'NONE', #601, 1000.000000000000000 ) ;
#720 = CARTESIAN_POINT ( 'NONE',  ( -2.399999999999999467, -3.500000000000000444, 3.000000000000000000 ) ) ;
#721 = EDGE_CURVE ( 'NONE', #78, #669, #692, .T. ) ;
#722 = DIRECTION ( 'NONE',  ( 0.000000000000000000, 0.000000000000000000, 1.000000000000000000 ) ) ;
#723 = DIRECTION ( 'NONE',  ( -0.000000000000000000, 1.000000000000000000, -0.000000000000000000 ) ) ;
ENDSEC;
END-ISO-10303-21;
