ISO-10303-21;
HEADER;
FILE_DESCRIPTION (( 'STEP AP203' ),
    '1' );
FILE_NAME ('piece_up_serrage_patte_rail_mobile.STEP',
    '2025-06-03T09:07:00',
    ( '' ),
    ( '' ),
    'SwSTEP 2.0',
    'SolidWorks 2023',
    '' );
FILE_SCHEMA (( 'CONFIG_CONTROL_DESIGN' ));
ENDSEC;

DATA;
#1 = CARTESIAN_POINT ( 'NONE',  ( -1.899999999999999245, 8.627989934747354887E-17, -3.000000000000000000 ) ) ;
#2 = LINE ( 'NONE', #624, #516 ) ;
#3 = CARTESIAN_POINT ( 'NONE',  ( -4.000000000000000000, 0.000000000000000000, 3.000000000000000000 ) ) ;
#4 = EDGE_CURVE ( 'NONE', #648, #588, #250, .T. ) ;
#5 = CARTESIAN_POINT ( 'NONE',  ( -4.500000000000000000, 2.499999999999999556, 3.000000000000000000 ) ) ;
#6 = EDGE_LOOP ( 'NONE', ( #581, #295, #657, #19 ) ) ;
#7 = CARTESIAN_POINT ( 'NONE',  ( 1.899999999999999689, -2.000000000000000444, 2.500000000000000000 ) ) ;
#8 = VECTOR ( 'NONE', #362, 1000.000000000000000 ) ;
#9 = CARTESIAN_POINT ( 'NONE',  ( 1.899999999999999245, 8.627989934747352422E-17, -2.499999999999999556 ) ) ;
#10 = ORIENTED_EDGE ( 'NONE', *, *, #175, .F. ) ;
#11 = CARTESIAN_POINT ( 'NONE',  ( -2.399999999999999911, -1.999999999999999556, -2.499999999999999556 ) ) ;
#12 = VECTOR ( 'NONE', #66, 1000.000000000000000 ) ;
#13 = AXIS2_PLACEMENT_3D ( 'NONE', #160, #387, #608 ) ;
#14 = CARTESIAN_POINT ( 'NONE',  ( -4.000000000000000000, 2.499999999999999556, -3.000000000000000000 ) ) ;
#15 = ORIENTED_EDGE ( 'NONE', *, *, #426, .T. ) ;
#16 = CARTESIAN_POINT ( 'NONE',  ( -2.399999999999999911, -1.999999999999999556, 2.500000000000000000 ) ) ;
#17 = ORIENTED_EDGE ( 'NONE', *, *, #313, .T. ) ;
#18 = CARTESIAN_POINT ( 'NONE',  ( -1.899999999999999245, 4.119968255444916356E-16, 2.500000000000000000 ) ) ;
#19 = ORIENTED_EDGE ( 'NONE', *, *, #517, .F. ) ;
#20 = CC_DESIGN_DATE_AND_TIME_ASSIGNMENT ( #92, #318, ( #630 ) ) ;
#21 = DIRECTION ( 'NONE',  ( -1.000000000000000000, 0.000000000000000000, 0.000000000000000000 ) ) ;
#22 = VERTEX_POINT ( 'NONE', #256 ) ;
#23 = DIRECTION ( 'NONE',  ( -2.168404344971008375E-16, 1.000000000000000000, 0.000000000000000000 ) ) ;
#24 = AXIS2_PLACEMENT_3D ( 'NONE', #9, #229, #164 ) ;
#25 = ORIENTED_EDGE ( 'NONE', *, *, #263, .F. ) ;
#26 = DIRECTION ( 'NONE',  ( -1.725597986949470484E-16, 1.000000000000000000, 0.000000000000000000 ) ) ;
#27 = CARTESIAN_POINT ( 'NONE',  ( 4.500000000000000000, -3.623755772593888362E-16, 3.000000000000000000 ) ) ;
#28 = CARTESIAN_POINT ( 'NONE',  ( 0.000000000000000000, -2.000000000000000888, 0.000000000000000000 ) ) ;
#29 = ORIENTED_EDGE ( 'NONE', *, *, #477, .T. ) ;
#30 = EDGE_CURVE ( 'NONE', #471, #412, #653, .T. ) ;
#31 =( NAMED_UNIT ( * ) PLANE_ANGLE_UNIT ( ) SI_UNIT ( $, .RADIAN. ) );
#32 = CARTESIAN_POINT ( 'NONE',  ( -1.899999999999999245, 8.627989934747354887E-17, -2.499999999999999556 ) ) ;
#33 = DIRECTION ( 'NONE',  ( 0.000000000000000000, 0.000000000000000000, 1.000000000000000000 ) ) ;
#34 = VERTEX_POINT ( 'NONE', #363 ) ;
#35 = VECTOR ( 'NONE', #38, 1000.000000000000000 ) ;
#36 = CC_DESIGN_SECURITY_CLASSIFICATION ( #630, ( #410 ) ) ;
#37 = PERSON_AND_ORGANIZATION ( #200, #458 ) ;
#38 = DIRECTION ( 'NONE',  ( -2.168404344971008375E-16, 1.000000000000000000, 0.000000000000000000 ) ) ;
#39 = AXIS2_PLACEMENT_3D ( 'NONE', #251, #704, #197 ) ;
#40 = PERSON_AND_ORGANIZATION ( #200, #458 ) ;
#41 = LINE ( 'NONE', #719, #710 ) ;
#42 = AXIS2_PLACEMENT_3D ( 'NONE', #676, #156, #380 ) ;
#43 = CALENDAR_DATE ( 2025, 3, 6 ) ;
#44 = EDGE_CURVE ( 'NONE', #586, #680, #315, .T. ) ;
#45 = CARTESIAN_POINT ( 'NONE',  ( -2.399999999999999467, -2.407412430484044816E-32, 3.000000000000000000 ) ) ;
#46 = CARTESIAN_POINT ( 'NONE',  ( -4.500000000000000000, 2.499999999999999556, 3.000000000000000000 ) ) ;
#47 = VECTOR ( 'NONE', #450, 1000.000000000000000 ) ;
#48 = DIRECTION ( 'NONE',  ( 1.000000000000000000, 1.725597986949470484E-16, 0.000000000000000000 ) ) ;
#49 = EDGE_CURVE ( 'NONE', #588, #34, #60, .T. ) ;
#50 = EDGE_LOOP ( 'NONE', ( #308, #15, #128, #514, #499, #705, #675, #354 ) ) ;
#51 = CARTESIAN_POINT ( 'NONE',  ( -1.899999999999999245, -1.084202172485504927E-16, -3.000000000000000000 ) ) ;
#52 = ORIENTED_EDGE ( 'NONE', *, *, #44, .T. ) ;
#53 = LINE ( 'NONE', #613, #337 ) ;
#54 = LOCAL_TIME ( 11, 7, 0.000000000000000000, #713 ) ;
#55 = DIRECTION ( 'NONE',  ( -1.000000000000000000, 0.000000000000000000, 0.000000000000000000 ) ) ;
#56 = CARTESIAN_POINT ( 'NONE',  ( 4.500000000000000000, -3.623755772593888362E-16, -2.499999999999999556 ) ) ;
#57 = CARTESIAN_POINT ( 'NONE',  ( -4.500000000000000000, -3.623755772593888362E-16, 2.500000000000000000 ) ) ;
#58 = ORIENTED_EDGE ( 'NONE', *, *, #558, .F. ) ;
#59 = FACE_OUTER_BOUND ( 'NONE', #539, .T. ) ;
#60 = CIRCLE ( 'NONE', #346, 0.5000000000000000000 ) ;
#61 = FACE_OUTER_BOUND ( 'NONE', #90, .T. ) ;
#62 = ORIENTED_EDGE ( 'NONE', *, *, #68, .T. ) ;
#63 = DIRECTION ( 'NONE',  ( -1.000000000000000000, -1.725597986949470731E-16, 0.000000000000000000 ) ) ;
#64 = CARTESIAN_POINT ( 'NONE',  ( 2.399999999999999467, -4.814824860968089633E-32, 3.000000000000000000 ) ) ;
#65 = ORIENTED_EDGE ( 'NONE', *, *, #87, .F. ) ;
#66 = DIRECTION ( 'NONE',  ( 0.000000000000000000, -1.000000000000000000, 0.000000000000000000 ) ) ;
#67 = AXIS2_PLACEMENT_3D ( 'NONE', #316, #242, #33 ) ;
#68 = EDGE_CURVE ( 'NONE', #22, #508, #532, .T. ) ;
#69 = DIRECTION ( 'NONE',  ( -0.000000000000000000, 1.000000000000000000, -0.000000000000000000 ) ) ;
#70 = VERTEX_POINT ( 'NONE', #149 ) ;
#71 = CARTESIAN_POINT ( 'NONE',  ( -4.000000000000000000, -2.760956779119154353E-16, -2.499999999999999556 ) ) ;
#72 = VERTEX_POINT ( 'NONE', #378 ) ;
#73 = ADVANCED_FACE ( 'NONE', ( #85 ), #306, .F. ) ;
#74 = CARTESIAN_POINT ( 'NONE',  ( 0.000000000000000000, 2.499999999999999556, 0.000000000000000000 ) ) ;
#75 = EDGE_LOOP ( 'NONE', ( #326, #520, #80, #77 ) ) ;
#76 = CARTESIAN_POINT ( 'NONE',  ( 4.500000000000000000, -3.623755772593888362E-16, 3.000000000000000000 ) ) ;
#77 = ORIENTED_EDGE ( 'NONE', *, *, #394, .F. ) ;
#78 = DIRECTION ( 'NONE',  ( -1.000000000000000000, -0.000000000000000000, -0.000000000000000000 ) ) ;
#79 = ADVANCED_FACE ( 'NONE', ( #538 ), #639, .T. ) ;
#80 = ORIENTED_EDGE ( 'NONE', *, *, #666, .T. ) ;
#81 = DIRECTION ( 'NONE',  ( 0.000000000000000000, -1.000000000000000000, 0.000000000000000000 ) ) ;
#82 = VECTOR ( 'NONE', #565, 1000.000000000000000 ) ;
#83 = EDGE_LOOP ( 'NONE', ( #239, #465, #300, #279, #338, #141, #454, #480 ) ) ;
#84 = CARTESIAN_POINT ( 'NONE',  ( 1.530808498934191571E-16, -2.000000000000000888, -1.250000000000000000 ) ) ;
#85 = FACE_OUTER_BOUND ( 'NONE', #83, .T. ) ;
#86 = CARTESIAN_POINT ( 'NONE',  ( -1.899999999999999245, -1.084202172485504927E-16, -2.499999999999999556 ) ) ;
#87 = EDGE_CURVE ( 'NONE', #586, #234, #282, .T. ) ;
#88 = ORIENTED_EDGE ( 'NONE', *, *, #517, .T. ) ;
#89 = PLANE ( 'NONE',  #288 ) ;
#90 = EDGE_LOOP ( 'NONE', ( #356, #183, #686, #105, #449, #709, #52, #237 ) ) ;
#91 = LINE ( 'NONE', #146, #194 ) ;
#92 = DATE_AND_TIME ( #546, #347 ) ;
#93 = ORIENTED_EDGE ( 'NONE', *, *, #298, .T. ) ;
#94 = DIRECTION ( 'NONE',  ( 1.000000000000000000, -2.168404344971009361E-16, 0.000000000000000000 ) ) ;
#95 = VECTOR ( 'NONE', #531, 1000.000000000000000 ) ;
#96 = EDGE_CURVE ( 'NONE', #574, #688, #423, .T. ) ;
#97 = PERSON_AND_ORGANIZATION ( #200, #458 ) ;
#98 = CARTESIAN_POINT ( 'NONE',  ( -4.500000000000000000, -3.623755772593888362E-16, 3.000000000000000000 ) ) ;
#99 = APPLICATION_CONTEXT ( 'configuration controlled 3d designs of mechanical parts and assemblies' ) ;
#100 = CALENDAR_DATE ( 2025, 3, 6 ) ;
#101 = DIRECTION ( 'NONE',  ( -1.725597986949470484E-16, -1.000000000000000000, 0.000000000000000000 ) ) ;
#102 = ADVANCED_FACE ( 'NONE', ( #189 ), #533, .T. ) ;
#103 = DIRECTION ( 'NONE',  ( -1.000000000000000000, -0.000000000000000000, -0.000000000000000000 ) ) ;
#104 = AXIS2_PLACEMENT_3D ( 'NONE', #152, #620, #562 ) ;
#105 = ORIENTED_EDGE ( 'NONE', *, *, #501, .T. ) ;
#106 = CIRCLE ( 'NONE', #518, 0.5000000000000000000 ) ;
#107 = PRODUCT_DEFINITION_SHAPE ( 'NONE', 'NONE',  #453 ) ;
#108 = PLANE ( 'NONE',  #429 ) ;
#109 = AXIS2_PLACEMENT_3D ( 'NONE', #717, #605, #502 ) ;
#110 = DIRECTION ( 'NONE',  ( 2.168404344971008375E-16, -1.000000000000000000, -0.000000000000000000 ) ) ;
#111 = CARTESIAN_POINT ( 'NONE',  ( 4.500000000000000000, -3.623755772593888362E-16, 3.000000000000000000 ) ) ;
#112 = DIRECTION ( 'NONE',  ( -5.204170427930421283E-15, 0.000000000000000000, -1.000000000000000000 ) ) ;
#113 = VERTEX_POINT ( 'NONE', #644 ) ;
#114 = APPROVAL_PERSON_ORGANIZATION ( #40, #159, #656 ) ;
#115 = CC_DESIGN_DATE_AND_TIME_ASSIGNMENT ( #148, #377, ( #453 ) ) ;
#116 = LINE ( 'NONE', #176, #272 ) ;
#117 = ORIENTED_EDGE ( 'NONE', *, *, #641, .T. ) ;
#118 = DIRECTION ( 'NONE',  ( -2.168404344971008375E-16, 1.000000000000000000, 0.000000000000000000 ) ) ;
#119 = CARTESIAN_POINT ( 'NONE',  ( -4.000000000000000000, -2.760956779119154353E-16, 2.500000000000000000 ) ) ;
#120 = VERTEX_POINT ( 'NONE', #133 ) ;
#121 = CARTESIAN_POINT ( 'NONE',  ( -2.399999999999999467, -2.407412430484044816E-32, 3.000000000000000000 ) ) ;
#122 = CARTESIAN_POINT ( 'NONE',  ( -4.000000000000000000, 2.499999999999999556, 3.000000000000000000 ) ) ;
#123 = ORIENTED_EDGE ( 'NONE', *, *, #357, .T. ) ;
#124 = DIRECTION ( 'NONE',  ( -0.000000000000000000, 1.000000000000000000, 0.000000000000000000 ) ) ;
#125 = EDGE_CURVE ( 'NONE', #72, #113, #91, .T. ) ;
#126 = EDGE_LOOP ( 'NONE', ( #297, #29 ) ) ;
#127 = CARTESIAN_POINT ( 'NONE',  ( -1.899999999999999245, 8.627989934747349957E-17, 2.500000000000000000 ) ) ;
#128 = ORIENTED_EDGE ( 'NONE', *, *, #4, .F. ) ;
#129 = ADVANCED_FACE ( 'NONE', ( #375 ), #370, .F. ) ;
#130 = AXIS2_PLACEMENT_3D ( 'NONE', #684, #626, #355 ) ;
#131 = CIRCLE ( 'NONE', #109, 0.5000000000000000000 ) ;
#132 = ORIENTED_EDGE ( 'NONE', *, *, #399, .T. ) ;
#133 = CARTESIAN_POINT ( 'NONE',  ( -4.500000000000000000, 2.499999999999999556, 2.500000000000000000 ) ) ;
#134 = ORIENTED_EDGE ( 'NONE', *, *, #394, .T. ) ;
#135 = UNCERTAINTY_MEASURE_WITH_UNIT (LENGTH_MEASURE( 1.000000000000000082E-05 ), #309, 'distance_accuracy_value', 'NONE');
#136 = DIRECTION ( 'NONE',  ( -0.000000000000000000, -0.000000000000000000, -1.000000000000000000 ) ) ;
#137 = DIRECTION ( 'NONE',  ( 1.000000000000000000, -1.725597986949470484E-16, -0.000000000000000000 ) ) ;
#138 = DIRECTION ( 'NONE',  ( -0.000000000000000000, -0.000000000000000000, -1.000000000000000000 ) ) ;
#139 = ORIENTED_EDGE ( 'NONE', *, *, #553, .F. ) ;
#140 = DIRECTION ( 'NONE',  ( 0.000000000000000000, 0.000000000000000000, 1.000000000000000000 ) ) ;
#141 = ORIENTED_EDGE ( 'NONE', *, *, #614, .T. ) ;
#142 = FACE_OUTER_BOUND ( 'NONE', #371, .T. ) ;
#143 = AXIS2_PLACEMENT_3D ( 'NONE', #468, #411, #21 ) ;
#144 = EDGE_LOOP ( 'NONE', ( #414, #117, #167, #389, #246, #696, #633, #244 ) ) ;
#145 = CARTESIAN_POINT ( 'NONE',  ( 4.500000000000000000, -3.623755772593888362E-16, 3.000000000000000000 ) ) ;
#146 = CARTESIAN_POINT ( 'NONE',  ( 4.500000000000000000, 2.499999999999999556, 3.000000000000000000 ) ) ;
#147 = VECTOR ( 'NONE', #103, 1000.000000000000000 ) ;
#148 = DATE_AND_TIME ( #324, #722 ) ;
#149 = CARTESIAN_POINT ( 'NONE',  ( -4.500000000000000000, -3.623755772593888362E-16, 2.500000000000000000 ) ) ;
#150 = ADVANCED_FACE ( 'NONE', ( #585 ), #484, .F. ) ;
#151 = PERSON_AND_ORGANIZATION ( #200, #458 ) ;
#152 = CARTESIAN_POINT ( 'NONE',  ( 0.000000000000000000, -2.000000000000000888, 0.000000000000000000 ) ) ;
#153 = CC_DESIGN_APPROVAL ( #159, ( #410 ) ) ;
#154 = CC_DESIGN_PERSON_AND_ORGANIZATION_ASSIGNMENT ( #155, #711, ( #453 ) ) ;
#155 = PERSON_AND_ORGANIZATION ( #200, #458 ) ;
#156 = DIRECTION ( 'NONE',  ( 1.000000000000000000, 0.000000000000000000, 0.000000000000000000 ) ) ;
#157 = ADVANCED_FACE ( 'NONE', ( #479 ), #647, .T. ) ;
#158 = DIRECTION ( 'NONE',  ( -1.000000000000000000, 0.000000000000000000, -0.000000000000000000 ) ) ;
#159 = APPROVAL ( #379, 'UNSPECIFIED' ) ;
#160 = CARTESIAN_POINT ( 'NONE',  ( -4.000000000000000000, 2.499999999999999556, 2.500000000000000000 ) ) ;
#161 = AXIS2_PLACEMENT_3D ( 'NONE', #127, #402, #63 ) ;
#162 = CARTESIAN_POINT ( 'NONE',  ( 4.000000000000000000, 0.000000000000000000, 3.000000000000000000 ) ) ;
#163 = VECTOR ( 'NONE', #323, 1000.000000000000000 ) ;
#164 = DIRECTION ( 'NONE',  ( -1.000000000000000000, 1.725597986949470484E-16, 0.000000000000000000 ) ) ;
#165 = LINE ( 'NONE', #393, #391 ) ;
#166 = ADVANCED_FACE ( 'NONE', ( #142 ), #589, .T. ) ;
#167 = ORIENTED_EDGE ( 'NONE', *, *, #701, .T. ) ;
#168 = LINE ( 'NONE', #459, #398 ) ;
#169 = VERTEX_POINT ( 'NONE', #470 ) ;
#170 = FACE_OUTER_BOUND ( 'NONE', #253, .T. ) ;
#171 = VECTOR ( 'NONE', #670, 1000.000000000000000 ) ;
#172 = CARTESIAN_POINT ( 'NONE',  ( 1.899999999999999245, 8.627989934747354887E-17, 3.000000000000000000 ) ) ;
#173 = ORIENTED_EDGE ( 'NONE', *, *, #332, .F. ) ;
#174 = DIRECTION ( 'NONE',  ( -2.168404344971009361E-16, -1.000000000000000000, 0.000000000000000000 ) ) ;
#175 = EDGE_CURVE ( 'NONE', #361, #703, #487, .T. ) ;
#176 = CARTESIAN_POINT ( 'NONE',  ( -4.500000000000000000, -3.623755772593888362E-16, -2.499999999999999556 ) ) ;
#177 = VERTEX_POINT ( 'NONE', #654 ) ;
#178 = FACE_OUTER_BOUND ( 'NONE', #6, .T. ) ;
#179 = CARTESIAN_POINT ( 'NONE',  ( 0.000000000000000000, 2.499999999999999556, 1.250000000000000000 ) ) ;
#180 = ORIENTED_EDGE ( 'NONE', *, *, #505, .T. ) ;
#181 = CARTESIAN_POINT ( 'NONE',  ( 1.899999999999999245, -1.084202172485504681E-16, -2.499999999999999556 ) ) ;
#182 = MECHANICAL_CONTEXT ( 'NONE', #99, 'mechanical' ) ;
#183 = ORIENTED_EDGE ( 'NONE', *, *, #206, .T. ) ;
#184 = DIRECTION ( 'NONE',  ( 0.000000000000000000, 0.000000000000000000, -1.000000000000000000 ) ) ;
#185 = EDGE_LOOP ( 'NONE', ( #566, #550, #485, #62 ) ) ;
#186 = EDGE_CURVE ( 'NONE', #113, #478, #290, .T. ) ;
#187 = CARTESIAN_POINT ( 'NONE',  ( 1.900000000000000133, -2.000000000000000444, 3.000000000000000000 ) ) ;
#188 = ORIENTED_EDGE ( 'NONE', *, *, #68, .F. ) ;
#189 = FACE_OUTER_BOUND ( 'NONE', #192, .T. ) ;
#190 = VERTEX_POINT ( 'NONE', #16 ) ;
#191 =( NAMED_UNIT ( * ) SI_UNIT ( $, .STERADIAN. ) SOLID_ANGLE_UNIT ( ) );
#192 = EDGE_LOOP ( 'NONE', ( #196, #530, #576, #469 ) ) ;
#193 = DIRECTION ( 'NONE',  ( -1.000000000000000000, -2.168404344971008868E-16, 0.000000000000000000 ) ) ;
#194 = VECTOR ( 'NONE', #138, 1000.000000000000000 ) ;
#195 = ORIENTED_EDGE ( 'NONE', *, *, #227, .F. ) ;
#196 = ORIENTED_EDGE ( 'NONE', *, *, #439, .F. ) ;
#197 = DIRECTION ( 'NONE',  ( 0.000000000000000000, 0.000000000000000000, 1.000000000000000000 ) ) ;
#198 = AXIS2_PLACEMENT_3D ( 'NONE', #416, #523, #373 ) ;
#199 = CIRCLE ( 'NONE', #161, 0.5000000000000000000 ) ;
#200 = PERSON ( 'UNSPECIFIED', 'UNSPECIFIED', 'UNSPECIFIED', ('UNSPECIFIED'), ('UNSPECIFIED'), ('UNSPECIFIED') ) ;
#201 = SECURITY_CLASSIFICATION_LEVEL ( 'unclassified' ) ;
#202 = EDGE_CURVE ( 'NONE', #718, #586, #461, .T. ) ;
#203 = ORIENTED_EDGE ( 'NONE', *, *, #202, .F. ) ;
#204 = VECTOR ( 'NONE', #211, 1000.000000000000000 ) ;
#205 = PERSON_AND_ORGANIZATION ( #200, #458 ) ;
#206 = EDGE_CURVE ( 'NONE', #556, #697, #511, .T. ) ;
#207 = CARTESIAN_POINT ( 'NONE',  ( -2.399999999999999467, -2.407412430484044816E-32, 2.500000000000000000 ) ) ;
#208 = COORDINATED_UNIVERSAL_TIME_OFFSET ( 1, 0, .AHEAD. ) ;
#209 = CARTESIAN_POINT ( 'NONE',  ( 0.000000000000000000, 0.000000000000000000, -3.000000000000000000 ) ) ;
#210 = AXIS2_PLACEMENT_3D ( 'NONE', #573, #693, #583 ) ;
#211 = DIRECTION ( 'NONE',  ( 2.168404344971009361E-16, 1.000000000000000000, -0.000000000000000000 ) ) ;
#212 = CARTESIAN_POINT ( 'NONE',  ( 2.399999999999999911, -2.000000000000000444, 2.500000000000000000 ) ) ;
#213 = ORIENTED_EDGE ( 'NONE', *, *, #243, .F. ) ;
#214 = FACE_OUTER_BOUND ( 'NONE', #646, .T. ) ;
#215 = CC_DESIGN_APPROVAL ( #415, ( #453 ) ) ;
#216 = DATE_AND_TIME ( #43, #569 ) ;
#217 = ADVANCED_FACE ( 'NONE', ( #170 ), #567, .T. ) ;
#218 = DIRECTION ( 'NONE',  ( 0.000000000000000000, -1.000000000000000000, 0.000000000000000000 ) ) ;
#219 = ORIENTED_EDGE ( 'NONE', *, *, #553, .T. ) ;
#220 = LINE ( 'NONE', #5, #82 ) ;
#221 = FACE_OUTER_BOUND ( 'NONE', #396, .T. ) ;
#222 = CC_DESIGN_PERSON_AND_ORGANIZATION_ASSIGNMENT ( #97, #492, ( #630 ) ) ;
#223 = ORIENTED_EDGE ( 'NONE', *, *, #399, .F. ) ;
#224 = LINE ( 'NONE', #111, #715 ) ;
#225 = ORIENTED_EDGE ( 'NONE', *, *, #505, .F. ) ;
#226 = CARTESIAN_POINT ( 'NONE',  ( 1.899999999999999245, 4.119968255444914877E-16, 3.000000000000000000 ) ) ;
#227 = EDGE_CURVE ( 'NONE', #424, #718, #106, .T. ) ;
#228 = CIRCLE ( 'NONE', #24, 0.5000000000000000000 ) ;
#229 = DIRECTION ( 'NONE',  ( 1.725597986949470484E-16, 1.000000000000000000, -0.000000000000000000 ) ) ;
#230 = EDGE_LOOP ( 'NONE', ( #195, #606, #65, #203 ) ) ;
#231 = CYLINDRICAL_SURFACE ( 'NONE', #388, 0.5000000000000000000 ) ;
#232 = CIRCLE ( 'NONE', #522, 1.250000000000000000 ) ;
#233 = DIRECTION ( 'NONE',  ( 0.000000000000000000, 0.000000000000000000, -1.000000000000000000 ) ) ;
#234 = VERTEX_POINT ( 'NONE', #286 ) ;
#235 = LINE ( 'NONE', #121, #257 ) ;
#236 = LINE ( 'NONE', #351, #660 ) ;
#237 = ORIENTED_EDGE ( 'NONE', *, *, #386, .T. ) ;
#238 = CARTESIAN_POINT ( 'NONE',  ( -4.500000000000000000, -3.623755772593888362E-16, 3.000000000000000000 ) ) ;
#239 = ORIENTED_EDGE ( 'NONE', *, *, #497, .F. ) ;
#240 = AXIS2_PLACEMENT_3D ( 'NONE', #400, #289, #55 ) ;
#241 = VERTEX_POINT ( 'NONE', #564 ) ;
#242 = DIRECTION ( 'NONE',  ( 0.000000000000000000, 1.000000000000000000, 0.000000000000000000 ) ) ;
#243 = EDGE_CURVE ( 'NONE', #404, #241, #199, .T. ) ;
#244 = ORIENTED_EDGE ( 'NONE', *, *, #227, .T. ) ;
#245 = DIRECTION ( 'NONE',  ( 0.000000000000000000, 1.000000000000000000, 0.000000000000000000 ) ) ;
#246 = ORIENTED_EDGE ( 'NONE', *, *, #96, .T. ) ;
#247 = DIRECTION ( 'NONE',  ( 0.000000000000000000, 0.000000000000000000, 1.000000000000000000 ) ) ;
#248 = ORIENTED_EDGE ( 'NONE', *, *, #467, .T. ) ;
#249 = MANIFOLD_SOLID_BREP ( 'Congé1', #512 ) ;
#250 = LINE ( 'NONE', #592, #540 ) ;
#251 = CARTESIAN_POINT ( 'NONE',  ( 0.000000000000000000, -2.000000000000000888, 0.000000000000000000 ) ) ;
#252 = VECTOR ( 'NONE', #422, 1000.000000000000000 ) ;
#253 = EDGE_LOOP ( 'NONE', ( #611, #563, #537, #188 ) ) ;
#254 = ADVANCED_FACE ( 'NONE', ( #515 ), #521, .F. ) ;
#255 = APPROVAL_STATUS ( 'not_yet_approved' ) ;
#256 = CARTESIAN_POINT ( 'NONE',  ( 2.399999999999999911, -2.000000000000000444, -2.499999999999999556 ) ) ;
#257 = VECTOR ( 'NONE', #345, 1000.000000000000000 ) ;
#258 = EDGE_CURVE ( 'NONE', #34, #524, #629, .T. ) ;
#259 = COORDINATED_UNIVERSAL_TIME_OFFSET ( 1, 0, .AHEAD. ) ;
#260 = AXIS2_PLACEMENT_3D ( 'NONE', #45, #94, #662 ) ;
#261 = FACE_OUTER_BOUND ( 'NONE', #50, .T. ) ;
#262 = APPROVAL_ROLE ( '' ) ;
#263 = EDGE_CURVE ( 'NONE', #404, #34, #235, .T. ) ;
#264 = LINE ( 'NONE', #51, #204 ) ;
#265 = DIRECTION ( 'NONE',  ( 0.000000000000000000, 0.000000000000000000, -1.000000000000000000 ) ) ;
#266 = CC_DESIGN_PERSON_AND_ORGANIZATION_ASSIGNMENT ( #151, #599, ( #410 ) ) ;
#267 = CARTESIAN_POINT ( 'NONE',  ( 4.000000000000000000, -2.760956779119154353E-16, -3.000000000000000000 ) ) ;
#268 = ORIENTED_EDGE ( 'NONE', *, *, #258, .F. ) ;
#269 = DIRECTION ( 'NONE',  ( 0.000000000000000000, 0.000000000000000000, 1.000000000000000000 ) ) ;
#270 = ADVANCED_FACE ( 'NONE', ( #59 ), #231, .T. ) ;
#271 = DIRECTION ( 'NONE',  ( -2.168404344971009361E-16, -1.000000000000000000, 0.000000000000000000 ) ) ;
#272 = VECTOR ( 'NONE', #218, 1000.000000000000000 ) ;
#273 = ADVANCED_FACE ( 'NONE', ( #178 ), #405, .T. ) ;
#274 = LINE ( 'NONE', #57, #649 ) ;
#275 = CARTESIAN_POINT ( 'NONE',  ( 4.000000000000000000, -2.760956779119154353E-16, 2.500000000000000000 ) ) ;
#276 = APPLICATION_CONTEXT ( 'configuration controlled 3d designs of mechanical parts and assemblies' ) ;
#277 = EDGE_LOOP ( 'NONE', ( #58, #486, #535, #248, #526, #673, #571, #123 ) ) ;
#278 = PLANE ( 'NONE',  #690 ) ;
#279 = ORIENTED_EDGE ( 'NONE', *, *, #87, .T. ) ;
#280 = CARTESIAN_POINT ( 'NONE',  ( -4.000000000000000000, -3.623755772593888362E-16, -2.499999999999999556 ) ) ;
#281 = EDGE_CURVE ( 'NONE', #234, #424, #292, .T. ) ;
#282 = CIRCLE ( 'NONE', #441, 0.5000000000000000000 ) ;
#283 = APPROVAL_PERSON_ORGANIZATION ( #205, #617, #489 ) ;
#284 = CARTESIAN_POINT ( 'NONE',  ( 0.000000000000000000, 0.000000000000000000, 3.000000000000000000 ) ) ;
#285 = ORIENTED_EDGE ( 'NONE', *, *, #666, .F. ) ;
#286 = CARTESIAN_POINT ( 'NONE',  ( 2.399999999999999467, -4.814824860968089633E-32, 2.500000000000000000 ) ) ;
#287 = EDGE_CURVE ( 'NONE', #478, #412, #408, .T. ) ;
#288 = AXIS2_PLACEMENT_3D ( 'NONE', #299, #26, #527 ) ;
#289 = DIRECTION ( 'NONE',  ( -1.807003620809173892E-16, -1.000000000000000000, 0.000000000000000000 ) ) ;
#290 = CIRCLE ( 'NONE', #650, 0.5000000000000000000 ) ;
#291 = EDGE_LOOP ( 'NONE', ( #638, #285 ) ) ;
#292 = LINE ( 'NONE', #687, #707 ) ;
#293 = VECTOR ( 'NONE', #491, 1000.000000000000000 ) ;
#294 = CARTESIAN_POINT ( 'NONE',  ( 4.000000000000000000, -2.760956779119154353E-16, 3.000000000000000000 ) ) ;
#295 = ORIENTED_EDGE ( 'NONE', *, *, #548, .F. ) ;
#296 = DIRECTION ( 'NONE',  ( -1.000000000000000000, -1.725597986949469498E-16, 0.000000000000000000 ) ) ;
#297 = ORIENTED_EDGE ( 'NONE', *, *, #175, .T. ) ;
#298 = EDGE_CURVE ( 'NONE', #365, #648, #372, .T. ) ;
#299 = CARTESIAN_POINT ( 'NONE',  ( -4.500000000000000000, -3.623755772593888362E-16, 3.000000000000000000 ) ) ;
#300 = ORIENTED_EDGE ( 'NONE', *, *, #44, .F. ) ;
#301 = DIRECTION ( 'NONE',  ( -1.000000000000000000, 1.725597986949470484E-16, 0.000000000000000000 ) ) ;
#302 = VERTEX_POINT ( 'NONE', #56 ) ;
#303 = DESIGN_CONTEXT ( 'detailed design', #276, 'design' ) ;
#304 = CIRCLE ( 'NONE', #240, 0.5000000000000000000 ) ;
#305 = LINE ( 'NONE', #708, #95 ) ;
#306 = PLANE ( 'NONE',  #317 ) ;
#307 = DIRECTION ( 'NONE',  ( -1.000000000000000000, 1.725597986949470977E-16, 0.000000000000000000 ) ) ;
#308 = ORIENTED_EDGE ( 'NONE', *, *, #96, .F. ) ;
#309 =( LENGTH_UNIT ( ) NAMED_UNIT ( * ) SI_UNIT ( .MILLI., .METRE. ) );
#310 = EDGE_LOOP ( 'NONE', ( #474, #645, #460, #268 ) ) ;
#311 = CARTESIAN_POINT ( 'NONE',  ( 4.000000000000000000, -3.623755772593888362E-16, -2.499999999999999556 ) ) ;
#312 = ORIENTED_EDGE ( 'NONE', *, *, #321, .T. ) ;
#313 = EDGE_CURVE ( 'NONE', #70, #365, #525, .T. ) ;
#314 = PERSON_AND_ORGANIZATION_ROLE ( 'design_owner' ) ;
#315 = LINE ( 'NONE', #145, #252 ) ;
#316 = CARTESIAN_POINT ( 'NONE',  ( 4.000000000000000000, 0.000000000000000000, 2.500000000000000000 ) ) ;
#317 = AXIS2_PLACEMENT_3D ( 'NONE', #27, #369, #301 ) ;
#318 = DATE_TIME_ROLE ( 'classification_date' ) ;
#319 = APPROVAL_PERSON_ORGANIZATION ( #37, #415, #262 ) ;
#320 = CARTESIAN_POINT ( 'NONE',  ( -4.500000000000000000, -3.623755772593888362E-16, -2.499999999999999556 ) ) ;
#321 = EDGE_CURVE ( 'NONE', #302, #113, #165, .T. ) ;
#322 = DATE_AND_TIME ( #100, #472 ) ;
#323 = DIRECTION ( 'NONE',  ( -0.000000000000000000, -1.000000000000000000, -0.000000000000000000 ) ) ;
#324 = CALENDAR_DATE ( 2025, 3, 6 ) ;
#325 = LINE ( 'NONE', #600, #163 ) ;
#326 = ORIENTED_EDGE ( 'NONE', *, *, #477, .F. ) ;
#327 = LINE ( 'NONE', #162, #293 ) ;
#328 = CIRCLE ( 'NONE', #210, 0.5000000000000000000 ) ;
#329 = VECTOR ( 'NONE', #118, 1000.000000000000000 ) ;
#330 = CARTESIAN_POINT ( 'NONE',  ( -4.500000000000000000, 2.499999999999999556, 3.000000000000000000 ) ) ;
#331 = AXIS2_PLACEMENT_3D ( 'NONE', #71, #575, #296 ) ;
#332 = EDGE_CURVE ( 'NONE', #640, #680, #577, .T. ) ;
#333 = ORIENTED_EDGE ( 'NONE', *, *, #125, .F. ) ;
#334 = DIRECTION ( 'NONE',  ( -0.000000000000000000, 1.000000000000000000, -0.000000000000000000 ) ) ;
#335 = CARTESIAN_POINT ( 'NONE',  ( -2.399999999999999911, -1.999999999999999556, 3.000000000000000000 ) ) ;
#336 = DIRECTION ( 'NONE',  ( 2.168404344971008375E-16, -1.000000000000000000, 0.000000000000000000 ) ) ;
#337 = VECTOR ( 'NONE', #110, 1000.000000000000000 ) ;
#338 = ORIENTED_EDGE ( 'NONE', *, *, #652, .T. ) ;
#339 = ADVANCED_FACE ( 'NONE', ( #221 ), #452, .F. ) ;
#340 = PLANE ( 'NONE',  #678 ) ;
#341 = ORIENTED_EDGE ( 'NONE', *, *, #558, .T. ) ;
#342 = DIRECTION ( 'NONE',  ( -1.807003620809173892E-16, -1.000000000000000000, 0.000000000000000000 ) ) ;
#343 = CARTESIAN_POINT ( 'NONE',  ( 2.399999999999999911, -2.000000000000000444, 3.000000000000000000 ) ) ;
#344 = ORIENTED_EDGE ( 'NONE', *, *, #263, .T. ) ;
#345 = DIRECTION ( 'NONE',  ( -0.000000000000000000, -0.000000000000000000, -1.000000000000000000 ) ) ;
#346 = AXIS2_PLACEMENT_3D ( 'NONE', #32, #374, #584 ) ;
#347 = LOCAL_TIME ( 11, 7, 0.000000000000000000, #435 ) ;
#348 = CARTESIAN_POINT ( 'NONE',  ( 4.000000000000000888, 2.499999999999999556, -3.000000000000000000 ) ) ;
#349 = ORIENTED_EDGE ( 'NONE', *, *, #386, .F. ) ;
#350 = DIRECTION ( 'NONE',  ( -2.168404344971009361E-16, -1.000000000000000000, 0.000000000000000000 ) ) ;
#351 = CARTESIAN_POINT ( 'NONE',  ( -4.500000000000000000, 2.499999999999999556, -3.000000000000000000 ) ) ;
#352 = VECTOR ( 'NONE', #634, 1000.000000000000000 ) ;
#353 = AXIS2_PLACEMENT_3D ( 'NONE', #28, #475, #247 ) ;
#354 = ORIENTED_EDGE ( 'NONE', *, *, #623, .T. ) ;
#355 = DIRECTION ( 'NONE',  ( 0.000000000000000000, 0.000000000000000000, 1.000000000000000000 ) ) ;
#356 = ORIENTED_EDGE ( 'NONE', *, *, #448, .T. ) ;
#357 = EDGE_CURVE ( 'NONE', #596, #683, #131, .T. ) ;
#358 = AXIS2_PLACEMENT_3D ( 'NONE', #552, #437, #721 ) ;
#359 = ORIENTED_EDGE ( 'NONE', *, *, #691, .F. ) ;
#360 = DIRECTION ( 'NONE',  ( 2.168404344971009361E-16, 1.000000000000000000, 0.000000000000000000 ) ) ;
#361 = VERTEX_POINT ( 'NONE', #390 ) ;
#362 = DIRECTION ( 'NONE',  ( 2.168404344971009361E-16, 1.000000000000000000, -0.000000000000000000 ) ) ;
#363 = CARTESIAN_POINT ( 'NONE',  ( -2.399999999999999467, -2.407412430484044816E-32, -2.499999999999999556 ) ) ;
#364 = DIRECTION ( 'NONE',  ( 0.000000000000000000, 0.000000000000000000, 1.000000000000000000 ) ) ;
#365 = VERTEX_POINT ( 'NONE', #320 ) ;
#366 = AXIS2_PLACEMENT_3D ( 'NONE', #74, #245, #140 ) ;
#367 = LINE ( 'NONE', #632, #559 ) ;
#368 = EDGE_CURVE ( 'NONE', #697, #241, #383, .T. ) ;
#369 = DIRECTION ( 'NONE',  ( 1.725597986949470484E-16, 1.000000000000000000, -0.000000000000000000 ) ) ;
#370 = PLANE ( 'NONE',  #604 ) ;
#371 = EDGE_LOOP ( 'NONE', ( #173, #223, #427, #349 ) ) ;
#372 = CIRCLE ( 'NONE', #331, 0.5000000000000004441 ) ;
#373 = DIRECTION ( 'NONE',  ( 1.000000000000000000, 0.000000000000000000, 0.000000000000000000 ) ) ;
#374 = DIRECTION ( 'NONE',  ( -1.725597986949470484E-16, 1.000000000000000000, 0.000000000000000000 ) ) ;
#375 = FACE_OUTER_BOUND ( 'NONE', #419, .T. ) ;
#376 = CC_DESIGN_PERSON_AND_ORGANIZATION_ASSIGNMENT ( #595, #430, ( #410 ) ) ;
#377 = DATE_TIME_ROLE ( 'creation_date' ) ;
#378 = CARTESIAN_POINT ( 'NONE',  ( 4.500000000000000000, 2.499999999999999556, 2.500000000000000000 ) ) ;
#379 = APPROVAL_STATUS ( 'not_yet_approved' ) ;
#380 = DIRECTION ( 'NONE',  ( 0.000000000000000000, 0.000000000000000000, -1.000000000000000000 ) ) ;
#381 = ADVANCED_FACE ( 'NONE', ( #667 ), #444, .T. ) ;
#382 = COORDINATED_UNIVERSAL_TIME_OFFSET ( 1, 0, .AHEAD. ) ;
#383 = LINE ( 'NONE', #98, #462 ) ;
#384 = DIRECTION ( 'NONE',  ( -0.000000000000000000, 1.000000000000000000, -0.000000000000000000 ) ) ;
#385 = CC_DESIGN_APPROVAL ( #617, ( #630 ) ) ;
#386 = EDGE_CURVE ( 'NONE', #680, #169, #327, .T. ) ;
#387 = DIRECTION ( 'NONE',  ( -0.000000000000000000, 1.000000000000000000, -0.000000000000000000 ) ) ;
#388 = AXIS2_PLACEMENT_3D ( 'NONE', #18, #350, #466 ) ;
#389 = ORIENTED_EDGE ( 'NONE', *, *, #723, .T. ) ;
#390 = CARTESIAN_POINT ( 'NONE',  ( 0.000000000000000000, -2.000000000000000888, 1.250000000000000000 ) ) ;
#391 = VECTOR ( 'NONE', #616, 1000.000000000000000 ) ;
#392 = PLANE ( 'NONE',  #503 ) ;
#393 = CARTESIAN_POINT ( 'NONE',  ( 4.500000000000000000, 2.499999999999999556, -2.499999999999999556 ) ) ;
#394 = EDGE_CURVE ( 'NONE', #361, #621, #41, .T. ) ;
#395 = DIRECTION ( 'NONE',  ( -1.000000000000000000, -2.168404344971008375E-16, 0.000000000000000000 ) ) ;
#396 = EDGE_LOOP ( 'NONE', ( #476, #180, #341, #88 ) ) ;
#397 = DIRECTION ( 'NONE',  ( 2.168404344971008375E-16, -1.000000000000000000, -0.000000000000000000 ) ) ;
#398 = VECTOR ( 'NONE', #271, 1000.000000000000000 ) ;
#399 = EDGE_CURVE ( 'NONE', #72, #640, #325, .T. ) ;
#400 = CARTESIAN_POINT ( 'NONE',  ( 1.899999999999999689, -2.000000000000000444, -2.499999999999999556 ) ) ;
#401 = ORIENTED_EDGE ( 'NONE', *, *, #497, .T. ) ;
#402 = DIRECTION ( 'NONE',  ( -1.725597986949470484E-16, 1.000000000000000000, 0.000000000000000000 ) ) ;
#403 = DIRECTION ( 'NONE',  ( -1.000000000000000000, 1.807003620809173892E-16, 0.000000000000000000 ) ) ;
#404 = VERTEX_POINT ( 'NONE', #207 ) ;
#405 = CYLINDRICAL_SURFACE ( 'NONE', #668, 0.5000000000000000000 ) ;
#406 = FACE_OUTER_BOUND ( 'NONE', #442, .T. ) ;
#407 = VERTEX_POINT ( 'NONE', #547 ) ;
#408 = LINE ( 'NONE', #561, #352 ) ;
#409 = ADVANCED_FACE ( 'NONE', ( #214 ), #665, .F. ) ;
#410 = PRODUCT_DEFINITION_FORMATION_WITH_SPECIFIED_SOURCE ( 'ANY', '', #716, .NOT_KNOWN. ) ;
#411 = DIRECTION ( 'NONE',  ( -1.807003620809173892E-16, -1.000000000000000000, 0.000000000000000000 ) ) ;
#412 = VERTEX_POINT ( 'NONE', #267 ) ;
#413 = DIRECTION ( 'NONE',  ( 1.000000000000000000, -1.807003620809174139E-16, 0.000000000000000000 ) ) ;
#414 = ORIENTED_EDGE ( 'NONE', *, *, #582, .F. ) ;
#415 = APPROVAL ( #255, 'UNSPECIFIED' ) ;
#416 = CARTESIAN_POINT ( 'NONE',  ( 0.000000000000000000, 0.000000000000000000, 0.000000000000000000 ) ) ;
#417 = ORIENTED_EDGE ( 'NONE', *, *, #701, .F. ) ;
#418 = CARTESIAN_POINT ( 'NONE',  ( -2.399999999999999911, -1.999999999999999556, -3.000000000000000000 ) ) ;
#419 = EDGE_LOOP ( 'NONE', ( #333, #132, #401, #312 ) ) ;
#420 = EDGE_CURVE ( 'NONE', #621, #407, #232, .T. ) ;
#421 = VECTOR ( 'NONE', #413, 1000.000000000000000 ) ;
#422 = DIRECTION ( 'NONE',  ( 1.000000000000000000, -1.725597986949470484E-16, -0.000000000000000000 ) ) ;
#423 = LINE ( 'NONE', #418, #421 ) ;
#424 = VERTEX_POINT ( 'NONE', #212 ) ;
#425 =( GEOMETRIC_REPRESENTATION_CONTEXT ( 3 ) GLOBAL_UNCERTAINTY_ASSIGNED_CONTEXT ( ( #135 ) ) GLOBAL_UNIT_ASSIGNED_CONTEXT ( ( #309, #31, #191 ) ) REPRESENTATION_CONTEXT ( 'NONE', 'WORKASPACE' ) );
#426 = EDGE_CURVE ( 'NONE', #574, #588, #264, .T. ) ;
#427 = ORIENTED_EDGE ( 'NONE', *, *, #467, .F. ) ;
#428 = DIRECTION ( 'NONE',  ( -1.000000000000000000, 2.168404344971009361E-16, 0.000000000000000000 ) ) ;
#429 = AXIS2_PLACEMENT_3D ( 'NONE', #209, #265, #158 ) ;
#430 = PERSON_AND_ORGANIZATION_ROLE ( 'design_supplier' ) ;
#431 = ORIENTED_EDGE ( 'NONE', *, *, #691, .T. ) ;
#432 = APPROVAL_STATUS ( 'not_yet_approved' ) ;
#433 = DIRECTION ( 'NONE',  ( 0.000000000000000000, 1.000000000000000000, 0.000000000000000000 ) ) ;
#434 = ADVANCED_FACE ( 'NONE', ( #440, #549 ), #603, .F. ) ;
#435 = COORDINATED_UNIVERSAL_TIME_OFFSET ( 1, 0, .AHEAD. ) ;
#436 = VECTOR ( 'NONE', #136, 1000.000000000000000 ) ;
#437 = DIRECTION ( 'NONE',  ( 0.000000000000000000, -1.000000000000000000, 0.000000000000000000 ) ) ;
#438 = CARTESIAN_POINT ( 'NONE',  ( 4.000000000000000000, -2.760956779119154353E-16, -2.499999999999999556 ) ) ;
#439 = EDGE_CURVE ( 'NONE', #412, #302, #612, .T. ) ;
#440 = FACE_BOUND ( 'NONE', #291, .T. ) ;
#441 = AXIS2_PLACEMENT_3D ( 'NONE', #580, #695, #307 ) ;
#442 = EDGE_LOOP ( 'NONE', ( #625, #219, #17, #93, #677, #483, #25, #456 ) ) ;
#443 = EDGE_CURVE ( 'NONE', #120, #556, #554, .T. ) ;
#444 = CYLINDRICAL_SURFACE ( 'NONE', #358, 0.5000000000000000000 ) ;
#445 = AXIS2_PLACEMENT_3D ( 'NONE', #181, #336, #457 ) ;
#446 = LINE ( 'NONE', #560, #47 ) ;
#447 = AXIS2_PLACEMENT_3D ( 'NONE', #275, #622, #507 ) ;
#448 = EDGE_CURVE ( 'NONE', #169, #556, #545, .T. ) ;
#449 = ORIENTED_EDGE ( 'NONE', *, *, #582, .T. ) ;
#450 = DIRECTION ( 'NONE',  ( 1.000000000000000000, -1.807003620809174139E-16, 0.000000000000000000 ) ) ;
#451 = ORIENTED_EDGE ( 'NONE', *, *, #443, .F. ) ;
#452 = PLANE ( 'NONE',  #42 ) ;
#453 = PRODUCT_DEFINITION ( 'UNKNOWN', '', #410, #303 ) ;
#454 = ORIENTED_EDGE ( 'NONE', *, *, #30, .T. ) ;
#455 = FACE_OUTER_BOUND ( 'NONE', #185, .T. ) ;
#456 = ORIENTED_EDGE ( 'NONE', *, *, #243, .T. ) ;
#457 = DIRECTION ( 'NONE',  ( 1.000000000000000000, 2.168404344971008375E-16, 0.000000000000000000 ) ) ;
#458 = ORGANIZATION ( 'UNSPECIFIED', 'UNSPECIFIED', '' ) ;
#459 = CARTESIAN_POINT ( 'NONE',  ( -1.899999999999999245, 4.119968255444916356E-16, 3.000000000000000000 ) ) ;
#460 = ORIENTED_EDGE ( 'NONE', *, *, #723, .F. ) ;
#461 = LINE ( 'NONE', #226, #329 ) ;
#462 = VECTOR ( 'NONE', #48, 1000.000000000000000 ) ;
#463 = ADVANCED_FACE ( 'NONE', ( #261 ), #108, .T. ) ;
#464 = DIRECTION ( 'NONE',  ( 2.168404344971008375E-16, -1.000000000000000000, 0.000000000000000000 ) ) ;
#465 = ORIENTED_EDGE ( 'NONE', *, *, #332, .T. ) ;
#466 = DIRECTION ( 'NONE',  ( 1.000000000000000000, -2.168404344971009854E-16, 0.000000000000000000 ) ) ;
#467 = EDGE_CURVE ( 'NONE', #169, #72, #619, .T. ) ;
#468 = CARTESIAN_POINT ( 'NONE',  ( -1.899999999999999689, -1.999999999999999556, -2.499999999999999556 ) ) ;
#469 = ORIENTED_EDGE ( 'NONE', *, *, #321, .F. ) ;
#470 = CARTESIAN_POINT ( 'NONE',  ( 4.000000000000000888, 2.499999999999999556, 3.000000000000000000 ) ) ;
#471 = VERTEX_POINT ( 'NONE', #555 ) ;
#472 = LOCAL_TIME ( 11, 7, 0.000000000000000000, #382 ) ;
#473 = CARTESIAN_POINT ( 'NONE',  ( -2.399999999999999467, -2.407412430484044816E-32, 2.500000000000000000 ) ) ;
#474 = ORIENTED_EDGE ( 'NONE', *, *, #49, .F. ) ;
#475 = DIRECTION ( 'NONE',  ( -0.000000000000000000, 1.000000000000000000, -0.000000000000000000 ) ) ;
#476 = ORIENTED_EDGE ( 'NONE', *, *, #313, .F. ) ;
#477 = EDGE_CURVE ( 'NONE', #703, #361, #635, .T. ) ;
#478 = VERTEX_POINT ( 'NONE', #348 ) ;
#479 = FACE_OUTER_BOUND ( 'NONE', #230, .T. ) ;
#480 = ORIENTED_EDGE ( 'NONE', *, *, #439, .T. ) ;
#481 = AXIS2_PLACEMENT_3D ( 'NONE', #86, #360, #428 ) ;
#482 = LINE ( 'NONE', #578, #436 ) ;
#483 = ORIENTED_EDGE ( 'NONE', *, *, #49, .T. ) ;
#484 = CYLINDRICAL_SURFACE ( 'NONE', #353, 1.250000000000000000 ) ;
#485 = ORIENTED_EDGE ( 'NONE', *, *, #594, .T. ) ;
#486 = ORIENTED_EDGE ( 'NONE', *, *, #443, .T. ) ;
#487 = CIRCLE ( 'NONE', #39, 1.250000000000000000 ) ;
#488 = VECTOR ( 'NONE', #671, 1000.000000000000000 ) ;
#489 = APPROVAL_ROLE ( '' ) ;
#490 = EDGE_CURVE ( 'NONE', #688, #22, #304, .T. ) ;
#491 = DIRECTION ( 'NONE',  ( 0.000000000000000000, 1.000000000000000000, 0.000000000000000000 ) ) ;
#492 = PERSON_AND_ORGANIZATION_ROLE ( 'classification_officer' ) ;
#493 = PRODUCT_RELATED_PRODUCT_CATEGORY ( 'detail', '', ( #716 ) ) ;
#494 = DIRECTION ( 'NONE',  ( 0.000000000000000000, -0.000000000000000000, -1.000000000000000000 ) ) ;
#495 = CIRCLE ( 'NONE', #598, 0.5000000000000004441 ) ;
#496 = DIRECTION ( 'NONE',  ( -1.000000000000000000, 1.725597986949470977E-16, 0.000000000000000000 ) ) ;
#497 = EDGE_CURVE ( 'NONE', #640, #302, #224, .T. ) ;
#498 = SHAPE_DEFINITION_REPRESENTATION ( #107, #631 ) ;
#499 = ORIENTED_EDGE ( 'NONE', *, *, #663, .F. ) ;
#500 = CARTESIAN_POINT ( 'NONE',  ( 0.000000000000000000, 2.499999999999999556, 0.000000000000000000 ) ) ;
#501 = EDGE_CURVE ( 'NONE', #241, #177, #168, .T. ) ;
#502 = DIRECTION ( 'NONE',  ( 0.000000000000000000, 0.000000000000000000, -1.000000000000000000 ) ) ;
#503 = AXIS2_PLACEMENT_3D ( 'NONE', #284, #233, #513 ) ;
#504 = CARTESIAN_POINT ( 'NONE',  ( -2.399999999999999911, -1.999999999999999556, -2.499999999999999556 ) ) ;
#505 = EDGE_CURVE ( 'NONE', #70, #120, #274, .T. ) ;
#506 = DIRECTION ( 'NONE',  ( -1.000000000000000000, -1.725597986949469498E-16, 0.000000000000000000 ) ) ;
#507 = DIRECTION ( 'NONE',  ( -1.000000000000000000, 1.725597986949470977E-16, 0.000000000000000000 ) ) ;
#508 = VERTEX_POINT ( 'NONE', #682 ) ;
#509 = FACE_BOUND ( 'NONE', #126, .T. ) ;
#510 = ORIENTED_EDGE ( 'NONE', *, *, #258, .T. ) ;
#511 = LINE ( 'NONE', #3, #12 ) ;
#512 = CLOSED_SHELL ( 'NONE', ( #254, #129, #434, #339, #672, #409, #534, #543, #73, #601, #463, #150, #381, #270, #157, #79, #217, #273, #166, #102 ) ) ;
#513 = DIRECTION ( 'NONE',  ( -1.000000000000000000, 0.000000000000000000, -0.000000000000000000 ) ) ;
#514 = ORIENTED_EDGE ( 'NONE', *, *, #548, .T. ) ;
#515 = FACE_OUTER_BOUND ( 'NONE', #75, .T. ) ;
#516 = VECTOR ( 'NONE', #685, 1000.000000000000000 ) ;
#517 = EDGE_CURVE ( 'NONE', #683, #365, #116, .T. ) ;
#518 = AXIS2_PLACEMENT_3D ( 'NONE', #7, #342, #681 ) ;
#519 = DIRECTION ( 'NONE',  ( 1.807003620809173892E-16, 1.000000000000000000, -0.000000000000000000 ) ) ;
#520 = ORIENTED_EDGE ( 'NONE', *, *, #720, .T. ) ;
#521 = CYLINDRICAL_SURFACE ( 'NONE', #130, 1.250000000000000000 ) ;
#522 = AXIS2_PLACEMENT_3D ( 'NONE', #500, #433, #269 ) ;
#523 = DIRECTION ( 'NONE',  ( 0.000000000000000000, 0.000000000000000000, 1.000000000000000000 ) ) ;
#524 = VERTEX_POINT ( 'NONE', #504 ) ;
#525 = LINE ( 'NONE', #238, #488 ) ;
#526 = ORIENTED_EDGE ( 'NONE', *, *, #125, .T. ) ;
#527 = DIRECTION ( 'NONE',  ( -1.000000000000000000, -1.725597986949470484E-16, 0.000000000000000000 ) ) ;
#528 = ORIENTED_EDGE ( 'NONE', *, *, #420, .T. ) ;
#529 = DIRECTION ( 'NONE',  ( -1.000000000000000000, 0.000000000000000000, 0.000000000000000000 ) ) ;
#530 = ORIENTED_EDGE ( 'NONE', *, *, #287, .F. ) ;
#531 = DIRECTION ( 'NONE',  ( -0.000000000000000000, -0.000000000000000000, -1.000000000000000000 ) ) ;
#532 = LINE ( 'NONE', #542, #35 ) ;
#533 = CYLINDRICAL_SURFACE ( 'NONE', #700, 0.5000000000000000000 ) ;
#534 = ADVANCED_FACE ( 'NONE', ( #509, #674 ), #340, .F. ) ;
#535 = ORIENTED_EDGE ( 'NONE', *, *, #448, .F. ) ;
#536 = LINE ( 'NONE', #473, #8 ) ;
#537 = ORIENTED_EDGE ( 'NONE', *, *, #614, .F. ) ;
#538 = FACE_OUTER_BOUND ( 'NONE', #310, .T. ) ;
#539 = EDGE_LOOP ( 'NONE', ( #213, #359, #590, #618 ) ) ;
#540 = VECTOR ( 'NONE', #694, 1000.000000000000000 ) ;
#541 = APPLICATION_PROTOCOL_DEFINITION ( 'international standard', 'config_control_design', 1994, #276 ) ;
#542 = CARTESIAN_POINT ( 'NONE',  ( 2.399999999999999467, -4.814824860968089633E-32, -2.499999999999999556 ) ) ;
#543 = ADVANCED_FACE ( 'NONE', ( #455 ), #278, .F. ) ;
#544 = DATE_AND_TIME ( #661, #54 ) ;
#545 = LINE ( 'NONE', #46, #147 ) ;
#546 = CALENDAR_DATE ( 2025, 3, 6 ) ;
#547 = CARTESIAN_POINT ( 'NONE',  ( 1.530808498934191571E-16, 2.499999999999999556, -1.250000000000000000 ) ) ;
#548 = EDGE_CURVE ( 'NONE', #648, #596, #2, .T. ) ;
#549 = FACE_OUTER_BOUND ( 'NONE', #277, .T. ) ;
#550 = ORIENTED_EDGE ( 'NONE', *, *, #281, .T. ) ;
#551 = AXIS2_PLACEMENT_3D ( 'NONE', #714, #384, #712 ) ;
#552 = CARTESIAN_POINT ( 'NONE',  ( -4.000000000000000000, 0.000000000000000000, 2.500000000000000000 ) ) ;
#553 = EDGE_CURVE ( 'NONE', #697, #70, #495, .T. ) ;
#554 = CIRCLE ( 'NONE', #13, 0.5000000000000000000 ) ;
#555 = CARTESIAN_POINT ( 'NONE',  ( 1.899999999999999245, 8.627989934747354887E-17, -3.000000000000000000 ) ) ;
#556 = VERTEX_POINT ( 'NONE', #122 ) ;
#557 = DIRECTION ( 'NONE',  ( 1.725597986949470484E-16, -1.000000000000000000, -0.000000000000000000 ) ) ;
#558 = EDGE_CURVE ( 'NONE', #120, #683, #220, .T. ) ;
#559 = VECTOR ( 'NONE', #69, 1000.000000000000000 ) ;
#560 = CARTESIAN_POINT ( 'NONE',  ( -2.399999999999999911, -1.999999999999999556, 3.000000000000000000 ) ) ;
#561 = CARTESIAN_POINT ( 'NONE',  ( 4.000000000000000000, -3.623755772593888362E-16, -3.000000000000000000 ) ) ;
#562 = DIRECTION ( 'NONE',  ( 0.000000000000000000, 0.000000000000000000, 1.000000000000000000 ) ) ;
#563 = ORIENTED_EDGE ( 'NONE', *, *, #623, .F. ) ;
#564 = CARTESIAN_POINT ( 'NONE',  ( -1.899999999999999245, 8.627989934747354887E-17, 3.000000000000000000 ) ) ;
#565 = DIRECTION ( 'NONE',  ( -0.000000000000000000, -0.000000000000000000, -1.000000000000000000 ) ) ;
#566 = ORIENTED_EDGE ( 'NONE', *, *, #652, .F. ) ;
#567 = CYLINDRICAL_SURFACE ( 'NONE', #445, 0.5000000000000000000 ) ;
#568 = VECTOR ( 'NONE', #137, 1000.000000000000000 ) ;
#569 = LOCAL_TIME ( 11, 7, 0.000000000000000000, #259 ) ;
#570 = DIRECTION ( 'NONE',  ( -0.000000000000000000, -0.000000000000000000, -1.000000000000000000 ) ) ;
#571 = ORIENTED_EDGE ( 'NONE', *, *, #663, .T. ) ;
#572 = DIRECTION ( 'NONE',  ( 0.000000000000000000, 0.000000000000000000, 1.000000000000000000 ) ) ;
#573 = CARTESIAN_POINT ( 'NONE',  ( -1.899999999999999689, -1.999999999999999556, 2.500000000000000000 ) ) ;
#574 = VERTEX_POINT ( 'NONE', #679 ) ;
#575 = DIRECTION ( 'NONE',  ( 1.725597986949470484E-16, -1.000000000000000000, -0.000000000000000000 ) ) ;
#576 = ORIENTED_EDGE ( 'NONE', *, *, #186, .F. ) ;
#577 = CIRCLE ( 'NONE', #447, 0.5000000000000000000 ) ;
#578 = CARTESIAN_POINT ( 'NONE',  ( 2.399999999999999467, -4.814824860968089633E-32, 3.000000000000000000 ) ) ;
#579 = ORIENTED_EDGE ( 'NONE', *, *, #720, .F. ) ;
#580 = CARTESIAN_POINT ( 'NONE',  ( 1.899999999999999245, 8.627989934747354887E-17, 2.500000000000000000 ) ) ;
#581 = ORIENTED_EDGE ( 'NONE', *, *, #357, .F. ) ;
#582 = EDGE_CURVE ( 'NONE', #177, #718, #446, .T. ) ;
#583 = DIRECTION ( 'NONE',  ( -1.000000000000000000, 0.000000000000000000, 0.000000000000000000 ) ) ;
#584 = DIRECTION ( 'NONE',  ( -1.000000000000000000, -1.725597986949470731E-16, 0.000000000000000000 ) ) ;
#585 = FACE_OUTER_BOUND ( 'NONE', #699, .T. ) ;
#586 = VERTEX_POINT ( 'NONE', #172 ) ;
#587 = CARTESIAN_POINT ( 'NONE',  ( -4.000000000000000000, -2.760956779119154353E-16, 3.000000000000000000 ) ) ;
#588 = VERTEX_POINT ( 'NONE', #1 ) ;
#589 = CYLINDRICAL_SURFACE ( 'NONE', #67, 0.5000000000000000000 ) ;
#590 = ORIENTED_EDGE ( 'NONE', *, *, #641, .F. ) ;
#591 = PERSON_AND_ORGANIZATION ( #200, #458 ) ;
#592 = CARTESIAN_POINT ( 'NONE',  ( -4.500000000000000000, -3.623755772593888362E-16, -3.000000000000000000 ) ) ;
#593 = CARTESIAN_POINT ( 'NONE',  ( 4.000000000000000000, 2.499999999999999556, -2.499999999999999556 ) ) ;
#594 = EDGE_CURVE ( 'NONE', #424, #22, #627, .T. ) ;
#595 = PERSON_AND_ORGANIZATION ( #200, #458 ) ;
#596 = VERTEX_POINT ( 'NONE', #14 ) ;
#597 = CC_DESIGN_PERSON_AND_ORGANIZATION_ASSIGNMENT ( #591, #314, ( #716 ) ) ;
#598 = AXIS2_PLACEMENT_3D ( 'NONE', #119, #557, #506 ) ;
#599 = PERSON_AND_ORGANIZATION_ROLE ( 'creator' ) ;
#600 = CARTESIAN_POINT ( 'NONE',  ( 4.500000000000000000, -3.623755772593888362E-16, 2.500000000000000000 ) ) ;
#601 = ADVANCED_FACE ( 'NONE', ( #61 ), #392, .F. ) ;
#602 = APPROVAL_DATE_TIME ( #544, #415 ) ;
#603 = PLANE ( 'NONE',  #655 ) ;
#604 = AXIS2_PLACEMENT_3D ( 'NONE', #76, #529, #364 ) ;
#605 = DIRECTION ( 'NONE',  ( -0.000000000000000000, 1.000000000000000000, -0.000000000000000000 ) ) ;
#606 = ORIENTED_EDGE ( 'NONE', *, *, #281, .F. ) ;
#607 = CIRCLE ( 'NONE', #366, 1.250000000000000000 ) ;
#608 = DIRECTION ( 'NONE',  ( 0.000000000000000000, 0.000000000000000000, -1.000000000000000000 ) ) ;
#609 = VECTOR ( 'NONE', #174, 1000.000000000000000 ) ;
#610 = APPROVAL_DATE_TIME ( #216, #617 ) ;
#611 = ORIENTED_EDGE ( 'NONE', *, *, #490, .F. ) ;
#612 = CIRCLE ( 'NONE', #669, 0.5000000000000000000 ) ;
#613 = CARTESIAN_POINT ( 'NONE',  ( 1.899999999999999689, -2.000000000000000444, -3.000000000000000000 ) ) ;
#614 = EDGE_CURVE ( 'NONE', #508, #471, #228, .T. ) ;
#615 = CARTESIAN_POINT ( 'NONE',  ( 4.500000000000000000, -3.623755772593888362E-16, 2.500000000000000000 ) ) ;
#616 = DIRECTION ( 'NONE',  ( 0.000000000000000000, 1.000000000000000000, 0.000000000000000000 ) ) ;
#617 = APPROVAL ( #432, 'UNSPECIFIED' ) ;
#618 = ORIENTED_EDGE ( 'NONE', *, *, #501, .F. ) ;
#619 = CIRCLE ( 'NONE', #551, 0.5000000000000000000 ) ;
#620 = DIRECTION ( 'NONE',  ( 0.000000000000000000, 1.000000000000000000, 0.000000000000000000 ) ) ;
#621 = VERTEX_POINT ( 'NONE', #179 ) ;
#622 = DIRECTION ( 'NONE',  ( -1.725597986949470484E-16, -1.000000000000000000, 0.000000000000000000 ) ) ;
#623 = EDGE_CURVE ( 'NONE', #471, #688, #53, .T. ) ;
#624 = CARTESIAN_POINT ( 'NONE',  ( -4.000000000000000000, 2.499999999999999556, -3.000000000000000000 ) ) ;
#625 = ORIENTED_EDGE ( 'NONE', *, *, #368, .F. ) ;
#626 = DIRECTION ( 'NONE',  ( -0.000000000000000000, 1.000000000000000000, -0.000000000000000000 ) ) ;
#627 = LINE ( 'NONE', #343, #171 ) ;
#628 = ORIENTED_EDGE ( 'NONE', *, *, #206, .F. ) ;
#629 = LINE ( 'NONE', #11, #609 ) ;
#630 = SECURITY_CLASSIFICATION ( '', '', #201 ) ;
#631 = ADVANCED_BREP_SHAPE_REPRESENTATION ( 'piece_up_serrage_patte_rail_mobile', ( #249, #198 ), #425 ) ;
#632 = CARTESIAN_POINT ( 'NONE',  ( 1.530808498934191571E-16, -2.000000000000000888, -1.250000000000000000 ) ) ;
#633 = ORIENTED_EDGE ( 'NONE', *, *, #594, .F. ) ;
#634 = DIRECTION ( 'NONE',  ( 0.000000000000000000, -1.000000000000000000, -0.000000000000000000 ) ) ;
#635 = CIRCLE ( 'NONE', #104, 1.250000000000000000 ) ;
#636 = AXIS2_PLACEMENT_3D ( 'NONE', #698, #23, #193 ) ;
#637 = CARTESIAN_POINT ( 'NONE',  ( -4.000000000000000000, -2.760956779119154353E-16, -3.000000000000000000 ) ) ;
#638 = ORIENTED_EDGE ( 'NONE', *, *, #420, .F. ) ;
#639 = CYLINDRICAL_SURFACE ( 'NONE', #481, 0.5000000000000000000 ) ;
#640 = VERTEX_POINT ( 'NONE', #615 ) ;
#641 = EDGE_CURVE ( 'NONE', #177, #190, #328, .T. ) ;
#642 = APPLICATION_PROTOCOL_DEFINITION ( 'international standard', 'config_control_design', 1994, #99 ) ;
#643 = CARTESIAN_POINT ( 'NONE',  ( 4.500000000000000000, -3.623755772593888362E-16, -3.000000000000000000 ) ) ;
#644 = CARTESIAN_POINT ( 'NONE',  ( 4.500000000000000000, 2.499999999999999556, -2.499999999999999556 ) ) ;
#645 = ORIENTED_EDGE ( 'NONE', *, *, #426, .F. ) ;
#646 = EDGE_LOOP ( 'NONE', ( #417, #431, #344, #510 ) ) ;
#647 = CYLINDRICAL_SURFACE ( 'NONE', #636, 0.5000000000000000000 ) ;
#648 = VERTEX_POINT ( 'NONE', #637 ) ;
#649 = VECTOR ( 'NONE', #334, 1000.000000000000000 ) ;
#650 = AXIS2_PLACEMENT_3D ( 'NONE', #593, #689, #112 ) ;
#651 = CARTESIAN_POINT ( 'NONE',  ( -4.500000000000000000, 2.499999999999999556, -2.499999999999999556 ) ) ;
#652 = EDGE_CURVE ( 'NONE', #234, #508, #482, .T. ) ;
#653 = LINE ( 'NONE', #643, #568 ) ;
#654 = CARTESIAN_POINT ( 'NONE',  ( -1.899999999999999689, -1.999999999999999556, 3.000000000000000000 ) ) ;
#655 = AXIS2_PLACEMENT_3D ( 'NONE', #330, #664, #494 ) ;
#656 = APPROVAL_ROLE ( '' ) ;
#657 = ORIENTED_EDGE ( 'NONE', *, *, #298, .F. ) ;
#658 = APPROVAL_DATE_TIME ( #322, #159 ) ;
#659 = DIRECTION ( 'NONE',  ( -0.000000000000000000, 1.000000000000000000, -0.000000000000000000 ) ) ;
#660 = VECTOR ( 'NONE', #78, 1000.000000000000000 ) ;
#661 = CALENDAR_DATE ( 2025, 3, 6 ) ;
#662 = DIRECTION ( 'NONE',  ( 2.168404344971009361E-16, 1.000000000000000000, 0.000000000000000000 ) ) ;
#663 = EDGE_CURVE ( 'NONE', #478, #596, #236, .T. ) ;
#664 = DIRECTION ( 'NONE',  ( 0.000000000000000000, -1.000000000000000000, 0.000000000000000000 ) ) ;
#665 = PLANE ( 'NONE',  #260 ) ;
#666 = EDGE_CURVE ( 'NONE', #407, #621, #607, .T. ) ;
#667 = FACE_OUTER_BOUND ( 'NONE', #692, .T. ) ;
#668 = AXIS2_PLACEMENT_3D ( 'NONE', #280, #124, #572 ) ;
#669 = AXIS2_PLACEMENT_3D ( 'NONE', #438, #101, #496 ) ;
#670 = DIRECTION ( 'NONE',  ( -0.000000000000000000, -0.000000000000000000, -1.000000000000000000 ) ) ;
#671 = DIRECTION ( 'NONE',  ( -0.000000000000000000, -0.000000000000000000, -1.000000000000000000 ) ) ;
#672 = ADVANCED_FACE ( 'NONE', ( #406 ), #89, .F. ) ;
#673 = ORIENTED_EDGE ( 'NONE', *, *, #186, .T. ) ;
#674 = FACE_OUTER_BOUND ( 'NONE', #144, .T. ) ;
#675 = ORIENTED_EDGE ( 'NONE', *, *, #30, .F. ) ;
#676 = CARTESIAN_POINT ( 'NONE',  ( -4.500000000000000000, -3.623755772593888362E-16, 3.000000000000000000 ) ) ;
#677 = ORIENTED_EDGE ( 'NONE', *, *, #4, .T. ) ;
#678 = AXIS2_PLACEMENT_3D ( 'NONE', #335, #519, #403 ) ;
#679 = CARTESIAN_POINT ( 'NONE',  ( -1.899999999999999689, -1.999999999999999556, -3.000000000000000000 ) ) ;
#680 = VERTEX_POINT ( 'NONE', #294 ) ;
#681 = DIRECTION ( 'NONE',  ( -1.000000000000000000, 0.000000000000000000, 0.000000000000000000 ) ) ;
#682 = CARTESIAN_POINT ( 'NONE',  ( 2.399999999999999467, -4.814824860968089633E-32, -2.499999999999999556 ) ) ;
#683 = VERTEX_POINT ( 'NONE', #651 ) ;
#684 = CARTESIAN_POINT ( 'NONE',  ( 0.000000000000000000, -2.000000000000000888, 0.000000000000000000 ) ) ;
#685 = DIRECTION ( 'NONE',  ( -0.000000000000000000, 1.000000000000000000, -0.000000000000000000 ) ) ;
#686 = ORIENTED_EDGE ( 'NONE', *, *, #368, .T. ) ;
#687 = CARTESIAN_POINT ( 'NONE',  ( 2.399999999999999467, -4.814824860968089633E-32, 2.500000000000000000 ) ) ;
#688 = VERTEX_POINT ( 'NONE', #702 ) ;
#689 = DIRECTION ( 'NONE',  ( -0.000000000000000000, 1.000000000000000000, -0.000000000000000000 ) ) ;
#690 = AXIS2_PLACEMENT_3D ( 'NONE', #64, #395, #464 ) ;
#691 = EDGE_CURVE ( 'NONE', #190, #404, #536, .T. ) ;
#692 = EDGE_LOOP ( 'NONE', ( #451, #225, #139, #628 ) ) ;
#693 = DIRECTION ( 'NONE',  ( -1.807003620809173892E-16, -1.000000000000000000, 0.000000000000000000 ) ) ;
#694 = DIRECTION ( 'NONE',  ( 1.000000000000000000, 1.725597986949470484E-16, 0.000000000000000000 ) ) ;
#695 = DIRECTION ( 'NONE',  ( 1.725597986949470484E-16, 1.000000000000000000, -0.000000000000000000 ) ) ;
#696 = ORIENTED_EDGE ( 'NONE', *, *, #490, .T. ) ;
#697 = VERTEX_POINT ( 'NONE', #587 ) ;
#698 = CARTESIAN_POINT ( 'NONE',  ( 1.899999999999999245, 4.119968255444914877E-16, 2.500000000000000000 ) ) ;
#699 = EDGE_LOOP ( 'NONE', ( #579, #10, #134, #528 ) ) ;
#700 = AXIS2_PLACEMENT_3D ( 'NONE', #311, #81, #184 ) ;
#701 = EDGE_CURVE ( 'NONE', #190, #524, #305, .T. ) ;
#702 = CARTESIAN_POINT ( 'NONE',  ( 1.900000000000000133, -2.000000000000000444, -3.000000000000000000 ) ) ;
#703 = VERTEX_POINT ( 'NONE', #84 ) ;
#704 = DIRECTION ( 'NONE',  ( 0.000000000000000000, 1.000000000000000000, 0.000000000000000000 ) ) ;
#705 = ORIENTED_EDGE ( 'NONE', *, *, #287, .T. ) ;
#706 = CIRCLE ( 'NONE', #143, 0.5000000000000000000 ) ;
#707 = VECTOR ( 'NONE', #397, 1000.000000000000000 ) ;
#708 = CARTESIAN_POINT ( 'NONE',  ( -2.399999999999999911, -1.999999999999999556, 3.000000000000000000 ) ) ;
#709 = ORIENTED_EDGE ( 'NONE', *, *, #202, .T. ) ;
#710 = VECTOR ( 'NONE', #659, 1000.000000000000000 ) ;
#711 = PERSON_AND_ORGANIZATION_ROLE ( 'creator' ) ;
#712 = DIRECTION ( 'NONE',  ( 0.000000000000000000, 0.000000000000000000, -1.000000000000000000 ) ) ;
#713 = COORDINATED_UNIVERSAL_TIME_OFFSET ( 1, 0, .AHEAD. ) ;
#714 = CARTESIAN_POINT ( 'NONE',  ( 4.000000000000000000, 2.499999999999999556, 2.500000000000000000 ) ) ;
#715 = VECTOR ( 'NONE', #570, 1000.000000000000000 ) ;
#716 = PRODUCT ( 'piece_up_serrage_patte_rail_mobile', 'piece_up_serrage_patte_rail_mobile', '', ( #182 ) ) ;
#717 = CARTESIAN_POINT ( 'NONE',  ( -4.000000000000000000, 2.499999999999999556, -2.499999999999999556 ) ) ;
#718 = VERTEX_POINT ( 'NONE', #187 ) ;
#719 = CARTESIAN_POINT ( 'NONE',  ( 0.000000000000000000, -2.000000000000000888, 1.250000000000000000 ) ) ;
#720 = EDGE_CURVE ( 'NONE', #703, #407, #367, .T. ) ;
#721 = DIRECTION ( 'NONE',  ( 0.000000000000000000, 0.000000000000000000, -1.000000000000000000 ) ) ;
#722 = LOCAL_TIME ( 11, 7, 0.000000000000000000, #208 ) ;
#723 = EDGE_CURVE ( 'NONE', #524, #574, #706, .T. ) ;
ENDSEC;
END-ISO-10303-21;
