ISO-10303-21;
HEADER;
FILE_DESCRIPTION (( 'STEP AP203' ),
    '1' );
FILE_NAME ('piece_serrage_rails_mobiles.STEP',
    '2025-06-03T09:08:53',
    ( '' ),
    ( '' ),
    'SwSTEP 2.0',
    'SolidWorks 2023',
    '' );
FILE_SCHEMA (( 'CONFIG_CONTROL_DESIGN' ));
ENDSEC;

DATA;
#1 = DIRECTION ( 'NONE',  ( -1.000000000000000000, -1.772003075187617934E-16, 0.000000000000000000 ) ) ;
#2 = EDGE_LOOP ( 'NONE', ( #267, #50, #615, #109 ) ) ;
#3 = VECTOR ( 'NONE', #537, 1000.000000000000000 ) ;
#4 = EDGE_LOOP ( 'NONE', ( #675, #600, #406, #101 ) ) ;
#5 = VECTOR ( 'NONE', #201, 1000.000000000000000 ) ;
#6 = DIRECTION ( 'NONE',  ( -0.000000000000000000, 1.000000000000000000, -0.000000000000000000 ) ) ;
#7 = ORIENTED_EDGE ( 'NONE', *, *, #315, .F. ) ;
#8 = EDGE_CURVE ( 'NONE', #289, #382, #649, .T. ) ;
#9 = DIRECTION ( 'NONE',  ( 1.239088197126290570E-16, 1.000000000000000000, 0.000000000000000000 ) ) ;
#10 = AXIS2_PLACEMENT_3D ( 'NONE', #256, #28, #100 ) ;
#11 = EDGE_LOOP ( 'NONE', ( #625, #707, #555, #162, #437, #449, #654, #427 ) ) ;
#12 = APPROVAL ( #586, 'UNSPECIFIED' ) ;
#13 = CARTESIAN_POINT ( 'NONE',  ( 1.899999999999999245, 8.860015375938108157E-17, -2.499999999999999556 ) ) ;
#14 = DIRECTION ( 'NONE',  ( -1.000000000000000000, 1.772003075187620399E-16, 0.000000000000000000 ) ) ;
#15 = ADVANCED_FACE ( 'NONE', ( #313 ), #473, .T. ) ;
#16 = CARTESIAN_POINT ( 'NONE',  ( 5.500000000000000000, 0.000000000000000000, 2.500000000000000000 ) ) ;
#17 = CARTESIAN_POINT ( 'NONE',  ( 1.899999999999999689, -3.500000000000000000, -2.499999999999999556 ) ) ;
#18 = ADVANCED_BREP_SHAPE_REPRESENTATION ( 'piece_serrage_rails_mobiles', ( #49, #76 ), #388 ) ;
#19 = CYLINDRICAL_SURFACE ( 'NONE', #39, 0.5000000000000000000 ) ;
#20 = DIRECTION ( 'NONE',  ( 1.239088197126290570E-16, 1.000000000000000000, -0.000000000000000000 ) ) ;
#21 = DIRECTION ( 'NONE',  ( 1.000000000000000000, -1.239088197126290817E-16, 0.000000000000000000 ) ) ;
#22 = ADVANCED_FACE ( 'NONE', ( #584 ), #528, .T. ) ;
#23 = CARTESIAN_POINT ( 'NONE',  ( 2.399999999999999467, -4.814824860968089633E-32, 2.500000000000000000 ) ) ;
#24 = CARTESIAN_POINT ( 'NONE',  ( -2.399999999999999911, -3.500000000000000444, -3.000000000000000000 ) ) ;
#25 = CC_DESIGN_APPROVAL ( #702, ( #243 ) ) ;
#26 = DIRECTION ( 'NONE',  ( -1.000000000000000000, 0.000000000000000000, 0.000000000000000000 ) ) ;
#27 = CARTESIAN_POINT ( 'NONE',  ( -6.000000000000000000, 2.499999999999999556, 3.000000000000000000 ) ) ;
#28 = DIRECTION ( 'NONE',  ( -1.772003075187620152E-16, -1.000000000000000000, 0.000000000000000000 ) ) ;
#29 = VECTOR ( 'NONE', #208, 1000.000000000000000 ) ;
#30 = DIRECTION ( 'NONE',  ( -0.000000000000000000, -0.000000000000000000, -1.000000000000000000 ) ) ;
#31 = LINE ( 'NONE', #27, #260 ) ;
#32 = FACE_OUTER_BOUND ( 'NONE', #534, .T. ) ;
#33 = DIRECTION ( 'NONE',  ( -1.000000000000000000, 0.000000000000000000, -0.000000000000000000 ) ) ;
#34 = EDGE_CURVE ( 'NONE', #177, #343, #416, .T. ) ;
#35 = CARTESIAN_POINT ( 'NONE',  ( -5.500000000000000000, 0.000000000000000000, 3.000000000000000000 ) ) ;
#36 = AXIS2_PLACEMENT_3D ( 'NONE', #695, #144, #413 ) ;
#37 = PERSON_AND_ORGANIZATION ( #152, #399 ) ;
#38 = CARTESIAN_POINT ( 'NONE',  ( 0.000000000000000000, 2.499999999999999556, 1.250000000000000000 ) ) ;
#39 = AXIS2_PLACEMENT_3D ( 'NONE', #244, #582, #21 ) ;
#40 = VECTOR ( 'NONE', #368, 1000.000000000000000 ) ;
#41 = ORIENTED_EDGE ( 'NONE', *, *, #141, .F. ) ;
#42 = PERSON_AND_ORGANIZATION ( #152, #399 ) ;
#43 = CARTESIAN_POINT ( 'NONE',  ( 5.500000000000000000, 2.499999999999999556, -2.499999999999999556 ) ) ;
#44 = EDGE_CURVE ( 'NONE', #621, #346, #186, .T. ) ;
#45 = EDGE_LOOP ( 'NONE', ( #372, #75, #73, #558, #538, #334, #215, #673 ) ) ;
#46 = SECURITY_CLASSIFICATION_LEVEL ( 'unclassified' ) ;
#47 = CARTESIAN_POINT ( 'NONE',  ( 1.900000000000000133, -3.500000000000000000, -3.000000000000000000 ) ) ;
#48 = CIRCLE ( 'NONE', #239, 0.5000000000000000000 ) ;
#49 = MANIFOLD_SOLID_BREP ( 'Congé2', #247 ) ;
#50 = ORIENTED_EDGE ( 'NONE', *, *, #460, .F. ) ;
#51 = EDGE_LOOP ( 'NONE', ( #279, #296, #397, #669 ) ) ;
#52 = APPROVAL_ROLE ( '' ) ;
#53 = CYLINDRICAL_SURFACE ( 'NONE', #527, 0.5000000000000000000 ) ;
#54 = VERTEX_POINT ( 'NONE', #435 ) ;
#55 = VERTEX_POINT ( 'NONE', #662 ) ;
#56 = CIRCLE ( 'NONE', #454, 1.250000000000000000 ) ;
#57 = CARTESIAN_POINT ( 'NONE',  ( -5.500000000000000000, 2.499999999999999556, -2.499999999999999556 ) ) ;
#58 = ORIENTED_EDGE ( 'NONE', *, *, #178, .T. ) ;
#59 = ORIENTED_EDGE ( 'NONE', *, *, #480, .T. ) ;
#60 = EDGE_CURVE ( 'NONE', #275, #231, #333, .T. ) ;
#61 = LINE ( 'NONE', #274, #112 ) ;
#62 = VERTEX_POINT ( 'NONE', #330 ) ;
#63 = CIRCLE ( 'NONE', #242, 0.5000000000000000000 ) ;
#64 = ORIENTED_EDGE ( 'NONE', *, *, #632, .T. ) ;
#65 = CARTESIAN_POINT ( 'NONE',  ( -2.399999999999999911, -3.500000000000000444, 2.500000000000000000 ) ) ;
#66 = VERTEX_POINT ( 'NONE', #442 ) ;
#67 = ADVANCED_FACE ( 'NONE', ( #602 ), #219, .T. ) ;
#68 = PRODUCT_DEFINITION_FORMATION_WITH_SPECIFIED_SOURCE ( 'ANY', '', #568, .NOT_KNOWN. ) ;
#69 = DIRECTION ( 'NONE',  ( -1.000000000000000000, 1.772003075187620152E-16, 0.000000000000000000 ) ) ;
#70 = VECTOR ( 'NONE', #322, 1000.000000000000000 ) ;
#71 = ADVANCED_FACE ( 'NONE', ( #111, #385 ), #665, .F. ) ;
#72 = DIRECTION ( 'NONE',  ( 9.035018104045869462E-17, -1.000000000000000000, -0.000000000000000000 ) ) ;
#73 = ORIENTED_EDGE ( 'NONE', *, *, #347, .F. ) ;
#74 = PLANE ( 'NONE',  #302 ) ;
#75 = ORIENTED_EDGE ( 'NONE', *, *, #225, .T. ) ;
#76 = AXIS2_PLACEMENT_3D ( 'NONE', #532, #258, #421 ) ;
#77 = DIRECTION ( 'NONE',  ( 0.000000000000000000, 1.000000000000000000, 0.000000000000000000 ) ) ;
#78 = EDGE_CURVE ( 'NONE', #230, #492, #543, .T. ) ;
#79 = DIRECTION ( 'NONE',  ( 1.239088197126290817E-16, -1.000000000000000000, -0.000000000000000000 ) ) ;
#80 = EDGE_CURVE ( 'NONE', #618, #177, #554, .T. ) ;
#81 = DIRECTION ( 'NONE',  ( 1.000000000000000000, 9.035018104045870694E-17, 0.000000000000000000 ) ) ;
#82 = CARTESIAN_POINT ( 'NONE',  ( -6.000000000000000000, -6.379211070675434126E-16, 3.000000000000000000 ) ) ;
#83 = DIRECTION ( 'NONE',  ( 0.000000000000000000, 1.000000000000000000, 0.000000000000000000 ) ) ;
#84 = LINE ( 'NONE', #305, #401 ) ;
#85 = SECURITY_CLASSIFICATION ( '', '', #46 ) ;
#86 = DIRECTION ( 'NONE',  ( 9.035018104045869462E-17, -1.000000000000000000, -0.000000000000000000 ) ) ;
#87 = CARTESIAN_POINT ( 'NONE',  ( -1.899999999999999245, 2.354267574539951147E-16, 3.000000000000000000 ) ) ;
#88 = DIRECTION ( 'NONE',  ( -0.000000000000000000, 1.000000000000000000, -0.000000000000000000 ) ) ;
#89 = CIRCLE ( 'NONE', #581, 0.5000000000000000000 ) ;
#90 = ADVANCED_FACE ( 'NONE', ( #115 ), #53, .T. ) ;
#91 = DIRECTION ( 'NONE',  ( 9.035018104045869462E-17, -1.000000000000000000, -0.000000000000000000 ) ) ;
#92 = CARTESIAN_POINT ( 'NONE',  ( 2.399999999999999467, -4.814824860968089633E-32, 3.000000000000000000 ) ) ;
#93 = VERTEX_POINT ( 'NONE', #269 ) ;
#94 = APPROVAL_ROLE ( '' ) ;
#95 = DIRECTION ( 'NONE',  ( 0.000000000000000000, 0.000000000000000000, 1.000000000000000000 ) ) ;
#96 = CIRCLE ( 'NONE', #194, 1.250000000000000000 ) ;
#97 = ORIENTED_EDGE ( 'NONE', *, *, #392, .F. ) ;
#98 = CALENDAR_DATE ( 2025, 3, 6 ) ;
#99 = EDGE_CURVE ( 'NONE', #175, #153, #438, .T. ) ;
#100 = DIRECTION ( 'NONE',  ( -1.000000000000000000, 1.772003075187617934E-16, 0.000000000000000000 ) ) ;
#101 = ORIENTED_EDGE ( 'NONE', *, *, #80, .F. ) ;
#102 = ORIENTED_EDGE ( 'NONE', *, *, #515, .F. ) ;
#103 = ORIENTED_EDGE ( 'NONE', *, *, #545, .T. ) ;
#104 = AXIS2_PLACEMENT_3D ( 'NONE', #697, #411, #353 ) ;
#105 = ORIENTED_EDGE ( 'NONE', *, *, #616, .T. ) ;
#106 = DATE_AND_TIME ( #370, #136 ) ;
#107 = CARTESIAN_POINT ( 'NONE',  ( 5.500000000000000000, -6.379211070675434126E-16, -3.000000000000000000 ) ) ;
#108 = VERTEX_POINT ( 'NONE', #393 ) ;
#109 = ORIENTED_EDGE ( 'NONE', *, *, #512, .F. ) ;
#110 = COORDINATED_UNIVERSAL_TIME_OFFSET ( 1, 0, .AHEAD. ) ;
#111 = FACE_BOUND ( 'NONE', #445, .T. ) ;
#112 = VECTOR ( 'NONE', #6, 1000.000000000000000 ) ;
#113 = ORIENTED_EDGE ( 'NONE', *, *, #592, .F. ) ;
#114 = ORIENTED_EDGE ( 'NONE', *, *, #515, .T. ) ;
#115 = FACE_OUTER_BOUND ( 'NONE', #2, .T. ) ;
#116 = ORIENTED_EDGE ( 'NONE', *, *, #117, .F. ) ;
#117 = EDGE_CURVE ( 'NONE', #282, #621, #627, .T. ) ;
#118 = DIRECTION ( 'NONE',  ( -0.000000000000000000, 1.000000000000000000, 0.000000000000000000 ) ) ;
#119 = ORIENTED_EDGE ( 'NONE', *, *, #686, .T. ) ;
#120 = ORIENTED_EDGE ( 'NONE', *, *, #400, .F. ) ;
#121 = DIRECTION ( 'NONE',  ( 1.772003075187620152E-16, -1.000000000000000000, -0.000000000000000000 ) ) ;
#122 = EDGE_CURVE ( 'NONE', #55, #488, #312, .T. ) ;
#123 = ORIENTED_EDGE ( 'NONE', *, *, #712, .F. ) ;
#124 = ORIENTED_EDGE ( 'NONE', *, *, #287, .F. ) ;
#125 = DIRECTION ( 'NONE',  ( -0.000000000000000000, 1.000000000000000000, -0.000000000000000000 ) ) ;
#126 = VERTEX_POINT ( 'NONE', #379 ) ;
#127 = EDGE_CURVE ( 'NONE', #153, #93, #293, .T. ) ;
#128 = CC_DESIGN_APPROVAL ( #12, ( #85 ) ) ;
#129 = DIRECTION ( 'NONE',  ( 0.000000000000000000, 0.000000000000000000, -1.000000000000000000 ) ) ;
#130 = AXIS2_PLACEMENT_3D ( 'NONE', #685, #692, #408 ) ;
#131 = CARTESIAN_POINT ( 'NONE',  ( 1.899999999999999689, -3.500000000000000000, -3.000000000000000000 ) ) ;
#132 = VECTOR ( 'NONE', #607, 1000.000000000000000 ) ;
#133 = AXIS2_PLACEMENT_3D ( 'NONE', #82, #514, #521 ) ;
#134 = DIRECTION ( 'NONE',  ( -1.239088197126290570E-16, -1.000000000000000000, 0.000000000000000000 ) ) ;
#135 = CARTESIAN_POINT ( 'NONE',  ( -1.899999999999999689, -3.500000000000000444, 2.500000000000000000 ) ) ;
#136 = LOCAL_TIME ( 11, 8, 53.00000000000000000, #210 ) ;
#137 = ADVANCED_FACE ( 'NONE', ( #342 ), #176, .F. ) ;
#138 = DIRECTION ( 'NONE',  ( -1.000000000000000000, 0.000000000000000000, 0.000000000000000000 ) ) ;
#139 = CARTESIAN_POINT ( 'NONE',  ( 5.500000000000000000, 2.499999999999999556, -3.000000000000000000 ) ) ;
#140 = LINE ( 'NONE', #145, #336 ) ;
#141 = EDGE_CURVE ( 'NONE', #499, #66, #61, .T. ) ;
#142 = CARTESIAN_POINT ( 'NONE',  ( 6.000000000000000000, -6.379211070675434126E-16, -3.000000000000000000 ) ) ;
#143 = VECTOR ( 'NONE', #327, 1000.000000000000000 ) ;
#144 = DIRECTION ( 'NONE',  ( -9.035018104045869462E-17, 1.000000000000000000, 0.000000000000000000 ) ) ;
#145 = CARTESIAN_POINT ( 'NONE',  ( -1.899999999999999245, -6.195440985631456550E-17, -3.000000000000000000 ) ) ;
#146 = PLANE ( 'NONE',  #559 ) ;
#147 = ADVANCED_FACE ( 'NONE', ( #285 ), #498, .F. ) ;
#148 = DIRECTION ( 'NONE',  ( 1.000000000000000000, 1.772003075187620152E-16, 0.000000000000000000 ) ) ;
#149 = DIRECTION ( 'NONE',  ( -1.000000000000000000, 1.772003075187617934E-16, 0.000000000000000000 ) ) ;
#150 = AXIS2_PLACEMENT_3D ( 'NONE', #463, #360, #651 ) ;
#151 = DIRECTION ( 'NONE',  ( 0.000000000000000000, -1.000000000000000000, 0.000000000000000000 ) ) ;
#152 = PERSON ( 'UNSPECIFIED', 'UNSPECIFIED', 'UNSPECIFIED', ('UNSPECIFIED'), ('UNSPECIFIED'), ('UNSPECIFIED') ) ;
#153 = VERTEX_POINT ( 'NONE', #487 ) ;
#154 = PERSON_AND_ORGANIZATION ( #152, #399 ) ;
#155 = CARTESIAN_POINT ( 'NONE',  ( -6.000000000000000000, -6.379211070675434126E-16, 3.000000000000000000 ) ) ;
#156 = ORIENTED_EDGE ( 'NONE', *, *, #647, .F. ) ;
#157 = EDGE_CURVE ( 'NONE', #319, #108, #657, .T. ) ;
#158 = AXIS2_PLACEMENT_3D ( 'NONE', #599, #708, #549 ) ;
#159 = APPROVAL_DATE_TIME ( #106, #702 ) ;
#160 = DIRECTION ( 'NONE',  ( -1.772003075187620152E-16, 1.000000000000000000, 0.000000000000000000 ) ) ;
#161 = VERTEX_POINT ( 'NONE', #47 ) ;
#162 = ORIENTED_EDGE ( 'NONE', *, *, #250, .T. ) ;
#163 = ORIENTED_EDGE ( 'NONE', *, *, #626, .F. ) ;
#164 = CC_DESIGN_DATE_AND_TIME_ASSIGNMENT ( #273, #714, ( #85 ) ) ;
#165 = CARTESIAN_POINT ( 'NONE',  ( -5.500000000000000000, -5.493209533081623064E-16, 2.500000000000000000 ) ) ;
#166 = VERTEX_POINT ( 'NONE', #715 ) ;
#167 = ORIENTED_EDGE ( 'NONE', *, *, #444, .F. ) ;
#168 = AXIS2_PLACEMENT_3D ( 'NONE', #689, #533, #518 ) ;
#169 = CARTESIAN_POINT ( 'NONE',  ( 2.399999999999999467, -4.814824860968089633E-32, -2.499999999999999556 ) ) ;
#170 = ORIENTED_EDGE ( 'NONE', *, *, #400, .T. ) ;
#171 = DATE_AND_TIME ( #321, #306 ) ;
#172 = DIRECTION ( 'NONE',  ( 0.000000000000000000, 0.000000000000000000, 1.000000000000000000 ) ) ;
#173 = ORIENTED_EDGE ( 'NONE', *, *, #647, .T. ) ;
#174 = ADVANCED_FACE ( 'NONE', ( #223 ), #245, .F. ) ;
#175 = VERTEX_POINT ( 'NONE', #65 ) ;
#176 = CYLINDRICAL_SURFACE ( 'NONE', #158, 1.250000000000000000 ) ;
#177 = VERTEX_POINT ( 'NONE', #195 ) ;
#178 = EDGE_CURVE ( 'NONE', #221, #325, #284, .T. ) ;
#179 = DIRECTION ( 'NONE',  ( 0.000000000000000000, 0.000000000000000000, -1.000000000000000000 ) ) ;
#180 = ORIENTED_EDGE ( 'NONE', *, *, #8, .T. ) ;
#181 = EDGE_CURVE ( 'NONE', #175, #221, #560, .T. ) ;
#182 = FACE_OUTER_BOUND ( 'NONE', #658, .T. ) ;
#183 = ORIENTED_EDGE ( 'NONE', *, *, #612, .T. ) ;
#184 = CIRCLE ( 'NONE', #573, 0.5000000000000000000 ) ;
#185 = CARTESIAN_POINT ( 'NONE',  ( 2.399999999999999467, -4.814824860968089633E-32, -2.499999999999999556 ) ) ;
#186 = LINE ( 'NONE', #266, #257 ) ;
#187 = DIRECTION ( 'NONE',  ( 1.239088197126290817E-16, -1.000000000000000000, 0.000000000000000000 ) ) ;
#188 = VECTOR ( 'NONE', #191, 1000.000000000000000 ) ;
#189 = EDGE_LOOP ( 'NONE', ( #102, #376, #328, #212 ) ) ;
#190 = CARTESIAN_POINT ( 'NONE',  ( 1.899999999999999245, 8.860015375938092134E-17, -3.000000000000000000 ) ) ;
#191 = DIRECTION ( 'NONE',  ( -0.000000000000000000, 1.000000000000000000, -0.000000000000000000 ) ) ;
#192 = AXIS2_PLACEMENT_3D ( 'NONE', #671, #118, #172 ) ;
#193 = ADVANCED_FACE ( 'NONE', ( #182 ), #349, .T. ) ;
#194 = AXIS2_PLACEMENT_3D ( 'NONE', #352, #77, #291 ) ;
#195 = CARTESIAN_POINT ( 'NONE',  ( 1.899999999999999023, 8.860015375938106925E-17, 3.000000000000000000 ) ) ;
#196 = CARTESIAN_POINT ( 'NONE',  ( 5.500000000000000000, 0.000000000000000000, 3.000000000000000000 ) ) ;
#197 = DIRECTION ( 'NONE',  ( -0.000000000000000000, -0.000000000000000000, -1.000000000000000000 ) ) ;
#198 = CARTESIAN_POINT ( 'NONE',  ( 6.000000000000000000, -6.379211070675434126E-16, 3.000000000000000000 ) ) ;
#199 = AXIS2_PLACEMENT_3D ( 'NONE', #43, #88, #311 ) ;
#200 = LINE ( 'NONE', #262, #70 ) ;
#201 = DIRECTION ( 'NONE',  ( -0.000000000000000000, -1.000000000000000000, -0.000000000000000000 ) ) ;
#202 = DESIGN_CONTEXT ( 'detailed design', #639, 'design' ) ;
#203 = ADVANCED_FACE ( 'NONE', ( #407 ), #74, .F. ) ;
#204 = DIRECTION ( 'NONE',  ( 1.239088197126290570E-16, 1.000000000000000000, -0.000000000000000000 ) ) ;
#205 = CYLINDRICAL_SURFACE ( 'NONE', #150, 0.5000000000000000000 ) ;
#206 = AXIS2_PLACEMENT_3D ( 'NONE', #13, #628, #69 ) ;
#207 = CARTESIAN_POINT ( 'NONE',  ( -5.500000000000000000, 2.499999999999999556, -3.000000000000000000 ) ) ;
#208 = DIRECTION ( 'NONE',  ( -1.000000000000000000, -0.000000000000000000, -0.000000000000000000 ) ) ;
#209 = CARTESIAN_POINT ( 'NONE',  ( 1.899999999999999245, 8.860015375938106925E-17, 2.500000000000000000 ) ) ;
#210 = COORDINATED_UNIVERSAL_TIME_OFFSET ( 1, 0, .AHEAD. ) ;
#211 = LINE ( 'NONE', #155, #672 ) ;
#212 = ORIENTED_EDGE ( 'NONE', *, *, #44, .T. ) ;
#213 = COORDINATED_UNIVERSAL_TIME_OFFSET ( 1, 0, .AHEAD. ) ;
#214 = DIRECTION ( 'NONE',  ( -1.772003075187620152E-16, -1.000000000000000000, 0.000000000000000000 ) ) ;
#215 = ORIENTED_EDGE ( 'NONE', *, *, #99, .T. ) ;
#216 = EDGE_CURVE ( 'NONE', #166, #263, #184, .T. ) ;
#217 = AXIS2_PLACEMENT_3D ( 'NONE', #232, #179, #617 ) ;
#218 = APPROVAL_DATE_TIME ( #171, #718 ) ;
#219 = CYLINDRICAL_SURFACE ( 'NONE', #192, 0.5000000000000000000 ) ;
#220 = EDGE_LOOP ( 'NONE', ( #670, #105, #609, #478 ) ) ;
#221 = VERTEX_POINT ( 'NONE', #624 ) ;
#222 = APPROVAL_DATE_TIME ( #268, #12 ) ;
#223 = FACE_OUTER_BOUND ( 'NONE', #531, .T. ) ;
#224 = AXIS2_PLACEMENT_3D ( 'NONE', #92, #530, #423 ) ;
#225 = EDGE_CURVE ( 'NONE', #161, #275, #383, .T. ) ;
#226 = DIRECTION ( 'NONE',  ( 0.000000000000000000, 0.000000000000000000, -1.000000000000000000 ) ) ;
#227 = VERTEX_POINT ( 'NONE', #620 ) ;
#228 = VERTEX_POINT ( 'NONE', #190 ) ;
#229 = CARTESIAN_POINT ( 'NONE',  ( -5.500000000000000000, 0.000000000000000000, 2.500000000000000000 ) ) ;
#230 = VERTEX_POINT ( 'NONE', #236 ) ;
#231 = VERTEX_POINT ( 'NONE', #185 ) ;
#232 = CARTESIAN_POINT ( 'NONE',  ( 0.000000000000000000, 0.000000000000000000, 3.000000000000000000 ) ) ;
#233 = VERTEX_POINT ( 'NONE', #398 ) ;
#234 = ADVANCED_FACE ( 'NONE', ( #288 ), #453, .T. ) ;
#235 = CIRCLE ( 'NONE', #168, 0.5000000000000004441 ) ;
#236 = CARTESIAN_POINT ( 'NONE',  ( 6.000000000000000000, -6.379211070675434126E-16, 2.500000000000000000 ) ) ;
#237 = ORIENTED_EDGE ( 'NONE', *, *, #493, .F. ) ;
#238 = DIRECTION ( 'NONE',  ( -1.772003075187620152E-16, 1.000000000000000000, 0.000000000000000000 ) ) ;
#239 = AXIS2_PLACEMENT_3D ( 'NONE', #674, #125, #129 ) ;
#240 = CARTESIAN_POINT ( 'NONE',  ( -2.399999999999999467, -2.407412430484044816E-32, 2.500000000000000000 ) ) ;
#241 = DIRECTION ( 'NONE',  ( -1.239088197126290817E-16, 1.000000000000000000, 0.000000000000000000 ) ) ;
#242 = AXIS2_PLACEMENT_3D ( 'NONE', #362, #86, #26 ) ;
#243 = PRODUCT_DEFINITION ( 'UNKNOWN', '', #68, #202 ) ;
#244 = CARTESIAN_POINT ( 'NONE',  ( -1.899999999999999245, 2.354267574539951147E-16, 2.500000000000000000 ) ) ;
#245 = PLANE ( 'NONE',  #588 ) ;
#246 = LINE ( 'NONE', #24, #491 ) ;
#247 = CLOSED_SHELL ( 'NONE', ( #137, #203, #71, #504, #323, #174, #298, #429, #576, #147, #22, #519, #272, #419, #234, #655, #90, #67, #15, #193 ) ) ;
#248 = LINE ( 'NONE', #251, #309 ) ;
#249 = VECTOR ( 'NONE', #509, 1000.000000000000000 ) ;
#250 = EDGE_CURVE ( 'NONE', #227, #479, #48, .T. ) ;
#251 = CARTESIAN_POINT ( 'NONE',  ( 2.399999999999999911, -3.500000000000000000, 3.000000000000000000 ) ) ;
#252 = DIRECTION ( 'NONE',  ( -1.000000000000000000, -0.000000000000000000, -0.000000000000000000 ) ) ;
#253 = CARTESIAN_POINT ( 'NONE',  ( 6.000000000000000000, 2.499999999999999556, 2.500000000000000000 ) ) ;
#254 = FACE_BOUND ( 'NONE', #318, .T. ) ;
#255 = CARTESIAN_POINT ( 'NONE',  ( 1.900000000000000133, -3.500000000000000000, 3.000000000000000000 ) ) ;
#256 = CARTESIAN_POINT ( 'NONE',  ( 5.500000000000000000, -5.493209533081623064E-16, -2.499999999999999556 ) ) ;
#257 = VECTOR ( 'NONE', #694, 1000.000000000000000 ) ;
#258 = DIRECTION ( 'NONE',  ( 0.000000000000000000, 0.000000000000000000, 1.000000000000000000 ) ) ;
#259 = DIRECTION ( 'NONE',  ( 0.000000000000000000, -1.000000000000000000, 0.000000000000000000 ) ) ;
#260 = VECTOR ( 'NONE', #252, 1000.000000000000000 ) ;
#261 = PERSON_AND_ORGANIZATION ( #152, #399 ) ;
#262 = CARTESIAN_POINT ( 'NONE',  ( -6.000000000000000000, -6.379211070675434126E-16, -3.000000000000000000 ) ) ;
#263 = VERTEX_POINT ( 'NONE', #566 ) ;
#264 = EDGE_CURVE ( 'NONE', #233, #153, #678, .T. ) ;
#265 = VECTOR ( 'NONE', #259, 1000.000000000000000 ) ;
#266 = CARTESIAN_POINT ( 'NONE',  ( -6.000000000000000000, -6.379211070675434126E-16, -2.499999999999999556 ) ) ;
#267 = ORIENTED_EDGE ( 'NONE', *, *, #216, .F. ) ;
#268 = DATE_AND_TIME ( #374, #611 ) ;
#269 = CARTESIAN_POINT ( 'NONE',  ( -1.899999999999999689, -3.500000000000000444, -3.000000000000000000 ) ) ;
#270 = EDGE_LOOP ( 'NONE', ( #496, #335, #114, #390, #440, #541, #286, #58 ) ) ;
#271 = ORIENTED_EDGE ( 'NONE', *, *, #329, .T. ) ;
#272 = ADVANCED_FACE ( 'NONE', ( #676 ), #344, .T. ) ;
#273 = DATE_AND_TIME ( #650, #489 ) ;
#274 = CARTESIAN_POINT ( 'NONE',  ( 1.530808498934191571E-16, -3.500000000000000444, -1.250000000000000000 ) ) ;
#275 = VERTEX_POINT ( 'NONE', #457 ) ;
#276 = EDGE_CURVE ( 'NONE', #228, #161, #682, .T. ) ;
#277 = VECTOR ( 'NONE', #405, 1000.000000000000000 ) ;
#278 = DIRECTION ( 'NONE',  ( 0.000000000000000000, -1.000000000000000000, 0.000000000000000000 ) ) ;
#279 = ORIENTED_EDGE ( 'NONE', *, *, #612, .F. ) ;
#280 = VECTOR ( 'NONE', #81, 1000.000000000000000 ) ;
#281 = DIRECTION ( 'NONE',  ( 0.000000000000000000, 0.000000000000000000, -1.000000000000000000 ) ) ;
#282 = VERTEX_POINT ( 'NONE', #563 ) ;
#283 = VERTEX_POINT ( 'NONE', #403 ) ;
#284 = CIRCLE ( 'NONE', #373, 0.5000000000000000000 ) ;
#285 = FACE_OUTER_BOUND ( 'NONE', #338, .T. ) ;
#286 = ORIENTED_EDGE ( 'NONE', *, *, #350, .F. ) ;
#287 = EDGE_CURVE ( 'NONE', #231, #228, #590, .T. ) ;
#288 = FACE_OUTER_BOUND ( 'NONE', #4, .T. ) ;
#289 = VERTEX_POINT ( 'NONE', #557 ) ;
#290 = CIRCLE ( 'NONE', #547, 0.5000000000000000000 ) ;
#291 = DIRECTION ( 'NONE',  ( 0.000000000000000000, 0.000000000000000000, 1.000000000000000000 ) ) ;
#292 = CARTESIAN_POINT ( 'NONE',  ( 6.000000000000000000, -6.379211070675434126E-16, 3.000000000000000000 ) ) ;
#293 = CIRCLE ( 'NONE', #553, 0.5000000000000000000 ) ;
#294 = EDGE_CURVE ( 'NONE', #382, #66, #96, .T. ) ;
#295 = CARTESIAN_POINT ( 'NONE',  ( -5.500000000000000000, 2.499999999999999556, 2.500000000000000000 ) ) ;
#296 = ORIENTED_EDGE ( 'NONE', *, *, #141, .T. ) ;
#297 = CARTESIAN_POINT ( 'NONE',  ( -2.399999999999999467, -2.407412430484044816E-32, 3.000000000000000000 ) ) ;
#298 = ADVANCED_FACE ( 'NONE', ( #254, #577 ), #357, .F. ) ;
#299 = CARTESIAN_POINT ( 'NONE',  ( 6.000000000000000000, -6.379211070675434126E-16, 2.500000000000000000 ) ) ;
#300 = LINE ( 'NONE', #517, #249 ) ;
#301 = EDGE_CURVE ( 'NONE', #479, #706, #410, .T. ) ;
#302 = AXIS2_PLACEMENT_3D ( 'NONE', #292, #402, #395 ) ;
#303 = CARTESIAN_POINT ( 'NONE',  ( -6.000000000000000000, -6.379211070675434126E-16, -2.499999999999999556 ) ) ;
#304 = DIRECTION ( 'NONE',  ( -1.000000000000000000, 0.000000000000000000, 0.000000000000000000 ) ) ;
#305 = CARTESIAN_POINT ( 'NONE',  ( -6.000000000000000000, -6.379211070675434126E-16, 2.500000000000000000 ) ) ;
#306 = LOCAL_TIME ( 11, 8, 53.00000000000000000, #110 ) ;
#307 = CARTESIAN_POINT ( 'NONE',  ( -2.399999999999999467, -2.407412430484044816E-32, 3.000000000000000000 ) ) ;
#308 = LINE ( 'NONE', #198, #680 ) ;
#309 = VECTOR ( 'NONE', #197, 1000.000000000000000 ) ;
#310 = FACE_OUTER_BOUND ( 'NONE', #189, .T. ) ;
#311 = DIRECTION ( 'NONE',  ( 0.000000000000000000, 0.000000000000000000, -1.000000000000000000 ) ) ;
#312 = CIRCLE ( 'NONE', #604, 0.5000000000000004441 ) ;
#313 = FACE_OUTER_BOUND ( 'NONE', #596, .T. ) ;
#314 = VECTOR ( 'NONE', #691, 1000.000000000000000 ) ;
#315 = EDGE_CURVE ( 'NONE', #479, #230, #631, .T. ) ;
#316 = PERSON_AND_ORGANIZATION_ROLE ( 'creator' ) ;
#317 = DIRECTION ( 'NONE',  ( -1.000000000000000000, -1.772003075187620152E-16, 0.000000000000000000 ) ) ;
#318 = EDGE_LOOP ( 'NONE', ( #173, #183 ) ) ;
#319 = VERTEX_POINT ( 'NONE', #139 ) ;
#320 = VERTEX_POINT ( 'NONE', #516 ) ;
#321 = CALENDAR_DATE ( 2025, 3, 6 ) ;
#322 = DIRECTION ( 'NONE',  ( 1.000000000000000000, 1.772003075187620152E-16, 0.000000000000000000 ) ) ;
#323 = ADVANCED_FACE ( 'NONE', ( #687 ), #569, .F. ) ;
#324 = ORIENTED_EDGE ( 'NONE', *, *, #470, .F. ) ;
#325 = VERTEX_POINT ( 'NONE', #571 ) ;
#326 = PERSON_AND_ORGANIZATION ( #152, #399 ) ;
#327 = DIRECTION ( 'NONE',  ( -0.000000000000000000, -0.000000000000000000, -1.000000000000000000 ) ) ;
#328 = ORIENTED_EDGE ( 'NONE', *, *, #661, .T. ) ;
#329 = EDGE_CURVE ( 'NONE', #343, #54, #461, .T. ) ;
#330 = CARTESIAN_POINT ( 'NONE',  ( -5.500000000000000000, -5.493209533081623064E-16, -3.000000000000000000 ) ) ;
#331 = ORIENTED_EDGE ( 'NONE', *, *, #264, .F. ) ;
#332 = APPLICATION_CONTEXT ( 'configuration controlled 3d designs of mechanical parts and assemblies' ) ;
#333 = LINE ( 'NONE', #169, #441 ) ;
#334 = ORIENTED_EDGE ( 'NONE', *, *, #550, .T. ) ;
#335 = ORIENTED_EDGE ( 'NONE', *, *, #122, .T. ) ;
#336 = VECTOR ( 'NONE', #204, 1000.000000000000000 ) ;
#337 = CARTESIAN_POINT ( 'NONE',  ( -6.000000000000000000, 2.499999999999999556, 3.000000000000000000 ) ) ;
#338 = EDGE_LOOP ( 'NONE', ( #103, #667, #64, #119, #443, #561, #439, #605 ) ) ;
#339 = ORIENTED_EDGE ( 'NONE', *, *, #550, .F. ) ;
#340 = AXIS2_PLACEMENT_3D ( 'NONE', #337, #494, #431 ) ;
#341 = EDGE_CURVE ( 'NONE', #54, #618, #63, .T. ) ;
#342 = FACE_OUTER_BOUND ( 'NONE', #51, .T. ) ;
#343 = VERTEX_POINT ( 'NONE', #23 ) ;
#344 = CYLINDRICAL_SURFACE ( 'NONE', #428, 0.5000000000000000000 ) ;
#345 = APPROVAL_PERSON_ORGANIZATION ( #598, #702, #656 ) ;
#346 = VERTEX_POINT ( 'NONE', #303 ) ;
#347 = EDGE_CURVE ( 'NONE', #54, #275, #248, .T. ) ;
#348 = CIRCLE ( 'NONE', #10, 0.5000000000000004441 ) ;
#349 = CYLINDRICAL_SURFACE ( 'NONE', #696, 0.5000000000000000000 ) ;
#350 = EDGE_CURVE ( 'NONE', #221, #233, #466, .T. ) ;
#351 = DIRECTION ( 'NONE',  ( 1.239088197126290817E-16, -1.000000000000000000, -0.000000000000000000 ) ) ;
#352 = CARTESIAN_POINT ( 'NONE',  ( 0.000000000000000000, 2.499999999999999556, 0.000000000000000000 ) ) ;
#353 = DIRECTION ( 'NONE',  ( -1.000000000000000000, 1.772003075187620152E-16, 0.000000000000000000 ) ) ;
#354 = CARTESIAN_POINT ( 'NONE',  ( 1.899999999999999245, -6.195440985631459015E-17, -2.499999999999999556 ) ) ;
#355 = EDGE_CURVE ( 'NONE', #319, #282, #594, .T. ) ;
#356 = DIRECTION ( 'NONE',  ( 0.000000000000000000, 0.000000000000000000, 1.000000000000000000 ) ) ;
#357 = PLANE ( 'NONE',  #36 ) ;
#358 = CC_DESIGN_PERSON_AND_ORGANIZATION_ASSIGNMENT ( #430, #316, ( #68 ) ) ;
#359 = DIRECTION ( 'NONE',  ( 0.000000000000000000, 1.000000000000000000, 0.000000000000000000 ) ) ;
#360 = DIRECTION ( 'NONE',  ( 1.239088197126290570E-16, 1.000000000000000000, 0.000000000000000000 ) ) ;
#361 = AXIS2_PLACEMENT_3D ( 'NONE', #643, #151, #648 ) ;
#362 = CARTESIAN_POINT ( 'NONE',  ( 1.899999999999999689, -3.500000000000000000, 2.500000000000000000 ) ) ;
#363 = CARTESIAN_POINT ( 'NONE',  ( 0.000000000000000000, -3.500000000000000444, 0.000000000000000000 ) ) ;
#364 = LINE ( 'NONE', #142, #503 ) ;
#365 = APPROVAL_PERSON_ORGANIZATION ( #154, #12, #94 ) ;
#366 = CARTESIAN_POINT ( 'NONE',  ( -6.000000000000000000, 2.499999999999999556, -2.499999999999999556 ) ) ;
#367 = AXIS2_PLACEMENT_3D ( 'NONE', #371, #587, #95 ) ;
#368 = DIRECTION ( 'NONE',  ( -0.000000000000000000, -0.000000000000000000, -1.000000000000000000 ) ) ;
#369 = CC_DESIGN_PERSON_AND_ORGANIZATION_ASSIGNMENT ( #37, #720, ( #568 ) ) ;
#370 = CALENDAR_DATE ( 2025, 3, 6 ) ;
#371 = CARTESIAN_POINT ( 'NONE',  ( 0.000000000000000000, -3.500000000000000444, 0.000000000000000000 ) ) ;
#372 = ORIENTED_EDGE ( 'NONE', *, *, #592, .T. ) ;
#373 = AXIS2_PLACEMENT_3D ( 'NONE', #501, #238, #511 ) ;
#374 = CALENDAR_DATE ( 2025, 3, 6 ) ;
#375 = CARTESIAN_POINT ( 'NONE',  ( 0.000000000000000000, 2.499999999999999556, 0.000000000000000000 ) ) ;
#376 = ORIENTED_EDGE ( 'NONE', *, *, #460, .T. ) ;
#377 = APPLICATION_PROTOCOL_DEFINITION ( 'international standard', 'config_control_design', 1994, #639 ) ;
#378 = EDGE_CURVE ( 'NONE', #62, #283, #200, .T. ) ;
#379 = CARTESIAN_POINT ( 'NONE',  ( 5.500000000000000000, -5.493209533081623064E-16, 3.000000000000000000 ) ) ;
#380 = ORIENTED_EDGE ( 'NONE', *, *, #396, .F. ) ;
#381 = DIRECTION ( 'NONE',  ( -1.239088197126290817E-16, 1.000000000000000000, 0.000000000000000000 ) ) ;
#382 = VERTEX_POINT ( 'NONE', #38 ) ;
#383 = CIRCLE ( 'NONE', #539, 0.5000000000000000000 ) ;
#384 = DATE_TIME_ROLE ( 'creation_date' ) ;
#385 = FACE_OUTER_BOUND ( 'NONE', #11, .T. ) ;
#386 = ORIENTED_EDGE ( 'NONE', *, *, #60, .F. ) ;
#387 = EDGE_LOOP ( 'NONE', ( #447, #716, #124, #386 ) ) ;
#388 =( GEOMETRIC_REPRESENTATION_CONTEXT ( 3 ) GLOBAL_UNCERTAINTY_ASSIGNED_CONTEXT ( ( #572 ) ) GLOBAL_UNIT_ASSIGNED_CONTEXT ( ( #471, #513, #417 ) ) REPRESENTATION_CONTEXT ( 'NONE', 'WORKASPACE' ) );
#389 = DIRECTION ( 'NONE',  ( -0.000000000000000000, 1.000000000000000000, -0.000000000000000000 ) ) ;
#390 = ORIENTED_EDGE ( 'NONE', *, *, #444, .T. ) ;
#391 = ORIENTED_EDGE ( 'NONE', *, *, #264, .T. ) ;
#392 = EDGE_CURVE ( 'NONE', #283, #233, #290, .T. ) ;
#393 = CARTESIAN_POINT ( 'NONE',  ( 5.500000000000000000, -5.493209533081623064E-16, -3.000000000000000000 ) ) ;
#394 = ORIENTED_EDGE ( 'NONE', *, *, #294, .F. ) ;
#395 = DIRECTION ( 'NONE',  ( 0.000000000000000000, 0.000000000000000000, 1.000000000000000000 ) ) ;
#396 = EDGE_CURVE ( 'NONE', #66, #382, #690, .T. ) ;
#397 = ORIENTED_EDGE ( 'NONE', *, *, #396, .T. ) ;
#398 = CARTESIAN_POINT ( 'NONE',  ( -2.399999999999999467, -2.407412430484044816E-32, -2.499999999999999556 ) ) ;
#399 = ORGANIZATION ( 'UNSPECIFIED', 'UNSPECIFIED', '' ) ;
#400 = EDGE_CURVE ( 'NONE', #228, #108, #364, .T. ) ;
#401 = VECTOR ( 'NONE', #700, 1000.000000000000000 ) ;
#402 = DIRECTION ( 'NONE',  ( -1.000000000000000000, 0.000000000000000000, 0.000000000000000000 ) ) ;
#403 = CARTESIAN_POINT ( 'NONE',  ( -1.899999999999999023, 8.860015375938106925E-17, -3.000000000000000000 ) ) ;
#404 = VECTOR ( 'NONE', #482, 1000.000000000000000 ) ;
#405 = DIRECTION ( 'NONE',  ( 0.000000000000000000, 1.000000000000000000, 0.000000000000000000 ) ) ;
#406 = ORIENTED_EDGE ( 'NONE', *, *, #34, .F. ) ;
#407 = FACE_OUTER_BOUND ( 'NONE', #220, .T. ) ;
#408 = DIRECTION ( 'NONE',  ( 0.000000000000000000, 0.000000000000000000, 1.000000000000000000 ) ) ;
#409 = AXIS2_PLACEMENT_3D ( 'NONE', #526, #214, #149 ) ;
#410 = LINE ( 'NONE', #469, #314 ) ;
#411 = DIRECTION ( 'NONE',  ( 1.772003075187620152E-16, 1.000000000000000000, -0.000000000000000000 ) ) ;
#412 = CARTESIAN_POINT ( 'NONE',  ( -6.000000000000000000, 2.499999999999999556, -3.000000000000000000 ) ) ;
#413 = DIRECTION ( 'NONE',  ( -1.000000000000000000, -9.035018104045869462E-17, 0.000000000000000000 ) ) ;
#414 = CARTESIAN_POINT ( 'NONE',  ( 6.000000000000000000, 2.499999999999999556, -2.499999999999999556 ) ) ;
#415 = CARTESIAN_POINT ( 'NONE',  ( 6.000000000000000000, -6.379211070675434126E-16, -2.499999999999999556 ) ) ;
#416 = CIRCLE ( 'NONE', #458, 0.5000000000000000000 ) ;
#417 =( NAMED_UNIT ( * ) SI_UNIT ( $, .STERADIAN. ) SOLID_ANGLE_UNIT ( ) );
#418 = FACE_OUTER_BOUND ( 'NONE', #564, .T. ) ;
#419 = ADVANCED_FACE ( 'NONE', ( #418 ), #205, .T. ) ;
#420 = DIRECTION ( 'NONE',  ( 1.772003075187620152E-16, 1.000000000000000000, -0.000000000000000000 ) ) ;
#421 = DIRECTION ( 'NONE',  ( 1.000000000000000000, 0.000000000000000000, 0.000000000000000000 ) ) ;
#422 = DIRECTION ( 'NONE',  ( -0.000000000000000000, -0.000000000000000000, -1.000000000000000000 ) ) ;
#423 = DIRECTION ( 'NONE',  ( 1.239088197126290817E-16, -1.000000000000000000, 0.000000000000000000 ) ) ;
#424 = EDGE_LOOP ( 'NONE', ( #116, #163, #167, #642 ) ) ;
#425 = ORIENTED_EDGE ( 'NONE', *, *, #287, .T. ) ;
#426 = VECTOR ( 'NONE', #713, 1000.000000000000000 ) ;
#427 = ORIENTED_EDGE ( 'NONE', *, *, #117, .T. ) ;
#428 = AXIS2_PLACEMENT_3D ( 'NONE', #354, #187, #448 ) ;
#429 = ADVANCED_FACE ( 'NONE', ( #32 ), #579, .F. ) ;
#430 = PERSON_AND_ORGANIZATION ( #152, #399 ) ;
#431 = DIRECTION ( 'NONE',  ( 0.000000000000000000, -0.000000000000000000, -1.000000000000000000 ) ) ;
#432 = EDGE_LOOP ( 'NONE', ( #41, #156, #180, #723 ) ) ;
#433 = ORIENTED_EDGE ( 'NONE', *, *, #181, .T. ) ;
#434 = SHAPE_DEFINITION_REPRESENTATION ( #510, #18 ) ;
#435 = CARTESIAN_POINT ( 'NONE',  ( 2.399999999999999911, -3.500000000000000000, 2.500000000000000000 ) ) ;
#436 = CIRCLE ( 'NONE', #409, 0.5000000000000004441 ) ;
#437 = ORIENTED_EDGE ( 'NONE', *, *, #301, .T. ) ;
#438 = LINE ( 'NONE', #546, #143 ) ;
#439 = ORIENTED_EDGE ( 'NONE', *, *, #556, .T. ) ;
#440 = ORIENTED_EDGE ( 'NONE', *, *, #378, .T. ) ;
#441 = VECTOR ( 'NONE', #381, 1000.000000000000000 ) ;
#442 = CARTESIAN_POINT ( 'NONE',  ( 1.530808498934191571E-16, 2.499999999999999556, -1.250000000000000000 ) ) ;
#443 = ORIENTED_EDGE ( 'NONE', *, *, #679, .T. ) ;
#444 = EDGE_CURVE ( 'NONE', #346, #62, #235, .T. ) ;
#445 = EDGE_LOOP ( 'NONE', ( #394, #380 ) ) ;
#446 = DIRECTION ( 'NONE',  ( 9.035018104045869462E-17, -1.000000000000000000, -0.000000000000000000 ) ) ;
#447 = ORIENTED_EDGE ( 'NONE', *, *, #225, .F. ) ;
#448 = DIRECTION ( 'NONE',  ( 1.000000000000000000, 1.239088197126291063E-16, 0.000000000000000000 ) ) ;
#449 = ORIENTED_EDGE ( 'NONE', *, *, #450, .T. ) ;
#450 = EDGE_CURVE ( 'NONE', #706, #319, #719, .T. ) ;
#451 = AXIS2_PLACEMENT_3D ( 'NONE', #684, #241, #506 ) ;
#452 = DIRECTION ( 'NONE',  ( -0.000000000000000000, 1.000000000000000000, -0.000000000000000000 ) ) ;
#453 = CYLINDRICAL_SURFACE ( 'NONE', #451, 0.5000000000000000000 ) ;
#454 = AXIS2_PLACEMENT_3D ( 'NONE', #363, #83, #356 ) ;
#455 = CARTESIAN_POINT ( 'NONE',  ( -2.399999999999999911, -3.500000000000000444, -2.499999999999999556 ) ) ;
#456 = LINE ( 'NONE', #196, #277 ) ;
#457 = CARTESIAN_POINT ( 'NONE',  ( 2.399999999999999911, -3.500000000000000000, -2.499999999999999556 ) ) ;
#458 = AXIS2_PLACEMENT_3D ( 'NONE', #209, #420, #14 ) ;
#459 = LINE ( 'NONE', #207, #188 ) ;
#460 = EDGE_CURVE ( 'NONE', #488, #166, #84, .T. ) ;
#461 = LINE ( 'NONE', #635, #497 ) ;
#462 = CARTESIAN_POINT ( 'NONE',  ( -6.000000000000000000, -6.379211070675434126E-16, 3.000000000000000000 ) ) ;
#463 = CARTESIAN_POINT ( 'NONE',  ( -1.899999999999999245, -6.195440985631456550E-17, -2.499999999999999556 ) ) ;
#464 = APPROVAL_PERSON_ORGANIZATION ( #261, #718, #52 ) ;
#465 = AXIS2_PLACEMENT_3D ( 'NONE', #375, #575, #638 ) ;
#466 = LINE ( 'NONE', #307, #660 ) ;
#467 = CARTESIAN_POINT ( 'NONE',  ( -2.399999999999999911, -3.500000000000000444, 3.000000000000000000 ) ) ;
#468 = LINE ( 'NONE', #641, #40 ) ;
#469 = CARTESIAN_POINT ( 'NONE',  ( 6.000000000000000000, 2.499999999999999556, 3.000000000000000000 ) ) ;
#470 = EDGE_CURVE ( 'NONE', #108, #492, #348, .T. ) ;
#471 =( LENGTH_UNIT ( ) NAMED_UNIT ( * ) SI_UNIT ( .MILLI., .METRE. ) );
#472 = DIRECTION ( 'NONE',  ( 0.000000000000000000, 0.000000000000000000, -1.000000000000000000 ) ) ;
#473 = CYLINDRICAL_SURFACE ( 'NONE', #361, 0.5000000000000000000 ) ;
#474 = CC_DESIGN_PERSON_AND_ORGANIZATION_ASSIGNMENT ( #326, #529, ( #68 ) ) ;
#475 = APPLICATION_PROTOCOL_DEFINITION ( 'international standard', 'config_control_design', 1994, #332 ) ;
#476 = DIRECTION ( 'NONE',  ( 1.000000000000000000, -1.772003075187620152E-16, -0.000000000000000000 ) ) ;
#477 = CARTESIAN_POINT ( 'NONE',  ( 1.530808498934191571E-16, -3.500000000000000444, -1.250000000000000000 ) ) ;
#478 = ORIENTED_EDGE ( 'NONE', *, *, #315, .T. ) ;
#479 = VERTEX_POINT ( 'NONE', #253 ) ;
#480 = EDGE_CURVE ( 'NONE', #343, #231, #468, .T. ) ;
#481 = ORIENTED_EDGE ( 'NONE', *, *, #686, .F. ) ;
#482 = DIRECTION ( 'NONE',  ( -0.000000000000000000, -0.000000000000000000, -1.000000000000000000 ) ) ;
#483 = ORIENTED_EDGE ( 'NONE', *, *, #347, .T. ) ;
#484 = ORIENTED_EDGE ( 'NONE', *, *, #250, .F. ) ;
#485 = ORIENTED_EDGE ( 'NONE', *, *, #626, .T. ) ;
#486 = PERSON_AND_ORGANIZATION ( #152, #399 ) ;
#487 = CARTESIAN_POINT ( 'NONE',  ( -2.399999999999999911, -3.500000000000000444, -2.499999999999999556 ) ) ;
#488 = VERTEX_POINT ( 'NONE', #693 ) ;
#489 = LOCAL_TIME ( 11, 8, 53.00000000000000000, #645 ) ;
#490 = CARTESIAN_POINT ( 'NONE',  ( 6.000000000000000000, -6.379211070675434126E-16, 3.000000000000000000 ) ) ;
#491 = VECTOR ( 'NONE', #522, 1000.000000000000000 ) ;
#492 = VERTEX_POINT ( 'NONE', #415 ) ;
#493 = EDGE_CURVE ( 'NONE', #230, #126, #436, .T. ) ;
#494 = DIRECTION ( 'NONE',  ( 0.000000000000000000, -1.000000000000000000, 0.000000000000000000 ) ) ;
#495 = ORIENTED_EDGE ( 'NONE', *, *, #378, .F. ) ;
#496 = ORIENTED_EDGE ( 'NONE', *, *, #556, .F. ) ;
#497 = VECTOR ( 'NONE', #79, 1000.000000000000000 ) ;
#498 = PLANE ( 'NONE',  #217 ) ;
#499 = VERTEX_POINT ( 'NONE', #477 ) ;
#500 = PRODUCT_RELATED_PRODUCT_CATEGORY ( 'detail', '', ( #568 ) ) ;
#501 = CARTESIAN_POINT ( 'NONE',  ( -1.899999999999999245, 8.860015375938101994E-17, 2.500000000000000000 ) ) ;
#502 = ORIENTED_EDGE ( 'NONE', *, *, #616, .F. ) ;
#503 = VECTOR ( 'NONE', #476, 1000.000000000000000 ) ;
#504 = ADVANCED_FACE ( 'NONE', ( #310 ), #146, .F. ) ;
#505 = DIRECTION ( 'NONE',  ( 1.000000000000000000, -1.239088197126290570E-16, 0.000000000000000000 ) ) ;
#506 = DIRECTION ( 'NONE',  ( -1.000000000000000000, -1.239088197126291310E-16, 0.000000000000000000 ) ) ;
#507 = VECTOR ( 'NONE', #351, 1000.000000000000000 ) ;
#508 = DIRECTION ( 'NONE',  ( 0.000000000000000000, 1.000000000000000000, 0.000000000000000000 ) ) ;
#509 = DIRECTION ( 'NONE',  ( -0.000000000000000000, -0.000000000000000000, -1.000000000000000000 ) ) ;
#510 = PRODUCT_DEFINITION_SHAPE ( 'NONE', 'NONE',  #243 ) ;
#511 = DIRECTION ( 'NONE',  ( -1.000000000000000000, -1.772003075187620152E-16, 0.000000000000000000 ) ) ;
#512 = EDGE_CURVE ( 'NONE', #263, #55, #698, .T. ) ;
#513 =( NAMED_UNIT ( * ) PLANE_ANGLE_UNIT ( ) SI_UNIT ( $, .RADIAN. ) );
#514 = DIRECTION ( 'NONE',  ( -1.772003075187620152E-16, 1.000000000000000000, 0.000000000000000000 ) ) ;
#515 = EDGE_CURVE ( 'NONE', #488, #346, #211, .T. ) ;
#516 = CARTESIAN_POINT ( 'NONE',  ( -1.899999999999999689, -3.500000000000000444, 3.000000000000000000 ) ) ;
#517 = CARTESIAN_POINT ( 'NONE',  ( -6.000000000000000000, 2.499999999999999556, 3.000000000000000000 ) ) ;
#518 = DIRECTION ( 'NONE',  ( -1.000000000000000000, -1.772003075187617934E-16, 0.000000000000000000 ) ) ;
#519 = ADVANCED_FACE ( 'NONE', ( #646 ), #704, .F. ) ;
#520 = VECTOR ( 'NONE', #359, 1000.000000000000000 ) ;
#521 = DIRECTION ( 'NONE',  ( -1.000000000000000000, -1.772003075187620152E-16, 0.000000000000000000 ) ) ;
#522 = DIRECTION ( 'NONE',  ( 1.000000000000000000, 9.035018104045870694E-17, 0.000000000000000000 ) ) ;
#523 = CARTESIAN_POINT ( 'NONE',  ( -6.000000000000000000, -6.379211070675434126E-16, 3.000000000000000000 ) ) ;
#524 = DIRECTION ( 'NONE',  ( 0.000000000000000000, 0.000000000000000000, -1.000000000000000000 ) ) ;
#525 = CC_DESIGN_PERSON_AND_ORGANIZATION_ASSIGNMENT ( #42, #664, ( #85 ) ) ;
#526 = CARTESIAN_POINT ( 'NONE',  ( 5.500000000000000000, -5.493209533081623064E-16, 2.500000000000000000 ) ) ;
#527 = AXIS2_PLACEMENT_3D ( 'NONE', #229, #278, #226 ) ;
#528 = PLANE ( 'NONE',  #709 ) ;
#529 = PERSON_AND_ORGANIZATION_ROLE ( 'design_supplier' ) ;
#530 = DIRECTION ( 'NONE',  ( -1.000000000000000000, -1.239088197126290817E-16, 0.000000000000000000 ) ) ;
#531 = EDGE_LOOP ( 'NONE', ( #552, #391, #717, #433 ) ) ;
#532 = CARTESIAN_POINT ( 'NONE',  ( 0.000000000000000000, 0.000000000000000000, 0.000000000000000000 ) ) ;
#533 = DIRECTION ( 'NONE',  ( 1.772003075187620152E-16, -1.000000000000000000, -0.000000000000000000 ) ) ;
#534 = EDGE_LOOP ( 'NONE', ( #483, #666, #681, #271 ) ) ;
#535 = CARTESIAN_POINT ( 'NONE',  ( 0.000000000000000000, -3.500000000000000444, 1.250000000000000000 ) ) ;
#536 = COORDINATED_UNIVERSAL_TIME_OFFSET ( 1, 0, .AHEAD. ) ;
#537 = DIRECTION ( 'NONE',  ( 0.000000000000000000, -1.000000000000000000, -0.000000000000000000 ) ) ;
#538 = ORIENTED_EDGE ( 'NONE', *, *, #545, .F. ) ;
#539 = AXIS2_PLACEMENT_3D ( 'NONE', #17, #72, #138 ) ;
#540 = ORIENTED_EDGE ( 'NONE', *, *, #34, .T. ) ;
#541 = ORIENTED_EDGE ( 'NONE', *, *, #392, .T. ) ;
#542 = MECHANICAL_CONTEXT ( 'NONE', #332, 'mechanical' ) ;
#543 = LINE ( 'NONE', #490, #404 ) ;
#544 = ORIENTED_EDGE ( 'NONE', *, *, #276, .T. ) ;
#545 = EDGE_CURVE ( 'NONE', #320, #618, #574, .T. ) ;
#546 = CARTESIAN_POINT ( 'NONE',  ( -2.399999999999999911, -3.500000000000000444, 3.000000000000000000 ) ) ;
#547 = AXIS2_PLACEMENT_3D ( 'NONE', #634, #160, #317 ) ;
#548 = EDGE_LOOP ( 'NONE', ( #710, #601, #339, #123 ) ) ;
#549 = DIRECTION ( 'NONE',  ( 0.000000000000000000, 0.000000000000000000, 1.000000000000000000 ) ) ;
#550 = EDGE_CURVE ( 'NONE', #320, #175, #89, .T. ) ;
#551 = ORIENTED_EDGE ( 'NONE', *, *, #78, .F. ) ;
#552 = ORIENTED_EDGE ( 'NONE', *, *, #350, .T. ) ;
#553 = AXIS2_PLACEMENT_3D ( 'NONE', #613, #446, #668 ) ;
#554 = LINE ( 'NONE', #721, #132 ) ;
#555 = ORIENTED_EDGE ( 'NONE', *, *, #679, .F. ) ;
#556 = EDGE_CURVE ( 'NONE', #55, #325, #640, .T. ) ;
#557 = CARTESIAN_POINT ( 'NONE',  ( 0.000000000000000000, -3.500000000000000444, 1.250000000000000000 ) ) ;
#558 = ORIENTED_EDGE ( 'NONE', *, *, #341, .T. ) ;
#559 = AXIS2_PLACEMENT_3D ( 'NONE', #523, #583, #472 ) ;
#560 = LINE ( 'NONE', #240, #562 ) ;
#561 = ORIENTED_EDGE ( 'NONE', *, *, #512, .T. ) ;
#562 = VECTOR ( 'NONE', #20, 1000.000000000000000 ) ;
#563 = CARTESIAN_POINT ( 'NONE',  ( -5.500000000000000000, 2.499999999999999556, -3.000000000000000000 ) ) ;
#564 = EDGE_LOOP ( 'NONE', ( #97, #663, #614, #331 ) ) ;
#565 = CC_DESIGN_PERSON_AND_ORGANIZATION_ASSIGNMENT ( #486, #699, ( #243 ) ) ;
#566 = CARTESIAN_POINT ( 'NONE',  ( -5.500000000000000000, 2.499999999999999556, 3.000000000000000000 ) ) ;
#567 = DIRECTION ( 'NONE',  ( 1.000000000000000000, -1.772003075187620152E-16, -0.000000000000000000 ) ) ;
#568 = PRODUCT ( 'piece_serrage_rails_mobiles', 'piece_serrage_rails_mobiles', '', ( #542 ) ) ;
#569 = PLANE ( 'NONE',  #133 ) ;
#570 = FACE_OUTER_BOUND ( 'NONE', #548, .T. ) ;
#571 = CARTESIAN_POINT ( 'NONE',  ( -1.899999999999999023, 8.860015375938106925E-17, 3.000000000000000000 ) ) ;
#572 = UNCERTAINTY_MEASURE_WITH_UNIT (LENGTH_MEASURE( 1.000000000000000082E-05 ), #471, 'distance_accuracy_value', 'NONE');
#573 = AXIS2_PLACEMENT_3D ( 'NONE', #295, #452, #623 ) ;
#574 = LINE ( 'NONE', #467, #280 ) ;
#575 = DIRECTION ( 'NONE',  ( 0.000000000000000000, 1.000000000000000000, 0.000000000000000000 ) ) ;
#576 = ADVANCED_FACE ( 'NONE', ( #683 ), #637, .F. ) ;
#577 = FACE_OUTER_BOUND ( 'NONE', #45, .T. ) ;
#578 = LINE ( 'NONE', #87, #701 ) ;
#579 = PLANE ( 'NONE',  #224 ) ;
#580 = CC_DESIGN_SECURITY_CLASSIFICATION ( #85, ( #68 ) ) ;
#581 = AXIS2_PLACEMENT_3D ( 'NONE', #135, #91, #304 ) ;
#582 = DIRECTION ( 'NONE',  ( -1.239088197126290570E-16, -1.000000000000000000, 0.000000000000000000 ) ) ;
#583 = DIRECTION ( 'NONE',  ( 1.000000000000000000, 0.000000000000000000, 0.000000000000000000 ) ) ;
#584 = FACE_OUTER_BOUND ( 'NONE', #722, .T. ) ;
#585 = ORIENTED_EDGE ( 'NONE', *, *, #157, .F. ) ;
#586 = APPROVAL_STATUS ( 'not_yet_approved' ) ;
#587 = DIRECTION ( 'NONE',  ( -0.000000000000000000, 1.000000000000000000, -0.000000000000000000 ) ) ;
#588 = AXIS2_PLACEMENT_3D ( 'NONE', #297, #505, #9 ) ;
#589 = EDGE_LOOP ( 'NONE', ( #170, #608, #551, #705, #652, #540, #59, #425 ) ) ;
#590 = CIRCLE ( 'NONE', #206, 0.5000000000000000000 ) ;
#591 = CARTESIAN_POINT ( 'NONE',  ( 0.000000000000000000, 0.000000000000000000, -3.000000000000000000 ) ) ;
#592 = EDGE_CURVE ( 'NONE', #93, #161, #246, .T. ) ;
#593 = APPROVAL_STATUS ( 'not_yet_approved' ) ;
#594 = LINE ( 'NONE', #412, #29 ) ;
#595 = ORIENTED_EDGE ( 'NONE', *, *, #157, .T. ) ;
#596 = EDGE_LOOP ( 'NONE', ( #324, #585, #711, #502 ) ) ;
#597 = CIRCLE ( 'NONE', #130, 1.250000000000000000 ) ;
#598 = PERSON_AND_ORGANIZATION ( #152, #399 ) ;
#599 = CARTESIAN_POINT ( 'NONE',  ( 0.000000000000000000, -3.500000000000000444, 0.000000000000000000 ) ) ;
#600 = ORIENTED_EDGE ( 'NONE', *, *, #329, .F. ) ;
#601 = ORIENTED_EDGE ( 'NONE', *, *, #181, .F. ) ;
#602 = FACE_OUTER_BOUND ( 'NONE', #424, .T. ) ;
#603 = EDGE_CURVE ( 'NONE', #93, #283, #140, .T. ) ;
#604 = AXIS2_PLACEMENT_3D ( 'NONE', #165, #121, #1 ) ;
#605 = ORIENTED_EDGE ( 'NONE', *, *, #712, .T. ) ;
#606 = DATE_AND_TIME ( #98, #622 ) ;
#607 = DIRECTION ( 'NONE',  ( -1.239088197126290817E-16, 1.000000000000000000, 0.000000000000000000 ) ) ;
#608 = ORIENTED_EDGE ( 'NONE', *, *, #470, .T. ) ;
#609 = ORIENTED_EDGE ( 'NONE', *, *, #301, .F. ) ;
#610 = CC_DESIGN_DATE_AND_TIME_ASSIGNMENT ( #606, #384, ( #243 ) ) ;
#611 = LOCAL_TIME ( 11, 8, 53.00000000000000000, #213 ) ;
#612 = EDGE_CURVE ( 'NONE', #499, #289, #597, .T. ) ;
#613 = CARTESIAN_POINT ( 'NONE',  ( -1.899999999999999689, -3.500000000000000444, -2.499999999999999556 ) ) ;
#614 = ORIENTED_EDGE ( 'NONE', *, *, #127, .F. ) ;
#615 = ORIENTED_EDGE ( 'NONE', *, *, #122, .F. ) ;
#616 = EDGE_CURVE ( 'NONE', #492, #706, #688, .T. ) ;
#617 = DIRECTION ( 'NONE',  ( -1.000000000000000000, 0.000000000000000000, -0.000000000000000000 ) ) ;
#618 = VERTEX_POINT ( 'NONE', #255 ) ;
#619 = AXIS2_PLACEMENT_3D ( 'NONE', #57, #389, #281 ) ;
#620 = CARTESIAN_POINT ( 'NONE',  ( 5.500000000000000000, 2.499999999999999556, 3.000000000000000000 ) ) ;
#621 = VERTEX_POINT ( 'NONE', #366 ) ;
#622 = LOCAL_TIME ( 11, 8, 53.00000000000000000, #536 ) ;
#623 = DIRECTION ( 'NONE',  ( 0.000000000000000000, 0.000000000000000000, -1.000000000000000000 ) ) ;
#624 = CARTESIAN_POINT ( 'NONE',  ( -2.399999999999999467, -2.407412430484044816E-32, 2.500000000000000000 ) ) ;
#625 = ORIENTED_EDGE ( 'NONE', *, *, #661, .F. ) ;
#626 = EDGE_CURVE ( 'NONE', #62, #282, #459, .T. ) ;
#627 = CIRCLE ( 'NONE', #619, 0.5000000000000000000 ) ;
#628 = DIRECTION ( 'NONE',  ( 1.772003075187620152E-16, 1.000000000000000000, -0.000000000000000000 ) ) ;
#629 = DIRECTION ( 'NONE',  ( -1.239088197126290570E-16, -1.000000000000000000, 0.000000000000000000 ) ) ;
#630 = DIRECTION ( 'NONE',  ( 0.000000000000000000, 0.000000000000000000, 1.000000000000000000 ) ) ;
#631 = LINE ( 'NONE', #299, #5 ) ;
#632 = EDGE_CURVE ( 'NONE', #177, #126, #308, .T. ) ;
#633 = CARTESIAN_POINT ( 'NONE',  ( 6.000000000000000000, 2.499999999999999556, -2.499999999999999556 ) ) ;
#634 = CARTESIAN_POINT ( 'NONE',  ( -1.899999999999999245, 8.860015375938101994E-17, -2.499999999999999556 ) ) ;
#635 = CARTESIAN_POINT ( 'NONE',  ( 2.399999999999999467, -4.814824860968089633E-32, 2.500000000000000000 ) ) ;
#636 = VECTOR ( 'NONE', #134, 1000.000000000000000 ) ;
#637 = PLANE ( 'NONE',  #104 ) ;
#638 = DIRECTION ( 'NONE',  ( 0.000000000000000000, 0.000000000000000000, 1.000000000000000000 ) ) ;
#639 = APPLICATION_CONTEXT ( 'configuration controlled 3d designs of mechanical parts and assemblies' ) ;
#640 = LINE ( 'NONE', #462, #644 ) ;
#641 = CARTESIAN_POINT ( 'NONE',  ( 2.399999999999999467, -4.814824860968089633E-32, 3.000000000000000000 ) ) ;
#642 = ORIENTED_EDGE ( 'NONE', *, *, #44, .F. ) ;
#643 = CARTESIAN_POINT ( 'NONE',  ( 5.500000000000000000, -6.379211070675434126E-16, -2.499999999999999556 ) ) ;
#644 = VECTOR ( 'NONE', #148, 1000.000000000000000 ) ;
#645 = COORDINATED_UNIVERSAL_TIME_OFFSET ( 1, 0, .AHEAD. ) ;
#646 = FACE_OUTER_BOUND ( 'NONE', #432, .T. ) ;
#647 = EDGE_CURVE ( 'NONE', #289, #499, #56, .T. ) ;
#648 = DIRECTION ( 'NONE',  ( 0.000000000000000000, 0.000000000000000000, -1.000000000000000000 ) ) ;
#649 = LINE ( 'NONE', #535, #426 ) ;
#650 = CALENDAR_DATE ( 2025, 3, 6 ) ;
#651 = DIRECTION ( 'NONE',  ( -1.000000000000000000, 1.239088197126290817E-16, 0.000000000000000000 ) ) ;
#652 = ORIENTED_EDGE ( 'NONE', *, *, #632, .F. ) ;
#653 = ORIENTED_EDGE ( 'NONE', *, *, #355, .F. ) ;
#654 = ORIENTED_EDGE ( 'NONE', *, *, #355, .T. ) ;
#655 = ADVANCED_FACE ( 'NONE', ( #570 ), #19, .T. ) ;
#656 = APPROVAL_ROLE ( '' ) ;
#657 = LINE ( 'NONE', #107, #3 ) ;
#658 = EDGE_LOOP ( 'NONE', ( #237, #7, #484, #481 ) ) ;
#659 = ORIENTED_EDGE ( 'NONE', *, *, #603, .T. ) ;
#660 = VECTOR ( 'NONE', #30, 1000.000000000000000 ) ;
#661 = EDGE_CURVE ( 'NONE', #166, #621, #300, .T. ) ;
#662 = CARTESIAN_POINT ( 'NONE',  ( -5.500000000000000000, -5.493209533081623064E-16, 3.000000000000000000 ) ) ;
#663 = ORIENTED_EDGE ( 'NONE', *, *, #603, .F. ) ;
#664 = PERSON_AND_ORGANIZATION_ROLE ( 'classification_officer' ) ;
#665 = PLANE ( 'NONE',  #340 ) ;
#666 = ORIENTED_EDGE ( 'NONE', *, *, #60, .T. ) ;
#667 = ORIENTED_EDGE ( 'NONE', *, *, #80, .T. ) ;
#668 = DIRECTION ( 'NONE',  ( -1.000000000000000000, 0.000000000000000000, 0.000000000000000000 ) ) ;
#669 = ORIENTED_EDGE ( 'NONE', *, *, #8, .F. ) ;
#670 = ORIENTED_EDGE ( 'NONE', *, *, #78, .T. ) ;
#671 = CARTESIAN_POINT ( 'NONE',  ( -5.500000000000000000, -6.379211070675434126E-16, -2.499999999999999556 ) ) ;
#672 = VECTOR ( 'NONE', #422, 1000.000000000000000 ) ;
#673 = ORIENTED_EDGE ( 'NONE', *, *, #127, .T. ) ;
#674 = CARTESIAN_POINT ( 'NONE',  ( 5.500000000000000000, 2.499999999999999556, 2.500000000000000000 ) ) ;
#675 = ORIENTED_EDGE ( 'NONE', *, *, #341, .F. ) ;
#676 = FACE_OUTER_BOUND ( 'NONE', #387, .T. ) ;
#677 = CC_DESIGN_APPROVAL ( #718, ( #68 ) ) ;
#678 = LINE ( 'NONE', #455, #636 ) ;
#679 = EDGE_CURVE ( 'NONE', #227, #263, #31, .T. ) ;
#680 = VECTOR ( 'NONE', #567, 1000.000000000000000 ) ;
#681 = ORIENTED_EDGE ( 'NONE', *, *, #480, .F. ) ;
#682 = LINE ( 'NONE', #131, #507 ) ;
#683 = FACE_OUTER_BOUND ( 'NONE', #589, .T. ) ;
#684 = CARTESIAN_POINT ( 'NONE',  ( 1.899999999999999245, 2.354267574539951640E-16, 2.500000000000000000 ) ) ;
#685 = CARTESIAN_POINT ( 'NONE',  ( 0.000000000000000000, -3.500000000000000444, 0.000000000000000000 ) ) ;
#686 = EDGE_CURVE ( 'NONE', #126, #227, #456, .T. ) ;
#687 = FACE_OUTER_BOUND ( 'NONE', #270, .T. ) ;
#688 = LINE ( 'NONE', #633, #520 ) ;
#689 = CARTESIAN_POINT ( 'NONE',  ( -5.500000000000000000, -5.493209533081623064E-16, -2.499999999999999556 ) ) ;
#690 = CIRCLE ( 'NONE', #465, 1.250000000000000000 ) ;
#691 = DIRECTION ( 'NONE',  ( -0.000000000000000000, -0.000000000000000000, -1.000000000000000000 ) ) ;
#692 = DIRECTION ( 'NONE',  ( 0.000000000000000000, 1.000000000000000000, 0.000000000000000000 ) ) ;
#693 = CARTESIAN_POINT ( 'NONE',  ( -6.000000000000000000, -6.379211070675434126E-16, 2.500000000000000000 ) ) ;
#694 = DIRECTION ( 'NONE',  ( 0.000000000000000000, -1.000000000000000000, 0.000000000000000000 ) ) ;
#695 = CARTESIAN_POINT ( 'NONE',  ( -2.399999999999999911, -3.500000000000000444, 3.000000000000000000 ) ) ;
#696 = AXIS2_PLACEMENT_3D ( 'NONE', #16, #508, #630 ) ;
#697 = CARTESIAN_POINT ( 'NONE',  ( 6.000000000000000000, -6.379211070675434126E-16, 3.000000000000000000 ) ) ;
#698 = LINE ( 'NONE', #35, #265 ) ;
#699 = PERSON_AND_ORGANIZATION_ROLE ( 'creator' ) ;
#700 = DIRECTION ( 'NONE',  ( -0.000000000000000000, 1.000000000000000000, -0.000000000000000000 ) ) ;
#701 = VECTOR ( 'NONE', #629, 1000.000000000000000 ) ;
#702 = APPROVAL ( #593, 'UNSPECIFIED' ) ;
#703 = APPROVAL_STATUS ( 'not_yet_approved' ) ;
#704 = CYLINDRICAL_SURFACE ( 'NONE', #367, 1.250000000000000000 ) ;
#705 = ORIENTED_EDGE ( 'NONE', *, *, #493, .T. ) ;
#706 = VERTEX_POINT ( 'NONE', #414 ) ;
#707 = ORIENTED_EDGE ( 'NONE', *, *, #216, .T. ) ;
#708 = DIRECTION ( 'NONE',  ( -0.000000000000000000, 1.000000000000000000, -0.000000000000000000 ) ) ;
#709 = AXIS2_PLACEMENT_3D ( 'NONE', #591, #524, #33 ) ;
#710 = ORIENTED_EDGE ( 'NONE', *, *, #178, .F. ) ;
#711 = ORIENTED_EDGE ( 'NONE', *, *, #450, .F. ) ;
#712 = EDGE_CURVE ( 'NONE', #325, #320, #578, .T. ) ;
#713 = DIRECTION ( 'NONE',  ( -0.000000000000000000, 1.000000000000000000, -0.000000000000000000 ) ) ;
#714 = DATE_TIME_ROLE ( 'classification_date' ) ;
#715 = CARTESIAN_POINT ( 'NONE',  ( -6.000000000000000000, 2.499999999999999556, 2.500000000000000000 ) ) ;
#716 = ORIENTED_EDGE ( 'NONE', *, *, #276, .F. ) ;
#717 = ORIENTED_EDGE ( 'NONE', *, *, #99, .F. ) ;
#718 = APPROVAL ( #703, 'UNSPECIFIED' ) ;
#719 = CIRCLE ( 'NONE', #199, 0.5000000000000000000 ) ;
#720 = PERSON_AND_ORGANIZATION_ROLE ( 'design_owner' ) ;
#721 = CARTESIAN_POINT ( 'NONE',  ( 1.899999999999999245, 2.354267574539951640E-16, 3.000000000000000000 ) ) ;
#722 = EDGE_LOOP ( 'NONE', ( #120, #544, #113, #659, #495, #485, #653, #595 ) ) ;
#723 = ORIENTED_EDGE ( 'NONE', *, *, #294, .T. ) ;
ENDSEC;
END-ISO-10303-21;
