ISO-10303-21;
HEADER;
FILE_DESCRIPTION (( 'STEP AP203' ),
    '1' );
FILE_NAME ('piece_serrage_patte_rail_mobile.STEP',
    '2025-06-03T09:10:26',
    ( '' ),
    ( '' ),
    'SwSTEP 2.0',
    'SolidWorks 2023',
    '' );
FILE_SCHEMA (( 'CONFIG_CONTROL_DESIGN' ));
ENDSEC;

DATA;
#1 = CARTESIAN_POINT ( 'NONE',  ( 5.500000000000000000, -6.379211070675434126E-16, -3.000000000000000000 ) ) ;
#2 = CIRCLE ( 'NONE', #534, 1.250000000000000000 ) ;
#3 = DIRECTION ( 'NONE',  ( -1.000000000000000000, 1.772003075187619413E-16, 0.000000000000000000 ) ) ;
#4 = DIRECTION ( 'NONE',  ( 1.000000000000000000, -1.807003620809174139E-16, 0.000000000000000000 ) ) ;
#5 = CARTESIAN_POINT ( 'NONE',  ( 6.000000000000000000, -6.379211070675434126E-16, 2.500000000000000000 ) ) ;
#6 = DIRECTION ( 'NONE',  ( 1.772003075187619659E-16, 1.000000000000000000, -0.000000000000000000 ) ) ;
#7 = ADVANCED_FACE ( 'NONE', ( #650 ), #263, .T. ) ;
#8 = DIRECTION ( 'NONE',  ( -0.000000000000000000, 1.000000000000000000, -0.000000000000000000 ) ) ;
#9 = PERSON_AND_ORGANIZATION ( #464, #575 ) ;
#10 = CYLINDRICAL_SURFACE ( 'NONE', #698, 0.5000000000000000000 ) ;
#11 = DIRECTION ( 'NONE',  ( -1.000000000000000000, -2.168404344971008868E-16, 0.000000000000000000 ) ) ;
#12 = CIRCLE ( 'NONE', #200, 0.5000000000000004441 ) ;
#13 = EDGE_CURVE ( 'NONE', #208, #196, #514, .T. ) ;
#14 = DIRECTION ( 'NONE',  ( 0.000000000000000000, -0.000000000000000000, -1.000000000000000000 ) ) ;
#15 = DATE_TIME_ROLE ( 'creation_date' ) ;
#16 = ADVANCED_FACE ( 'NONE', ( #40 ), #375, .F. ) ;
#17 = CARTESIAN_POINT ( 'NONE',  ( -1.899999999999999245, 8.860015375938101994E-17, 2.500000000000000000 ) ) ;
#18 = APPROVAL_DATE_TIME ( #67, #476 ) ;
#19 = ORIENTED_EDGE ( 'NONE', *, *, #330, .F. ) ;
#20 = APPLICATION_CONTEXT ( 'configuration controlled 3d designs of mechanical parts and assemblies' ) ;
#21 = VECTOR ( 'NONE', #203, 1000.000000000000000 ) ;
#22 = ORIENTED_EDGE ( 'NONE', *, *, #705, .T. ) ;
#23 = VECTOR ( 'NONE', #332, 1000.000000000000000 ) ;
#24 = CARTESIAN_POINT ( 'NONE',  ( 2.399999999999999467, -1.444447458290426890E-31, 3.000000000000000000 ) ) ;
#25 = ORIENTED_EDGE ( 'NONE', *, *, #587, .T. ) ;
#26 = LINE ( 'NONE', #350, #658 ) ;
#27 = DESIGN_CONTEXT ( 'detailed design', #558, 'design' ) ;
#28 = VERTEX_POINT ( 'NONE', #445 ) ;
#29 = DIRECTION ( 'NONE',  ( -0.000000000000000000, -0.000000000000000000, -1.000000000000000000 ) ) ;
#30 = VERTEX_POINT ( 'NONE', #290 ) ;
#31 = ORIENTED_EDGE ( 'NONE', *, *, #160, .F. ) ;
#32 = APPROVAL_PERSON_ORGANIZATION ( #518, #476, #346 ) ;
#33 = VECTOR ( 'NONE', #221, 1000.000000000000000 ) ;
#34 = CARTESIAN_POINT ( 'NONE',  ( -2.399999999999999911, -1.999999999999999556, -3.000000000000000000 ) ) ;
#35 = EDGE_CURVE ( 'NONE', #145, #648, #259, .T. ) ;
#36 = ORIENTED_EDGE ( 'NONE', *, *, #472, .F. ) ;
#37 = MANIFOLD_SOLID_BREP ( 'Congé1', #712 ) ;
#38 = ORIENTED_EDGE ( 'NONE', *, *, #199, .F. ) ;
#39 = CARTESIAN_POINT ( 'NONE',  ( 1.899999999999999245, 8.860015375938058854E-17, -3.000000000000000000 ) ) ;
#40 = FACE_OUTER_BOUND ( 'NONE', #227, .T. ) ;
#41 = ORIENTED_EDGE ( 'NONE', *, *, #665, .T. ) ;
#42 = FACE_OUTER_BOUND ( 'NONE', #210, .T. ) ;
#43 = ORIENTED_EDGE ( 'NONE', *, *, #95, .T. ) ;
#44 = PLANE ( 'NONE',  #548 ) ;
#45 = LINE ( 'NONE', #649, #576 ) ;
#46 = AXIS2_PLACEMENT_3D ( 'NONE', #412, #646, #364 ) ;
#47 = VECTOR ( 'NONE', #544, 1000.000000000000000 ) ;
#48 = CIRCLE ( 'NONE', #455, 1.250000000000000000 ) ;
#49 = VERTEX_POINT ( 'NONE', #288 ) ;
#50 = DIRECTION ( 'NONE',  ( 2.168404344971009361E-16, 1.000000000000000000, 0.000000000000000000 ) ) ;
#51 = ADVANCED_FACE ( 'NONE', ( #559 ), #292, .F. ) ;
#52 = CARTESIAN_POINT ( 'NONE',  ( -6.000000000000000000, -6.379211070675434126E-16, 2.500000000000000000 ) ) ;
#53 = EDGE_CURVE ( 'NONE', #648, #333, #456, .T. ) ;
#54 = DIRECTION ( 'NONE',  ( -0.000000000000000000, 1.000000000000000000, -0.000000000000000000 ) ) ;
#55 = ORIENTED_EDGE ( 'NONE', *, *, #235, .T. ) ;
#56 = CARTESIAN_POINT ( 'NONE',  ( -2.399999999999999911, -1.999999999999999556, 3.000000000000000000 ) ) ;
#57 = CARTESIAN_POINT ( 'NONE',  ( 5.500000000000000000, 0.000000000000000000, 3.000000000000000000 ) ) ;
#58 = CARTESIAN_POINT ( 'NONE',  ( 2.399999999999999911, -2.000000000000000444, 3.000000000000000000 ) ) ;
#59 = ORIENTED_EDGE ( 'NONE', *, *, #687, .F. ) ;
#60 = LINE ( 'NONE', #668, #47 ) ;
#61 = VECTOR ( 'NONE', #228, 1000.000000000000000 ) ;
#62 = LINE ( 'NONE', #226, #23 ) ;
#63 = CARTESIAN_POINT ( 'NONE',  ( 1.899999999999999245, -1.084202172485505667E-16, -2.499999999999999556 ) ) ;
#64 = APPROVAL_DATE_TIME ( #75, #271 ) ;
#65 = CARTESIAN_POINT ( 'NONE',  ( -6.000000000000000000, 2.499999999999999556, 2.500000000000000000 ) ) ;
#66 = LINE ( 'NONE', #169, #429 ) ;
#67 = DATE_AND_TIME ( #571, #130 ) ;
#68 = EDGE_CURVE ( 'NONE', #333, #28, #123, .T. ) ;
#69 = FACE_BOUND ( 'NONE', #663, .T. ) ;
#70 = CIRCLE ( 'NONE', #201, 0.5000000000000004441 ) ;
#71 = COORDINATED_UNIVERSAL_TIME_OFFSET ( 1, 0, .AHEAD. ) ;
#72 = AXIS2_PLACEMENT_3D ( 'NONE', #405, #637, #490 ) ;
#73 = ADVANCED_FACE ( 'NONE', ( #680 ), #685, .T. ) ;
#74 = FACE_BOUND ( 'NONE', #542, .T. ) ;
#75 = DATE_AND_TIME ( #241, #248 ) ;
#76 = FACE_OUTER_BOUND ( 'NONE', #468, .T. ) ;
#77 = SECURITY_CLASSIFICATION_LEVEL ( 'unclassified' ) ;
#78 = PLANE ( 'NONE',  #362 ) ;
#79 = EDGE_CURVE ( 'NONE', #152, #89, #12, .T. ) ;
#80 = AXIS2_PLACEMENT_3D ( 'NONE', #655, #483, #533 ) ;
#81 = ORIENTED_EDGE ( 'NONE', *, *, #134, .T. ) ;
#82 = AXIS2_PLACEMENT_3D ( 'NONE', #694, #254, #515 ) ;
#83 = DIRECTION ( 'NONE',  ( -1.772003075187619659E-16, -1.000000000000000000, 0.000000000000000000 ) ) ;
#84 = VERTEX_POINT ( 'NONE', #609 ) ;
#85 = CYLINDRICAL_SURFACE ( 'NONE', #324, 0.5000000000000000000 ) ;
#86 = ORIENTED_EDGE ( 'NONE', *, *, #124, .F. ) ;
#87 = CARTESIAN_POINT ( 'NONE',  ( 2.399999999999999911, -2.000000000000000444, 2.500000000000000000 ) ) ;
#88 = ORIENTED_EDGE ( 'NONE', *, *, #687, .T. ) ;
#89 = VERTEX_POINT ( 'NONE', #107 ) ;
#90 = VECTOR ( 'NONE', #677, 1000.000000000000000 ) ;
#91 = CARTESIAN_POINT ( 'NONE',  ( -5.500000000000000000, 2.499999999999999556, -3.000000000000000000 ) ) ;
#92 = DIRECTION ( 'NONE',  ( 0.000000000000000000, 0.000000000000000000, 1.000000000000000000 ) ) ;
#93 = ORIENTED_EDGE ( 'NONE', *, *, #624, .T. ) ;
#94 = FACE_OUTER_BOUND ( 'NONE', #540, .T. ) ;
#95 = EDGE_CURVE ( 'NONE', #382, #423, #415, .T. ) ;
#96 = VERTEX_POINT ( 'NONE', #119 ) ;
#97 = ORIENTED_EDGE ( 'NONE', *, *, #101, .T. ) ;
#98 = FACE_OUTER_BOUND ( 'NONE', #205, .T. ) ;
#99 = DIRECTION ( 'NONE',  ( 0.000000000000000000, 0.000000000000000000, 1.000000000000000000 ) ) ;
#100 = EDGE_LOOP ( 'NONE', ( #193, #86, #666, #594 ) ) ;
#101 = EDGE_CURVE ( 'NONE', #492, #423, #553, .T. ) ;
#102 = ORIENTED_EDGE ( 'NONE', *, *, #361, .T. ) ;
#103 = LINE ( 'NONE', #56, #500 ) ;
#104 = CARTESIAN_POINT ( 'NONE',  ( -5.500000000000000000, 0.000000000000000000, 2.500000000000000000 ) ) ;
#105 = CIRCLE ( 'NONE', #628, 1.250000000000000000 ) ;
#106 = AXIS2_PLACEMENT_3D ( 'NONE', #277, #675, #439 ) ;
#107 = CARTESIAN_POINT ( 'NONE',  ( 6.000000000000000000, -6.379211070675434126E-16, -2.499999999999999556 ) ) ;
#108 = VECTOR ( 'NONE', #625, 1000.000000000000000 ) ;
#109 = ORIENTED_EDGE ( 'NONE', *, *, #557, .F. ) ;
#110 = DIRECTION ( 'NONE',  ( 2.168404344971008375E-16, -1.000000000000000000, 0.000000000000000000 ) ) ;
#111 = DIRECTION ( 'NONE',  ( 0.000000000000000000, 1.000000000000000000, 0.000000000000000000 ) ) ;
#112 = ORIENTED_EDGE ( 'NONE', *, *, #257, .F. ) ;
#113 = APPLICATION_PROTOCOL_DEFINITION ( 'international standard', 'config_control_design', 1994, #20 ) ;
#114 = LINE ( 'NONE', #331, #414 ) ;
#115 = EDGE_CURVE ( 'NONE', #145, #643, #393, .T. ) ;
#116 = CARTESIAN_POINT ( 'NONE',  ( 5.500000000000000000, -5.493209533081623064E-16, -3.000000000000000000 ) ) ;
#117 = PLANE ( 'NONE',  #260 ) ;
#118 = CIRCLE ( 'NONE', #153, 0.5000000000000000000 ) ;
#119 = CARTESIAN_POINT ( 'NONE',  ( -1.899999999999999689, -1.999999999999999556, -3.000000000000000000 ) ) ;
#120 = CIRCLE ( 'NONE', #217, 0.5000000000000004441 ) ;
#121 = PERSON_AND_ORGANIZATION ( #464, #575 ) ;
#122 = DIRECTION ( 'NONE',  ( -1.000000000000000000, 0.000000000000000000, 0.000000000000000000 ) ) ;
#123 = LINE ( 'NONE', #58, #670 ) ;
#124 = EDGE_CURVE ( 'NONE', #547, #492, #340, .T. ) ;
#125 = PERSON_AND_ORGANIZATION_ROLE ( 'classification_officer' ) ;
#126 = PLANE ( 'NONE',  #294 ) ;
#127 = EDGE_CURVE ( 'NONE', #379, #30, #62, .T. ) ;
#128 = MECHANICAL_CONTEXT ( 'NONE', #20, 'mechanical' ) ;
#129 = CARTESIAN_POINT ( 'NONE',  ( -1.899999999999999245, -1.084202172485505420E-16, -3.000000000000000000 ) ) ;
#130 = LOCAL_TIME ( 11, 10, 26.00000000000000000, #406 ) ;
#131 = DATE_TIME_ROLE ( 'classification_date' ) ;
#132 = CARTESIAN_POINT ( 'NONE',  ( -6.000000000000000000, 2.499999999999999556, 3.000000000000000000 ) ) ;
#133 = PERSON_AND_ORGANIZATION_ROLE ( 'design_supplier' ) ;
#134 = EDGE_CURVE ( 'NONE', #435, #617, #105, .T. ) ;
#135 = CARTESIAN_POINT ( 'NONE',  ( 6.000000000000000000, 2.499999999999999556, 2.500000000000000000 ) ) ;
#136 = ORIENTED_EDGE ( 'NONE', *, *, #172, .T. ) ;
#137 = DIRECTION ( 'NONE',  ( 1.772003075187619659E-16, 1.000000000000000000, -0.000000000000000000 ) ) ;
#138 = UNCERTAINTY_MEASURE_WITH_UNIT (LENGTH_MEASURE( 1.000000000000000082E-05 ), #282, 'distance_accuracy_value', 'NONE');
#139 = VECTOR ( 'NONE', #182, 1000.000000000000000 ) ;
#140 = VECTOR ( 'NONE', #566, 1000.000000000000000 ) ;
#141 = CC_DESIGN_APPROVAL ( #307, ( #656 ) ) ;
#142 = CIRCLE ( 'NONE', #700, 0.5000000000000000000 ) ;
#143 = CARTESIAN_POINT ( 'NONE',  ( -5.500000000000000000, -6.379211070675434126E-16, -2.499999999999999556 ) ) ;
#144 = EDGE_CURVE ( 'NONE', #521, #304, #398, .T. ) ;
#145 = VERTEX_POINT ( 'NONE', #437 ) ;
#146 = LINE ( 'NONE', #150, #644 ) ;
#147 = ORIENTED_EDGE ( 'NONE', *, *, #127, .T. ) ;
#148 = ORIENTED_EDGE ( 'NONE', *, *, #619, .F. ) ;
#149 = EDGE_CURVE ( 'NONE', #547, #208, #621, .T. ) ;
#150 = CARTESIAN_POINT ( 'NONE',  ( -6.000000000000000000, -6.379211070675434126E-16, -2.499999999999999556 ) ) ;
#151 = ORIENTED_EDGE ( 'NONE', *, *, #396, .T. ) ;
#152 = VERTEX_POINT ( 'NONE', #116 ) ;
#153 = AXIS2_PLACEMENT_3D ( 'NONE', #620, #335, #238 ) ;
#154 = CARTESIAN_POINT ( 'NONE',  ( 0.000000000000000000, 2.499999999999999556, 1.250000000000000000 ) ) ;
#155 = EDGE_CURVE ( 'NONE', #196, #382, #66, .T. ) ;
#156 = ORIENTED_EDGE ( 'NONE', *, *, #665, .F. ) ;
#157 = ORIENTED_EDGE ( 'NONE', *, *, #466, .T. ) ;
#158 = DIRECTION ( 'NONE',  ( -1.772003075187619906E-16, 1.000000000000000000, 0.000000000000000000 ) ) ;
#159 = DIRECTION ( 'NONE',  ( -1.807003620809173892E-16, -1.000000000000000000, 0.000000000000000000 ) ) ;
#160 = EDGE_CURVE ( 'NONE', #255, #379, #608, .T. ) ;
#161 = ORIENTED_EDGE ( 'NONE', *, *, #149, .T. ) ;
#162 = EDGE_LOOP ( 'NONE', ( #109, #147, #36, #363, #560, #368, #693, #246 ) ) ;
#163 = CYLINDRICAL_SURFACE ( 'NONE', #682, 0.5000000000000000000 ) ;
#164 = VERTEX_POINT ( 'NONE', #580 ) ;
#165 = ORIENTED_EDGE ( 'NONE', *, *, #253, .T. ) ;
#166 = DIRECTION ( 'NONE',  ( -1.000000000000000000, -0.000000000000000000, -0.000000000000000000 ) ) ;
#167 = CARTESIAN_POINT ( 'NONE',  ( -2.399999999999999467, -7.222237291452134449E-32, 2.500000000000000000 ) ) ;
#168 = AXIS2_PLACEMENT_3D ( 'NONE', #460, #192, #234 ) ;
#169 = CARTESIAN_POINT ( 'NONE',  ( -5.500000000000000000, 2.499999999999999556, -3.000000000000000000 ) ) ;
#170 = VECTOR ( 'NONE', #714, 1000.000000000000000 ) ;
#171 = ORIENTED_EDGE ( 'NONE', *, *, #419, .F. ) ;
#172 = EDGE_CURVE ( 'NONE', #381, #304, #683, .T. ) ;
#173 = CARTESIAN_POINT ( 'NONE',  ( 5.500000000000000000, 2.499999999999999556, -3.000000000000000000 ) ) ;
#174 = CARTESIAN_POINT ( 'NONE',  ( -2.399999999999999911, -1.999999999999999556, 3.000000000000000000 ) ) ;
#175 = DIRECTION ( 'NONE',  ( 1.000000000000000000, 0.000000000000000000, 0.000000000000000000 ) ) ;
#176 = CARTESIAN_POINT ( 'NONE',  ( 2.399999999999999467, -1.444447458290426890E-31, 2.500000000000000000 ) ) ;
#177 = EDGE_CURVE ( 'NONE', #648, #255, #251, .T. ) ;
#178 = FACE_OUTER_BOUND ( 'NONE', #213, .T. ) ;
#179 = CARTESIAN_POINT ( 'NONE',  ( 1.899999999999999245, 4.119968255444914877E-16, 2.500000000000000000 ) ) ;
#180 = DIRECTION ( 'NONE',  ( -1.000000000000000000, -2.168404344971008375E-16, 0.000000000000000000 ) ) ;
#181 = CIRCLE ( 'NONE', #80, 0.5000000000000000000 ) ;
#182 = DIRECTION ( 'NONE',  ( -0.000000000000000000, 1.000000000000000000, -0.000000000000000000 ) ) ;
#183 = AXIS2_PLACEMENT_3D ( 'NONE', #582, #305, #400 ) ;
#184 = CARTESIAN_POINT ( 'NONE',  ( -6.000000000000000000, 2.499999999999999556, -3.000000000000000000 ) ) ;
#185 = CC_DESIGN_PERSON_AND_ORGANIZATION_ASSIGNMENT ( #568, #125, ( #656 ) ) ;
#186 = DIRECTION ( 'NONE',  ( 0.000000000000000000, 0.000000000000000000, 1.000000000000000000 ) ) ;
#187 = CALENDAR_DATE ( 2025, 3, 6 ) ;
#188 = LINE ( 'NONE', #129, #297 ) ;
#189 = CALENDAR_DATE ( 2025, 3, 6 ) ;
#190 = DIRECTION ( 'NONE',  ( -1.000000000000000000, -1.772003075187619906E-16, 0.000000000000000000 ) ) ;
#191 = CC_DESIGN_APPROVAL ( #271, ( #565 ) ) ;
#192 = DIRECTION ( 'NONE',  ( 0.000000000000000000, 0.000000000000000000, 1.000000000000000000 ) ) ;
#193 = ORIENTED_EDGE ( 'NONE', *, *, #431, .F. ) ;
#194 = EDGE_CURVE ( 'NONE', #164, #481, #247, .T. ) ;
#195 = DIRECTION ( 'NONE',  ( -0.000000000000000000, -0.000000000000000000, -1.000000000000000000 ) ) ;
#196 = VERTEX_POINT ( 'NONE', #577 ) ;
#197 = CARTESIAN_POINT ( 'NONE',  ( 2.399999999999999467, -1.444447458290426890E-31, -2.499999999999999556 ) ) ;
#198 = ORIENTED_EDGE ( 'NONE', *, *, #403, .F. ) ;
#199 = EDGE_CURVE ( 'NONE', #590, #643, #120, .T. ) ;
#200 = AXIS2_PLACEMENT_3D ( 'NONE', #494, #507, #567 ) ;
#201 = AXIS2_PLACEMENT_3D ( 'NONE', #421, #366, #652 ) ;
#202 = ORIENTED_EDGE ( 'NONE', *, *, #115, .F. ) ;
#203 = DIRECTION ( 'NONE',  ( 1.000000000000000000, 1.772003075187619906E-16, 0.000000000000000000 ) ) ;
#204 = EDGE_CURVE ( 'NONE', #304, #84, #26, .T. ) ;
#205 = EDGE_LOOP ( 'NONE', ( #539, #470, #148, #323 ) ) ;
#206 = ORIENTED_EDGE ( 'NONE', *, *, #472, .T. ) ;
#207 = DIRECTION ( 'NONE',  ( 1.000000000000000000, -1.807003620809174139E-16, 0.000000000000000000 ) ) ;
#208 = VERTEX_POINT ( 'NONE', #692 ) ;
#209 = PRODUCT ( 'piece_serrage_patte_rail_mobile', 'piece_serrage_patte_rail_mobile', '', ( #128 ) ) ;
#210 = EDGE_LOOP ( 'NONE', ( #659, #588, #322, #583 ) ) ;
#211 = CARTESIAN_POINT ( 'NONE',  ( -6.000000000000000000, 2.499999999999999556, -2.499999999999999556 ) ) ;
#212 = VERTEX_POINT ( 'NONE', #642 ) ;
#213 = EDGE_LOOP ( 'NONE', ( #480, #702, #604, #25 ) ) ;
#214 = CARTESIAN_POINT ( 'NONE',  ( -1.899999999999999245, -1.084202172485505420E-16, -2.499999999999999556 ) ) ;
#215 = APPROVAL_PERSON_ORGANIZATION ( #351, #307, #679 ) ;
#216 = PLANE ( 'NONE',  #474 ) ;
#217 = AXIS2_PLACEMENT_3D ( 'NONE', #459, #83, #463 ) ;
#218 = ORIENTED_EDGE ( 'NONE', *, *, #245, .F. ) ;
#219 = ORIENTED_EDGE ( 'NONE', *, *, #619, .T. ) ;
#220 = CARTESIAN_POINT ( 'NONE',  ( 5.500000000000000000, 2.499999999999999556, 3.000000000000000000 ) ) ;
#221 = DIRECTION ( 'NONE',  ( -0.000000000000000000, -1.000000000000000000, -0.000000000000000000 ) ) ;
#222 = ORIENTED_EDGE ( 'NONE', *, *, #35, .T. ) ;
#223 = ORIENTED_EDGE ( 'NONE', *, *, #177, .T. ) ;
#224 = DIRECTION ( 'NONE',  ( -1.000000000000000000, 0.000000000000000000, -0.000000000000000000 ) ) ;
#225 = DIRECTION ( 'NONE',  ( -0.000000000000000000, 1.000000000000000000, -0.000000000000000000 ) ) ;
#226 = CARTESIAN_POINT ( 'NONE',  ( 1.899999999999999689, -2.000000000000000444, -3.000000000000000000 ) ) ;
#227 = EDGE_LOOP ( 'NONE', ( #491, #300, #717, #81 ) ) ;
#228 = DIRECTION ( 'NONE',  ( 0.000000000000000000, -1.000000000000000000, -0.000000000000000000 ) ) ;
#229 = LOCAL_TIME ( 11, 10, 26.00000000000000000, #516 ) ;
#230 = CARTESIAN_POINT ( 'NONE',  ( -5.500000000000000000, 2.499999999999999556, -2.499999999999999556 ) ) ;
#231 = CC_DESIGN_DATE_AND_TIME_ASSIGNMENT ( #581, #15, ( #720 ) ) ;
#232 = DIRECTION ( 'NONE',  ( 0.000000000000000000, -1.000000000000000000, 0.000000000000000000 ) ) ;
#233 = CARTESIAN_POINT ( 'NONE',  ( 6.000000000000000000, -6.379211070675434126E-16, 3.000000000000000000 ) ) ;
#234 = DIRECTION ( 'NONE',  ( 1.000000000000000000, 0.000000000000000000, 0.000000000000000000 ) ) ;
#235 = EDGE_CURVE ( 'NONE', #617, #435, #303, .T. ) ;
#236 = CARTESIAN_POINT ( 'NONE',  ( 0.000000000000000000, 2.499999999999999556, 0.000000000000000000 ) ) ;
#237 = PERSON_AND_ORGANIZATION ( #464, #575 ) ;
#238 = DIRECTION ( 'NONE',  ( -1.000000000000000000, 0.000000000000000000, 0.000000000000000000 ) ) ;
#239 = AXIS2_PLACEMENT_3D ( 'NONE', #321, #703, #661 ) ;
#240 = DIRECTION ( 'NONE',  ( 0.000000000000000000, 0.000000000000000000, -1.000000000000000000 ) ) ;
#241 = CALENDAR_DATE ( 2025, 3, 6 ) ;
#242 = CARTESIAN_POINT ( 'NONE',  ( 0.000000000000000000, -2.000000000000000888, 0.000000000000000000 ) ) ;
#243 = PERSON_AND_ORGANIZATION_ROLE ( 'design_owner' ) ;
#244 = CARTESIAN_POINT ( 'NONE',  ( -2.399999999999999911, -1.999999999999999556, 2.500000000000000000 ) ) ;
#245 = EDGE_CURVE ( 'NONE', #49, #212, #469, .T. ) ;
#246 = ORIENTED_EDGE ( 'NONE', *, *, #612, .T. ) ;
#247 = LINE ( 'NONE', #299, #272 ) ;
#248 = LOCAL_TIME ( 11, 10, 26.00000000000000000, #71 ) ;
#249 = AXIS2_PLACEMENT_3D ( 'NONE', #527, #520, #190 ) ;
#250 = ORIENTED_EDGE ( 'NONE', *, *, #352, .F. ) ;
#251 = LINE ( 'NONE', #24, #524 ) ;
#252 = ORIENTED_EDGE ( 'NONE', *, *, #356, .T. ) ;
#253 = EDGE_CURVE ( 'NONE', #657, #266, #451, .T. ) ;
#254 = DIRECTION ( 'NONE',  ( 0.000000000000000000, 1.000000000000000000, 0.000000000000000000 ) ) ;
#255 = VERTEX_POINT ( 'NONE', #197 ) ;
#256 = DIRECTION ( 'NONE',  ( -2.168404344971008375E-16, 1.000000000000000000, 0.000000000000000000 ) ) ;
#257 = EDGE_CURVE ( 'NONE', #96, #381, #188, .T. ) ;
#258 = ORIENTED_EDGE ( 'NONE', *, *, #600, .F. ) ;
#259 = CIRCLE ( 'NONE', #413, 0.5000000000000000000 ) ;
#260 = AXIS2_PLACEMENT_3D ( 'NONE', #510, #180, #394 ) ;
#261 = ORIENTED_EDGE ( 'NONE', *, *, #557, .T. ) ;
#262 = LINE ( 'NONE', #417, #697 ) ;
#263 = CYLINDRICAL_SURFACE ( 'NONE', #359, 0.5000000000000000000 ) ;
#264 = ORIENTED_EDGE ( 'NONE', *, *, #53, .T. ) ;
#265 = CARTESIAN_POINT ( 'NONE',  ( -1.899999999999999023, 8.860015375938097064E-17, -3.000000000000000000 ) ) ;
#266 = VERTEX_POINT ( 'NONE', #135 ) ;
#267 = ORIENTED_EDGE ( 'NONE', *, *, #612, .F. ) ;
#268 = CARTESIAN_POINT ( 'NONE',  ( 2.399999999999999467, -1.444447458290426890E-31, -2.499999999999999556 ) ) ;
#269 = ORIENTED_EDGE ( 'NONE', *, *, #497, .F. ) ;
#270 = ORIENTED_EDGE ( 'NONE', *, *, #199, .T. ) ;
#271 = APPROVAL ( #457, 'UNSPECIFIED' ) ;
#272 = VECTOR ( 'NONE', #467, 1000.000000000000000 ) ;
#273 = VECTOR ( 'NONE', #569, 1000.000000000000000 ) ;
#274 = CARTESIAN_POINT ( 'NONE',  ( 0.000000000000000000, 0.000000000000000000, -3.000000000000000000 ) ) ;
#275 = ORIENTED_EDGE ( 'NONE', *, *, #587, .F. ) ;
#276 = ORIENTED_EDGE ( 'NONE', *, *, #408, .T. ) ;
#277 = CARTESIAN_POINT ( 'NONE',  ( -2.399999999999999467, -7.222237291452134449E-32, 3.000000000000000000 ) ) ;
#278 = CARTESIAN_POINT ( 'NONE',  ( 6.000000000000000000, 2.499999999999999556, -2.499999999999999556 ) ) ;
#279 = ADVANCED_FACE ( 'NONE', ( #411 ), #585, .F. ) ;
#280 = CARTESIAN_POINT ( 'NONE',  ( -6.000000000000000000, 2.499999999999999556, 3.000000000000000000 ) ) ;
#281 = ORIENTED_EDGE ( 'NONE', *, *, #124, .T. ) ;
#282 =( LENGTH_UNIT ( ) NAMED_UNIT ( * ) SI_UNIT ( .MILLI., .METRE. ) );
#283 = DIRECTION ( 'NONE',  ( -2.168404344971009361E-16, -1.000000000000000000, 0.000000000000000000 ) ) ;
#284 = ADVANCED_FACE ( 'NONE', ( #74, #76 ), #126, .F. ) ;
#285 = DIRECTION ( 'NONE',  ( -2.168404344971008375E-16, 1.000000000000000000, 0.000000000000000000 ) ) ;
#286 = FACE_OUTER_BOUND ( 'NONE', #535, .T. ) ;
#287 = CIRCLE ( 'NONE', #610, 0.5000000000000000000 ) ;
#288 = CARTESIAN_POINT ( 'NONE',  ( -1.899999999999999023, 8.860015375938097064E-17, 3.000000000000000000 ) ) ;
#289 = ADVANCED_FACE ( 'NONE', ( #69, #296 ), #78, .F. ) ;
#290 = CARTESIAN_POINT ( 'NONE',  ( 1.900000000000000133, -2.000000000000000444, -3.000000000000000000 ) ) ;
#291 = CARTESIAN_POINT ( 'NONE',  ( 6.000000000000000000, -6.379211070675434126E-16, 2.500000000000000000 ) ) ;
#292 = PLANE ( 'NONE',  #551 ) ;
#293 = SHAPE_DEFINITION_REPRESENTATION ( #592, #528 ) ;
#294 = AXIS2_PLACEMENT_3D ( 'NONE', #298, #345, #572 ) ;
#295 = AXIS2_PLACEMENT_3D ( 'NONE', #384, #232, #615 ) ;
#296 = FACE_OUTER_BOUND ( 'NONE', #309, .T. ) ;
#297 = VECTOR ( 'NONE', #409, 1000.000000000000000 ) ;
#298 = CARTESIAN_POINT ( 'NONE',  ( -2.399999999999999911, -1.999999999999999556, 3.000000000000000000 ) ) ;
#299 = CARTESIAN_POINT ( 'NONE',  ( -5.500000000000000000, 0.000000000000000000, 3.000000000000000000 ) ) ;
#300 = ORIENTED_EDGE ( 'NONE', *, *, #489, .F. ) ;
#301 = CARTESIAN_POINT ( 'NONE',  ( -2.399999999999999467, -7.222237291452134449E-32, -2.499999999999999556 ) ) ;
#302 = VECTOR ( 'NONE', #207, 1000.000000000000000 ) ;
#303 = CIRCLE ( 'NONE', #82, 1.250000000000000000 ) ;
#304 = VERTEX_POINT ( 'NONE', #301 ) ;
#305 = DIRECTION ( 'NONE',  ( 1.772003075187619659E-16, 1.000000000000000000, -0.000000000000000000 ) ) ;
#306 = VERTEX_POINT ( 'NONE', #517 ) ;
#307 = APPROVAL ( #691, 'UNSPECIFIED' ) ;
#308 = CARTESIAN_POINT ( 'NONE',  ( 1.530808498934191571E-16, -2.000000000000000888, -1.250000000000000000 ) ) ;
#309 = EDGE_LOOP ( 'NONE', ( #59, #165, #252, #276, #519, #43, #543, #432 ) ) ;
#310 = ORIENTED_EDGE ( 'NONE', *, *, #374, .F. ) ;
#311 = LINE ( 'NONE', #34, #302 ) ;
#312 = ORIENTED_EDGE ( 'NONE', *, *, #489, .T. ) ;
#313 = VECTOR ( 'NONE', #166, 1000.000000000000000 ) ;
#314 = ORIENTED_EDGE ( 'NONE', *, *, #325, .T. ) ;
#315 = LINE ( 'NONE', #707, #395 ) ;
#316 = EDGE_CURVE ( 'NONE', #407, #418, #48, .T. ) ;
#317 = DIRECTION ( 'NONE',  ( -1.000000000000000000, -1.772003075187617934E-16, 0.000000000000000000 ) ) ;
#318 = VERTEX_POINT ( 'NONE', #244 ) ;
#319 = CYLINDRICAL_SURFACE ( 'NONE', #349, 1.250000000000000000 ) ;
#320 = ORIENTED_EDGE ( 'NONE', *, *, #316, .F. ) ;
#321 = CARTESIAN_POINT ( 'NONE',  ( 5.500000000000000000, 2.499999999999999556, -2.499999999999999556 ) ) ;
#322 = ORIENTED_EDGE ( 'NONE', *, *, #13, .F. ) ;
#323 = ORIENTED_EDGE ( 'NONE', *, *, #419, .T. ) ;
#324 = AXIS2_PLACEMENT_3D ( 'NONE', #143, #373, #99 ) ;
#325 = EDGE_CURVE ( 'NONE', #521, #49, #142, .T. ) ;
#326 = FACE_OUTER_BOUND ( 'NONE', #100, .T. ) ;
#327 = AXIS2_PLACEMENT_3D ( 'NONE', #179, #285, #11 ) ;
#328 = ORIENTED_EDGE ( 'NONE', *, *, #330, .T. ) ;
#329 = FACE_OUTER_BOUND ( 'NONE', #708, .T. ) ;
#330 = EDGE_CURVE ( 'NONE', #212, #318, #385, .T. ) ;
#331 = CARTESIAN_POINT ( 'NONE',  ( 1.530808498934191571E-16, -2.000000000000000888, -1.250000000000000000 ) ) ;
#332 = DIRECTION ( 'NONE',  ( 2.168404344971008375E-16, -1.000000000000000000, -0.000000000000000000 ) ) ;
#333 = VERTEX_POINT ( 'NONE', #87 ) ;
#334 = LINE ( 'NONE', #613, #313 ) ;
#335 = DIRECTION ( 'NONE',  ( -1.807003620809173892E-16, -1.000000000000000000, 0.000000000000000000 ) ) ;
#336 = CARTESIAN_POINT ( 'NONE',  ( -2.399999999999999467, -7.222237291452134449E-32, 3.000000000000000000 ) ) ;
#337 = CYLINDRICAL_SURFACE ( 'NONE', #295, 0.5000000000000000000 ) ;
#338 = VECTOR ( 'NONE', #111, 1000.000000000000000 ) ;
#339 = AXIS2_PLACEMENT_3D ( 'NONE', #653, #597, #317 ) ;
#340 = LINE ( 'NONE', #721, #139 ) ;
#341 = CALENDAR_DATE ( 2025, 3, 6 ) ;
#342 = DIRECTION ( 'NONE',  ( 0.000000000000000000, 0.000000000000000000, 1.000000000000000000 ) ) ;
#343 = DIRECTION ( 'NONE',  ( -0.000000000000000000, -0.000000000000000000, -1.000000000000000000 ) ) ;
#344 = APPLICATION_PROTOCOL_DEFINITION ( 'international standard', 'config_control_design', 1994, #558 ) ;
#345 = DIRECTION ( 'NONE',  ( 1.807003620809173892E-16, 1.000000000000000000, -0.000000000000000000 ) ) ;
#346 = APPROVAL_ROLE ( '' ) ;
#347 = ADVANCED_FACE ( 'NONE', ( #541 ), #216, .T. ) ;
#348 = VECTOR ( 'NONE', #399, 1000.000000000000000 ) ;
#349 = AXIS2_PLACEMENT_3D ( 'NONE', #711, #430, #699 ) ;
#350 = CARTESIAN_POINT ( 'NONE',  ( -2.399999999999999911, -1.999999999999999556, -2.499999999999999556 ) ) ;
#351 = PERSON_AND_ORGANIZATION ( #464, #575 ) ;
#352 = EDGE_CURVE ( 'NONE', #590, #89, #530, .T. ) ;
#353 = CARTESIAN_POINT ( 'NONE',  ( -1.899999999999999245, 4.119968255444916356E-16, 3.000000000000000000 ) ) ;
#354 = PERSON_AND_ORGANIZATION_ROLE ( 'creator' ) ;
#355 = DIRECTION ( 'NONE',  ( -0.000000000000000000, 1.000000000000000000, -0.000000000000000000 ) ) ;
#356 = EDGE_CURVE ( 'NONE', #266, #306, #262, .T. ) ;
#357 = EDGE_LOOP ( 'NONE', ( #550, #281, #97, #151 ) ) ;
#358 = CARTESIAN_POINT ( 'NONE',  ( 5.500000000000000000, 2.499999999999999556, 2.500000000000000000 ) ) ;
#359 = AXIS2_PLACEMENT_3D ( 'NONE', #704, #422, #92 ) ;
#360 = VECTOR ( 'NONE', #388, 1000.000000000000000 ) ;
#361 = EDGE_CURVE ( 'NONE', #196, #381, #45, .T. ) ;
#362 = AXIS2_PLACEMENT_3D ( 'NONE', #132, #402, #14 ) ;
#363 = ORIENTED_EDGE ( 'NONE', *, *, #257, .T. ) ;
#364 = DIRECTION ( 'NONE',  ( -1.000000000000000000, 0.000000000000000000, 0.000000000000000000 ) ) ;
#365 = VERTEX_POINT ( 'NONE', #537 ) ;
#366 = DIRECTION ( 'NONE',  ( 1.772003075187619906E-16, -1.000000000000000000, -0.000000000000000000 ) ) ;
#367 = ORIENTED_EDGE ( 'NONE', *, *, #35, .F. ) ;
#368 = ORIENTED_EDGE ( 'NONE', *, *, #155, .T. ) ;
#369 = CARTESIAN_POINT ( 'NONE',  ( 6.000000000000000000, -6.379211070675434126E-16, 3.000000000000000000 ) ) ;
#370 = ORIENTED_EDGE ( 'NONE', *, *, #579, .T. ) ;
#371 =( GEOMETRIC_REPRESENTATION_CONTEXT ( 3 ) GLOBAL_UNCERTAINTY_ASSIGNED_CONTEXT ( ( #138 ) ) GLOBAL_UNIT_ASSIGNED_CONTEXT ( ( #282, #377, #723 ) ) REPRESENTATION_CONTEXT ( 'NONE', 'WORKASPACE' ) );
#372 = ORIENTED_EDGE ( 'NONE', *, *, #253, .F. ) ;
#373 = DIRECTION ( 'NONE',  ( -0.000000000000000000, 1.000000000000000000, 0.000000000000000000 ) ) ;
#374 = EDGE_CURVE ( 'NONE', #84, #96, #681, .T. ) ;
#375 = CYLINDRICAL_SURFACE ( 'NONE', #574, 1.250000000000000000 ) ;
#376 = ORIENTED_EDGE ( 'NONE', *, *, #316, .T. ) ;
#377 =( NAMED_UNIT ( * ) PLANE_ANGLE_UNIT ( ) SI_UNIT ( $, .RADIAN. ) );
#378 = LINE ( 'NONE', #603, #21 ) ;
#379 = VERTEX_POINT ( 'NONE', #39 ) ;
#380 = DIRECTION ( 'NONE',  ( 1.000000000000000000, -2.168404344971009854E-16, 0.000000000000000000 ) ) ;
#381 = VERTEX_POINT ( 'NONE', #265 ) ;
#382 = VERTEX_POINT ( 'NONE', #91 ) ;
#383 = AXIS2_PLACEMENT_3D ( 'NONE', #358, #355, #632 ) ;
#384 = CARTESIAN_POINT ( 'NONE',  ( 5.500000000000000000, -6.379211070675434126E-16, -2.499999999999999556 ) ) ;
#385 = CIRCLE ( 'NONE', #72, 0.5000000000000000000 ) ;
#386 = CARTESIAN_POINT ( 'NONE',  ( -6.000000000000000000, -6.379211070675434126E-16, 3.000000000000000000 ) ) ;
#387 = ORIENTED_EDGE ( 'NONE', *, *, #53, .F. ) ;
#388 = DIRECTION ( 'NONE',  ( -0.000000000000000000, -0.000000000000000000, -1.000000000000000000 ) ) ;
#389 = DIRECTION ( 'NONE',  ( -0.000000000000000000, -0.000000000000000000, -1.000000000000000000 ) ) ;
#390 = CARTESIAN_POINT ( 'NONE',  ( 5.500000000000000000, -5.493209533081623064E-16, 3.000000000000000000 ) ) ;
#391 = CARTESIAN_POINT ( 'NONE',  ( 6.000000000000000000, -6.379211070675434126E-16, 3.000000000000000000 ) ) ;
#392 = ADVANCED_FACE ( 'NONE', ( #42 ), #85, .T. ) ;
#393 = LINE ( 'NONE', #233, #108 ) ;
#394 = DIRECTION ( 'NONE',  ( 2.168404344971008375E-16, -1.000000000000000000, 0.000000000000000000 ) ) ;
#395 = VECTOR ( 'NONE', #595, 1000.000000000000000 ) ;
#396 = EDGE_CURVE ( 'NONE', #423, #208, #146, .T. ) ;
#397 = VECTOR ( 'NONE', #570, 1000.000000000000000 ) ;
#398 = LINE ( 'NONE', #336, #614 ) ;
#399 = DIRECTION ( 'NONE',  ( -1.000000000000000000, -0.000000000000000000, -0.000000000000000000 ) ) ;
#400 = DIRECTION ( 'NONE',  ( -1.000000000000000000, 1.772003075187619659E-16, 0.000000000000000000 ) ) ;
#401 = EDGE_CURVE ( 'NONE', #481, #547, #70, .T. ) ;
#402 = DIRECTION ( 'NONE',  ( 0.000000000000000000, -1.000000000000000000, 0.000000000000000000 ) ) ;
#403 = EDGE_CURVE ( 'NONE', #28, #255, #479, .T. ) ;
#404 = APPROVAL_PERSON_ORGANIZATION ( #121, #271, #573 ) ;
#405 = CARTESIAN_POINT ( 'NONE',  ( -1.899999999999999689, -1.999999999999999556, 2.500000000000000000 ) ) ;
#406 = COORDINATED_UNIVERSAL_TIME_OFFSET ( 1, 0, .AHEAD. ) ;
#407 = VERTEX_POINT ( 'NONE', #308 ) ;
#408 = EDGE_CURVE ( 'NONE', #306, #709, #485, .T. ) ;
#409 = DIRECTION ( 'NONE',  ( 2.168404344971009361E-16, 1.000000000000000000, -0.000000000000000000 ) ) ;
#410 = EDGE_LOOP ( 'NONE', ( #250, #270, #202, #222, #223, #473, #261, #654 ) ) ;
#411 = FACE_OUTER_BOUND ( 'NONE', #410, .T. ) ;
#412 = CARTESIAN_POINT ( 'NONE',  ( -1.899999999999999689, -1.999999999999999556, -2.499999999999999556 ) ) ;
#413 = AXIS2_PLACEMENT_3D ( 'NONE', #564, #6, #3 ) ;
#414 = VECTOR ( 'NONE', #225, 1000.000000000000000 ) ;
#415 = CIRCLE ( 'NONE', #586, 0.5000000000000000000 ) ;
#416 = ORIENTED_EDGE ( 'NONE', *, *, #194, .T. ) ;
#417 = CARTESIAN_POINT ( 'NONE',  ( 6.000000000000000000, 2.499999999999999556, 3.000000000000000000 ) ) ;
#418 = VERTEX_POINT ( 'NONE', #545 ) ;
#419 = EDGE_CURVE ( 'NONE', #318, #521, #315, .T. ) ;
#420 = ORIENTED_EDGE ( 'NONE', *, *, #600, .T. ) ;
#421 = CARTESIAN_POINT ( 'NONE',  ( -5.500000000000000000, -5.493209533081623064E-16, 2.500000000000000000 ) ) ;
#422 = DIRECTION ( 'NONE',  ( 0.000000000000000000, 1.000000000000000000, 0.000000000000000000 ) ) ;
#423 = VERTEX_POINT ( 'NONE', #211 ) ;
#424 = CC_DESIGN_DATE_AND_TIME_ASSIGNMENT ( #450, #131, ( #656 ) ) ;
#425 = DIRECTION ( 'NONE',  ( 1.000000000000000000, 1.772003075187619906E-16, 0.000000000000000000 ) ) ;
#426 = ORIENTED_EDGE ( 'NONE', *, *, #624, .F. ) ;
#427 = ORIENTED_EDGE ( 'NONE', *, *, #68, .F. ) ;
#428 = DIRECTION ( 'NONE',  ( 0.000000000000000000, 0.000000000000000000, -1.000000000000000000 ) ) ;
#429 = VECTOR ( 'NONE', #616, 1000.000000000000000 ) ;
#430 = DIRECTION ( 'NONE',  ( -0.000000000000000000, 1.000000000000000000, -0.000000000000000000 ) ) ;
#431 = EDGE_CURVE ( 'NONE', #492, #164, #181, .T. ) ;
#432 = ORIENTED_EDGE ( 'NONE', *, *, #431, .T. ) ;
#433 = DIRECTION ( 'NONE',  ( -1.000000000000000000, 2.168404344971009361E-16, 0.000000000000000000 ) ) ;
#434 = CARTESIAN_POINT ( 'NONE',  ( -1.899999999999999245, 4.119968255444916356E-16, 2.500000000000000000 ) ) ;
#435 = VERTEX_POINT ( 'NONE', #154 ) ;
#436 = DIRECTION ( 'NONE',  ( 0.000000000000000000, 0.000000000000000000, 1.000000000000000000 ) ) ;
#437 = CARTESIAN_POINT ( 'NONE',  ( 1.899999999999999023, 8.860015375938087203E-17, 3.000000000000000000 ) ) ;
#438 = ORIENTED_EDGE ( 'NONE', *, *, #676, .F. ) ;
#439 = DIRECTION ( 'NONE',  ( 2.168404344971009361E-16, 1.000000000000000000, 0.000000000000000000 ) ) ;
#440 = CARTESIAN_POINT ( 'NONE',  ( 1.530808498934191571E-16, 2.499999999999999556, -1.250000000000000000 ) ) ;
#441 = CARTESIAN_POINT ( 'NONE',  ( 2.399999999999999467, -1.444447458290426890E-31, 2.500000000000000000 ) ) ;
#442 = ADVANCED_FACE ( 'NONE', ( #94 ), #319, .F. ) ;
#443 = PLANE ( 'NONE',  #106 ) ;
#444 = PLANE ( 'NONE',  #453 ) ;
#445 = CARTESIAN_POINT ( 'NONE',  ( 2.399999999999999911, -2.000000000000000444, -2.499999999999999556 ) ) ;
#446 = PERSON_AND_ORGANIZATION ( #464, #575 ) ;
#447 = CC_DESIGN_PERSON_AND_ORGANIZATION_ASSIGNMENT ( #237, #508, ( #565 ) ) ;
#448 = FACE_OUTER_BOUND ( 'NONE', #672, .T. ) ;
#449 = DIRECTION ( 'NONE',  ( 0.000000000000000000, 0.000000000000000000, 1.000000000000000000 ) ) ;
#450 = DATE_AND_TIME ( #189, #522 ) ;
#451 = CIRCLE ( 'NONE', #383, 0.5000000000000000000 ) ;
#452 = FACE_OUTER_BOUND ( 'NONE', #639, .T. ) ;
#453 = AXIS2_PLACEMENT_3D ( 'NONE', #391, #122, #342 ) ;
#454 = EDGE_CURVE ( 'NONE', #333, #365, #287, .T. ) ;
#455 = AXIS2_PLACEMENT_3D ( 'NONE', #242, #633, #523 ) ;
#456 = LINE ( 'NONE', #441, #647 ) ;
#457 = APPROVAL_STATUS ( 'not_yet_approved' ) ;
#458 = PRODUCT_RELATED_PRODUCT_CATEGORY ( 'detail', '', ( #209 ) ) ;
#459 = CARTESIAN_POINT ( 'NONE',  ( 5.500000000000000000, -5.493209533081623064E-16, 2.500000000000000000 ) ) ;
#460 = CARTESIAN_POINT ( 'NONE',  ( 0.000000000000000000, 0.000000000000000000, 0.000000000000000000 ) ) ;
#461 = DIRECTION ( 'NONE',  ( -1.772003075187619906E-16, 1.000000000000000000, 0.000000000000000000 ) ) ;
#462 = EDGE_LOOP ( 'NONE', ( #701, #526, #161, #477, #102, #136, #611, #314 ) ) ;
#463 = DIRECTION ( 'NONE',  ( -1.000000000000000000, 1.772003075187617934E-16, 0.000000000000000000 ) ) ;
#464 = PERSON ( 'UNSPECIFIED', 'UNSPECIFIED', 'UNSPECIFIED', ('UNSPECIFIED'), ('UNSPECIFIED'), ('UNSPECIFIED') ) ;
#465 = ORIENTED_EDGE ( 'NONE', *, *, #177, .F. ) ;
#466 = EDGE_CURVE ( 'NONE', #481, #49, #378, .T. ) ;
#467 = DIRECTION ( 'NONE',  ( 0.000000000000000000, -1.000000000000000000, 0.000000000000000000 ) ) ;
#468 = EDGE_LOOP ( 'NONE', ( #206, #93, #427, #667, #713, #328, #219, #598 ) ) ;
#469 = LINE ( 'NONE', #353, #546 ) ;
#470 = ORIENTED_EDGE ( 'NONE', *, *, #204, .T. ) ;
#471 = DIRECTION ( 'NONE',  ( -1.000000000000000000, 0.000000000000000000, 0.000000000000000000 ) ) ;
#472 = EDGE_CURVE ( 'NONE', #96, #30, #311, .T. ) ;
#473 = ORIENTED_EDGE ( 'NONE', *, *, #160, .T. ) ;
#474 = AXIS2_PLACEMENT_3D ( 'NONE', #274, #475, #589 ) ;
#475 = DIRECTION ( 'NONE',  ( 0.000000000000000000, 0.000000000000000000, -1.000000000000000000 ) ) ;
#476 = APPROVAL ( #627, 'UNSPECIFIED' ) ;
#477 = ORIENTED_EDGE ( 'NONE', *, *, #13, .T. ) ;
#478 = ORIENTED_EDGE ( 'NONE', *, *, #245, .T. ) ;
#479 = LINE ( 'NONE', #268, #513 ) ;
#480 = ORIENTED_EDGE ( 'NONE', *, *, #356, .F. ) ;
#481 = VERTEX_POINT ( 'NONE', #493 ) ;
#482 = ADVANCED_FACE ( 'NONE', ( #448 ), #117, .F. ) ;
#483 = DIRECTION ( 'NONE',  ( -0.000000000000000000, 1.000000000000000000, -0.000000000000000000 ) ) ;
#484 = ORIENTED_EDGE ( 'NONE', *, *, #403, .T. ) ;
#485 = CIRCLE ( 'NONE', #239, 0.5000000000000000000 ) ;
#486 = ORIENTED_EDGE ( 'NONE', *, *, #172, .F. ) ;
#487 = DIRECTION ( 'NONE',  ( -1.000000000000000000, -1.772003075187619906E-16, 0.000000000000000000 ) ) ;
#488 = VECTOR ( 'NONE', #389, 1000.000000000000000 ) ;
#489 = EDGE_CURVE ( 'NONE', #418, #407, #2, .T. ) ;
#490 = DIRECTION ( 'NONE',  ( -1.000000000000000000, 0.000000000000000000, 0.000000000000000000 ) ) ;
#491 = ORIENTED_EDGE ( 'NONE', *, *, #579, .F. ) ;
#492 = VERTEX_POINT ( 'NONE', #65 ) ;
#493 = CARTESIAN_POINT ( 'NONE',  ( -5.500000000000000000, -5.493209533081623064E-16, 3.000000000000000000 ) ) ;
#494 = CARTESIAN_POINT ( 'NONE',  ( 5.500000000000000000, -5.493209533081623064E-16, -2.499999999999999556 ) ) ;
#495 = ORIENTED_EDGE ( 'NONE', *, *, #325, .F. ) ;
#496 = LINE ( 'NONE', #1, #61 ) ;
#497 = EDGE_CURVE ( 'NONE', #266, #590, #506, .T. ) ;
#498 = DIRECTION ( 'NONE',  ( 0.000000000000000000, 0.000000000000000000, -1.000000000000000000 ) ) ;
#499 = ORIENTED_EDGE ( 'NONE', *, *, #127, .F. ) ;
#500 = VECTOR ( 'NONE', #4, 1000.000000000000000 ) ;
#501 = PLANE ( 'NONE',  #596 ) ;
#502 = LINE ( 'NONE', #664, #273 ) ;
#503 = CARTESIAN_POINT ( 'NONE',  ( -6.000000000000000000, -6.379211070675434126E-16, 3.000000000000000000 ) ) ;
#504 = CC_DESIGN_PERSON_AND_ORGANIZATION_ASSIGNMENT ( #688, #354, ( #720 ) ) ;
#505 = APPROVAL_DATE_TIME ( #638, #307 ) ;
#506 = LINE ( 'NONE', #291, #33 ) ;
#507 = DIRECTION ( 'NONE',  ( -1.772003075187619659E-16, -1.000000000000000000, 0.000000000000000000 ) ) ;
#508 = PERSON_AND_ORGANIZATION_ROLE ( 'creator' ) ;
#509 = ADVANCED_FACE ( 'NONE', ( #719 ), #629, .T. ) ;
#510 = CARTESIAN_POINT ( 'NONE',  ( 2.399999999999999467, -1.444447458290426890E-31, 3.000000000000000000 ) ) ;
#511 = CARTESIAN_POINT ( 'NONE',  ( 1.899999999999999245, 8.860015375938084738E-17, -2.499999999999999556 ) ) ;
#512 = AXIS2_PLACEMENT_3D ( 'NONE', #511, #137, #641 ) ;
#513 = VECTOR ( 'NONE', #256, 1000.000000000000000 ) ;
#514 = CIRCLE ( 'NONE', #339, 0.5000000000000004441 ) ;
#515 = DIRECTION ( 'NONE',  ( 0.000000000000000000, 0.000000000000000000, 1.000000000000000000 ) ) ;
#516 = COORDINATED_UNIVERSAL_TIME_OFFSET ( 1, 0, .AHEAD. ) ;
#517 = CARTESIAN_POINT ( 'NONE',  ( 6.000000000000000000, 2.499999999999999556, -2.499999999999999556 ) ) ;
#518 = PERSON_AND_ORGANIZATION ( #464, #575 ) ;
#519 = ORIENTED_EDGE ( 'NONE', *, *, #630, .T. ) ;
#520 = DIRECTION ( 'NONE',  ( -1.772003075187619906E-16, 1.000000000000000000, 0.000000000000000000 ) ) ;
#521 = VERTEX_POINT ( 'NONE', #167 ) ;
#522 = LOCAL_TIME ( 11, 10, 26.00000000000000000, #634 ) ;
#523 = DIRECTION ( 'NONE',  ( 0.000000000000000000, 0.000000000000000000, 1.000000000000000000 ) ) ;
#524 = VECTOR ( 'NONE', #195, 1000.000000000000000 ) ;
#525 = ADVANCED_FACE ( 'NONE', ( #286 ), #337, .T. ) ;
#526 = ORIENTED_EDGE ( 'NONE', *, *, #401, .T. ) ;
#527 = CARTESIAN_POINT ( 'NONE',  ( -1.899999999999999245, 8.860015375938097064E-17, -2.499999999999999556 ) ) ;
#528 = ADVANCED_BREP_SHAPE_REPRESENTATION ( 'piece_serrage_patte_rail_mobile', ( #37, #168 ), #371 ) ;
#529 = EDGE_LOOP ( 'NONE', ( #601, #387, #367, #156 ) ) ;
#530 = LINE ( 'NONE', #369, #170 ) ;
#531 = ORIENTED_EDGE ( 'NONE', *, *, #204, .F. ) ;
#532 = EDGE_LOOP ( 'NONE', ( #38, #269, #372, #258 ) ) ;
#533 = DIRECTION ( 'NONE',  ( 0.000000000000000000, 0.000000000000000000, -1.000000000000000000 ) ) ;
#534 = AXIS2_PLACEMENT_3D ( 'NONE', #669, #623, #436 ) ;
#535 = EDGE_LOOP ( 'NONE', ( #716, #267, #605, #275 ) ) ;
#536 = ORIENTED_EDGE ( 'NONE', *, *, #68, .T. ) ;
#537 = CARTESIAN_POINT ( 'NONE',  ( 1.900000000000000133, -2.000000000000000444, 3.000000000000000000 ) ) ;
#538 = ADVANCED_FACE ( 'NONE', ( #178 ), #444, .F. ) ;
#539 = ORIENTED_EDGE ( 'NONE', *, *, #144, .T. ) ;
#540 = EDGE_LOOP ( 'NONE', ( #320, #370, #55, #438 ) ) ;
#541 = FACE_OUTER_BOUND ( 'NONE', #162, .T. ) ;
#542 = EDGE_LOOP ( 'NONE', ( #312, #376 ) ) ;
#543 = ORIENTED_EDGE ( 'NONE', *, *, #101, .F. ) ;
#544 = DIRECTION ( 'NONE',  ( -2.168404344971008375E-16, 1.000000000000000000, 0.000000000000000000 ) ) ;
#545 = CARTESIAN_POINT ( 'NONE',  ( 0.000000000000000000, -2.000000000000000888, 1.250000000000000000 ) ) ;
#546 = VECTOR ( 'NONE', #696, 1000.000000000000000 ) ;
#547 = VERTEX_POINT ( 'NONE', #52 ) ;
#548 = AXIS2_PLACEMENT_3D ( 'NONE', #660, #158, #487 ) ;
#549 = CC_DESIGN_SECURITY_CLASSIFICATION ( #656, ( #565 ) ) ;
#550 = ORIENTED_EDGE ( 'NONE', *, *, #149, .F. ) ;
#551 = AXIS2_PLACEMENT_3D ( 'NONE', #386, #175, #240 ) ;
#552 = DIRECTION ( 'NONE',  ( 0.000000000000000000, 0.000000000000000000, -1.000000000000000000 ) ) ;
#553 = LINE ( 'NONE', #280, #488 ) ;
#554 = ORIENTED_EDGE ( 'NONE', *, *, #235, .F. ) ;
#555 = DIRECTION ( 'NONE',  ( 1.000000000000000000, 2.168404344971008375E-16, 0.000000000000000000 ) ) ;
#556 = LINE ( 'NONE', #57, #90 ) ;
#557 = EDGE_CURVE ( 'NONE', #379, #152, #502, .T. ) ;
#558 = APPLICATION_CONTEXT ( 'configuration controlled 3d designs of mechanical parts and assemblies' ) ;
#559 = FACE_OUTER_BOUND ( 'NONE', #357, .T. ) ;
#560 = ORIENTED_EDGE ( 'NONE', *, *, #361, .F. ) ;
#561 = CYLINDRICAL_SURFACE ( 'NONE', #645, 0.5000000000000000000 ) ;
#562 = LINE ( 'NONE', #278, #338 ) ;
#563 = ADVANCED_FACE ( 'NONE', ( #326 ), #163, .T. ) ;
#564 = CARTESIAN_POINT ( 'NONE',  ( 1.899999999999999245, 8.860015375938077342E-17, 2.500000000000000000 ) ) ;
#565 = PRODUCT_DEFINITION_FORMATION_WITH_SPECIFIED_SOURCE ( 'ANY', '', #209, .NOT_KNOWN. ) ;
#566 = DIRECTION ( 'NONE',  ( -0.000000000000000000, 1.000000000000000000, -0.000000000000000000 ) ) ;
#567 = DIRECTION ( 'NONE',  ( -1.000000000000000000, 1.772003075187617934E-16, 0.000000000000000000 ) ) ;
#568 = PERSON_AND_ORGANIZATION ( #464, #575 ) ;
#569 = DIRECTION ( 'NONE',  ( 1.000000000000000000, -1.772003075187619659E-16, -0.000000000000000000 ) ) ;
#570 = DIRECTION ( 'NONE',  ( -0.000000000000000000, -0.000000000000000000, -1.000000000000000000 ) ) ;
#571 = CALENDAR_DATE ( 2025, 3, 6 ) ;
#572 = DIRECTION ( 'NONE',  ( -1.000000000000000000, 1.807003620809173892E-16, 0.000000000000000000 ) ) ;
#573 = APPROVAL_ROLE ( '' ) ;
#574 = AXIS2_PLACEMENT_3D ( 'NONE', #674, #54, #186 ) ;
#575 = ORGANIZATION ( 'UNSPECIFIED', 'UNSPECIFIED', '' ) ;
#576 = VECTOR ( 'NONE', #425, 1000.000000000000000 ) ;
#577 = CARTESIAN_POINT ( 'NONE',  ( -5.500000000000000000, -5.493209533081623064E-16, -3.000000000000000000 ) ) ;
#578 = COORDINATED_UNIVERSAL_TIME_OFFSET ( 1, 0, .AHEAD. ) ;
#579 = EDGE_CURVE ( 'NONE', #407, #617, #114, .T. ) ;
#580 = CARTESIAN_POINT ( 'NONE',  ( -5.500000000000000000, 2.499999999999999556, 3.000000000000000000 ) ) ;
#581 = DATE_AND_TIME ( #187, #229 ) ;
#582 = CARTESIAN_POINT ( 'NONE',  ( 6.000000000000000000, -6.379211070675434126E-16, 3.000000000000000000 ) ) ;
#583 = ORIENTED_EDGE ( 'NONE', *, *, #396, .F. ) ;
#584 = AXIS2_PLACEMENT_3D ( 'NONE', #434, #283, #380 ) ;
#585 = PLANE ( 'NONE',  #183 ) ;
#586 = AXIS2_PLACEMENT_3D ( 'NONE', #230, #8, #498 ) ;
#587 = EDGE_CURVE ( 'NONE', #89, #306, #562, .T. ) ;
#588 = ORIENTED_EDGE ( 'NONE', *, *, #155, .F. ) ;
#589 = DIRECTION ( 'NONE',  ( -1.000000000000000000, 0.000000000000000000, -0.000000000000000000 ) ) ;
#590 = VERTEX_POINT ( 'NONE', #5 ) ;
#591 = CC_DESIGN_PERSON_AND_ORGANIZATION_ASSIGNMENT ( #9, #133, ( #565 ) ) ;
#592 = PRODUCT_DEFINITION_SHAPE ( 'NONE', 'NONE',  #720 ) ;
#593 = CARTESIAN_POINT ( 'NONE',  ( 1.899999999999999689, -2.000000000000000444, 2.500000000000000000 ) ) ;
#594 = ORIENTED_EDGE ( 'NONE', *, *, #194, .F. ) ;
#595 = DIRECTION ( 'NONE',  ( 2.168404344971009361E-16, 1.000000000000000000, -0.000000000000000000 ) ) ;
#596 = AXIS2_PLACEMENT_3D ( 'NONE', #618, #428, #224 ) ;
#597 = DIRECTION ( 'NONE',  ( 1.772003075187619906E-16, -1.000000000000000000, -0.000000000000000000 ) ) ;
#598 = ORIENTED_EDGE ( 'NONE', *, *, #374, .T. ) ;
#599 = DIRECTION ( 'NONE',  ( 0.000000000000000000, -1.000000000000000000, 0.000000000000000000 ) ) ;
#600 = EDGE_CURVE ( 'NONE', #643, #657, #556, .T. ) ;
#601 = ORIENTED_EDGE ( 'NONE', *, *, #454, .F. ) ;
#602 = FACE_OUTER_BOUND ( 'NONE', #462, .T. ) ;
#603 = CARTESIAN_POINT ( 'NONE',  ( -6.000000000000000000, -6.379211070675434126E-16, 3.000000000000000000 ) ) ;
#604 = ORIENTED_EDGE ( 'NONE', *, *, #352, .T. ) ;
#605 = ORIENTED_EDGE ( 'NONE', *, *, #408, .F. ) ;
#606 = FACE_OUTER_BOUND ( 'NONE', #722, .T. ) ;
#607 = DIRECTION ( 'NONE',  ( 0.000000000000000000, -1.000000000000000000, 0.000000000000000000 ) ) ;
#608 = CIRCLE ( 'NONE', #512, 0.5000000000000000000 ) ;
#609 = CARTESIAN_POINT ( 'NONE',  ( -2.399999999999999911, -1.999999999999999556, -2.499999999999999556 ) ) ;
#610 = AXIS2_PLACEMENT_3D ( 'NONE', #593, #159, #471 ) ;
#611 = ORIENTED_EDGE ( 'NONE', *, *, #144, .F. ) ;
#612 = EDGE_CURVE ( 'NONE', #709, #152, #496, .T. ) ;
#613 = CARTESIAN_POINT ( 'NONE',  ( -6.000000000000000000, 2.499999999999999556, 3.000000000000000000 ) ) ;
#614 = VECTOR ( 'NONE', #343, 1000.000000000000000 ) ;
#615 = DIRECTION ( 'NONE',  ( 0.000000000000000000, 0.000000000000000000, -1.000000000000000000 ) ) ;
#616 = DIRECTION ( 'NONE',  ( -0.000000000000000000, 1.000000000000000000, -0.000000000000000000 ) ) ;
#617 = VERTEX_POINT ( 'NONE', #440 ) ;
#618 = CARTESIAN_POINT ( 'NONE',  ( 0.000000000000000000, 0.000000000000000000, 3.000000000000000000 ) ) ;
#619 = EDGE_CURVE ( 'NONE', #318, #84, #673, .T. ) ;
#620 = CARTESIAN_POINT ( 'NONE',  ( 1.899999999999999689, -2.000000000000000444, -2.499999999999999556 ) ) ;
#621 = LINE ( 'NONE', #503, #397 ) ;
#622 = LINE ( 'NONE', #718, #140 ) ;
#623 = DIRECTION ( 'NONE',  ( 0.000000000000000000, 1.000000000000000000, 0.000000000000000000 ) ) ;
#624 = EDGE_CURVE ( 'NONE', #30, #28, #118, .T. ) ;
#625 = DIRECTION ( 'NONE',  ( 1.000000000000000000, -1.772003075187619659E-16, -0.000000000000000000 ) ) ;
#626 = LOCAL_TIME ( 11, 10, 26.00000000000000000, #578 ) ;
#627 = APPROVAL_STATUS ( 'not_yet_approved' ) ;
#628 = AXIS2_PLACEMENT_3D ( 'NONE', #236, #671, #449 ) ;
#629 = CYLINDRICAL_SURFACE ( 'NONE', #584, 0.5000000000000000000 ) ;
#630 = EDGE_CURVE ( 'NONE', #709, #382, #684, .T. ) ;
#631 = DIRECTION ( 'NONE',  ( 2.168404344971008375E-16, -1.000000000000000000, -0.000000000000000000 ) ) ;
#632 = DIRECTION ( 'NONE',  ( 0.000000000000000000, 0.000000000000000000, -1.000000000000000000 ) ) ;
#633 = DIRECTION ( 'NONE',  ( 0.000000000000000000, 1.000000000000000000, 0.000000000000000000 ) ) ;
#634 = COORDINATED_UNIVERSAL_TIME_OFFSET ( 1, 0, .AHEAD. ) ;
#635 = CC_DESIGN_APPROVAL ( #476, ( #720 ) ) ;
#636 = ADVANCED_FACE ( 'NONE', ( #452 ), #10, .T. ) ;
#637 = DIRECTION ( 'NONE',  ( -1.807003620809173892E-16, -1.000000000000000000, 0.000000000000000000 ) ) ;
#638 = DATE_AND_TIME ( #341, #626 ) ;
#639 = EDGE_LOOP ( 'NONE', ( #486, #112, #310, #531 ) ) ;
#640 = ADVANCED_FACE ( 'NONE', ( #98 ), #443, .F. ) ;
#641 = DIRECTION ( 'NONE',  ( -1.000000000000000000, 1.772003075187619906E-16, 0.000000000000000000 ) ) ;
#642 = CARTESIAN_POINT ( 'NONE',  ( -1.899999999999999689, -1.999999999999999556, 3.000000000000000000 ) ) ;
#643 = VERTEX_POINT ( 'NONE', #390 ) ;
#644 = VECTOR ( 'NONE', #599, 1000.000000000000000 ) ;
#645 = AXIS2_PLACEMENT_3D ( 'NONE', #63, #110, #555 ) ;
#646 = DIRECTION ( 'NONE',  ( -1.807003620809173892E-16, -1.000000000000000000, 0.000000000000000000 ) ) ;
#647 = VECTOR ( 'NONE', #631, 1000.000000000000000 ) ;
#648 = VERTEX_POINT ( 'NONE', #176 ) ;
#649 = CARTESIAN_POINT ( 'NONE',  ( -6.000000000000000000, -6.379211070675434126E-16, -3.000000000000000000 ) ) ;
#650 = FACE_OUTER_BOUND ( 'NONE', #532, .T. ) ;
#651 = ORIENTED_EDGE ( 'NONE', *, *, #134, .F. ) ;
#652 = DIRECTION ( 'NONE',  ( -1.000000000000000000, -1.772003075187617934E-16, 0.000000000000000000 ) ) ;
#653 = CARTESIAN_POINT ( 'NONE',  ( -5.500000000000000000, -5.493209533081623064E-16, -2.499999999999999556 ) ) ;
#654 = ORIENTED_EDGE ( 'NONE', *, *, #79, .T. ) ;
#655 = CARTESIAN_POINT ( 'NONE',  ( -5.500000000000000000, 2.499999999999999556, 2.500000000000000000 ) ) ;
#656 = SECURITY_CLASSIFICATION ( '', '', #77 ) ;
#657 = VERTEX_POINT ( 'NONE', #220 ) ;
#658 = VECTOR ( 'NONE', #686, 1000.000000000000000 ) ;
#659 = ORIENTED_EDGE ( 'NONE', *, *, #95, .F. ) ;
#660 = CARTESIAN_POINT ( 'NONE',  ( -6.000000000000000000, -6.379211070675434126E-16, 3.000000000000000000 ) ) ;
#661 = DIRECTION ( 'NONE',  ( 0.000000000000000000, 0.000000000000000000, -1.000000000000000000 ) ) ;
#662 = ORIENTED_EDGE ( 'NONE', *, *, #115, .T. ) ;
#663 = EDGE_LOOP ( 'NONE', ( #651, #554 ) ) ;
#664 = CARTESIAN_POINT ( 'NONE',  ( 6.000000000000000000, -6.379211070675434126E-16, -3.000000000000000000 ) ) ;
#665 = EDGE_CURVE ( 'NONE', #365, #145, #60, .T. ) ;
#666 = ORIENTED_EDGE ( 'NONE', *, *, #401, .F. ) ;
#667 = ORIENTED_EDGE ( 'NONE', *, *, #454, .T. ) ;
#668 = CARTESIAN_POINT ( 'NONE',  ( 1.899999999999999245, 4.119968255444914877E-16, 3.000000000000000000 ) ) ;
#669 = CARTESIAN_POINT ( 'NONE',  ( 0.000000000000000000, -2.000000000000000888, 0.000000000000000000 ) ) ;
#670 = VECTOR ( 'NONE', #678, 1000.000000000000000 ) ;
#671 = DIRECTION ( 'NONE',  ( 0.000000000000000000, 1.000000000000000000, 0.000000000000000000 ) ) ;
#672 = EDGE_LOOP ( 'NONE', ( #536, #484, #465, #264 ) ) ;
#673 = LINE ( 'NONE', #174, #360 ) ;
#674 = CARTESIAN_POINT ( 'NONE',  ( 0.000000000000000000, -2.000000000000000888, 0.000000000000000000 ) ) ;
#675 = DIRECTION ( 'NONE',  ( 1.000000000000000000, -2.168404344971009361E-16, 0.000000000000000000 ) ) ;
#676 = EDGE_CURVE ( 'NONE', #418, #435, #622, .T. ) ;
#677 = DIRECTION ( 'NONE',  ( 0.000000000000000000, 1.000000000000000000, 0.000000000000000000 ) ) ;
#678 = DIRECTION ( 'NONE',  ( -0.000000000000000000, -0.000000000000000000, -1.000000000000000000 ) ) ;
#679 = APPROVAL_ROLE ( '' ) ;
#680 = FACE_OUTER_BOUND ( 'NONE', #529, .T. ) ;
#681 = CIRCLE ( 'NONE', #46, 0.5000000000000000000 ) ;
#682 = AXIS2_PLACEMENT_3D ( 'NONE', #104, #607, #552 ) ;
#683 = CIRCLE ( 'NONE', #249, 0.5000000000000000000 ) ;
#684 = LINE ( 'NONE', #184, #348 ) ;
#685 = CYLINDRICAL_SURFACE ( 'NONE', #327, 0.5000000000000000000 ) ;
#686 = DIRECTION ( 'NONE',  ( -2.168404344971009361E-16, -1.000000000000000000, 0.000000000000000000 ) ) ;
#687 = EDGE_CURVE ( 'NONE', #657, #164, #334, .T. ) ;
#688 = PERSON_AND_ORGANIZATION ( #464, #575 ) ;
#689 = ADVANCED_FACE ( 'NONE', ( #329 ), #561, .T. ) ;
#690 = DIRECTION ( 'NONE',  ( -1.000000000000000000, -1.772003075187619906E-16, 0.000000000000000000 ) ) ;
#691 = APPROVAL_STATUS ( 'not_yet_approved' ) ;
#692 = CARTESIAN_POINT ( 'NONE',  ( -6.000000000000000000, -6.379211070675434126E-16, -2.499999999999999556 ) ) ;
#693 = ORIENTED_EDGE ( 'NONE', *, *, #630, .F. ) ;
#694 = CARTESIAN_POINT ( 'NONE',  ( 0.000000000000000000, 2.499999999999999556, 0.000000000000000000 ) ) ;
#695 = CC_DESIGN_PERSON_AND_ORGANIZATION_ASSIGNMENT ( #446, #243, ( #209 ) ) ;
#696 = DIRECTION ( 'NONE',  ( -2.168404344971009361E-16, -1.000000000000000000, 0.000000000000000000 ) ) ;
#697 = VECTOR ( 'NONE', #29, 1000.000000000000000 ) ;
#698 = AXIS2_PLACEMENT_3D ( 'NONE', #214, #50, #433 ) ;
#699 = DIRECTION ( 'NONE',  ( 0.000000000000000000, 0.000000000000000000, 1.000000000000000000 ) ) ;
#700 = AXIS2_PLACEMENT_3D ( 'NONE', #17, #461, #690 ) ;
#701 = ORIENTED_EDGE ( 'NONE', *, *, #466, .F. ) ;
#702 = ORIENTED_EDGE ( 'NONE', *, *, #497, .T. ) ;
#703 = DIRECTION ( 'NONE',  ( -0.000000000000000000, 1.000000000000000000, -0.000000000000000000 ) ) ;
#704 = CARTESIAN_POINT ( 'NONE',  ( 5.500000000000000000, 0.000000000000000000, 2.500000000000000000 ) ) ;
#705 = EDGE_CURVE ( 'NONE', #212, #365, #103, .T. ) ;
#706 = EDGE_LOOP ( 'NONE', ( #495, #171, #19, #218 ) ) ;
#707 = CARTESIAN_POINT ( 'NONE',  ( -2.399999999999999467, -7.222237291452134449E-32, 2.500000000000000000 ) ) ;
#708 = EDGE_LOOP ( 'NONE', ( #426, #499, #31, #198 ) ) ;
#709 = VERTEX_POINT ( 'NONE', #173 ) ;
#710 = ADVANCED_FACE ( 'NONE', ( #606 ), #501, .F. ) ;
#711 = CARTESIAN_POINT ( 'NONE',  ( 0.000000000000000000, -2.000000000000000888, 0.000000000000000000 ) ) ;
#712 = CLOSED_SHELL ( 'NONE', ( #442, #538, #289, #51, #715, #640, #284, #482, #279, #710, #347, #16, #689, #636, #73, #509, #7, #563, #525, #392 ) ) ;
#713 = ORIENTED_EDGE ( 'NONE', *, *, #705, .F. ) ;
#714 = DIRECTION ( 'NONE',  ( -0.000000000000000000, -0.000000000000000000, -1.000000000000000000 ) ) ;
#715 = ADVANCED_FACE ( 'NONE', ( #602 ), #44, .F. ) ;
#716 = ORIENTED_EDGE ( 'NONE', *, *, #79, .F. ) ;
#717 = ORIENTED_EDGE ( 'NONE', *, *, #676, .T. ) ;
#718 = CARTESIAN_POINT ( 'NONE',  ( 0.000000000000000000, -2.000000000000000888, 1.250000000000000000 ) ) ;
#719 = FACE_OUTER_BOUND ( 'NONE', #706, .T. ) ;
#720 = PRODUCT_DEFINITION ( 'UNKNOWN', '', #565, #27 ) ;
#721 = CARTESIAN_POINT ( 'NONE',  ( -6.000000000000000000, -6.379211070675434126E-16, 2.500000000000000000 ) ) ;
#722 = EDGE_LOOP ( 'NONE', ( #22, #41, #662, #420, #88, #416, #157, #478 ) ) ;
#723 =( NAMED_UNIT ( * ) SI_UNIT ( $, .STERADIAN. ) SOLID_ANGLE_UNIT ( ) );
ENDSEC;
END-ISO-10303-21;
