ISO-10303-21;
HEADER;
FILE_DESCRIPTION (( 'STEP AP203' ),
    '1' );
FILE_NAME ('rail_mobile_dessous_P.STEP',
    '2025-06-03T08:39:49',
    ( '' ),
    ( '' ),
    'SwSTEP 2.0',
    'SolidWorks 2023',
    '' );
FILE_SCHEMA (( 'CONFIG_CONTROL_DESIGN' ));
ENDSEC;

DATA;
#1 = EDGE_CURVE ( 'NONE', #163, #37, #194, .T. ) ;
#2 = AXIS2_PLACEMENT_3D ( 'NONE', #352, #278, #314 ) ;
#3 = CALENDAR_DATE ( 2025, 3, 6 ) ;
#4 = CARTESIAN_POINT ( 'NONE',  ( -95.00000000000000000, 2.500000000000000000, -4.999999999999997335 ) ) ;
#5 = VERTEX_POINT ( 'NONE', #104 ) ;
#6 = CARTESIAN_POINT ( 'NONE',  ( -88.00000000000000000, 2.500000000000000000, 0.000000000000000000 ) ) ;
#7 = EDGE_CURVE ( 'NONE', #498, #172, #480, .T. ) ;
#8 = CARTESIAN_POINT ( 'NONE',  ( -94.00000000000000000, 2.500000000000000000, -5.999999999999998224 ) ) ;
#9 = ORIENTED_EDGE ( 'NONE', *, *, #492, .F. ) ;
#10 = AXIS2_PLACEMENT_3D ( 'NONE', #230, #356, #269 ) ;
#11 = DIRECTION ( 'NONE',  ( 0.000000000000000000, 0.000000000000000000, -1.000000000000000000 ) ) ;
#12 = VECTOR ( 'NONE', #403, 1000.000000000000000 ) ;
#13 = VECTOR ( 'NONE', #457, 1000.000000000000000 ) ;
#14 = ORIENTED_EDGE ( 'NONE', *, *, #387, .T. ) ;
#15 = DIRECTION ( 'NONE',  ( -0.000000000000000000, 1.000000000000000000, -0.000000000000000000 ) ) ;
#16 = EDGE_LOOP ( 'NONE', ( #198, #443, #242, #131 ) ) ;
#17 = CARTESIAN_POINT ( 'NONE',  ( 94.00000000000000000, 2.500000000000000000, 5.000000000000001776 ) ) ;
#18 = ADVANCED_FACE ( 'NONE', ( #270 ), #73, .T. ) ;
#19 = EDGE_LOOP ( 'NONE', ( #450, #50, #57, #33 ) ) ;
#20 = ADVANCED_FACE ( 'NONE', ( #305 ), #319, .F. ) ;
#21 = DIRECTION ( 'NONE',  ( 0.000000000000000000, 0.000000000000000000, -1.000000000000000000 ) ) ;
#22 = VECTOR ( 'NONE', #254, 1000.000000000000000 ) ;
#23 = ORIENTED_EDGE ( 'NONE', *, *, #392, .T. ) ;
#24 = VECTOR ( 'NONE', #184, 1000.000000000000000 ) ;
#25 = DIRECTION ( 'NONE',  ( 0.000000000000000000, 0.000000000000000000, 1.000000000000000000 ) ) ;
#26 = PLANE ( 'NONE',  #266 ) ;
#27 = DIRECTION ( 'NONE',  ( 0.000000000000000000, -1.000000000000000000, 0.000000000000000000 ) ) ;
#28 = LINE ( 'NONE', #162, #506 ) ;
#29 = LINE ( 'NONE', #144, #234 ) ;
#30 = CC_DESIGN_APPROVAL ( #238, ( #434 ) ) ;
#31 = CARTESIAN_POINT ( 'NONE',  ( -88.00000000000000000, -2.500000000000000000, 2.500000000000000444 ) ) ;
#32 = DIRECTION ( 'NONE',  ( -0.000000000000000000, 1.000000000000000000, -0.000000000000000000 ) ) ;
#33 = ORIENTED_EDGE ( 'NONE', *, *, #299, .T. ) ;
#34 = AXIS2_PLACEMENT_3D ( 'NONE', #145, #70, #149 ) ;
#35 = AXIS2_PLACEMENT_3D ( 'NONE', #382, #25, #307 ) ;
#36 = DATE_TIME_ROLE ( 'creation_date' ) ;
#37 = VERTEX_POINT ( 'NONE', #31 ) ;
#38 = ADVANCED_FACE ( 'NONE', ( #509, #472 ), #191, .F. ) ;
#39 = CARTESIAN_POINT ( 'NONE',  ( -94.00000000000000000, -2.500000000000000000, 5.000000000000001776 ) ) ;
#40 = EDGE_CURVE ( 'NONE', #323, #5, #148, .T. ) ;
#41 = ORIENTED_EDGE ( 'NONE', *, *, #432, .T. ) ;
#42 = LINE ( 'NONE', #121, #22 ) ;
#43 = EDGE_LOOP ( 'NONE', ( #96, #135, #98, #160 ) ) ;
#44 = AXIS2_PLACEMENT_3D ( 'NONE', #465, #440, #155 ) ;
#45 = CALENDAR_DATE ( 2025, 3, 6 ) ;
#46 = LINE ( 'NONE', #207, #308 ) ;
#47 = ORIENTED_EDGE ( 'NONE', *, *, #153, .T. ) ;
#48 = APPROVAL_ROLE ( '' ) ;
#49 = CARTESIAN_POINT ( 'NONE',  ( -88.00000000000000000, 2.500000000000000000, 2.500000000000000444 ) ) ;
#50 = ORIENTED_EDGE ( 'NONE', *, *, #260, .F. ) ;
#51 = SHAPE_DEFINITION_REPRESENTATION ( #285, #412 ) ;
#52 = DIRECTION ( 'NONE',  ( 0.000000000000000000, 0.000000000000000000, -1.000000000000000000 ) ) ;
#53 = ORIENTED_EDGE ( 'NONE', *, *, #159, .T. ) ;
#54 = LOCAL_TIME ( 10, 39, 49.00000000000000000, #277 ) ;
#55 = DIRECTION ( 'NONE',  ( 1.000000000000000000, 0.000000000000000000, 0.000000000000000000 ) ) ;
#56 = CIRCLE ( 'NONE', #288, 1.000000000000000000 ) ;
#57 = ORIENTED_EDGE ( 'NONE', *, *, #226, .T. ) ;
#58 = EDGE_CURVE ( 'NONE', #290, #393, #28, .T. ) ;
#59 = PRODUCT_RELATED_PRODUCT_CATEGORY ( 'detail', '', ( #364 ) ) ;
#60 = CARTESIAN_POINT ( 'NONE',  ( 94.00000000000000000, 2.500000000000000000, 6.000000000000001776 ) ) ;
#61 = EDGE_CURVE ( 'NONE', #215, #323, #187, .T. ) ;
#62 = ORIENTED_EDGE ( 'NONE', *, *, #136, .F. ) ;
#63 = FACE_OUTER_BOUND ( 'NONE', #371, .T. ) ;
#64 = EDGE_LOOP ( 'NONE', ( #77, #138, #14, #127 ) ) ;
#65 = FACE_OUTER_BOUND ( 'NONE', #19, .T. ) ;
#66 = VECTOR ( 'NONE', #79, 1000.000000000000000 ) ;
#67 = FACE_OUTER_BOUND ( 'NONE', #287, .T. ) ;
#68 = CARTESIAN_POINT ( 'NONE',  ( -95.00000000000000000, -2.500000000000000000, 6.000000000000001776 ) ) ;
#69 = EDGE_CURVE ( 'NONE', #368, #340, #56, .T. ) ;
#70 = DIRECTION ( 'NONE',  ( 0.000000000000000000, -1.000000000000000000, 0.000000000000000000 ) ) ;
#71 = CARTESIAN_POINT ( 'NONE',  ( 94.00000000000000000, 2.500000000000000000, -5.999999999999998224 ) ) ;
#72 = LINE ( 'NONE', #291, #140 ) ;
#73 = PLANE ( 'NONE',  #357 ) ;
#74 = MECHANICAL_CONTEXT ( 'NONE', #511, 'mechanical' ) ;
#75 = PERSON_AND_ORGANIZATION ( #199, #76 ) ;
#76 = ORGANIZATION ( 'UNSPECIFIED', 'UNSPECIFIED', '' ) ;
#77 = ORIENTED_EDGE ( 'NONE', *, *, #153, .F. ) ;
#78 = AXIS2_PLACEMENT_3D ( 'NONE', #463, #330, #137 ) ;
#79 = DIRECTION ( 'NONE',  ( -1.000000000000000000, -0.000000000000000000, -0.000000000000000000 ) ) ;
#80 = LINE ( 'NONE', #493, #12 ) ;
#81 = CARTESIAN_POINT ( 'NONE',  ( -88.00000000000000000, 2.500000000000000000, 2.500000000000000444 ) ) ;
#82 = CIRCLE ( 'NONE', #466, 1.000000000000000000 ) ;
#83 = PERSON_AND_ORGANIZATION_ROLE ( 'classification_officer' ) ;
#84 = CARTESIAN_POINT ( 'NONE',  ( 95.00000000000000000, 2.500000000000000000, -4.999999999999997335 ) ) ;
#85 = ORIENTED_EDGE ( 'NONE', *, *, #226, .F. ) ;
#86 = PLANE ( 'NONE',  #78 ) ;
#87 = ORIENTED_EDGE ( 'NONE', *, *, #295, .F. ) ;
#88 = CARTESIAN_POINT ( 'NONE',  ( -94.00000000000000000, 2.500000000000000000, -4.999999999999997335 ) ) ;
#89 = EDGE_LOOP ( 'NONE', ( #491, #47, #316, #262 ) ) ;
#90 = EDGE_CURVE ( 'NONE', #5, #475, #200, .T. ) ;
#91 = CC_DESIGN_PERSON_AND_ORGANIZATION_ASSIGNMENT ( #75, #231, ( #434 ) ) ;
#92 = CARTESIAN_POINT ( 'NONE',  ( 88.00000000000000000, 2.500000000000000000, 0.000000000000000000 ) ) ;
#93 = AXIS2_PLACEMENT_3D ( 'NONE', #157, #505, #347 ) ;
#94 = CC_DESIGN_PERSON_AND_ORGANIZATION_ASSIGNMENT ( #430, #312, ( #364 ) ) ;
#95 = CIRCLE ( 'NONE', #297, 1.000000000000000000 ) ;
#96 = ORIENTED_EDGE ( 'NONE', *, *, #249, .F. ) ;
#97 = CARTESIAN_POINT ( 'NONE',  ( 95.00000000000000000, 2.500000000000000000, 6.000000000000001776 ) ) ;
#98 = ORIENTED_EDGE ( 'NONE', *, *, #295, .T. ) ;
#99 = DIRECTION ( 'NONE',  ( 0.000000000000000000, 0.000000000000000000, 1.000000000000000000 ) ) ;
#100 = DIRECTION ( 'NONE',  ( -0.000000000000000000, 1.000000000000000000, -0.000000000000000000 ) ) ;
#101 = DIRECTION ( 'NONE',  ( 0.000000000000000000, 0.000000000000000000, 1.000000000000000000 ) ) ;
#102 = CARTESIAN_POINT ( 'NONE',  ( 88.00000000000000000, -2.500000000000000000, 0.000000000000000000 ) ) ;
#103 = CARTESIAN_POINT ( 'NONE',  ( -88.00000000000000000, 2.500000000000000000, 0.000000000000000000 ) ) ;
#104 = CARTESIAN_POINT ( 'NONE',  ( 88.00000000000000000, -2.500000000000000000, -2.500000000000000444 ) ) ;
#105 = DIRECTION ( 'NONE',  ( -0.000000000000000000, -0.000000000000000000, 1.000000000000000000 ) ) ;
#106 = EDGE_CURVE ( 'NONE', #500, #340, #229, .T. ) ;
#107 = CC_DESIGN_APPROVAL ( #154, ( #228 ) ) ;
#108 =( NAMED_UNIT ( * ) SI_UNIT ( $, .STERADIAN. ) SOLID_ANGLE_UNIT ( ) );
#109 = EDGE_CURVE ( 'NONE', #393, #208, #95, .T. ) ;
#110 = AXIS2_PLACEMENT_3D ( 'NONE', #6, #373, #52 ) ;
#111 = EDGE_LOOP ( 'NONE', ( #175, #512, #337, #315 ) ) ;
#112 = DATE_AND_TIME ( #3, #54 ) ;
#113 = CC_DESIGN_SECURITY_CLASSIFICATION ( #228, ( #146 ) ) ;
#114 = CARTESIAN_POINT ( 'NONE',  ( -95.00000000000000000, -2.500000000000000000, 6.000000000000001776 ) ) ;
#115 = LOCAL_TIME ( 10, 39, 49.00000000000000000, #483 ) ;
#116 = ORIENTED_EDGE ( 'NONE', *, *, #282, .T. ) ;
#117 = CIRCLE ( 'NONE', #417, 1.000000000000000000 ) ;
#118 = CARTESIAN_POINT ( 'NONE',  ( 95.00000000000000000, 2.500000000000000000, 5.000000000000001776 ) ) ;
#119 = ORIENTED_EDGE ( 'NONE', *, *, #392, .F. ) ;
#120 = DATE_AND_TIME ( #124, #212 ) ;
#121 = CARTESIAN_POINT ( 'NONE',  ( 88.00000000000000000, 2.500000000000000000, -2.500000000000000444 ) ) ;
#122 = ORIENTED_EDGE ( 'NONE', *, *, #241, .F. ) ;
#123 = DESIGN_CONTEXT ( 'detailed design', #132, 'design' ) ;
#124 = CALENDAR_DATE ( 2025, 3, 6 ) ;
#125 = DIRECTION ( 'NONE',  ( 0.000000000000000000, -1.000000000000000000, 0.000000000000000000 ) ) ;
#126 = AXIS2_PLACEMENT_3D ( 'NONE', #507, #151, #311 ) ;
#127 = ORIENTED_EDGE ( 'NONE', *, *, #1, .T. ) ;
#128 = VECTOR ( 'NONE', #271, 1000.000000000000000 ) ;
#129 = APPROVAL_STATUS ( 'not_yet_approved' ) ;
#130 = CARTESIAN_POINT ( 'NONE',  ( -95.00000000000000000, 2.500000000000000000, -5.999999999999998224 ) ) ;
#131 = ORIENTED_EDGE ( 'NONE', *, *, #202, .F. ) ;
#132 = APPLICATION_CONTEXT ( 'configuration controlled 3d designs of mechanical parts and assemblies' ) ;
#133 = CARTESIAN_POINT ( 'NONE',  ( 88.00000000000000000, 2.500000000000000000, 2.500000000000000444 ) ) ;
#134 = EDGE_CURVE ( 'NONE', #416, #201, #510, .T. ) ;
#135 = ORIENTED_EDGE ( 'NONE', *, *, #1, .F. ) ;
#136 = EDGE_CURVE ( 'NONE', #401, #498, #383, .T. ) ;
#137 = DIRECTION ( 'NONE',  ( -1.000000000000000000, 0.000000000000000000, -0.000000000000000000 ) ) ;
#138 = ORIENTED_EDGE ( 'NONE', *, *, #299, .F. ) ;
#139 = CARTESIAN_POINT ( 'NONE',  ( -94.00000000000000000, 2.500000000000000000, 5.000000000000001776 ) ) ;
#140 = VECTOR ( 'NONE', #125, 1000.000000000000000 ) ;
#141 = ORIENTED_EDGE ( 'NONE', *, *, #69, .T. ) ;
#142 = CARTESIAN_POINT ( 'NONE',  ( -88.00000000000000000, -2.500000000000000000, -2.500000000000000444 ) ) ;
#143 = ORIENTED_EDGE ( 'NONE', *, *, #447, .F. ) ;
#144 = CARTESIAN_POINT ( 'NONE',  ( 95.00000000000000000, 2.500000000000000000, 5.000000000000001776 ) ) ;
#145 = CARTESIAN_POINT ( 'NONE',  ( 94.00000000000000000, -2.500000000000000000, 5.000000000000001776 ) ) ;
#146 = PRODUCT_DEFINITION_FORMATION_WITH_SPECIFIED_SOURCE ( 'ANY', '', #364, .NOT_KNOWN. ) ;
#147 = FACE_OUTER_BOUND ( 'NONE', #168, .T. ) ;
#148 = CIRCLE ( 'NONE', #441, 2.500000000000000444 ) ;
#149 = DIRECTION ( 'NONE',  ( 0.000000000000000000, 0.000000000000000000, -1.000000000000000000 ) ) ;
#150 = VECTOR ( 'NONE', #342, 1000.000000000000000 ) ;
#151 = DIRECTION ( 'NONE',  ( -0.000000000000000000, 1.000000000000000000, -0.000000000000000000 ) ) ;
#152 = PERSON_AND_ORGANIZATION ( #199, #76 ) ;
#153 = EDGE_CURVE ( 'NONE', #475, #37, #338, .T. ) ;
#154 = APPROVAL ( #129, 'UNSPECIFIED' ) ;
#155 = DIRECTION ( 'NONE',  ( 0.000000000000000000, 0.000000000000000000, -1.000000000000000000 ) ) ;
#156 = ADVANCED_FACE ( 'NONE', ( #67, #381 ), #26, .T. ) ;
#157 = CARTESIAN_POINT ( 'NONE',  ( -88.00000000000000000, -2.500000000000000000, 0.000000000000000000 ) ) ;
#158 = CIRCLE ( 'NONE', #221, 2.500000000000000444 ) ;
#159 = EDGE_CURVE ( 'NONE', #496, #398, #320, .T. ) ;
#160 = ORIENTED_EDGE ( 'NONE', *, *, #61, .T. ) ;
#161 = DATE_AND_TIME ( #45, #255 ) ;
#162 = CARTESIAN_POINT ( 'NONE',  ( -95.00000000000000000, 2.500000000000000000, 6.000000000000001776 ) ) ;
#163 = VERTEX_POINT ( 'NONE', #49 ) ;
#164 = CLOSED_SHELL ( 'NONE', ( #38, #156, #341, #374, #252, #317, #205, #18, #20, #481, #237, #470, #334, #243 ) ) ;
#165 = AXIS2_PLACEMENT_3D ( 'NONE', #499, #99, #423 ) ;
#166 = COORDINATED_UNIVERSAL_TIME_OFFSET ( 1, 0, .AHEAD. ) ;
#167 = LINE ( 'NONE', #490, #394 ) ;
#168 = EDGE_LOOP ( 'NONE', ( #213, #395, #359, #23 ) ) ;
#169 = CARTESIAN_POINT ( 'NONE',  ( 94.00000000000000000, 2.500000000000000000, -4.999999999999998224 ) ) ;
#170 = CARTESIAN_POINT ( 'NONE',  ( -88.00000000000000000, -2.500000000000000000, 2.500000000000000444 ) ) ;
#171 = AXIS2_PLACEMENT_3D ( 'NONE', #273, #275, #437 ) ;
#172 = VERTEX_POINT ( 'NONE', #452 ) ;
#173 = AXIS2_PLACEMENT_3D ( 'NONE', #88, #370, #485 ) ;
#174 = DIRECTION ( 'NONE',  ( 0.000000000000000000, 0.000000000000000000, -1.000000000000000000 ) ) ;
#175 = ORIENTED_EDGE ( 'NONE', *, *, #193, .F. ) ;
#176 = FACE_OUTER_BOUND ( 'NONE', #16, .T. ) ;
#177 = ORIENTED_EDGE ( 'NONE', *, *, #7, .F. ) ;
#178 = LINE ( 'NONE', #378, #390 ) ;
#179 = VERTEX_POINT ( 'NONE', #118 ) ;
#180 = AXIS2_PLACEMENT_3D ( 'NONE', #17, #302, #339 ) ;
#181 = FACE_OUTER_BOUND ( 'NONE', #411, .T. ) ;
#182 = VECTOR ( 'NONE', #55, 1000.000000000000000 ) ;
#183 = EDGE_LOOP ( 'NONE', ( #439, #486, #236, #276 ) ) ;
#184 = DIRECTION ( 'NONE',  ( 1.000000000000000000, 0.000000000000000000, 0.000000000000000000 ) ) ;
#185 = DIRECTION ( 'NONE',  ( 0.000000000000000000, -1.000000000000000000, 0.000000000000000000 ) ) ;
#186 = LINE ( 'NONE', #293, #192 ) ;
#187 = LINE ( 'NONE', #391, #128 ) ;
#188 = CARTESIAN_POINT ( 'NONE',  ( 95.00000000000000000, -2.500000000000000000, 6.000000000000001776 ) ) ;
#189 = EDGE_CURVE ( 'NONE', #201, #290, #117, .T. ) ;
#190 =( NAMED_UNIT ( * ) PLANE_ANGLE_UNIT ( ) SI_UNIT ( $, .RADIAN. ) );
#191 = PLANE ( 'NONE',  #2 ) ;
#192 = VECTOR ( 'NONE', #21, 1000.000000000000000 ) ;
#193 = EDGE_CURVE ( 'NONE', #401, #201, #487, .T. ) ;
#194 = LINE ( 'NONE', #313, #274 ) ;
#195 = VECTOR ( 'NONE', #424, 1000.000000000000000 ) ;
#196 = ORIENTED_EDGE ( 'NONE', *, *, #69, .F. ) ;
#197 = CALENDAR_DATE ( 2025, 3, 6 ) ;
#198 = ORIENTED_EDGE ( 'NONE', *, *, #189, .F. ) ;
#199 = PERSON ( 'UNSPECIFIED', 'UNSPECIFIED', 'UNSPECIFIED', ('UNSPECIFIED'), ('UNSPECIFIED'), ('UNSPECIFIED') ) ;
#200 = LINE ( 'NONE', #516, #66 ) ;
#201 = VERTEX_POINT ( 'NONE', #8 ) ;
#202 = EDGE_CURVE ( 'NONE', #290, #500, #449, .T. ) ;
#203 = DIRECTION ( 'NONE',  ( 1.000000000000000000, -0.000000000000000000, 0.000000000000000000 ) ) ;
#204 = CC_DESIGN_PERSON_AND_ORGANIZATION_ASSIGNMENT ( #281, #444, ( #146 ) ) ;
#205 = ADVANCED_FACE ( 'NONE', ( #445 ), #214, .F. ) ;
#206 = APPROVAL_STATUS ( 'not_yet_approved' ) ;
#207 = CARTESIAN_POINT ( 'NONE',  ( -88.00000000000000000, 2.500000000000000000, -2.500000000000000444 ) ) ;
#208 = VERTEX_POINT ( 'NONE', #455 ) ;
#209 = FACE_OUTER_BOUND ( 'NONE', #183, .T. ) ;
#210 = ORIENTED_EDGE ( 'NONE', *, *, #353, .T. ) ;
#211 = DIRECTION ( 'NONE',  ( 0.000000000000000000, 0.000000000000000000, -1.000000000000000000 ) ) ;
#212 = LOCAL_TIME ( 10, 39, 49.00000000000000000, #166 ) ;
#213 = ORIENTED_EDGE ( 'NONE', *, *, #492, .T. ) ;
#214 = CYLINDRICAL_SURFACE ( 'NONE', #110, 2.500000000000000444 ) ;
#215 = VERTEX_POINT ( 'NONE', #133 ) ;
#216 = DIRECTION ( 'NONE',  ( 0.000000000000000000, 0.000000000000000000, 1.000000000000000000 ) ) ;
#217 = ORIENTED_EDGE ( 'NONE', *, *, #447, .T. ) ;
#218 = PLANE ( 'NONE',  #35 ) ;
#219 = VERTEX_POINT ( 'NONE', #84 ) ;
#220 = CYLINDRICAL_SURFACE ( 'NONE', #258, 1.000000000000000000 ) ;
#221 = AXIS2_PLACEMENT_3D ( 'NONE', #103, #344, #101 ) ;
#222 = DIRECTION ( 'NONE',  ( -1.000000000000000000, 0.000000000000000000, -0.000000000000000000 ) ) ;
#223 = FACE_OUTER_BOUND ( 'NONE', #111, .T. ) ;
#224 = DIRECTION ( 'NONE',  ( 0.000000000000000000, 0.000000000000000000, 1.000000000000000000 ) ) ;
#225 = DIRECTION ( 'NONE',  ( -0.000000000000000000, 1.000000000000000000, -0.000000000000000000 ) ) ;
#226 = EDGE_CURVE ( 'NONE', #303, #446, #80, .T. ) ;
#227 = DIRECTION ( 'NONE',  ( 0.000000000000000000, -1.000000000000000000, 0.000000000000000000 ) ) ;
#228 = SECURITY_CLASSIFICATION ( '', '', #489 ) ;
#229 = LINE ( 'NONE', #114, #350 ) ;
#230 = CARTESIAN_POINT ( 'NONE',  ( 0.000000000000000000, 0.000000000000000000, 0.000000000000000000 ) ) ;
#231 = PERSON_AND_ORGANIZATION_ROLE ( 'creator' ) ;
#232 = VECTOR ( 'NONE', #244, 1000.000000000000000 ) ;
#233 = ORIENTED_EDGE ( 'NONE', *, *, #106, .F. ) ;
#234 = VECTOR ( 'NONE', #27, 1000.000000000000000 ) ;
#235 = CARTESIAN_POINT ( 'NONE',  ( -94.00000000000000000, 2.500000000000000000, 5.000000000000001776 ) ) ;
#236 = ORIENTED_EDGE ( 'NONE', *, *, #58, .F. ) ;
#237 = ADVANCED_FACE ( 'NONE', ( #240 ), #248, .T. ) ;
#238 = APPROVAL ( #399, 'UNSPECIFIED' ) ;
#239 = APPROVAL_ROLE ( '' ) ;
#240 = FACE_OUTER_BOUND ( 'NONE', #377, .T. ) ;
#241 = EDGE_CURVE ( 'NONE', #208, #368, #72, .T. ) ;
#242 = ORIENTED_EDGE ( 'NONE', *, *, #282, .F. ) ;
#243 = ADVANCED_FACE ( 'NONE', ( #176 ), #479, .T. ) ;
#244 = DIRECTION ( 'NONE',  ( 1.000000000000000000, 0.000000000000000000, 0.000000000000000000 ) ) ;
#245 = MANIFOLD_SOLID_BREP ( 'Congé2', #164 ) ;
#246 = AXIS2_PLACEMENT_3D ( 'NONE', #408, #203, #174 ) ;
#247 = DATE_TIME_ROLE ( 'classification_date' ) ;
#248 = CYLINDRICAL_SURFACE ( 'NONE', #436, 1.000000000000000000 ) ;
#249 = EDGE_CURVE ( 'NONE', #37, #323, #366, .T. ) ;
#250 = EDGE_LOOP ( 'NONE', ( #379, #420, #422, #454 ) ) ;
#251 = CARTESIAN_POINT ( 'NONE',  ( -94.00000000000000000, 2.500000000000000000, -4.999999999999997335 ) ) ;
#252 = ADVANCED_FACE ( 'NONE', ( #209 ), #400, .F. ) ;
#253 = ORIENTED_EDGE ( 'NONE', *, *, #515, .F. ) ;
#254 = DIRECTION ( 'NONE',  ( -0.000000000000000000, -1.000000000000000000, -0.000000000000000000 ) ) ;
#255 = LOCAL_TIME ( 10, 39, 49.00000000000000000, #396 ) ;
#256 = ORIENTED_EDGE ( 'NONE', *, *, #241, .T. ) ;
#257 = PLANE ( 'NONE',  #405 ) ;
#258 = AXIS2_PLACEMENT_3D ( 'NONE', #139, #263, #459 ) ;
#259 = ORIENTED_EDGE ( 'NONE', *, *, #484, .T. ) ;
#260 = EDGE_CURVE ( 'NONE', #303, #5, #42, .T. ) ;
#261 = DIRECTION ( 'NONE',  ( 0.000000000000000000, 0.000000000000000000, 1.000000000000000000 ) ) ;
#262 = ORIENTED_EDGE ( 'NONE', *, *, #40, .T. ) ;
#263 = DIRECTION ( 'NONE',  ( 0.000000000000000000, -1.000000000000000000, 0.000000000000000000 ) ) ;
#264 = CARTESIAN_POINT ( 'NONE',  ( 94.00000000000000000, 2.500000000000000000, -5.999999999999998224 ) ) ;
#265 = CARTESIAN_POINT ( 'NONE',  ( -95.00000000000000000, 2.500000000000000000, 5.000000000000001776 ) ) ;
#266 = AXIS2_PLACEMENT_3D ( 'NONE', #428, #185, #343 ) ;
#267 = CARTESIAN_POINT ( 'NONE',  ( -88.00000000000000000, 2.500000000000000000, 2.500000000000000444 ) ) ;
#268 = CARTESIAN_POINT ( 'NONE',  ( -95.00000000000000000, -2.500000000000000000, 5.000000000000001776 ) ) ;
#269 = DIRECTION ( 'NONE',  ( 1.000000000000000000, 0.000000000000000000, 0.000000000000000000 ) ) ;
#270 = FACE_OUTER_BOUND ( 'NONE', #43, .T. ) ;
#271 = DIRECTION ( 'NONE',  ( -0.000000000000000000, -1.000000000000000000, -0.000000000000000000 ) ) ;
#272 = VECTOR ( 'NONE', #471, 1000.000000000000000 ) ;
#273 = CARTESIAN_POINT ( 'NONE',  ( 94.00000000000000000, 2.500000000000000000, 5.000000000000001776 ) ) ;
#274 = VECTOR ( 'NONE', #469, 1000.000000000000000 ) ;
#275 = DIRECTION ( 'NONE',  ( -0.000000000000000000, 1.000000000000000000, -0.000000000000000000 ) ) ;
#276 = ORIENTED_EDGE ( 'NONE', *, *, #202, .T. ) ;
#277 = COORDINATED_UNIVERSAL_TIME_OFFSET ( 1, 0, .AHEAD. ) ;
#278 = DIRECTION ( 'NONE',  ( 0.000000000000000000, -1.000000000000000000, 0.000000000000000000 ) ) ;
#279 = EDGE_CURVE ( 'NONE', #498, #416, #167, .T. ) ;
#280 = ORIENTED_EDGE ( 'NONE', *, *, #484, .F. ) ;
#281 = PERSON_AND_ORGANIZATION ( #199, #76 ) ;
#282 = EDGE_CURVE ( 'NONE', #500, #416, #82, .T. ) ;
#283 = DIRECTION ( 'NONE',  ( -1.000000000000000000, -0.000000000000000000, -0.000000000000000000 ) ) ;
#284 = DIRECTION ( 'NONE',  ( 0.000000000000000000, -1.000000000000000000, 0.000000000000000000 ) ) ;
#285 = PRODUCT_DEFINITION_SHAPE ( 'NONE', 'NONE',  #434 ) ;
#286 = DIRECTION ( 'NONE',  ( -0.000000000000000000, -1.000000000000000000, -0.000000000000000000 ) ) ;
#287 = EDGE_LOOP ( 'NONE', ( #460, #333, #9, #53, #363, #141, #233, #116 ) ) ;
#288 = AXIS2_PLACEMENT_3D ( 'NONE', #39, #397, #435 ) ;
#289 = DIRECTION ( 'NONE',  ( -1.000000000000000000, -0.000000000000000000, -0.000000000000000000 ) ) ;
#290 = VERTEX_POINT ( 'NONE', #4 ) ;
#291 = CARTESIAN_POINT ( 'NONE',  ( -94.00000000000000000, 2.500000000000000000, 6.000000000000001776 ) ) ;
#292 = ORIENTED_EDGE ( 'NONE', *, *, #189, .T. ) ;
#293 = CARTESIAN_POINT ( 'NONE',  ( 95.00000000000000000, 2.500000000000000000, 6.000000000000001776 ) ) ;
#294 = VERTEX_POINT ( 'NONE', #328 ) ;
#295 = EDGE_CURVE ( 'NONE', #163, #215, #413, .T. ) ;
#296 = CC_DESIGN_DATE_AND_TIME_ASSIGNMENT ( #112, #36, ( #434 ) ) ;
#297 = AXIS2_PLACEMENT_3D ( 'NONE', #235, #32, #431 ) ;
#298 = DIRECTION ( 'NONE',  ( -1.000000000000000000, 0.000000000000000000, 0.000000000000000000 ) ) ;
#299 = EDGE_CURVE ( 'NONE', #446, #475, #46, .T. ) ;
#300 = EDGE_LOOP ( 'NONE', ( #514, #210, #143, #256 ) ) ;
#301 = UNCERTAINTY_MEASURE_WITH_UNIT (LENGTH_MEASURE( 1.000000000000000082E-05 ), #508, 'distance_accuracy_value', 'NONE');
#302 = DIRECTION ( 'NONE',  ( 0.000000000000000000, -1.000000000000000000, 0.000000000000000000 ) ) ;
#303 = VERTEX_POINT ( 'NONE', #324 ) ;
#304 = CARTESIAN_POINT ( 'NONE',  ( -94.00000000000000000, -2.500000000000000000, -5.999999999999998224 ) ) ;
#305 = FACE_OUTER_BOUND ( 'NONE', #250, .T. ) ;
#306 = CIRCLE ( 'NONE', #171, 1.000000000000000000 ) ;
#307 = DIRECTION ( 'NONE',  ( 1.000000000000000000, 0.000000000000000000, -0.000000000000000000 ) ) ;
#308 = VECTOR ( 'NONE', #286, 1000.000000000000000 ) ;
#309 = CIRCLE ( 'NONE', #442, 2.500000000000000444 ) ;
#310 = DIRECTION ( 'NONE',  ( 0.000000000000000000, 0.000000000000000000, -1.000000000000000000 ) ) ;
#311 = DIRECTION ( 'NONE',  ( 0.000000000000000000, 0.000000000000000000, -1.000000000000000000 ) ) ;
#312 = PERSON_AND_ORGANIZATION_ROLE ( 'design_owner' ) ;
#313 = CARTESIAN_POINT ( 'NONE',  ( -88.00000000000000000, 2.500000000000000000, 2.500000000000000444 ) ) ;
#314 = DIRECTION ( 'NONE',  ( 0.000000000000000000, -0.000000000000000000, -1.000000000000000000 ) ) ;
#315 = ORIENTED_EDGE ( 'NONE', *, *, #134, .T. ) ;
#316 = ORIENTED_EDGE ( 'NONE', *, *, #249, .T. ) ;
#317 = ADVANCED_FACE ( 'NONE', ( #453 ), #86, .F. ) ;
#318 = APPROVAL_DATE_TIME ( #161, #238 ) ;
#319 = CYLINDRICAL_SURFACE ( 'NONE', #44, 2.500000000000000444 ) ;
#320 = CIRCLE ( 'NONE', #34, 1.000000000000000000 ) ;
#321 = PERSON_AND_ORGANIZATION_ROLE ( 'design_supplier' ) ;
#322 = CARTESIAN_POINT ( 'NONE',  ( -94.00000000000000000, -2.500000000000000000, -4.999999999999997335 ) ) ;
#323 = VERTEX_POINT ( 'NONE', #335 ) ;
#324 = CARTESIAN_POINT ( 'NONE',  ( 88.00000000000000000, 2.500000000000000000, -2.500000000000000444 ) ) ;
#325 = APPROVAL_DATE_TIME ( #120, #433 ) ;
#326 = CARTESIAN_POINT ( 'NONE',  ( -95.00000000000000000, 2.500000000000000000, -4.999999999999997335 ) ) ;
#327 = ORIENTED_EDGE ( 'NONE', *, *, #331, .F. ) ;
#328 = CARTESIAN_POINT ( 'NONE',  ( 94.00000000000000000, 2.500000000000000000, 6.000000000000001776 ) ) ;
#329 = EDGE_LOOP ( 'NONE', ( #41, #259, #409, #292, #361, #477, #217, #458 ) ) ;
#330 = DIRECTION ( 'NONE',  ( 0.000000000000000000, 0.000000000000000000, -1.000000000000000000 ) ) ;
#331 = EDGE_CURVE ( 'NONE', #340, #393, #178, .T. ) ;
#332 = CC_DESIGN_DATE_AND_TIME_ASSIGNMENT ( #402, #247, ( #228 ) ) ;
#333 = ORIENTED_EDGE ( 'NONE', *, *, #7, .T. ) ;
#334 = ADVANCED_FACE ( 'NONE', ( #63 ), #220, .T. ) ;
#335 = CARTESIAN_POINT ( 'NONE',  ( 88.00000000000000000, -2.500000000000000000, 2.500000000000000444 ) ) ;
#336 = APPROVAL_PERSON_ORGANIZATION ( #478, #433, #476 ) ;
#337 = ORIENTED_EDGE ( 'NONE', *, *, #279, .T. ) ;
#338 = CIRCLE ( 'NONE', #93, 2.500000000000000444 ) ;
#339 = DIRECTION ( 'NONE',  ( 0.000000000000000000, 0.000000000000000000, -1.000000000000000000 ) ) ;
#340 = VERTEX_POINT ( 'NONE', #268 ) ;
#341 = ADVANCED_FACE ( 'NONE', ( #147 ), #257, .F. ) ;
#342 = DIRECTION ( 'NONE',  ( -0.000000000000000000, 1.000000000000000000, -0.000000000000000000 ) ) ;
#343 = DIRECTION ( 'NONE',  ( 0.000000000000000000, -0.000000000000000000, -1.000000000000000000 ) ) ;
#344 = DIRECTION ( 'NONE',  ( 0.000000000000000000, 1.000000000000000000, 0.000000000000000000 ) ) ;
#345 = APPLICATION_PROTOCOL_DEFINITION ( 'international standard', 'config_control_design', 1994, #511 ) ;
#346 = LOCAL_TIME ( 10, 39, 49.00000000000000000, #438 ) ;
#347 = DIRECTION ( 'NONE',  ( 0.000000000000000000, 0.000000000000000000, 1.000000000000000000 ) ) ;
#348 = APPROVAL_PERSON_ORGANIZATION ( #407, #154, #48 ) ;
#349 = LINE ( 'NONE', #188, #272 ) ;
#350 = VECTOR ( 'NONE', #354, 1000.000000000000000 ) ;
#351 = APPLICATION_PROTOCOL_DEFINITION ( 'international standard', 'config_control_design', 1994, #132 ) ;
#352 = CARTESIAN_POINT ( 'NONE',  ( 0.000000000000000000, 2.500000000000000000, 0.000000000000000000 ) ) ;
#353 = EDGE_CURVE ( 'NONE', #398, #294, #467, .T. ) ;
#354 = DIRECTION ( 'NONE',  ( -0.000000000000000000, -0.000000000000000000, 1.000000000000000000 ) ) ;
#355 = CIRCLE ( 'NONE', #126, 1.000000000000000000 ) ;
#356 = DIRECTION ( 'NONE',  ( 0.000000000000000000, 0.000000000000000000, 1.000000000000000000 ) ) ;
#357 = AXIS2_PLACEMENT_3D ( 'NONE', #267, #385, #222 ) ;
#358 = DATE_AND_TIME ( #197, #346 ) ;
#359 = ORIENTED_EDGE ( 'NONE', *, *, #432, .F. ) ;
#360 = CARTESIAN_POINT ( 'NONE',  ( -94.00000000000000000, 2.500000000000000000, -5.999999999999998224 ) ) ;
#361 = ORIENTED_EDGE ( 'NONE', *, *, #58, .T. ) ;
#362 = DIRECTION ( 'NONE',  ( 0.000000000000000000, 0.000000000000000000, -1.000000000000000000 ) ) ;
#363 = ORIENTED_EDGE ( 'NONE', *, *, #372, .F. ) ;
#364 = PRODUCT ( 'rail_mobile_dessous_P', 'rail_mobile_dessous_P', '', ( #74 ) ) ;
#365 = PERSON_AND_ORGANIZATION ( #199, #76 ) ;
#366 = LINE ( 'NONE', #170, #182 ) ;
#367 = DIRECTION ( 'NONE',  ( 0.000000000000000000, -1.000000000000000000, 0.000000000000000000 ) ) ;
#368 = VERTEX_POINT ( 'NONE', #427 ) ;
#369 = APPROVAL_PERSON_ORGANIZATION ( #152, #238, #239 ) ;
#370 = DIRECTION ( 'NONE',  ( -0.000000000000000000, -1.000000000000000000, 0.000000000000000000 ) ) ;
#371 = EDGE_LOOP ( 'NONE', ( #406, #327, #196, #122 ) ) ;
#372 = EDGE_CURVE ( 'NONE', #368, #398, #380, .T. ) ;
#373 = DIRECTION ( 'NONE',  ( -0.000000000000000000, -1.000000000000000000, -0.000000000000000000 ) ) ;
#374 = ADVANCED_FACE ( 'NONE', ( #223 ), #218, .F. ) ;
#375 = EDGE_LOOP ( 'NONE', ( #456, #85, #482, #87 ) ) ;
#376 = CYLINDRICAL_SURFACE ( 'NONE', #180, 1.000000000000000000 ) ;
#377 = EDGE_LOOP ( 'NONE', ( #280, #462, #177, #62 ) ) ;
#378 = CARTESIAN_POINT ( 'NONE',  ( -95.00000000000000000, 2.500000000000000000, 5.000000000000001776 ) ) ;
#379 = ORIENTED_EDGE ( 'NONE', *, *, #40, .F. ) ;
#380 = LINE ( 'NONE', #68, #24 ) ;
#381 = FACE_BOUND ( 'NONE', #89, .T. ) ;
#382 = CARTESIAN_POINT ( 'NONE',  ( -95.00000000000000000, 2.500000000000000000, -5.999999999999998224 ) ) ;
#383 = LINE ( 'NONE', #264, #195 ) ;
#384 = CARTESIAN_POINT ( 'NONE',  ( -88.00000000000000000, 2.500000000000000000, -2.500000000000000444 ) ) ;
#385 = DIRECTION ( 'NONE',  ( 0.000000000000000000, 0.000000000000000000, -1.000000000000000000 ) ) ;
#386 = VECTOR ( 'NONE', #410, 1000.000000000000000 ) ;
#387 = EDGE_CURVE ( 'NONE', #446, #163, #158, .T. ) ;
#388 = VECTOR ( 'NONE', #283, 1000.000000000000000 ) ;
#389 = CC_DESIGN_PERSON_AND_ORGANIZATION_ASSIGNMENT ( #451, #83, ( #228 ) ) ;
#390 = VECTOR ( 'NONE', #497, 1000.000000000000000 ) ;
#391 = CARTESIAN_POINT ( 'NONE',  ( 88.00000000000000000, 2.500000000000000000, 2.500000000000000444 ) ) ;
#392 = EDGE_CURVE ( 'NONE', #179, #496, #29, .T. ) ;
#393 = VERTEX_POINT ( 'NONE', #265 ) ;
#394 = VECTOR ( 'NONE', #289, 1000.000000000000000 ) ;
#395 = ORIENTED_EDGE ( 'NONE', *, *, #414, .T. ) ;
#396 = COORDINATED_UNIVERSAL_TIME_OFFSET ( 1, 0, .AHEAD. ) ;
#397 = DIRECTION ( 'NONE',  ( 0.000000000000000000, -1.000000000000000000, 0.000000000000000000 ) ) ;
#398 = VERTEX_POINT ( 'NONE', #429 ) ;
#399 = APPROVAL_STATUS ( 'not_yet_approved' ) ;
#400 = PLANE ( 'NONE',  #246 ) ;
#401 = VERTEX_POINT ( 'NONE', #71 ) ;
#402 = DATE_AND_TIME ( #448, #115 ) ;
#403 = DIRECTION ( 'NONE',  ( -1.000000000000000000, -0.000000000000000000, -0.000000000000000000 ) ) ;
#404 = AXIS2_PLACEMENT_3D ( 'NONE', #474, #227, #310 ) ;
#405 = AXIS2_PLACEMENT_3D ( 'NONE', #97, #298, #261 ) ;
#406 = ORIENTED_EDGE ( 'NONE', *, *, #109, .F. ) ;
#407 = PERSON_AND_ORGANIZATION ( #199, #76 ) ;
#408 = CARTESIAN_POINT ( 'NONE',  ( -95.00000000000000000, 2.500000000000000000, 6.000000000000001776 ) ) ;
#409 = ORIENTED_EDGE ( 'NONE', *, *, #193, .T. ) ;
#410 = DIRECTION ( 'NONE',  ( -0.000000000000000000, -1.000000000000000000, 0.000000000000000000 ) ) ;
#411 = EDGE_LOOP ( 'NONE', ( #253, #494, #488, #119 ) ) ;
#412 = ADVANCED_BREP_SHAPE_REPRESENTATION ( 'rail_mobile_dessous_P', ( #245, #10 ), #464 ) ;
#413 = LINE ( 'NONE', #81, #232 ) ;
#414 = EDGE_CURVE ( 'NONE', #172, #219, #501, .T. ) ;
#415 = CARTESIAN_POINT ( 'NONE',  ( 95.00000000000000000, -2.500000000000000000, 5.000000000000001776 ) ) ;
#416 = VERTEX_POINT ( 'NONE', #304 ) ;
#417 = AXIS2_PLACEMENT_3D ( 'NONE', #251, #15, #11 ) ;
#418 = DIRECTION ( 'NONE',  ( 0.000000000000000000, 1.000000000000000000, 0.000000000000000000 ) ) ;
#419 = CARTESIAN_POINT ( 'NONE',  ( 94.00000000000000000, -2.500000000000000000, -5.999999999999998224 ) ) ;
#420 = ORIENTED_EDGE ( 'NONE', *, *, #61, .F. ) ;
#421 = CARTESIAN_POINT ( 'NONE',  ( -95.00000000000000000, 2.500000000000000000, 6.000000000000001776 ) ) ;
#422 = ORIENTED_EDGE ( 'NONE', *, *, #468, .T. ) ;
#423 = DIRECTION ( 'NONE',  ( 1.000000000000000000, 0.000000000000000000, -0.000000000000000000 ) ) ;
#424 = DIRECTION ( 'NONE',  ( 0.000000000000000000, -1.000000000000000000, 0.000000000000000000 ) ) ;
#425 = VECTOR ( 'NONE', #100, 1000.000000000000000 ) ;
#426 = VECTOR ( 'NONE', #225, 1000.000000000000000 ) ;
#427 = CARTESIAN_POINT ( 'NONE',  ( -94.00000000000000000, -2.500000000000000000, 6.000000000000001776 ) ) ;
#428 = CARTESIAN_POINT ( 'NONE',  ( 0.000000000000000000, -2.500000000000000000, 0.000000000000000000 ) ) ;
#429 = CARTESIAN_POINT ( 'NONE',  ( 94.00000000000000000, -2.500000000000000000, 6.000000000000001776 ) ) ;
#430 = PERSON_AND_ORGANIZATION ( #199, #76 ) ;
#431 = DIRECTION ( 'NONE',  ( 0.000000000000000000, 0.000000000000000000, -1.000000000000000000 ) ) ;
#432 = EDGE_CURVE ( 'NONE', #179, #219, #186, .T. ) ;
#433 = APPROVAL ( #206, 'UNSPECIFIED' ) ;
#434 = PRODUCT_DEFINITION ( 'UNKNOWN', '', #146, #123 ) ;
#435 = DIRECTION ( 'NONE',  ( 0.000000000000000000, 0.000000000000000000, -1.000000000000000000 ) ) ;
#436 = AXIS2_PLACEMENT_3D ( 'NONE', #169, #367, #211 ) ;
#437 = DIRECTION ( 'NONE',  ( 0.000000000000000000, 0.000000000000000000, -1.000000000000000000 ) ) ;
#438 = COORDINATED_UNIVERSAL_TIME_OFFSET ( 1, 0, .AHEAD. ) ;
#439 = ORIENTED_EDGE ( 'NONE', *, *, #106, .T. ) ;
#440 = DIRECTION ( 'NONE',  ( -0.000000000000000000, -1.000000000000000000, -0.000000000000000000 ) ) ;
#441 = AXIS2_PLACEMENT_3D ( 'NONE', #102, #502, #224 ) ;
#442 = AXIS2_PLACEMENT_3D ( 'NONE', #92, #418, #216 ) ;
#443 = ORIENTED_EDGE ( 'NONE', *, *, #134, .F. ) ;
#444 = PERSON_AND_ORGANIZATION_ROLE ( 'creator' ) ;
#445 = FACE_OUTER_BOUND ( 'NONE', #64, .T. ) ;
#446 = VERTEX_POINT ( 'NONE', #384 ) ;
#447 = EDGE_CURVE ( 'NONE', #208, #294, #495, .T. ) ;
#448 = CALENDAR_DATE ( 2025, 3, 6 ) ;
#449 = LINE ( 'NONE', #326, #386 ) ;
#450 = ORIENTED_EDGE ( 'NONE', *, *, #90, .F. ) ;
#451 = PERSON_AND_ORGANIZATION ( #199, #76 ) ;
#452 = CARTESIAN_POINT ( 'NONE',  ( 95.00000000000000000, -2.500000000000000000, -4.999999999999997335 ) ) ;
#453 = FACE_OUTER_BOUND ( 'NONE', #300, .T. ) ;
#454 = ORIENTED_EDGE ( 'NONE', *, *, #260, .T. ) ;
#455 = CARTESIAN_POINT ( 'NONE',  ( -94.00000000000000000, 2.500000000000000000, 6.000000000000001776 ) ) ;
#456 = ORIENTED_EDGE ( 'NONE', *, *, #387, .F. ) ;
#457 = DIRECTION ( 'NONE',  ( 1.000000000000000000, 0.000000000000000000, 0.000000000000000000 ) ) ;
#458 = ORIENTED_EDGE ( 'NONE', *, *, #515, .T. ) ;
#459 = DIRECTION ( 'NONE',  ( 0.000000000000000000, 0.000000000000000000, -1.000000000000000000 ) ) ;
#460 = ORIENTED_EDGE ( 'NONE', *, *, #279, .F. ) ;
#461 = PLANE ( 'NONE',  #165 ) ;
#462 = ORIENTED_EDGE ( 'NONE', *, *, #414, .F. ) ;
#463 = CARTESIAN_POINT ( 'NONE',  ( -95.00000000000000000, 2.500000000000000000, 6.000000000000001776 ) ) ;
#464 =( GEOMETRIC_REPRESENTATION_CONTEXT ( 3 ) GLOBAL_UNCERTAINTY_ASSIGNED_CONTEXT ( ( #301 ) ) GLOBAL_UNIT_ASSIGNED_CONTEXT ( ( #508, #190, #108 ) ) REPRESENTATION_CONTEXT ( 'NONE', 'WORKASPACE' ) );
#465 = CARTESIAN_POINT ( 'NONE',  ( 88.00000000000000000, 2.500000000000000000, 0.000000000000000000 ) ) ;
#466 = AXIS2_PLACEMENT_3D ( 'NONE', #322, #284, #362 ) ;
#467 = LINE ( 'NONE', #60, #150 ) ;
#468 = EDGE_CURVE ( 'NONE', #215, #303, #309, .T. ) ;
#469 = DIRECTION ( 'NONE',  ( -0.000000000000000000, -1.000000000000000000, -0.000000000000000000 ) ) ;
#470 = ADVANCED_FACE ( 'NONE', ( #181 ), #376, .T. ) ;
#471 = DIRECTION ( 'NONE',  ( 0.000000000000000000, 0.000000000000000000, -1.000000000000000000 ) ) ;
#472 = FACE_BOUND ( 'NONE', #375, .T. ) ;
#473 = CARTESIAN_POINT ( 'NONE',  ( -95.00000000000000000, -2.500000000000000000, -4.999999999999997335 ) ) ;
#474 = CARTESIAN_POINT ( 'NONE',  ( 94.00000000000000000, -2.500000000000000000, -4.999999999999998224 ) ) ;
#475 = VERTEX_POINT ( 'NONE', #142 ) ;
#476 = APPROVAL_ROLE ( '' ) ;
#477 = ORIENTED_EDGE ( 'NONE', *, *, #109, .T. ) ;
#478 = PERSON_AND_ORGANIZATION ( #199, #76 ) ;
#479 = CYLINDRICAL_SURFACE ( 'NONE', #173, 1.000000000000000000 ) ;
#480 = CIRCLE ( 'NONE', #404, 1.000000000000000000 ) ;
#481 = ADVANCED_FACE ( 'NONE', ( #65 ), #461, .T. ) ;
#482 = ORIENTED_EDGE ( 'NONE', *, *, #468, .F. ) ;
#483 = COORDINATED_UNIVERSAL_TIME_OFFSET ( 1, 0, .AHEAD. ) ;
#484 = EDGE_CURVE ( 'NONE', #219, #401, #355, .T. ) ;
#485 = DIRECTION ( 'NONE',  ( 0.000000000000000000, 0.000000000000000000, -1.000000000000000000 ) ) ;
#486 = ORIENTED_EDGE ( 'NONE', *, *, #331, .T. ) ;
#487 = LINE ( 'NONE', #130, #388 ) ;
#488 = ORIENTED_EDGE ( 'NONE', *, *, #159, .F. ) ;
#489 = SECURITY_CLASSIFICATION_LEVEL ( 'unclassified' ) ;
#490 = CARTESIAN_POINT ( 'NONE',  ( -95.00000000000000000, -2.500000000000000000, -5.999999999999998224 ) ) ;
#491 = ORIENTED_EDGE ( 'NONE', *, *, #90, .T. ) ;
#492 = EDGE_CURVE ( 'NONE', #496, #172, #349, .T. ) ;
#493 = CARTESIAN_POINT ( 'NONE',  ( -88.00000000000000000, 2.500000000000000000, -2.500000000000000444 ) ) ;
#494 = ORIENTED_EDGE ( 'NONE', *, *, #353, .F. ) ;
#495 = LINE ( 'NONE', #421, #13 ) ;
#496 = VERTEX_POINT ( 'NONE', #415 ) ;
#497 = DIRECTION ( 'NONE',  ( 0.000000000000000000, 1.000000000000000000, -0.000000000000000000 ) ) ;
#498 = VERTEX_POINT ( 'NONE', #419 ) ;
#499 = CARTESIAN_POINT ( 'NONE',  ( -88.00000000000000000, 2.500000000000000000, -2.500000000000000444 ) ) ;
#500 = VERTEX_POINT ( 'NONE', #473 ) ;
#501 = LINE ( 'NONE', #503, #426 ) ;
#502 = DIRECTION ( 'NONE',  ( 0.000000000000000000, 1.000000000000000000, 0.000000000000000000 ) ) ;
#503 = CARTESIAN_POINT ( 'NONE',  ( 95.00000000000000000, 2.500000000000000000, -4.999999999999997335 ) ) ;
#504 = CC_DESIGN_APPROVAL ( #433, ( #146 ) ) ;
#505 = DIRECTION ( 'NONE',  ( 0.000000000000000000, 1.000000000000000000, 0.000000000000000000 ) ) ;
#506 = VECTOR ( 'NONE', #105, 1000.000000000000000 ) ;
#507 = CARTESIAN_POINT ( 'NONE',  ( 94.00000000000000000, 2.500000000000000000, -4.999999999999998224 ) ) ;
#508 =( LENGTH_UNIT ( ) NAMED_UNIT ( * ) SI_UNIT ( .MILLI., .METRE. ) );
#509 = FACE_OUTER_BOUND ( 'NONE', #329, .T. ) ;
#510 = LINE ( 'NONE', #360, #425 ) ;
#511 = APPLICATION_CONTEXT ( 'configuration controlled 3d designs of mechanical parts and assemblies' ) ;
#512 = ORIENTED_EDGE ( 'NONE', *, *, #136, .T. ) ;
#513 = APPROVAL_DATE_TIME ( #358, #154 ) ;
#514 = ORIENTED_EDGE ( 'NONE', *, *, #372, .T. ) ;
#515 = EDGE_CURVE ( 'NONE', #294, #179, #306, .T. ) ;
#516 = CARTESIAN_POINT ( 'NONE',  ( -88.00000000000000000, -2.500000000000000000, -2.500000000000000444 ) ) ;
#517 = CC_DESIGN_PERSON_AND_ORGANIZATION_ASSIGNMENT ( #365, #321, ( #146 ) ) ;
ENDSEC;
END-ISO-10303-21;
