ISO-10303-21;
HEADER;
FILE_DESCRIPTION (( 'STEP AP203' ),
    '1' );
FILE_NAME ('rail_mobile_dessus_P.STEP',
    '2025-06-03T08:40:24',
    ( '' ),
    ( '' ),
    'SwSTEP 2.0',
    'SolidWorks 2023',
    '' );
FILE_SCHEMA (( 'CONFIG_CONTROL_DESIGN' ));
ENDSEC;

DATA;
#1 = AXIS2_PLACEMENT_3D ( 'NONE', #115, #948, #531 ) ;
#2 = ORIENTED_EDGE ( 'NONE', *, *, #3, .F. ) ;
#3 = EDGE_CURVE ( 'NONE', #797, #838, #845, .T. ) ;
#4 = VECTOR ( 'NONE', #436, 1000.000000000000000 ) ;
#5 = ORIENTED_EDGE ( 'NONE', *, *, #647, .T. ) ;
#6 = LINE ( 'NONE', #336, #23 ) ;
#7 = CARTESIAN_POINT ( 'NONE',  ( 0.000000000000000000, 0.000000000000000000, 0.000000000000000000 ) ) ;
#8 = EDGE_LOOP ( 'NONE', ( #790, #269, #556, #878, #493, #256, #747, #687 ) ) ;
#9 = DIRECTION ( 'NONE',  ( 0.000000000000000000, -1.000000000000000000, -0.000000000000000000 ) ) ;
#10 = LINE ( 'NONE', #347, #331 ) ;
#11 = APPROVAL_ROLE ( '' ) ;
#12 = VERTEX_POINT ( 'NONE', #308 ) ;
#13 = LINE ( 'NONE', #588, #472 ) ;
#14 = CARTESIAN_POINT ( 'NONE',  ( 88.00000000000000000, -7.599999999999998757, 2.500000000000000000 ) ) ;
#15 = CYLINDRICAL_SURFACE ( 'NONE', #922, 1.000000000000000000 ) ;
#16 = LINE ( 'NONE', #426, #124 ) ;
#17 = VERTEX_POINT ( 'NONE', #632 ) ;
#18 = CARTESIAN_POINT ( 'NONE',  ( -74.99999999999994316, -7.599999999999998757, -2.499999999999997780 ) ) ;
#19 = CIRCLE ( 'NONE', #260, 1.000000000000000000 ) ;
#20 = CIRCLE ( 'NONE', #1028, 1.000000000000000000 ) ;
#21 = LOCAL_TIME ( 10, 40, 24.00000000000000000, #460 ) ;
#22 = DIRECTION ( 'NONE',  ( 3.965082230804128248E-15, 0.000000000000000000, 1.000000000000000000 ) ) ;
#23 = VECTOR ( 'NONE', #168, 1000.000000000000000 ) ;
#24 = AXIS2_PLACEMENT_3D ( 'NONE', #1005, #370, #690 ) ;
#25 = VERTEX_POINT ( 'NONE', #398 ) ;
#26 = DIRECTION ( 'NONE',  ( -0.000000000000000000, -1.000000000000000000, 0.000000000000000000 ) ) ;
#27 = EDGE_CURVE ( 'NONE', #551, #12, #558, .T. ) ;
#28 = PLANE ( 'NONE',  #196 ) ;
#29 = APPROVAL_DATE_TIME ( #920, #691 ) ;
#30 = ORIENTED_EDGE ( 'NONE', *, *, #27, .F. ) ;
#31 = ORIENTED_EDGE ( 'NONE', *, *, #352, .F. ) ;
#32 = EDGE_CURVE ( 'NONE', #433, #797, #871, .T. ) ;
#33 = ADVANCED_FACE ( 'NONE', ( #545 ), #1029, .T. ) ;
#34 = DIRECTION ( 'NONE',  ( -0.000000000000000000, -1.000000000000000000, -0.000000000000000000 ) ) ;
#35 = PERSON_AND_ORGANIZATION_ROLE ( 'design_supplier' ) ;
#36 = VERTEX_POINT ( 'NONE', #780 ) ;
#37 = CARTESIAN_POINT ( 'NONE',  ( 75.99999999999992895, 2.500000000000000000, -5.000000000000000000 ) ) ;
#38 = AXIS2_PLACEMENT_3D ( 'NONE', #47, #617, #538 ) ;
#39 = CARTESIAN_POINT ( 'NONE',  ( 74.99999999999994316, -2.500000000000000444, 4.999999999999999112 ) ) ;
#40 = ADVANCED_FACE ( 'NONE', ( #785 ), #56, .F. ) ;
#41 = ORGANIZATION ( 'UNSPECIFIED', 'UNSPECIFIED', '' ) ;
#42 = PERSON_AND_ORGANIZATION_ROLE ( 'creator' ) ;
#43 = VECTOR ( 'NONE', #292, 1000.000000000000000 ) ;
#44 = EDGE_LOOP ( 'NONE', ( #636, #58, #930, #90, #245, #381, #52, #136 ) ) ;
#45 = VECTOR ( 'NONE', #613, 1000.000000000000000 ) ;
#46 = LINE ( 'NONE', #616, #419 ) ;
#47 = CARTESIAN_POINT ( 'NONE',  ( -94.99999999999994316, 2.500000000000000000, 5.999999999999999112 ) ) ;
#48 = LINE ( 'NONE', #954, #334 ) ;
#49 = ADVANCED_FACE ( 'NONE', ( #477 ), #301, .T. ) ;
#50 = CARTESIAN_POINT ( 'NONE',  ( -88.00000000000000000, 2.500000000000000000, -2.500000000000000000 ) ) ;
#51 = FACE_OUTER_BOUND ( 'NONE', #776, .T. ) ;
#52 = ORIENTED_EDGE ( 'NONE', *, *, #231, .T. ) ;
#53 = FACE_OUTER_BOUND ( 'NONE', #916, .T. ) ;
#54 = DIRECTION ( 'NONE',  ( 0.000000000000000000, -1.000000000000000000, 0.000000000000000000 ) ) ;
#55 = LINE ( 'NONE', #698, #520 ) ;
#56 = PLANE ( 'NONE',  #266 ) ;
#57 = EDGE_CURVE ( 'NONE', #192, #17, #241, .T. ) ;
#58 = ORIENTED_EDGE ( 'NONE', *, *, #482, .T. ) ;
#59 = CARTESIAN_POINT ( 'NONE',  ( 75.99999999999994316, -7.599999999999998757, -2.499999999999997780 ) ) ;
#60 = CARTESIAN_POINT ( 'NONE',  ( -88.00000000000000000, 2.500000000000000000, 2.500000000000000000 ) ) ;
#61 = VECTOR ( 'NONE', #264, 1000.000000000000000 ) ;
#62 = VECTOR ( 'NONE', #9, 1000.000000000000000 ) ;
#63 = CARTESIAN_POINT ( 'NONE',  ( -75.99999999999994316, -7.599999999999998757, -3.500000000000000000 ) ) ;
#64 = VERTEX_POINT ( 'NONE', #569 ) ;
#65 = DIRECTION ( 'NONE',  ( 0.000000000000000000, 0.000000000000000000, -1.000000000000000000 ) ) ;
#66 = ORIENTED_EDGE ( 'NONE', *, *, #459, .T. ) ;
#67 = EDGE_CURVE ( 'NONE', #433, #547, #885, .T. ) ;
#68 = CARTESIAN_POINT ( 'NONE',  ( 75.99999999999994316, -2.500000000000000000, 5.999999999999999112 ) ) ;
#69 = LINE ( 'NONE', #633, #639 ) ;
#70 = ORIENTED_EDGE ( 'NONE', *, *, #559, .T. ) ;
#71 = CARTESIAN_POINT ( 'NONE',  ( -74.99999999999994316, -7.599999999999998757, -3.499999999999996003 ) ) ;
#72 = DIRECTION ( 'NONE',  ( 0.000000000000000000, 0.000000000000000000, 1.000000000000000000 ) ) ;
#73 = ADVANCED_FACE ( 'NONE', ( #1022 ), #414, .F. ) ;
#74 = AXIS2_PLACEMENT_3D ( 'NONE', #210, #700, #931 ) ;
#75 = ORIENTED_EDGE ( 'NONE', *, *, #837, .T. ) ;
#76 = DIRECTION ( 'NONE',  ( 0.000000000000000000, 0.000000000000000000, -1.000000000000000000 ) ) ;
#77 = AXIS2_PLACEMENT_3D ( 'NONE', #626, #850, #868 ) ;
#78 = ADVANCED_FACE ( 'NONE', ( #859 ), #128, .T. ) ;
#79 = ADVANCED_FACE ( 'NONE', ( #841 ), #248, .T. ) ;
#80 = VERTEX_POINT ( 'NONE', #664 ) ;
#81 = DIRECTION ( 'NONE',  ( 0.000000000000000000, 0.000000000000000000, 1.000000000000000000 ) ) ;
#82 = DIRECTION ( 'NONE',  ( 0.000000000000000000, 1.000000000000000000, 0.000000000000000000 ) ) ;
#83 = ORIENTED_EDGE ( 'NONE', *, *, #914, .F. ) ;
#84 = EDGE_CURVE ( 'NONE', #64, #844, #513, .T. ) ;
#85 = DIRECTION ( 'NONE',  ( 0.000000000000000000, 0.000000000000000000, -1.000000000000000000 ) ) ;
#86 = CIRCLE ( 'NONE', #856, 1.000000000000000000 ) ;
#87 = EDGE_LOOP ( 'NONE', ( #592, #211, #455, #394 ) ) ;
#88 = DIRECTION ( 'NONE',  ( 0.000000000000000000, 0.000000000000000000, -1.000000000000000000 ) ) ;
#89 = DIRECTION ( 'NONE',  ( -0.000000000000000000, 1.000000000000000000, -0.000000000000000000 ) ) ;
#90 = ORIENTED_EDGE ( 'NONE', *, *, #544, .T. ) ;
#91 = PLANE ( 'NONE',  #756 ) ;
#92 = CARTESIAN_POINT ( 'NONE',  ( 75.99999999999992895, -7.599999999999998757, 2.500000000000000000 ) ) ;
#93 = DIRECTION ( 'NONE',  ( -1.000000000000000000, 0.000000000000000000, 0.000000000000000000 ) ) ;
#94 = DIRECTION ( 'NONE',  ( 0.000000000000000000, -1.000000000000000000, 0.000000000000000000 ) ) ;
#95 = MECHANICAL_CONTEXT ( 'NONE', #180, 'mechanical' ) ;
#96 = VERTEX_POINT ( 'NONE', #106 ) ;
#97 = LINE ( 'NONE', #434, #880 ) ;
#98 = LINE ( 'NONE', #669, #153 ) ;
#99 = VERTEX_POINT ( 'NONE', #442 ) ;
#100 = CARTESIAN_POINT ( 'NONE',  ( 88.00000000000000000, 2.500000000000000000, -2.500000000000000000 ) ) ;
#101 = CARTESIAN_POINT ( 'NONE',  ( -93.99999999999994316, 2.500000000000000000, 5.999999999999999112 ) ) ;
#102 = ORIENTED_EDGE ( 'NONE', *, *, #635, .F. ) ;
#103 = AXIS2_PLACEMENT_3D ( 'NONE', #339, #998, #662 ) ;
#104 = VECTOR ( 'NONE', #772, 1000.000000000000000 ) ;
#105 = APPROVAL_PERSON_ORGANIZATION ( #774, #303, #203 ) ;
#106 = CARTESIAN_POINT ( 'NONE',  ( 75.99999999999992895, -2.500000000000000000, 2.500000000000000000 ) ) ;
#107 =( LENGTH_UNIT ( ) NAMED_UNIT ( * ) SI_UNIT ( .MILLI., .METRE. ) );
#108 = VECTOR ( 'NONE', #757, 1000.000000000000000 ) ;
#109 = ORIENTED_EDGE ( 'NONE', *, *, #116, .T. ) ;
#110 = DIRECTION ( 'NONE',  ( -0.000000000000000000, 0.000000000000000000, -1.000000000000000000 ) ) ;
#111 = DIRECTION ( 'NONE',  ( -1.000000000000000000, 0.000000000000000000, 0.000000000000000000 ) ) ;
#112 = FACE_OUTER_BOUND ( 'NONE', #1013, .T. ) ;
#113 = ORIENTED_EDGE ( 'NONE', *, *, #666, .T. ) ;
#114 = CARTESIAN_POINT ( 'NONE',  ( -88.00000000000000000, -2.500000000000000000, -2.500000000000000000 ) ) ;
#115 = CARTESIAN_POINT ( 'NONE',  ( 94.00000000000005684, -7.599999999999998757, 4.999999999999999112 ) ) ;
#116 = EDGE_CURVE ( 'NONE', #491, #1023, #190, .T. ) ;
#117 = CARTESIAN_POINT ( 'NONE',  ( -94.99999999999994316, 2.500000000000000000, 5.999999999999999112 ) ) ;
#118 = APPROVAL_STATUS ( 'not_yet_approved' ) ;
#119 = ORIENTED_EDGE ( 'NONE', *, *, #815, .F. ) ;
#120 = DIRECTION ( 'NONE',  ( 0.000000000000000000, 0.000000000000000000, -1.000000000000000000 ) ) ;
#121 = CC_DESIGN_PERSON_AND_ORGANIZATION_ASSIGNMENT ( #282, #35, ( #154 ) ) ;
#122 = ORIENTED_EDGE ( 'NONE', *, *, #459, .F. ) ;
#123 = DIRECTION ( 'NONE',  ( 3.965082230804128248E-15, 0.000000000000000000, 1.000000000000000000 ) ) ;
#124 = VECTOR ( 'NONE', #1000, 1000.000000000000000 ) ;
#125 = CARTESIAN_POINT ( 'NONE',  ( -75.99999999999994316, 2.500000000000000000, 5.999999999999999112 ) ) ;
#126 = EDGE_CURVE ( 'NONE', #404, #961, #217, .T. ) ;
#127 = DATE_TIME_ROLE ( 'classification_date' ) ;
#128 = PLANE ( 'NONE',  #500 ) ;
#129 = CARTESIAN_POINT ( 'NONE',  ( -75.99999999999994316, -7.599999999999998757, 3.500000000000000000 ) ) ;
#130 = FACE_OUTER_BOUND ( 'NONE', #962, .T. ) ;
#131 = ORIENTED_EDGE ( 'NONE', *, *, #397, .F. ) ;
#132 = PLANE ( 'NONE',  #38 ) ;
#133 = VERTEX_POINT ( 'NONE', #762 ) ;
#134 = LINE ( 'NONE', #60, #461 ) ;
#135 = DATE_AND_TIME ( #784, #708 ) ;
#136 = ORIENTED_EDGE ( 'NONE', *, *, #819, .T. ) ;
#137 = ADVANCED_FACE ( 'NONE', ( #164 ), #28, .T. ) ;
#138 = ORIENTED_EDGE ( 'NONE', *, *, #837, .F. ) ;
#139 = DIRECTION ( 'NONE',  ( 0.000000000000000000, -1.000000000000000000, 0.000000000000000000 ) ) ;
#140 = AXIS2_PLACEMENT_3D ( 'NONE', #824, #740, #574 ) ;
#141 = APPROVAL_PERSON_ORGANIZATION ( #654, #567, #11 ) ;
#142 = ORIENTED_EDGE ( 'NONE', *, *, #32, .T. ) ;
#143 = EDGE_CURVE ( 'NONE', #957, #997, #808, .T. ) ;
#144 = ORIENTED_EDGE ( 'NONE', *, *, #57, .F. ) ;
#145 = FACE_OUTER_BOUND ( 'NONE', #311, .T. ) ;
#146 = VERTEX_POINT ( 'NONE', #976 ) ;
#147 = PLANE ( 'NONE',  #515 ) ;
#148 = EDGE_CURVE ( 'NONE', #96, #1007, #372, .T. ) ;
#149 = ORIENTED_EDGE ( 'NONE', *, *, #143, .T. ) ;
#150 = DIRECTION ( 'NONE',  ( 0.000000000000000000, 0.000000000000000000, -1.000000000000000000 ) ) ;
#151 = EDGE_CURVE ( 'NONE', #961, #64, #670, .T. ) ;
#152 = VECTOR ( 'NONE', #26, 1000.000000000000000 ) ;
#153 = VECTOR ( 'NONE', #111, 1000.000000000000000 ) ;
#154 = PRODUCT_DEFINITION_FORMATION_WITH_SPECIFIED_SOURCE ( 'ANY', '', #1002, .NOT_KNOWN. ) ;
#155 = VERTEX_POINT ( 'NONE', #504 ) ;
#156 = DIRECTION ( 'NONE',  ( 0.000000000000000000, 0.000000000000000000, -1.000000000000000000 ) ) ;
#157 = CARTESIAN_POINT ( 'NONE',  ( -93.99999999999994316, 2.500000000000000000, -5.000000000000000000 ) ) ;
#158 = CIRCLE ( 'NONE', #606, 1.000000000000000000 ) ;
#159 = CARTESIAN_POINT ( 'NONE',  ( -74.99999999999994316, -7.599999999999998757, -2.499999999999997780 ) ) ;
#160 = EDGE_CURVE ( 'NONE', #1047, #25, #584, .T. ) ;
#161 = ORIENTED_EDGE ( 'NONE', *, *, #160, .T. ) ;
#162 = CYLINDRICAL_SURFACE ( 'NONE', #484, 1.000000000000000000 ) ;
#163 = LINE ( 'NONE', #340, #857 ) ;
#164 = FACE_OUTER_BOUND ( 'NONE', #227, .T. ) ;
#165 = CALENDAR_DATE ( 2025, 3, 6 ) ;
#166 = VERTEX_POINT ( 'NONE', #983 ) ;
#167 = ORIENTED_EDGE ( 'NONE', *, *, #296, .T. ) ;
#168 = DIRECTION ( 'NONE',  ( -0.000000000000000000, -1.000000000000000000, 0.000000000000000000 ) ) ;
#169 = DIRECTION ( 'NONE',  ( 0.000000000000000000, -1.000000000000000000, 0.000000000000000000 ) ) ;
#170 = CIRCLE ( 'NONE', #758, 1.000000000000000000 ) ;
#171 = VERTEX_POINT ( 'NONE', #659 ) ;
#172 = EDGE_CURVE ( 'NONE', #364, #166, #573, .T. ) ;
#173 = LOCAL_TIME ( 10, 40, 24.00000000000000000, #851 ) ;
#174 = LINE ( 'NONE', #593, #685 ) ;
#175 = LINE ( 'NONE', #1004, #705 ) ;
#176 = DIRECTION ( 'NONE',  ( -1.000000000000000000, -0.000000000000000000, -0.000000000000000000 ) ) ;
#177 = VECTOR ( 'NONE', #376, 1000.000000000000000 ) ;
#178 = DIRECTION ( 'NONE',  ( -0.000000000000000000, 1.000000000000000000, -0.000000000000000000 ) ) ;
#179 = CARTESIAN_POINT ( 'NONE',  ( 88.00000000000000000, 2.500000000000000000, 0.000000000000000000 ) ) ;
#180 = APPLICATION_CONTEXT ( 'configuration controlled 3d designs of mechanical parts and assemblies' ) ;
#181 = ORIENTED_EDGE ( 'NONE', *, *, #126, .T. ) ;
#182 = CARTESIAN_POINT ( 'NONE',  ( -88.00000000000000000, -7.599999999999998757, -2.499999999999999112 ) ) ;
#183 = DIRECTION ( 'NONE',  ( -0.000000000000000000, 1.000000000000000000, -0.000000000000000000 ) ) ;
#184 = CARTESIAN_POINT ( 'NONE',  ( -75.99999999999994316, -2.500000000000000000, 2.500000000000000000 ) ) ;
#185 = EDGE_CURVE ( 'NONE', #727, #166, #246, .T. ) ;
#186 = ORIENTED_EDGE ( 'NONE', *, *, #873, .F. ) ;
#187 = DIRECTION ( 'NONE',  ( -0.000000000000000000, 1.000000000000000000, -0.000000000000000000 ) ) ;
#188 = CYLINDRICAL_SURFACE ( 'NONE', #407, 1.000000000000000000 ) ;
#189 = ORIENTED_EDGE ( 'NONE', *, *, #1024, .F. ) ;
#190 = LINE ( 'NONE', #253, #108 ) ;
#191 = ORIENTED_EDGE ( 'NONE', *, *, #766, .T. ) ;
#192 = VERTEX_POINT ( 'NONE', #418 ) ;
#193 = VECTOR ( 'NONE', #89, 1000.000000000000000 ) ;
#194 = CARTESIAN_POINT ( 'NONE',  ( -75.99999999999994316, -2.500000000000000000, -3.500000000000000000 ) ) ;
#195 = DIRECTION ( 'NONE',  ( 0.000000000000000000, 1.000000000000000000, -0.000000000000000000 ) ) ;
#196 = AXIS2_PLACEMENT_3D ( 'NONE', #988, #94, #496 ) ;
#197 = CIRCLE ( 'NONE', #77, 1.000000000000000000 ) ;
#198 = EDGE_CURVE ( 'NONE', #997, #911, #6, .T. ) ;
#199 = ORIENTED_EDGE ( 'NONE', *, *, #725, .T. ) ;
#200 = VERTEX_POINT ( 'NONE', #431 ) ;
#201 = FACE_OUTER_BOUND ( 'NONE', #399, .T. ) ;
#202 = CYLINDRICAL_SURFACE ( 'NONE', #825, 1.000000000000000000 ) ;
#203 = APPROVAL_ROLE ( '' ) ;
#204 = CC_DESIGN_PERSON_AND_ORGANIZATION_ASSIGNMENT ( #955, #521, ( #625 ) ) ;
#205 = ORIENTED_EDGE ( 'NONE', *, *, #960, .F. ) ;
#206 = EDGE_LOOP ( 'NONE', ( #648, #378, #917, #661 ) ) ;
#207 = LINE ( 'NONE', #114, #326 ) ;
#208 = FACE_OUTER_BOUND ( 'NONE', #8, .T. ) ;
#209 = DIRECTION ( 'NONE',  ( 0.000000000000000000, 0.000000000000000000, -1.000000000000000000 ) ) ;
#210 = CARTESIAN_POINT ( 'NONE',  ( -75.99999999999994316, -7.599999999999998757, 4.999999999999999112 ) ) ;
#211 = ORIENTED_EDGE ( 'NONE', *, *, #532, .F. ) ;
#212 = DIRECTION ( 'NONE',  ( 0.000000000000000000, 0.000000000000000000, -1.000000000000000000 ) ) ;
#213 = FACE_OUTER_BOUND ( 'NONE', #706, .T. ) ;
#214 = AXIS2_PLACEMENT_3D ( 'NONE', #1012, #612, #695 ) ;
#215 = DIRECTION ( 'NONE',  ( 1.000000000000000000, 0.000000000000000000, 0.000000000000000000 ) ) ;
#216 = PERSON_AND_ORGANIZATION ( #770, #41 ) ;
#217 = CIRCLE ( 'NONE', #486, 1.000000000000000000 ) ;
#218 = ORIENTED_EDGE ( 'NONE', *, *, #949, .F. ) ;
#219 = ORIENTED_EDGE ( 'NONE', *, *, #575, .T. ) ;
#220 = CARTESIAN_POINT ( 'NONE',  ( 75.99999999999994316, -7.599999999999998757, -3.500000000000000000 ) ) ;
#221 = LINE ( 'NONE', #855, #45 ) ;
#222 = EDGE_CURVE ( 'NONE', #25, #524, #158, .T. ) ;
#223 = ORIENTED_EDGE ( 'NONE', *, *, #361, .T. ) ;
#224 = ORIENTED_EDGE ( 'NONE', *, *, #415, .F. ) ;
#225 = ADVANCED_FACE ( 'NONE', ( #746 ), #15, .T. ) ;
#226 = CARTESIAN_POINT ( 'NONE',  ( -93.99999999999994316, -7.599999999999998757, -5.000000000000000000 ) ) ;
#227 = EDGE_LOOP ( 'NONE', ( #717, #374, #191, #344, #113, #629, #142, #937, #990, #338, #712, #283, #70, #5 ) ) ;
#228 = CARTESIAN_POINT ( 'NONE',  ( 74.99999999999994316, -2.500000000000000000, 4.999999999999999112 ) ) ;
#229 = CIRCLE ( 'NONE', #240, 1.000000000000000000 ) ;
#230 = CIRCLE ( 'NONE', #735, 2.500000000000000000 ) ;
#231 = EDGE_CURVE ( 'NONE', #404, #304, #10, .T. ) ;
#232 = VECTOR ( 'NONE', #535, 1000.000000000000000 ) ;
#233 = ORIENTED_EDGE ( 'NONE', *, *, #222, .T. ) ;
#234 = DIRECTION ( 'NONE',  ( 0.000000000000000000, 0.000000000000000000, -1.000000000000000000 ) ) ;
#235 = ORIENTED_EDGE ( 'NONE', *, *, #377, .F. ) ;
#236 = FACE_OUTER_BOUND ( 'NONE', #529, .T. ) ;
#237 = EDGE_CURVE ( 'NONE', #814, #727, #910, .T. ) ;
#238 = ORIENTED_EDGE ( 'NONE', *, *, #854, .T. ) ;
#239 = EDGE_CURVE ( 'NONE', #738, #742, #926, .T. ) ;
#240 = AXIS2_PLACEMENT_3D ( 'NONE', #375, #536, #120 ) ;
#241 = LINE ( 'NONE', #653, #232 ) ;
#242 = CIRCLE ( 'NONE', #703, 1.000000000000000000 ) ;
#243 = VECTOR ( 'NONE', #912, 1000.000000000000000 ) ;
#244 = CC_DESIGN_SECURITY_CLASSIFICATION ( #625, ( #154 ) ) ;
#245 = ORIENTED_EDGE ( 'NONE', *, *, #803, .T. ) ;
#246 = CIRCLE ( 'NONE', #951, 2.499999999999999556 ) ;
#247 = VECTOR ( 'NONE', #548, 1000.000000000000000 ) ;
#248 = CYLINDRICAL_SURFACE ( 'NONE', #861, 1.000000000000000444 ) ;
#249 = COORDINATED_UNIVERSAL_TIME_OFFSET ( 1, 0, .AHEAD. ) ;
#250 = ADVANCED_FACE ( 'NONE', ( #130 ), #202, .T. ) ;
#251 = ORIENTED_EDGE ( 'NONE', *, *, #532, .T. ) ;
#252 = DIRECTION ( 'NONE',  ( 0.000000000000000000, 0.000000000000000000, -1.000000000000000000 ) ) ;
#253 = CARTESIAN_POINT ( 'NONE',  ( -74.99999999999994316, -2.500000000000000000, 5.999999999999999112 ) ) ;
#254 = DIRECTION ( 'NONE',  ( 1.000000000000000000, 0.000000000000000000, 0.000000000000000000 ) ) ;
#255 = ADVANCED_FACE ( 'NONE', ( #683 ), #783, .F. ) ;
#256 = ORIENTED_EDGE ( 'NONE', *, *, #1006, .T. ) ;
#257 = CARTESIAN_POINT ( 'NONE',  ( 88.00000000000000000, -7.599999999999998757, 0.000000000000000000 ) ) ;
#258 = LINE ( 'NONE', #583, #391 ) ;
#259 = DIRECTION ( 'NONE',  ( 0.000000000000000000, 0.000000000000000000, -1.000000000000000000 ) ) ;
#260 = AXIS2_PLACEMENT_3D ( 'NONE', #1049, #879, #150 ) ;
#261 = AXIS2_PLACEMENT_3D ( 'NONE', #157, #322, #646 ) ;
#262 = VERTEX_POINT ( 'NONE', #277 ) ;
#263 = EDGE_CURVE ( 'NONE', #146, #36, #298, .T. ) ;
#264 = DIRECTION ( 'NONE',  ( -1.000000000000000000, -0.000000000000000000, -0.000000000000000000 ) ) ;
#265 = CARTESIAN_POINT ( 'NONE',  ( -75.99999999999994316, -7.599999999999998757, -2.499999999999997780 ) ) ;
#266 = AXIS2_PLACEMENT_3D ( 'NONE', #386, #490, #965 ) ;
#267 = DIRECTION ( 'NONE',  ( 0.000000000000000000, 0.000000000000000000, -1.000000000000000000 ) ) ;
#268 = PERSON_AND_ORGANIZATION ( #770, #41 ) ;
#269 = ORIENTED_EDGE ( 'NONE', *, *, #148, .T. ) ;
#270 = LINE ( 'NONE', #182, #621 ) ;
#271 = DIRECTION ( 'NONE',  ( 0.000000000000000000, 0.000000000000000000, -1.000000000000000000 ) ) ;
#272 = EDGE_CURVE ( 'NONE', #547, #628, #601, .T. ) ;
#273 = DIRECTION ( 'NONE',  ( 1.000000000000000000, 0.000000000000000000, 0.000000000000000000 ) ) ;
#274 = LINE ( 'NONE', #591, #193 ) ;
#275 = VERTEX_POINT ( 'NONE', #286 ) ;
#276 = DIRECTION ( 'NONE',  ( -1.000000000000000000, 0.000000000000000000, -3.965082230804128248E-15 ) ) ;
#277 = CARTESIAN_POINT ( 'NONE',  ( -75.99999999999994316, -7.599999999999998757, 2.500000000000000000 ) ) ;
#278 = ADVANCED_FACE ( 'NONE', ( #208 ), #702, .T. ) ;
#279 = ORIENTED_EDGE ( 'NONE', *, *, #1006, .F. ) ;
#280 = AXIS2_PLACEMENT_3D ( 'NONE', #422, #441, #828 ) ;
#281 = DIRECTION ( 'NONE',  ( 1.000000000000000000, 0.000000000000000000, -0.000000000000000000 ) ) ;
#282 = PERSON_AND_ORGANIZATION ( #770, #41 ) ;
#283 = ORIENTED_EDGE ( 'NONE', *, *, #693, .T. ) ;
#284 = DIRECTION ( 'NONE',  ( 0.000000000000000000, 0.000000000000000000, -1.000000000000000000 ) ) ;
#285 = EDGE_LOOP ( 'NONE', ( #582, #1046, #792, #869 ) ) ;
#286 = CARTESIAN_POINT ( 'NONE',  ( 74.99999999999994316, -7.599999999999998757, 4.999999999999999112 ) ) ;
#287 = EDGE_CURVE ( 'NONE', #771, #809, #55, .T. ) ;
#288 = ORIENTED_EDGE ( 'NONE', *, *, #151, .F. ) ;
#289 = ORIENTED_EDGE ( 'NONE', *, *, #939, .F. ) ;
#290 = DIRECTION ( 'NONE',  ( 0.000000000000000000, -1.000000000000000000, 0.000000000000000000 ) ) ;
#291 = DIRECTION ( 'NONE',  ( 0.000000000000000000, -1.000000000000000000, 0.000000000000000000 ) ) ;
#292 = DIRECTION ( 'NONE',  ( -0.000000000000000000, -0.000000000000000000, 1.000000000000000000 ) ) ;
#293 = CARTESIAN_POINT ( 'NONE',  ( -74.99999999999992895, -7.599999999999998757, -4.999999999999995559 ) ) ;
#294 = EDGE_LOOP ( 'NONE', ( #833, #318, #30, #330 ) ) ;
#295 = VECTOR ( 'NONE', #359, 1000.000000000000000 ) ;
#296 = EDGE_CURVE ( 'NONE', #171, #876, #197, .T. ) ;
#297 = VECTOR ( 'NONE', #624, 1000.000000000000000 ) ;
#298 = LINE ( 'NONE', #117, #43 ) ;
#299 = FACE_OUTER_BOUND ( 'NONE', #721, .T. ) ;
#300 = VECTOR ( 'NONE', #579, 1000.000000000000000 ) ;
#301 = CYLINDRICAL_SURFACE ( 'NONE', #655, 1.000000000000000000 ) ;
#302 = AXIS2_PLACEMENT_3D ( 'NONE', #1034, #306, #630 ) ;
#303 = APPROVAL ( #465, 'UNSPECIFIED' ) ;
#304 = VERTEX_POINT ( 'NONE', #453 ) ;
#305 = DIRECTION ( 'NONE',  ( 1.000000000000000000, -0.000000000000000000, -1.000802005371230690E-16 ) ) ;
#306 = DIRECTION ( 'NONE',  ( 0.000000000000000000, -1.000000000000000000, 0.000000000000000000 ) ) ;
#307 = CARTESIAN_POINT ( 'NONE',  ( 74.99999999999992895, -2.500000000000000000, -4.999999999999995559 ) ) ;
#308 = CARTESIAN_POINT ( 'NONE',  ( -93.99999999999994316, -7.599999999999998757, -6.000000000000000000 ) ) ;
#309 = ORIENTED_EDGE ( 'NONE', *, *, #471, .F. ) ;
#310 = EDGE_CURVE ( 'NONE', #771, #738, #619, .T. ) ;
#311 = EDGE_LOOP ( 'NONE', ( #909, #605, #800, #223 ) ) ;
#312 = ORIENTED_EDGE ( 'NONE', *, *, #928, .T. ) ;
#313 = CARTESIAN_POINT ( 'NONE',  ( -88.00000000000000000, 2.500000000000000000, 0.000000000000000000 ) ) ;
#314 = DIRECTION ( 'NONE',  ( 0.000000000000000000, 0.000000000000000000, -1.000000000000000000 ) ) ;
#315 = VECTOR ( 'NONE', #314, 1000.000000000000000 ) ;
#316 = VECTOR ( 'NONE', #273, 1000.000000000000000 ) ;
#317 = EDGE_CURVE ( 'NONE', #275, #694, #864, .T. ) ;
#318 = ORIENTED_EDGE ( 'NONE', *, *, #482, .F. ) ;
#319 = CIRCLE ( 'NONE', #863, 1.000000000000000000 ) ;
#320 = VERTEX_POINT ( 'NONE', #773 ) ;
#321 = DIRECTION ( 'NONE',  ( 1.000000000000000000, -0.000000000000000000, -0.000000000000000000 ) ) ;
#322 = DIRECTION ( 'NONE',  ( -0.000000000000000000, -1.000000000000000000, 0.000000000000000000 ) ) ;
#323 = ORIENTED_EDGE ( 'NONE', *, *, #287, .F. ) ;
#324 = EDGE_LOOP ( 'NONE', ( #1048, #186, #410, #1043 ) ) ;
#325 = LINE ( 'NONE', #649, #964 ) ;
#326 = VECTOR ( 'NONE', #849, 1000.000000000000000 ) ;
#327 = DIRECTION ( 'NONE',  ( -3.965082230804128248E-15, -0.000000000000000000, 1.000000000000000000 ) ) ;
#328 = AXIS2_PLACEMENT_3D ( 'NONE', #129, #709, #383 ) ;
#329 = PERSON_AND_ORGANIZATION_ROLE ( 'design_owner' ) ;
#330 = ORIENTED_EDGE ( 'NONE', *, *, #522, .F. ) ;
#331 = VECTOR ( 'NONE', #590, 1000.000000000000000 ) ;
#332 = CARTESIAN_POINT ( 'NONE',  ( -93.99999999999994316, 2.500000000000000000, 4.999999999999999112 ) ) ;
#333 = CARTESIAN_POINT ( 'NONE',  ( -88.00000000000000000, -7.599999999999998757, 2.500000000000000000 ) ) ;
#334 = VECTOR ( 'NONE', #195, 1000.000000000000000 ) ;
#335 = EDGE_CURVE ( 'NONE', #200, #811, #795, .T. ) ;
#336 = CARTESIAN_POINT ( 'NONE',  ( 75.99999999999992895, 2.500000000000000000, -2.500000000000000000 ) ) ;
#337 = PERSON_AND_ORGANIZATION ( #770, #41 ) ;
#338 = ORIENTED_EDGE ( 'NONE', *, *, #335, .T. ) ;
#339 = CARTESIAN_POINT ( 'NONE',  ( -74.99999999999994316, -7.599999999999998757, 5.999999999999999112 ) ) ;
#340 = CARTESIAN_POINT ( 'NONE',  ( -94.99999999999994316, 2.500000000000000000, -6.000000000000000000 ) ) ;
#341 = DIRECTION ( 'NONE',  ( -0.000000000000000000, 1.000000000000000000, -0.000000000000000000 ) ) ;
#342 = CARTESIAN_POINT ( 'NONE',  ( -75.99999999999992895, -7.599999999999998757, -5.000000000000000000 ) ) ;
#343 = EDGE_CURVE ( 'NONE', #623, #192, #464, .T. ) ;
#344 = ORIENTED_EDGE ( 'NONE', *, *, #27, .T. ) ;
#345 = CARTESIAN_POINT ( 'NONE',  ( -74.99999999999994316, -7.599999999999998757, -3.499999999999996003 ) ) ;
#346 = CARTESIAN_POINT ( 'NONE',  ( 74.99999999999994316, -2.500000000000000000, -3.499999999999996003 ) ) ;
#347 = CARTESIAN_POINT ( 'NONE',  ( -94.99999999999994316, -2.500000000000000000, -6.000000000000000000 ) ) ;
#348 = DIRECTION ( 'NONE',  ( 0.000000000000000000, 0.000000000000000000, -1.000000000000000000 ) ) ;
#349 = CIRCLE ( 'NONE', #555, 2.500000000000000000 ) ;
#350 = AXIS2_PLACEMENT_3D ( 'NONE', #220, #139, #638 ) ;
#351 = ORIENTED_EDGE ( 'NONE', *, *, #892, .T. ) ;
#352 = EDGE_CURVE ( 'NONE', #99, #811, #134, .T. ) ;
#353 = LOCAL_TIME ( 10, 40, 24.00000000000000000, #454 ) ;
#354 = FACE_OUTER_BOUND ( 'NONE', #206, .T. ) ;
#355 = AXIS2_PLACEMENT_3D ( 'NONE', #865, #462, #812 ) ;
#356 = CARTESIAN_POINT ( 'NONE',  ( 75.99999999999992895, -2.500000000000000000, -5.000000000000000000 ) ) ;
#357 = DIRECTION ( 'NONE',  ( 0.000000000000000000, 0.000000000000000000, -1.000000000000000000 ) ) ;
#358 = ORIENTED_EDGE ( 'NONE', *, *, #352, .T. ) ;
#359 = DIRECTION ( 'NONE',  ( 0.000000000000000000, -1.000000000000000000, 0.000000000000000000 ) ) ;
#360 = DIRECTION ( 'NONE',  ( 0.000000000000000000, 0.000000000000000000, -1.000000000000000000 ) ) ;
#361 = EDGE_CURVE ( 'NONE', #844, #957, #48, .T. ) ;
#362 = CARTESIAN_POINT ( 'NONE',  ( 75.99999999999994316, -2.500000000000000444, -3.500000000000000000 ) ) ;
#363 = SECURITY_CLASSIFICATION_LEVEL ( 'unclassified' ) ;
#364 = VERTEX_POINT ( 'NONE', #533 ) ;
#365 = LINE ( 'NONE', #507, #789 ) ;
#366 = DIRECTION ( 'NONE',  ( -0.000000000000000000, 1.000000000000000000, -0.000000000000000000 ) ) ;
#367 = ORIENTED_EDGE ( 'NONE', *, *, #949, .T. ) ;
#368 = VECTOR ( 'NONE', #731, 1000.000000000000000 ) ;
#369 = CARTESIAN_POINT ( 'NONE',  ( 94.99999999999994316, -7.599999999999998757, 4.999999999999999112 ) ) ;
#370 = DIRECTION ( 'NONE',  ( -0.000000000000000000, 1.000000000000000000, -0.000000000000000000 ) ) ;
#371 = EDGE_CURVE ( 'NONE', #961, #957, #221, .T. ) ;
#372 = CIRCLE ( 'NONE', #711, 1.000000000000000000 ) ;
#373 = DATE_AND_TIME ( #608, #353 ) ;
#374 = ORIENTED_EDGE ( 'NONE', *, *, #471, .T. ) ;
#375 = CARTESIAN_POINT ( 'NONE',  ( 75.99999999999994316, -2.500000000000000444, 4.999999999999999112 ) ) ;
#376 = DIRECTION ( 'NONE',  ( -3.965082230804128248E-15, -0.000000000000000000, 1.000000000000000000 ) ) ;
#377 = EDGE_CURVE ( 'NONE', #547, #304, #319, .T. ) ;
#378 = ORIENTED_EDGE ( 'NONE', *, *, #415, .T. ) ;
#379 = DIRECTION ( 'NONE',  ( 0.000000000000000000, 0.000000000000000000, 1.000000000000000000 ) ) ;
#380 = CYLINDRICAL_SURFACE ( 'NONE', #214, 1.000000000000000000 ) ;
#381 = ORIENTED_EDGE ( 'NONE', *, *, #960, .T. ) ;
#382 = CARTESIAN_POINT ( 'NONE',  ( 75.99999999999992895, -7.599999999999998757, -6.000000000000000000 ) ) ;
#383 = DIRECTION ( 'NONE',  ( 0.000000000000000000, 0.000000000000000000, -1.000000000000000000 ) ) ;
#384 = DIRECTION ( 'NONE',  ( 0.000000000000000000, 0.000000000000000000, -1.000000000000000000 ) ) ;
#385 = CC_DESIGN_DATE_AND_TIME_ASSIGNMENT ( #769, #528, ( #539 ) ) ;
#386 = CARTESIAN_POINT ( 'NONE',  ( 95.00000000000005684, 2.500000000000000000, 5.999999999999999112 ) ) ;
#387 = ORIENTED_EDGE ( 'NONE', *, *, #725, .F. ) ;
#388 = CARTESIAN_POINT ( 'NONE',  ( -75.99999999999994316, -2.500000000000000000, -2.500000000000000000 ) ) ;
#389 = AXIS2_PLACEMENT_3D ( 'NONE', #1020, #54, #390 ) ;
#390 = DIRECTION ( 'NONE',  ( 0.000000000000000000, -0.000000000000000000, -1.000000000000000000 ) ) ;
#391 = VECTOR ( 'NONE', #594, 1000.000000000000000 ) ;
#392 = LINE ( 'NONE', #710, #887 ) ;
#393 = VECTOR ( 'NONE', #82, 1000.000000000000000 ) ;
#394 = ORIENTED_EDGE ( 'NONE', *, *, #452, .F. ) ;
#395 = VECTOR ( 'NONE', #458, 1000.000000000000000 ) ;
#396 = ORIENTED_EDGE ( 'NONE', *, *, #618, .F. ) ;
#397 = EDGE_CURVE ( 'NONE', #524, #17, #788, .T. ) ;
#398 = CARTESIAN_POINT ( 'NONE',  ( 94.00000000000005684, 2.500000000000000000, 5.999999999999999112 ) ) ;
#399 = EDGE_LOOP ( 'NONE', ( #109, #816, #818, #511 ) ) ;
#400 = FACE_OUTER_BOUND ( 'NONE', #610, .T. ) ;
#401 = ADVANCED_FACE ( 'NONE', ( #112 ), #448, .T. ) ;
#402 = DIRECTION ( 'NONE',  ( 0.000000000000000000, 0.000000000000000000, -1.000000000000000000 ) ) ;
#403 = DIRECTION ( 'NONE',  ( -0.000000000000000000, -1.000000000000000000, -0.000000000000000000 ) ) ;
#404 = VERTEX_POINT ( 'NONE', #958 ) ;
#405 = CARTESIAN_POINT ( 'NONE',  ( 94.00000000000005684, -7.599999999999998757, -5.000000000000000000 ) ) ;
#406 = DIRECTION ( 'NONE',  ( 0.000000000000000000, -1.000000000000000000, 0.000000000000000000 ) ) ;
#407 = AXIS2_PLACEMENT_3D ( 'NONE', #665, #169, #348 ) ;
#408 = CC_DESIGN_APPROVAL ( #567, ( #539 ) ) ;
#409 = VECTOR ( 'NONE', #595, 1000.000000000000000 ) ;
#410 = ORIENTED_EDGE ( 'NONE', *, *, #609, .F. ) ;
#411 = ORIENTED_EDGE ( 'NONE', *, *, #842, .F. ) ;
#412 = EDGE_CURVE ( 'NONE', #320, #133, #392, .T. ) ;
#413 = LINE ( 'NONE', #657, #368 ) ;
#414 = CYLINDRICAL_SURFACE ( 'NONE', #794, 2.500000000000000000 ) ;
#415 = EDGE_CURVE ( 'NONE', #628, #797, #810, .T. ) ;
#416 = ORIENTED_EDGE ( 'NONE', *, *, #185, .F. ) ;
#417 = CARTESIAN_POINT ( 'NONE',  ( 94.00000000000005684, 2.500000000000000000, 4.999999999999999112 ) ) ;
#418 = CARTESIAN_POINT ( 'NONE',  ( 94.99999999999994316, -7.599999999999998757, -5.000000000000000000 ) ) ;
#419 = VECTOR ( 'NONE', #697, 1000.000000000000000 ) ;
#420 = CARTESIAN_POINT ( 'NONE',  ( -75.99999999999994316, -2.500000000000000000, -2.500000000000000000 ) ) ;
#421 = ORIENTED_EDGE ( 'NONE', *, *, #914, .T. ) ;
#422 = CARTESIAN_POINT ( 'NONE',  ( -93.99999999999994316, 2.500000000000000000, 4.999999999999999112 ) ) ;
#423 = EDGE_CURVE ( 'NONE', #787, #99, #349, .T. ) ;
#424 = ORIENTED_EDGE ( 'NONE', *, *, #830, .F. ) ;
#425 = CARTESIAN_POINT ( 'NONE',  ( 74.99999999999992895, -7.599999999999998757, -4.999999999999995559 ) ) ;
#426 = CARTESIAN_POINT ( 'NONE',  ( 95.00000000000005684, 2.500000000000000000, 4.999999999999999112 ) ) ;
#427 = ORIENTED_EDGE ( 'NONE', *, *, #693, .F. ) ;
#428 = CARTESIAN_POINT ( 'NONE',  ( 95.00000000000005684, 2.500000000000000000, 4.999999999999999112 ) ) ;
#429 = DIRECTION ( 'NONE',  ( 0.000000000000000000, 0.000000000000000000, -1.000000000000000000 ) ) ;
#430 = CC_DESIGN_DATE_AND_TIME_ASSIGNMENT ( #373, #127, ( #625 ) ) ;
#431 = CARTESIAN_POINT ( 'NONE',  ( -88.00000000000000000, -7.599999999999998757, -2.499999999999999556 ) ) ;
#432 = ADVANCED_FACE ( 'NONE', ( #400 ), #481, .F. ) ;
#433 = VERTEX_POINT ( 'NONE', #806 ) ;
#434 = CARTESIAN_POINT ( 'NONE',  ( 74.99999999999994316, -2.500000000000000000, 5.999999999999999112 ) ) ;
#435 = LINE ( 'NONE', #502, #243 ) ;
#436 = DIRECTION ( 'NONE',  ( -0.000000000000000000, -1.000000000000000000, -0.000000000000000000 ) ) ;
#437 = AXIS2_PLACEMENT_3D ( 'NONE', #257, #668, #110 ) ;
#438 = VECTOR ( 'NONE', #970, 1000.000000000000000 ) ;
#439 = ORIENTED_EDGE ( 'NONE', *, *, #310, .T. ) ;
#440 = DIRECTION ( 'NONE',  ( -0.000000000000000000, 1.000000000000000000, -0.000000000000000000 ) ) ;
#441 = DIRECTION ( 'NONE',  ( -0.000000000000000000, 1.000000000000000000, -0.000000000000000000 ) ) ;
#442 = CARTESIAN_POINT ( 'NONE',  ( -88.00000000000000000, 2.500000000000000000, 2.500000000000000000 ) ) ;
#443 = APPLICATION_PROTOCOL_DEFINITION ( 'international standard', 'config_control_design', 1994, #813 ) ;
#444 = ORIENTED_EDGE ( 'NONE', *, *, #222, .F. ) ;
#445 = ORIENTED_EDGE ( 'NONE', *, *, #377, .T. ) ;
#446 = LINE ( 'NONE', #501, #152 ) ;
#447 = ADVANCED_FACE ( 'NONE', ( #236 ), #162, .T. ) ;
#448 = PLANE ( 'NONE',  #302 ) ;
#449 = CALENDAR_DATE ( 2025, 3, 6 ) ;
#450 = ORIENTED_EDGE ( 'NONE', *, *, #57, .T. ) ;
#451 = CYLINDRICAL_SURFACE ( 'NONE', #457, 1.000000000000000000 ) ;
#452 = EDGE_CURVE ( 'NONE', #99, #364, #413, .T. ) ;
#453 = CARTESIAN_POINT ( 'NONE',  ( -75.99999999999992895, -2.500000000000000000, -6.000000000000000000 ) ) ;
#454 = COORDINATED_UNIVERSAL_TIME_OFFSET ( 1, 0, .AHEAD. ) ;
#455 = ORIENTED_EDGE ( 'NONE', *, *, #1010, .F. ) ;
#456 = LINE ( 'NONE', #688, #104 ) ;
#457 = AXIS2_PLACEMENT_3D ( 'NONE', #37, #860, #938 ) ;
#458 = DIRECTION ( 'NONE',  ( 0.000000000000000000, 1.000000000000000000, 0.000000000000000000 ) ) ;
#459 = EDGE_CURVE ( 'NONE', #672, #192, #86, .T. ) ;
#460 = COORDINATED_UNIVERSAL_TIME_OFFSET ( 1, 0, .AHEAD. ) ;
#461 = VECTOR ( 'NONE', #34, 1000.000000000000000 ) ;
#462 = DIRECTION ( 'NONE',  ( -1.000000000000000000, 0.000000000000000000, 0.000000000000000000 ) ) ;
#463 = FACE_OUTER_BOUND ( 'NONE', #804, .T. ) ;
#464 = LINE ( 'NONE', #1014, #826 ) ;
#465 = APPROVAL_STATUS ( 'not_yet_approved' ) ;
#466 = ADVANCED_FACE ( 'NONE', ( #561 ), #147, .T. ) ;
#467 = DIRECTION ( 'NONE',  ( 0.000000000000000000, -1.000000000000000000, 0.000000000000000000 ) ) ;
#468 = ORIENTED_EDGE ( 'NONE', *, *, #412, .F. ) ;
#469 = DIRECTION ( 'NONE',  ( 0.000000000000000000, 0.000000000000000000, -1.000000000000000000 ) ) ;
#470 = ORIENTED_EDGE ( 'NONE', *, *, #766, .F. ) ;
#471 = EDGE_CURVE ( 'NONE', #809, #929, #19, .T. ) ;
#472 = VECTOR ( 'NONE', #924, 1000.000000000000000 ) ;
#473 = ORIENTED_EDGE ( 'NONE', *, *, #237, .F. ) ;
#474 = CIRCLE ( 'NONE', #140, 1.000000000000000000 ) ;
#475 = FACE_OUTER_BOUND ( 'NONE', #508, .T. ) ;
#476 = CARTESIAN_POINT ( 'NONE',  ( 75.99999999999992895, 2.500000000000000000, 3.500000000000000000 ) ) ;
#477 = FACE_OUTER_BOUND ( 'NONE', #897, .T. ) ;
#478 = ORIENTED_EDGE ( 'NONE', *, *, #854, .F. ) ;
#479 = PLANE ( 'NONE',  #945 ) ;
#480 = ORIENTED_EDGE ( 'NONE', *, *, #719, .T. ) ;
#481 = CYLINDRICAL_SURFACE ( 'NONE', #944, 2.500000000000000000 ) ;
#482 = EDGE_CURVE ( 'NONE', #12, #906, #325, .T. ) ;
#483 = ORIENTED_EDGE ( 'NONE', *, *, #600, .T. ) ;
#484 = AXIS2_PLACEMENT_3D ( 'NONE', #332, #801, #156 ) ;
#485 = CIRCLE ( 'NONE', #1, 1.000000000000000000 ) ;
#486 = AXIS2_PLACEMENT_3D ( 'NONE', #356, #187, #267 ) ;
#487 = VERTEX_POINT ( 'NONE', #846 ) ;
#488 = AXIS2_PLACEMENT_3D ( 'NONE', #519, #919, #1025 ) ;
#489 = CARTESIAN_POINT ( 'NONE',  ( -75.99999999999994316, -2.500000000000000444, 3.500000000000000000 ) ) ;
#490 = DIRECTION ( 'NONE',  ( -1.000000000000000000, 0.000000000000000000, 0.000000000000000000 ) ) ;
#491 = VERTEX_POINT ( 'NONE', #743 ) ;
#492 = DIRECTION ( 'NONE',  ( -0.000000000000000000, -1.000000000000000000, -0.000000000000000000 ) ) ;
#493 = ORIENTED_EDGE ( 'NONE', *, *, #239, .F. ) ;
#494 = EDGE_CURVE ( 'NONE', #838, #200, #270, .T. ) ;
#495 = LINE ( 'NONE', #643, #438 ) ;
#496 = DIRECTION ( 'NONE',  ( 0.000000000000000000, -0.000000000000000000, -1.000000000000000000 ) ) ;
#497 = CIRCLE ( 'NONE', #350, 1.000000000000000444 ) ;
#498 = EDGE_LOOP ( 'NONE', ( #571, #219, #323, #439, #560, #634, #540, #681 ) ) ;
#499 = CC_DESIGN_PERSON_AND_ORGANIZATION_ASSIGNMENT ( #534, #42, ( #154 ) ) ;
#500 = AXIS2_PLACEMENT_3D ( 'NONE', #50, #379, #699 ) ;
#501 = CARTESIAN_POINT ( 'NONE',  ( -94.99999999999994316, 2.500000000000000000, -5.000000000000000000 ) ) ;
#502 = CARTESIAN_POINT ( 'NONE',  ( -94.99999999999994316, 2.500000000000000000, 4.999999999999999112 ) ) ;
#503 = ADVANCED_FACE ( 'NONE', ( #1003 ), #598, .T. ) ;
#504 = CARTESIAN_POINT ( 'NONE',  ( 94.00000000000005684, 2.500000000000000000, -6.000000000000000000 ) ) ;
#505 = DIRECTION ( 'NONE',  ( 0.000000000000000000, 1.000000000000000000, 0.000000000000000000 ) ) ;
#506 = ORIENTED_EDGE ( 'NONE', *, *, #799, .T. ) ;
#507 = CARTESIAN_POINT ( 'NONE',  ( 74.99999999999994316, -7.599999999999998757, 5.999999999999999112 ) ) ;
#508 = EDGE_LOOP ( 'NONE', ( #470, #597, #1008, #1016 ) ) ;
#509 = CARTESIAN_POINT ( 'NONE',  ( 74.99999999999994316, -7.599999999999998757, -2.499999999999997780 ) ) ;
#510 = DIRECTION ( 'NONE',  ( 0.000000000000000000, 0.000000000000000000, 1.000000000000000000 ) ) ;
#511 = ORIENTED_EDGE ( 'NONE', *, *, #652, .T. ) ;
#512 = DIRECTION ( 'NONE',  ( 0.000000000000000000, -1.000000000000000000, -0.000000000000000000 ) ) ;
#513 = LINE ( 'NONE', #509, #886 ) ;
#514 = DIRECTION ( 'NONE',  ( 0.000000000000000000, 0.000000000000000000, -1.000000000000000000 ) ) ;
#515 = AXIS2_PLACEMENT_3D ( 'NONE', #564, #76, #723 ) ;
#516 = AXIS2_PLACEMENT_3D ( 'NONE', #982, #896, #429 ) ;
#517 = ORIENTED_EDGE ( 'NONE', *, *, #361, .F. ) ;
#518 = LINE ( 'NONE', #682, #61 ) ;
#519 = CARTESIAN_POINT ( 'NONE',  ( 0.000000000000000000, -2.500000000000000000, 0.000000000000000000 ) ) ;
#520 = VECTOR ( 'NONE', #934, 1000.000000000000000 ) ;
#521 = PERSON_AND_ORGANIZATION_ROLE ( 'classification_officer' ) ;
#522 = EDGE_CURVE ( 'NONE', #146, #551, #446, .T. ) ;
#523 = ADVANCED_FACE ( 'NONE', ( #354 ), #91, .F. ) ;
#524 = VERTEX_POINT ( 'NONE', #428 ) ;
#525 = DIRECTION ( 'NONE',  ( 0.000000000000000000, -1.000000000000000000, 0.000000000000000000 ) ) ;
#526 = CARTESIAN_POINT ( 'NONE',  ( 75.99999999999992895, 2.500000000000000000, 2.500000000000000000 ) ) ;
#527 = CARTESIAN_POINT ( 'NONE',  ( -74.99999999999994316, -2.500000000000000000, -2.499999999999997780 ) ) ;
#528 = DATE_TIME_ROLE ( 'creation_date' ) ;
#529 = EDGE_LOOP ( 'NONE', ( #411, #424, #309, #667 ) ) ;
#530 = CARTESIAN_POINT ( 'NONE',  ( -74.99999999999994316, -2.500000000000000000, -3.499999999999996003 ) ) ;
#531 = DIRECTION ( 'NONE',  ( 0.000000000000000000, 0.000000000000000000, -1.000000000000000000 ) ) ;
#532 = EDGE_CURVE ( 'NONE', #814, #787, #518, .T. ) ;
#533 = CARTESIAN_POINT ( 'NONE',  ( 88.00000000000000000, 2.500000000000000000, 2.500000000000000000 ) ) ;
#534 = PERSON_AND_ORGANIZATION ( #770, #41 ) ;
#535 = DIRECTION ( 'NONE',  ( -0.000000000000000000, 1.000000000000000000, -0.000000000000000000 ) ) ;
#536 = DIRECTION ( 'NONE',  ( -0.000000000000000000, 1.000000000000000000, -0.000000000000000000 ) ) ;
#537 = VECTOR ( 'NONE', #305, 1000.000000000000000 ) ;
#538 = DIRECTION ( 'NONE',  ( -1.000000000000000000, 0.000000000000000000, -0.000000000000000000 ) ) ;
#539 = PRODUCT_DEFINITION ( 'UNKNOWN', '', #154, #1045 ) ;
#540 = ORIENTED_EDGE ( 'NONE', *, *, #412, .T. ) ;
#541 = LINE ( 'NONE', #388, #297 ) ;
#542 =( GEOMETRIC_REPRESENTATION_CONTEXT ( 3 ) GLOBAL_UNCERTAINTY_ASSIGNED_CONTEXT ( ( #728 ) ) GLOBAL_UNIT_ASSIGNED_CONTEXT ( ( #107, #759, #996 ) ) REPRESENTATION_CONTEXT ( 'NONE', 'WORKASPACE' ) );
#543 = DIRECTION ( 'NONE',  ( 0.000000000000000000, 1.000000000000000000, 0.000000000000000000 ) ) ;
#544 = EDGE_CURVE ( 'NONE', #155, #672, #765, .T. ) ;
#545 = FACE_OUTER_BOUND ( 'NONE', #940, .T. ) ;
#546 = CARTESIAN_POINT ( 'NONE',  ( 88.00000000000000000, -7.599999999999998757, -2.499999999999999556 ) ) ;
#547 = VERTEX_POINT ( 'NONE', #754 ) ;
#548 = DIRECTION ( 'NONE',  ( 0.000000000000000000, 1.000000000000000000, 0.000000000000000000 ) ) ;
#549 = EDGE_CURVE ( 'NONE', #171, #275, #365, .T. ) ;
#550 = EDGE_LOOP ( 'NONE', ( #611, #733, #1030, #517 ) ) ;
#551 = VERTEX_POINT ( 'NONE', #839 ) ;
#552 = FACE_BOUND ( 'NONE', #87, .T. ) ;
#553 = DIRECTION ( 'NONE',  ( 0.000000000000000000, -1.000000000000000000, 0.000000000000000000 ) ) ;
#554 = EDGE_CURVE ( 'NONE', #1007, #694, #97, .T. ) ;
#555 = AXIS2_PLACEMENT_3D ( 'NONE', #313, #577, #81 ) ;
#556 = ORIENTED_EDGE ( 'NONE', *, *, #554, .T. ) ;
#557 = DIRECTION ( 'NONE',  ( 1.000000000000000000, -0.000000000000000000, 0.000000000000000000 ) ) ;
#558 = CIRCLE ( 'NONE', #587, 1.000000000000000000 ) ;
#559 = EDGE_CURVE ( 'NONE', #487, #80, #13, .T. ) ;
#560 = ORIENTED_EDGE ( 'NONE', *, *, #239, .T. ) ;
#561 = FACE_OUTER_BOUND ( 'NONE', #589, .T. ) ;
#562 = CARTESIAN_POINT ( 'NONE',  ( -75.99999999999994316, -7.599999999999998757, 5.999999999999999112 ) ) ;
#563 = EDGE_LOOP ( 'NONE', ( #677, #167, #289, #416, #714, #351, #923, #483, #1001, #66, #763, #199, #468, #979 ) ) ;
#564 = CARTESIAN_POINT ( 'NONE',  ( -88.00000000000000000, 2.500000000000000000, 2.500000000000000000 ) ) ;
#565 = ADVANCED_FACE ( 'NONE', ( #201 ), #820, .F. ) ;
#566 = ORIENTED_EDGE ( 'NONE', *, *, #815, .T. ) ;
#567 = APPROVAL ( #978, 'UNSPECIFIED' ) ;
#568 = AXIS2_PLACEMENT_3D ( 'NONE', #802, #406, #360 ) ;
#569 = CARTESIAN_POINT ( 'NONE',  ( 74.99999999999992895, -7.599999999999998757, -4.999999999999995559 ) ) ;
#570 = APPROVAL_PERSON_ORGANIZATION ( #216, #691, #602 ) ;
#571 = ORIENTED_EDGE ( 'NONE', *, *, #160, .F. ) ;
#572 = ORIENTED_EDGE ( 'NONE', *, *, #423, .T. ) ;
#573 = LINE ( 'NONE', #890, #300 ) ;
#574 = DIRECTION ( 'NONE',  ( 0.000000000000000000, 0.000000000000000000, -1.000000000000000000 ) ) ;
#575 = EDGE_CURVE ( 'NONE', #1047, #809, #174, .T. ) ;
#576 = ORIENTED_EDGE ( 'NONE', *, *, #148, .F. ) ;
#577 = DIRECTION ( 'NONE',  ( 0.000000000000000000, 1.000000000000000000, 0.000000000000000000 ) ) ;
#578 = DIRECTION ( 'NONE',  ( -0.000000000000000000, -1.000000000000000000, -0.000000000000000000 ) ) ;
#579 = DIRECTION ( 'NONE',  ( -0.000000000000000000, -1.000000000000000000, -0.000000000000000000 ) ) ;
#580 = CARTESIAN_POINT ( 'NONE',  ( -88.00000000000000000, -2.500000000000000000, 2.500000000000000000 ) ) ;
#581 = PRODUCT_RELATED_PRODUCT_CATEGORY ( 'detail', '', ( #1002 ) ) ;
#582 = ORIENTED_EDGE ( 'NONE', *, *, #237, .T. ) ;
#583 = CARTESIAN_POINT ( 'NONE',  ( -88.00000000000000000, 2.500000000000000000, -2.500000000000000000 ) ) ;
#584 = LINE ( 'NONE', #999, #316 ) ;
#585 = AXIS2_PLACEMENT_3D ( 'NONE', #867, #291, #212 ) ;
#586 = ORIENTED_EDGE ( 'NONE', *, *, #647, .F. ) ;
#587 = AXIS2_PLACEMENT_3D ( 'NONE', #226, #553, #65 ) ;
#588 = CARTESIAN_POINT ( 'NONE',  ( -74.99999999999994316, -7.599999999999998757, 5.999999999999999112 ) ) ;
#589 = EDGE_LOOP ( 'NONE', ( #189, #566, #102, #31, #975, #843, #971, #480 ) ) ;
#590 = DIRECTION ( 'NONE',  ( -1.000000000000000000, -0.000000000000000000, -0.000000000000000000 ) ) ;
#591 = CARTESIAN_POINT ( 'NONE',  ( 94.00000000000005684, 2.500000000000000000, 5.999999999999999112 ) ) ;
#592 = ORIENTED_EDGE ( 'NONE', *, *, #423, .F. ) ;
#593 = CARTESIAN_POINT ( 'NONE',  ( -93.99999999999994316, 2.500000000000000000, 5.999999999999999112 ) ) ;
#594 = DIRECTION ( 'NONE',  ( -0.000000000000000000, -1.000000000000000000, -0.000000000000000000 ) ) ;
#595 = DIRECTION ( 'NONE',  ( -0.000000000000000000, -1.000000000000000000, -0.000000000000000000 ) ) ;
#596 = DIRECTION ( 'NONE',  ( 1.000000000000000000, 0.000000000000000000, 0.000000000000000000 ) ) ;
#597 = ORIENTED_EDGE ( 'NONE', *, *, #830, .T. ) ;
#598 = PLANE ( 'NONE',  #437 ) ;
#599 = CARTESIAN_POINT ( 'NONE',  ( 88.00000000000000000, 2.500000000000000000, -2.500000000000000000 ) ) ;
#600 = EDGE_CURVE ( 'NONE', #64, #900, #242, .T. ) ;
#601 = LINE ( 'NONE', #527, #177 ) ;
#602 = APPROVAL_ROLE ( '' ) ;
#603 = CIRCLE ( 'NONE', #671, 1.000000000000000444 ) ;
#604 = ORIENTED_EDGE ( 'NONE', *, *, #343, .T. ) ;
#605 = ORIENTED_EDGE ( 'NONE', *, *, #151, .T. ) ;
#606 = AXIS2_PLACEMENT_3D ( 'NONE', #750, #995, #88 ) ;
#607 = DIRECTION ( 'NONE',  ( 0.000000000000000000, 0.000000000000000000, 1.000000000000000000 ) ) ;
#608 = CALENDAR_DATE ( 2025, 3, 6 ) ;
#609 = EDGE_CURVE ( 'NONE', #694, #742, #229, .T. ) ;
#610 = EDGE_LOOP ( 'NONE', ( #358, #893, #848, #572 ) ) ;
#611 = ORIENTED_EDGE ( 'NONE', *, *, #892, .F. ) ;
#612 = DIRECTION ( 'NONE',  ( 0.000000000000000000, -1.000000000000000000, 0.000000000000000000 ) ) ;
#613 = DIRECTION ( 'NONE',  ( 3.965082230804128248E-15, 0.000000000000000000, 1.000000000000000000 ) ) ;
#614 = ORIENTED_EDGE ( 'NONE', *, *, #713, .T. ) ;
#615 = ORIENTED_EDGE ( 'NONE', *, *, #397, .T. ) ;
#616 = CARTESIAN_POINT ( 'NONE',  ( -94.99999999999994316, -7.599999999999998757, -6.000000000000000000 ) ) ;
#617 = DIRECTION ( 'NONE',  ( 0.000000000000000000, 0.000000000000000000, -1.000000000000000000 ) ) ;
#618 = EDGE_CURVE ( 'NONE', #997, #1018, #207, .T. ) ;
#619 = LINE ( 'NONE', #125, #395 ) ;
#620 = ORIENTED_EDGE ( 'NONE', *, *, #317, .T. ) ;
#621 = VECTOR ( 'NONE', #902, 1000.000000000000000 ) ;
#622 = CIRCLE ( 'NONE', #568, 1.000000000000000000 ) ;
#623 = VERTEX_POINT ( 'NONE', #369 ) ;
#624 = DIRECTION ( 'NONE',  ( 0.000000000000000000, 1.000000000000000000, -0.000000000000000000 ) ) ;
#625 = SECURITY_CLASSIFICATION ( '', '', #363 ) ;
#626 = CARTESIAN_POINT ( 'NONE',  ( 75.99999999999992895, -7.599999999999998757, 3.500000000000000000 ) ) ;
#627 = VECTOR ( 'NONE', #847, 1000.000000000000000 ) ;
#628 = VERTEX_POINT ( 'NONE', #530 ) ;
#629 = ORIENTED_EDGE ( 'NONE', *, *, #1041, .T. ) ;
#630 = DIRECTION ( 'NONE',  ( 0.000000000000000000, -0.000000000000000000, -1.000000000000000000 ) ) ;
#631 = ADVANCED_FACE ( 'NONE', ( #463 ), #451, .T. ) ;
#632 = CARTESIAN_POINT ( 'NONE',  ( 95.00000000000005684, 2.500000000000000000, -5.000000000000000000 ) ) ;
#633 = CARTESIAN_POINT ( 'NONE',  ( -74.99999999999994316, -7.599999999999998757, 4.999999999999999112 ) ) ;
#634 = ORIENTED_EDGE ( 'NONE', *, *, #873, .T. ) ;
#635 = EDGE_CURVE ( 'NONE', #811, #262, #456, .T. ) ;
#636 = ORIENTED_EDGE ( 'NONE', *, *, #666, .F. ) ;
#637 = EDGE_LOOP ( 'NONE', ( #2, #224, #138, #83 ) ) ;
#638 = DIRECTION ( 'NONE',  ( 0.000000000000000000, 0.000000000000000000, -1.000000000000000000 ) ) ;
#639 = VECTOR ( 'NONE', #403, 1000.000000000000000 ) ;
#640 = DIRECTION ( 'NONE',  ( -0.000000000000000000, -1.000000000000000000, -0.000000000000000000 ) ) ;
#641 = ADVANCED_FACE ( 'NONE', ( #51 ), #380, .T. ) ;
#642 = ORIENTED_EDGE ( 'NONE', *, *, #618, .T. ) ;
#643 = CARTESIAN_POINT ( 'NONE',  ( 75.99999999999992895, -2.500000000000000000, -6.000000000000000000 ) ) ;
#644 = CC_DESIGN_PERSON_AND_ORGANIZATION_ASSIGNMENT ( #268, #329, ( #1002 ) ) ;
#645 = ORIENTED_EDGE ( 'NONE', *, *, #126, .F. ) ;
#646 = DIRECTION ( 'NONE',  ( 0.000000000000000000, 0.000000000000000000, -1.000000000000000000 ) ) ;
#647 = EDGE_CURVE ( 'NONE', #80, #771, #966, .T. ) ;
#648 = ORIENTED_EDGE ( 'NONE', *, *, #272, .T. ) ;
#649 = CARTESIAN_POINT ( 'NONE',  ( -93.99999999999994316, 2.500000000000000000, -6.000000000000000000 ) ) ;
#650 = AXIS2_PLACEMENT_3D ( 'NONE', #476, #793, #72 ) ;
#651 = LINE ( 'NONE', #14, #1042 ) ;
#652 = EDGE_CURVE ( 'NONE', #487, #491, #853, .T. ) ;
#653 = CARTESIAN_POINT ( 'NONE',  ( 95.00000000000005684, 2.500000000000000000, -5.000000000000000000 ) ) ;
#654 = PERSON_AND_ORGANIZATION ( #770, #41 ) ;
#655 = AXIS2_PLACEMENT_3D ( 'NONE', #796, #1037, #716 ) ;
#656 = ORIENTED_EDGE ( 'NONE', *, *, #554, .F. ) ;
#657 = CARTESIAN_POINT ( 'NONE',  ( -88.00000000000000000, 2.500000000000000000, 2.500000000000000000 ) ) ;
#658 = CARTESIAN_POINT ( 'NONE',  ( -75.99999999999992895, -7.599999999999998757, -6.000000000000000000 ) ) ;
#659 = CARTESIAN_POINT ( 'NONE',  ( 74.99999999999994316, -7.599999999999998757, 3.500000000000000000 ) ) ;
#660 = APPROVAL_DATE_TIME ( #891, #567 ) ;
#661 = ORIENTED_EDGE ( 'NONE', *, *, #67, .T. ) ;
#662 = DIRECTION ( 'NONE',  ( -0.000000000000000000, 0.000000000000000000, 1.000000000000000000 ) ) ;
#663 = CARTESIAN_POINT ( 'NONE',  ( -88.00000000000000000, 2.500000000000000000, -2.500000000000000000 ) ) ;
#664 = CARTESIAN_POINT ( 'NONE',  ( -74.99999999999994316, -7.599999999999998757, 4.999999999999999112 ) ) ;
#665 = CARTESIAN_POINT ( 'NONE',  ( 75.99999999999994316, -7.599999999999998757, 4.999999999999999112 ) ) ;
#666 = EDGE_CURVE ( 'NONE', #12, #822, #46, .T. ) ;
#667 = ORIENTED_EDGE ( 'NONE', *, *, #575, .F. ) ;
#668 = DIRECTION ( 'NONE',  ( 0.000000000000000000, -1.000000000000000000, -0.000000000000000000 ) ) ;
#669 = CARTESIAN_POINT ( 'NONE',  ( 94.99999999999994316, -7.599999999999998757, -6.000000000000000000 ) ) ;
#670 = LINE ( 'NONE', #425, #409 ) ;
#671 = AXIS2_PLACEMENT_3D ( 'NONE', #194, #981, #252 ) ;
#672 = VERTEX_POINT ( 'NONE', #942 ) ;
#673 = DIRECTION ( 'NONE',  ( 0.000000000000000000, 0.000000000000000000, 1.000000000000000000 ) ) ;
#674 = CARTESIAN_POINT ( 'NONE',  ( 74.99999999999994316, -7.599999999999998757, 3.500000000000000000 ) ) ;
#675 = DIRECTION ( 'NONE',  ( 0.000000000000000000, 0.000000000000000000, -1.000000000000000000 ) ) ;
#676 = APPLICATION_PROTOCOL_DEFINITION ( 'international standard', 'config_control_design', 1994, #180 ) ;
#677 = ORIENTED_EDGE ( 'NONE', *, *, #549, .F. ) ;
#678 = DIRECTION ( 'NONE',  ( 0.000000000000000000, 0.000000000000000000, 1.000000000000000000 ) ) ;
#679 = CARTESIAN_POINT ( 'NONE',  ( 74.99999999999994316, -7.599999999999998757, -3.499999999999996003 ) ) ;
#680 = CARTESIAN_POINT ( 'NONE',  ( 95.00000000000005684, 2.500000000000000000, 5.999999999999999112 ) ) ;
#681 = ORIENTED_EDGE ( 'NONE', *, *, #991, .T. ) ;
#682 = CARTESIAN_POINT ( 'NONE',  ( -88.00000000000000000, 2.500000000000000000, -2.500000000000000000 ) ) ;
#683 = FACE_OUTER_BOUND ( 'NONE', #44, .T. ) ;
#684 = ADVANCED_FACE ( 'NONE', ( #213, #552 ), #862, .F. ) ;
#685 = VECTOR ( 'NONE', #290, 1000.000000000000000 ) ;
#686 = CIRCLE ( 'NONE', #516, 1.000000000000000000 ) ;
#687 = ORIENTED_EDGE ( 'NONE', *, *, #752, .T. ) ;
#688 = CARTESIAN_POINT ( 'NONE',  ( -88.00000000000000000, -7.599999999999998757, 2.500000000000000000 ) ) ;
#689 = AXIS2_PLACEMENT_3D ( 'NONE', #943, #1021, #281 ) ;
#690 = DIRECTION ( 'NONE',  ( 0.000000000000000000, 0.000000000000000000, -1.000000000000000000 ) ) ;
#691 = APPROVAL ( #118, 'UNSPECIFIED' ) ;
#692 = COORDINATED_UNIVERSAL_TIME_OFFSET ( 1, 0, .AHEAD. ) ;
#693 = EDGE_CURVE ( 'NONE', #262, #487, #821, .T. ) ;
#694 = VERTEX_POINT ( 'NONE', #228 ) ;
#695 = DIRECTION ( 'NONE',  ( 0.000000000000000000, 0.000000000000000000, -1.000000000000000000 ) ) ;
#696 = CARTESIAN_POINT ( 'NONE',  ( -93.99999999999994316, 2.500000000000000000, -6.000000000000000000 ) ) ;
#697 = DIRECTION ( 'NONE',  ( 1.000000000000000000, 0.000000000000000000, 0.000000000000000000 ) ) ;
#698 = CARTESIAN_POINT ( 'NONE',  ( -94.99999999999994316, -7.599999999999998757, 5.999999999999999112 ) ) ;
#699 = DIRECTION ( 'NONE',  ( 1.000000000000000000, 0.000000000000000000, -0.000000000000000000 ) ) ;
#700 = DIRECTION ( 'NONE',  ( 0.000000000000000000, -1.000000000000000000, 0.000000000000000000 ) ) ;
#701 = ORIENTED_EDGE ( 'NONE', *, *, #737, .F. ) ;
#702 = PLANE ( 'NONE',  #488 ) ;
#703 = AXIS2_PLACEMENT_3D ( 'NONE', #781, #525, #284 ) ;
#704 = ORIENTED_EDGE ( 'NONE', *, *, #752, .F. ) ;
#705 = VECTOR ( 'NONE', #761, 1000.000000000000000 ) ;
#706 = EDGE_LOOP ( 'NONE', ( #969, #888, #161, #233, #615, #367, #312, #973 ) ) ;
#707 = CYLINDRICAL_SURFACE ( 'NONE', #840, 1.000000000000000000 ) ;
#708 = LOCAL_TIME ( 10, 40, 24.00000000000000000, #692 ) ;
#709 = DIRECTION ( 'NONE',  ( 0.000000000000000000, -1.000000000000000000, 0.000000000000000000 ) ) ;
#710 = CARTESIAN_POINT ( 'NONE',  ( 94.99999999999994316, -7.599999999999998757, 5.999999999999999112 ) ) ;
#711 = AXIS2_PLACEMENT_3D ( 'NONE', #739, #178, #259 ) ;
#712 = ORIENTED_EDGE ( 'NONE', *, *, #635, .T. ) ;
#713 = EDGE_CURVE ( 'NONE', #911, #727, #953, .T. ) ;
#714 = ORIENTED_EDGE ( 'NONE', *, *, #713, .F. ) ;
#715 = ADVANCED_FACE ( 'NONE', ( #475 ), #479, .F. ) ;
#716 = DIRECTION ( 'NONE',  ( 0.000000000000000000, 0.000000000000000000, 1.000000000000000000 ) ) ;
#717 = ORIENTED_EDGE ( 'NONE', *, *, #287, .T. ) ;
#718 = ADVANCED_BREP_SHAPE_REPRESENTATION ( 'rail_mobile_dessus_P', ( #884, #874 ), #542 ) ;
#719 = EDGE_CURVE ( 'NONE', #876, #96, #925, .T. ) ;
#720 = CARTESIAN_POINT ( 'NONE',  ( -75.99999999999994316, -2.500000000000000000, 5.999999999999999112 ) ) ;
#721 = EDGE_LOOP ( 'NONE', ( #967, #478, #576, #852 ) ) ;
#722 = CIRCLE ( 'NONE', #994, 1.000000000000000000 ) ;
#723 = DIRECTION ( 'NONE',  ( -1.000000000000000000, 0.000000000000000000, -0.000000000000000000 ) ) ;
#724 = AXIS2_PLACEMENT_3D ( 'NONE', #362, #341, #675 ) ;
#725 = EDGE_CURVE ( 'NONE', #623, #133, #485, .T. ) ;
#726 = ORIENTED_EDGE ( 'NONE', *, *, #600, .F. ) ;
#727 = VERTEX_POINT ( 'NONE', #546 ) ;
#728 = UNCERTAINTY_MEASURE_WITH_UNIT (LENGTH_MEASURE( 1.000000000000000082E-05 ), #107, 'distance_accuracy_value', 'NONE');
#729 = EDGE_LOOP ( 'NONE', ( #875, #421, #396, #760, #614, #473, #251, #506 ) ) ;
#730 = ADVANCED_FACE ( 'NONE', ( #778 ), #132, .F. ) ;
#731 = DIRECTION ( 'NONE',  ( 1.000000000000000000, 0.000000000000000000, 0.000000000000000000 ) ) ;
#732 = CARTESIAN_POINT ( 'NONE',  ( 88.00000000000000000, 2.500000000000000000, 0.000000000000000000 ) ) ;
#733 = ORIENTED_EDGE ( 'NONE', *, *, #198, .F. ) ;
#734 = FACE_OUTER_BOUND ( 'NONE', #294, .T. ) ;
#735 = AXIS2_PLACEMENT_3D ( 'NONE', #179, #505, #751 ) ;
#736 = DIRECTION ( 'NONE',  ( 0.000000000000000000, -1.000000000000000000, 0.000000000000000000 ) ) ;
#737 = EDGE_CURVE ( 'NONE', #1023, #80, #69, .T. ) ;
#738 = VERTEX_POINT ( 'NONE', #720 ) ;
#739 = CARTESIAN_POINT ( 'NONE',  ( 75.99999999999992895, -2.500000000000000000, 3.500000000000000000 ) ) ;
#740 = DIRECTION ( 'NONE',  ( -0.000000000000000000, 1.000000000000000000, -0.000000000000000000 ) ) ;
#741 = VECTOR ( 'NONE', #215, 1000.000000000000000 ) ;
#742 = VERTEX_POINT ( 'NONE', #68 ) ;
#743 = CARTESIAN_POINT ( 'NONE',  ( -74.99999999999994316, -2.500000000000000000, 3.500000000000000000 ) ) ;
#744 = CARTESIAN_POINT ( 'NONE',  ( 75.99999999999994316, -7.599999999999998757, 5.999999999999999112 ) ) ;
#745 = ADVANCED_FACE ( 'NONE', ( #734 ), #1050, .T. ) ;
#746 = FACE_OUTER_BOUND ( 'NONE', #550, .T. ) ;
#747 = ORIENTED_EDGE ( 'NONE', *, *, #116, .F. ) ;
#748 = CARTESIAN_POINT ( 'NONE',  ( 94.00000000000005684, 2.500000000000000000, -6.000000000000000000 ) ) ;
#749 = CARTESIAN_POINT ( 'NONE',  ( -93.99999999999994316, 2.500000000000000000, -5.000000000000000000 ) ) ;
#750 = CARTESIAN_POINT ( 'NONE',  ( 94.00000000000005684, 2.500000000000000000, 4.999999999999999112 ) ) ;
#751 = DIRECTION ( 'NONE',  ( 0.000000000000000000, 0.000000000000000000, 1.000000000000000000 ) ) ;
#752 = EDGE_CURVE ( 'NONE', #491, #936, #20, .T. ) ;
#753 = ORIENTED_EDGE ( 'NONE', *, *, #67, .F. ) ;
#754 = CARTESIAN_POINT ( 'NONE',  ( -74.99999999999992895, -2.500000000000000000, -4.999999999999995559 ) ) ;
#755 = CARTESIAN_POINT ( 'NONE',  ( -75.99999999999994316, -7.599999999999998757, 2.500000000000000000 ) ) ;
#756 = AXIS2_PLACEMENT_3D ( 'NONE', #18, #276, #992 ) ;
#757 = DIRECTION ( 'NONE',  ( -0.000000000000000000, -0.000000000000000000, 1.000000000000000000 ) ) ;
#758 = AXIS2_PLACEMENT_3D ( 'NONE', #749, #183, #271 ) ;
#759 =( NAMED_UNIT ( * ) PLANE_ANGLE_UNIT ( ) SI_UNIT ( $, .RADIAN. ) );
#760 = ORIENTED_EDGE ( 'NONE', *, *, #198, .T. ) ;
#761 = DIRECTION ( 'NONE',  ( -0.000000000000000000, -1.000000000000000000, -0.000000000000000000 ) ) ;
#762 = CARTESIAN_POINT ( 'NONE',  ( 94.00000000000005684, -7.599999999999998757, 5.999999999999999112 ) ) ;
#763 = ORIENTED_EDGE ( 'NONE', *, *, #343, .F. ) ;
#764 = ORIENTED_EDGE ( 'NONE', *, *, #819, .F. ) ;
#765 = LINE ( 'NONE', #748, #295 ) ;
#766 = EDGE_CURVE ( 'NONE', #929, #551, #972, .T. ) ;
#767 = PRODUCT_DEFINITION_SHAPE ( 'NONE', 'NONE',  #539 ) ;
#768 = CARTESIAN_POINT ( 'NONE',  ( -75.99999999999992895, -7.599999999999998757, -5.000000000000000000 ) ) ;
#769 = DATE_AND_TIME ( #1026, #173 ) ;
#770 = PERSON ( 'UNSPECIFIED', 'UNSPECIFIED', 'UNSPECIFIED', ('UNSPECIFIED'), ('UNSPECIFIED'), ('UNSPECIFIED') ) ;
#771 = VERTEX_POINT ( 'NONE', #562 ) ;
#772 = DIRECTION ( 'NONE',  ( 1.000000000000000000, 0.000000000000000000, 0.000000000000000000 ) ) ;
#773 = CARTESIAN_POINT ( 'NONE',  ( 75.99999999999994316, -7.599999999999998757, 5.999999999999999112 ) ) ;
#774 = PERSON_AND_ORGANIZATION ( #770, #41 ) ;
#775 = AXIS2_PLACEMENT_3D ( 'NONE', #1039, #782, #123 ) ;
#776 = EDGE_LOOP ( 'NONE', ( #427, #119, #704, #1038 ) ) ;
#777 = CARTESIAN_POINT ( 'NONE',  ( -74.99999999999994316, -2.500000000000000444, 3.500000000000000000 ) ) ;
#778 = FACE_OUTER_BOUND ( 'NONE', #498, .T. ) ;
#779 = CARTESIAN_POINT ( 'NONE',  ( -75.99999999999992895, -2.500000000000000444, -5.000000000000000000 ) ) ;
#780 = CARTESIAN_POINT ( 'NONE',  ( -94.99999999999994316, 2.500000000000000000, 4.999999999999999112 ) ) ;
#781 = CARTESIAN_POINT ( 'NONE',  ( 75.99999999999992895, -7.599999999999998757, -5.000000000000000000 ) ) ;
#782 = DIRECTION ( 'NONE',  ( -1.000000000000000000, 0.000000000000000000, 3.965082230804128248E-15 ) ) ;
#783 = PLANE ( 'NONE',  #689 ) ;
#784 = CALENDAR_DATE ( 2025, 3, 6 ) ;
#785 = FACE_OUTER_BOUND ( 'NONE', #950, .T. ) ;
#786 = EDGE_CURVE ( 'NONE', #320, #275, #622, .T. ) ;
#787 = VERTEX_POINT ( 'NONE', #663 ) ;
#788 = LINE ( 'NONE', #680, #627 ) ;
#789 = VECTOR ( 'NONE', #678, 1000.000000000000000 ) ;
#790 = ORIENTED_EDGE ( 'NONE', *, *, #1024, .T. ) ;
#791 = VECTOR ( 'NONE', #1017, 1000.000000000000000 ) ;
#792 = ORIENTED_EDGE ( 'NONE', *, *, #172, .F. ) ;
#793 = DIRECTION ( 'NONE',  ( 0.000000000000000000, 1.000000000000000000, 0.000000000000000000 ) ) ;
#794 = AXIS2_PLACEMENT_3D ( 'NONE', #732, #1051, #209 ) ;
#795 = CIRCLE ( 'NONE', #24, 2.499999999999999556 ) ;
#796 = CARTESIAN_POINT ( 'NONE',  ( -75.99999999999994316, 2.500000000000000000, 4.999999999999999112 ) ) ;
#797 = VERTEX_POINT ( 'NONE', #345 ) ;
#798 = CARTESIAN_POINT ( 'NONE',  ( -94.99999999999994316, 2.500000000000000000, 5.999999999999999112 ) ) ;
#799 = EDGE_CURVE ( 'NONE', #787, #200, #258, .T. ) ;
#800 = ORIENTED_EDGE ( 'NONE', *, *, #84, .T. ) ;
#801 = DIRECTION ( 'NONE',  ( 0.000000000000000000, -1.000000000000000000, 0.000000000000000000 ) ) ;
#802 = CARTESIAN_POINT ( 'NONE',  ( 75.99999999999994316, -7.599999999999998757, 4.999999999999999112 ) ) ;
#803 = EDGE_CURVE ( 'NONE', #672, #900, #98, .T. ) ;
#804 = EDGE_LOOP ( 'NONE', ( #726, #288, #645, #205 ) ) ;
#805 = VECTOR ( 'NONE', #578, 1000.000000000000000 ) ;
#806 = CARTESIAN_POINT ( 'NONE',  ( -74.99999999999992895, -7.599999999999998757, -4.999999999999995559 ) ) ;
#807 = CC_DESIGN_APPROVAL ( #303, ( #625 ) ) ;
#808 = CIRCLE ( 'NONE', #724, 1.000000000000000444 ) ;
#809 = VERTEX_POINT ( 'NONE', #993 ) ;
#810 = LINE ( 'NONE', #71, #1027 ) ;
#811 = VERTEX_POINT ( 'NONE', #333 ) ;
#812 = DIRECTION ( 'NONE',  ( 0.000000000000000000, 0.000000000000000000, 1.000000000000000000 ) ) ;
#813 = APPLICATION_CONTEXT ( 'configuration controlled 3d designs of mechanical parts and assemblies' ) ;
#814 = VERTEX_POINT ( 'NONE', #599 ) ;
#815 = EDGE_CURVE ( 'NONE', #936, #262, #903, .T. ) ;
#816 = ORIENTED_EDGE ( 'NONE', *, *, #737, .T. ) ;
#817 = CARTESIAN_POINT ( 'NONE',  ( 88.00000000000000000, -7.599999999999998757, 0.000000000000000000 ) ) ;
#818 = ORIENTED_EDGE ( 'NONE', *, *, #559, .F. ) ;
#819 = EDGE_CURVE ( 'NONE', #304, #822, #175, .T. ) ;
#820 = PLANE ( 'NONE',  #103 ) ;
#821 = CIRCLE ( 'NONE', #328, 1.000000000000000000 ) ;
#822 = VERTEX_POINT ( 'NONE', #658 ) ;
#823 = DIRECTION ( 'NONE',  ( 0.000000000000000000, -1.000000000000000000, 0.000000000000000000 ) ) ;
#824 = CARTESIAN_POINT ( 'NONE',  ( -75.99999999999994316, -2.500000000000000000, 4.999999999999999112 ) ) ;
#825 = AXIS2_PLACEMENT_3D ( 'NONE', #768, #543, #607 ) ;
#826 = VECTOR ( 'NONE', #384, 1000.000000000000000 ) ;
#827 = ORIENTED_EDGE ( 'NONE', *, *, #991, .F. ) ;
#828 = DIRECTION ( 'NONE',  ( 0.000000000000000000, 0.000000000000000000, -1.000000000000000000 ) ) ;
#829 = CARTESIAN_POINT ( 'NONE',  ( -94.99999999999994316, -7.599999999999998757, 4.999999999999999112 ) ) ;
#830 = EDGE_CURVE ( 'NONE', #929, #36, #435, .T. ) ;
#831 = DIRECTION ( 'NONE',  ( 0.000000000000000000, 0.000000000000000000, 1.000000000000000000 ) ) ;
#832 = CARTESIAN_POINT ( 'NONE',  ( -74.99999999999994316, -2.500000000000000000, 4.999999999999999112 ) ) ;
#833 = ORIENTED_EDGE ( 'NONE', *, *, #877, .F. ) ;
#834 = ORIENTED_EDGE ( 'NONE', *, *, #1015, .T. ) ;
#835 = CARTESIAN_POINT ( 'NONE',  ( 75.99999999999994316, -7.599999999999998757, -3.500000000000000000 ) ) ;
#836 = LINE ( 'NONE', #580, #872 ) ;
#837 = EDGE_CURVE ( 'NONE', #1018, #628, #603, .T. ) ;
#838 = VERTEX_POINT ( 'NONE', #265 ) ;
#839 = CARTESIAN_POINT ( 'NONE',  ( -94.99999999999994316, -7.599999999999998757, -5.000000000000000000 ) ) ;
#840 = AXIS2_PLACEMENT_3D ( 'NONE', #417, #736, #987 ) ;
#841 = FACE_OUTER_BOUND ( 'NONE', #637, .T. ) ;
#842 = EDGE_CURVE ( 'NONE', #36, #1047, #918, .T. ) ;
#843 = ORIENTED_EDGE ( 'NONE', *, *, #172, .T. ) ;
#844 = VERTEX_POINT ( 'NONE', #679 ) ;
#845 = CIRCLE ( 'NONE', #1031, 1.000000000000000444 ) ;
#846 = CARTESIAN_POINT ( 'NONE',  ( -74.99999999999994316, -7.599999999999998757, 3.500000000000000000 ) ) ;
#847 = DIRECTION ( 'NONE',  ( 0.000000000000000000, 0.000000000000000000, -1.000000000000000000 ) ) ;
#848 = ORIENTED_EDGE ( 'NONE', *, *, #799, .F. ) ;
#849 = DIRECTION ( 'NONE',  ( -1.000000000000000000, -0.000000000000000000, -0.000000000000000000 ) ) ;
#850 = DIRECTION ( 'NONE',  ( 0.000000000000000000, -1.000000000000000000, 0.000000000000000000 ) ) ;
#851 = COORDINATED_UNIVERSAL_TIME_OFFSET ( 1, 0, .AHEAD. ) ;
#852 = ORIENTED_EDGE ( 'NONE', *, *, #719, .F. ) ;
#853 = LINE ( 'NONE', #777, #791 ) ;
#854 = EDGE_CURVE ( 'NONE', #1007, #171, #907, .T. ) ;
#855 = CARTESIAN_POINT ( 'NONE',  ( 74.99999999999994316, -2.500000000000000000, -2.499999999999997780 ) ) ;
#856 = AXIS2_PLACEMENT_3D ( 'NONE', #405, #968, #234 ) ;
#857 = VECTOR ( 'NONE', #176, 1000.000000000000000 ) ;
#858 = LOCAL_TIME ( 10, 40, 24.00000000000000000, #249 ) ;
#859 = FACE_OUTER_BOUND ( 'NONE', #729, .T. ) ;
#860 = DIRECTION ( 'NONE',  ( 0.000000000000000000, -1.000000000000000000, 0.000000000000000000 ) ) ;
#861 = AXIS2_PLACEMENT_3D ( 'NONE', #898, #823, #913 ) ;
#862 = PLANE ( 'NONE',  #389 ) ;
#863 = AXIS2_PLACEMENT_3D ( 'NONE', #779, #366, #469 ) ;
#864 = LINE ( 'NONE', #39, #247 ) ;
#865 = CARTESIAN_POINT ( 'NONE',  ( 74.99999999999994316, -7.599999999999998757, 5.999999999999999112 ) ) ;
#866 = EDGE_LOOP ( 'NONE', ( #444, #827, #387, #956 ) ) ;
#867 = CARTESIAN_POINT ( 'NONE',  ( 94.00000000000005684, 2.500000000000000000, -5.000000000000000000 ) ) ;
#868 = DIRECTION ( 'NONE',  ( 0.000000000000000000, 0.000000000000000000, -1.000000000000000000 ) ) ;
#869 = ORIENTED_EDGE ( 'NONE', *, *, #1010, .T. ) ;
#870 = ORIENTED_EDGE ( 'NONE', *, *, #549, .T. ) ;
#871 = LINE ( 'NONE', #159, #1044 ) ;
#872 = VECTOR ( 'NONE', #596, 1000.000000000000000 ) ;
#873 = EDGE_CURVE ( 'NONE', #742, #320, #895, .T. ) ;
#874 = AXIS2_PLACEMENT_3D ( 'NONE', #7, #510, #254 ) ;
#875 = ORIENTED_EDGE ( 'NONE', *, *, #494, .F. ) ;
#876 = VERTEX_POINT ( 'NONE', #92 ) ;
#877 = EDGE_CURVE ( 'NONE', #906, #146, #170, .T. ) ;
#878 = ORIENTED_EDGE ( 'NONE', *, *, #609, .T. ) ;
#879 = DIRECTION ( 'NONE',  ( 0.000000000000000000, -1.000000000000000000, 0.000000000000000000 ) ) ;
#880 = VECTOR ( 'NONE', #673, 1000.000000000000000 ) ;
#881 = ORIENTED_EDGE ( 'NONE', *, *, #231, .F. ) ;
#882 = VECTOR ( 'NONE', #512, 1000.000000000000000 ) ;
#883 = DIRECTION ( 'NONE',  ( -0.000000000000000000, -1.000000000000000000, -0.000000000000000000 ) ) ;
#884 = MANIFOLD_SOLID_BREP ( 'Congé1', #977 ) ;
#885 = LINE ( 'NONE', #293, #393 ) ;
#886 = VECTOR ( 'NONE', #22, 1000.000000000000000 ) ;
#887 = VECTOR ( 'NONE', #321, 1000.000000000000000 ) ;
#888 = ORIENTED_EDGE ( 'NONE', *, *, #842, .T. ) ;
#889 = CC_DESIGN_PERSON_AND_ORGANIZATION_ASSIGNMENT ( #337, #984, ( #539 ) ) ;
#890 = CARTESIAN_POINT ( 'NONE',  ( 88.00000000000000000, 2.500000000000000000, 2.500000000000000000 ) ) ;
#891 = DATE_AND_TIME ( #165, #858 ) ;
#892 = EDGE_CURVE ( 'NONE', #911, #844, #497, .T. ) ;
#893 = ORIENTED_EDGE ( 'NONE', *, *, #335, .F. ) ;
#894 = DIRECTION ( 'NONE',  ( 0.000000000000000000, 0.000000000000000000, -1.000000000000000000 ) ) ;
#895 = LINE ( 'NONE', #744, #62 ) ;
#896 = DIRECTION ( 'NONE',  ( -0.000000000000000000, 1.000000000000000000, -0.000000000000000000 ) ) ;
#897 = EDGE_LOOP ( 'NONE', ( #586, #701, #279, #1036 ) ) ;
#898 = CARTESIAN_POINT ( 'NONE',  ( -75.99999999999994316, 2.500000000000000000, -3.500000000000000000 ) ) ;
#899 = CARTESIAN_POINT ( 'NONE',  ( 74.99999999999994316, -2.500000000000000000, 3.500000000000000000 ) ) ;
#900 = VERTEX_POINT ( 'NONE', #382 ) ;
#901 = ADVANCED_FACE ( 'NONE', ( #145 ), #941, .T. ) ;
#902 = DIRECTION ( 'NONE',  ( -1.000000000000000000, -0.000000000000000000, -1.000802005371230690E-16 ) ) ;
#903 = LINE ( 'NONE', #755, #882 ) ;
#904 = DIRECTION ( 'NONE',  ( 0.000000000000000000, 1.000000000000000000, -0.000000000000000000 ) ) ;
#905 = CARTESIAN_POINT ( 'NONE',  ( 75.99999999999994316, -2.500000000000000000, -2.500000000000000000 ) ) ;
#906 = VERTEX_POINT ( 'NONE', #696 ) ;
#907 = LINE ( 'NONE', #674, #805 ) ;
#908 = ADVANCED_FACE ( 'NONE', ( #53 ), #1019, .T. ) ;
#909 = ORIENTED_EDGE ( 'NONE', *, *, #371, .F. ) ;
#910 = LINE ( 'NONE', #100, #4 ) ;
#911 = VERTEX_POINT ( 'NONE', #59 ) ;
#912 = DIRECTION ( 'NONE',  ( 0.000000000000000000, 1.000000000000000000, -0.000000000000000000 ) ) ;
#913 = DIRECTION ( 'NONE',  ( 0.000000000000000000, 0.000000000000000000, -1.000000000000000000 ) ) ;
#914 = EDGE_CURVE ( 'NONE', #838, #1018, #541, .T. ) ;
#915 = FACE_OUTER_BOUND ( 'NONE', #324, .T. ) ;
#916 = EDGE_LOOP ( 'NONE', ( #218, #144, #122, #947 ) ) ;
#917 = ORIENTED_EDGE ( 'NONE', *, *, #32, .F. ) ;
#918 = CIRCLE ( 'NONE', #280, 1.000000000000000000 ) ;
#919 = DIRECTION ( 'NONE',  ( 0.000000000000000000, -1.000000000000000000, 0.000000000000000000 ) ) ;
#920 = DATE_AND_TIME ( #449, #21 ) ;
#921 = ADVANCED_FACE ( 'NONE', ( #952 ), #707, .T. ) ;
#922 = AXIS2_PLACEMENT_3D ( 'NONE', #835, #904, #831 ) ;
#923 = ORIENTED_EDGE ( 'NONE', *, *, #84, .F. ) ;
#924 = DIRECTION ( 'NONE',  ( -0.000000000000000000, -0.000000000000000000, 1.000000000000000000 ) ) ;
#925 = LINE ( 'NONE', #526, #974 ) ;
#926 = LINE ( 'NONE', #1009, #741 ) ;
#927 = APPROVAL_DATE_TIME ( #135, #303 ) ;
#928 = EDGE_CURVE ( 'NONE', #155, #906, #163, .T. ) ;
#929 = VERTEX_POINT ( 'NONE', #829 ) ;
#930 = ORIENTED_EDGE ( 'NONE', *, *, #928, .F. ) ;
#931 = DIRECTION ( 'NONE',  ( 0.000000000000000000, 0.000000000000000000, -1.000000000000000000 ) ) ;
#932 = DIRECTION ( 'NONE',  ( 0.000000000000000000, 1.000000000000000000, 0.000000000000000000 ) ) ;
#933 = ORIENTED_EDGE ( 'NONE', *, *, #371, .T. ) ;
#934 = DIRECTION ( 'NONE',  ( -1.000000000000000000, -0.000000000000000000, -0.000000000000000000 ) ) ;
#935 = SHAPE_DEFINITION_REPRESENTATION ( #767, #718 ) ;
#936 = VERTEX_POINT ( 'NONE', #184 ) ;
#937 = ORIENTED_EDGE ( 'NONE', *, *, #3, .T. ) ;
#938 = DIRECTION ( 'NONE',  ( 0.000000000000000000, 0.000000000000000000, -1.000000000000000000 ) ) ;
#939 = EDGE_CURVE ( 'NONE', #166, #876, #651, .T. ) ;
#940 = EDGE_LOOP ( 'NONE', ( #656, #238, #870, #620 ) ) ;
#941 = PLANE ( 'NONE',  #775 ) ;
#942 = CARTESIAN_POINT ( 'NONE',  ( 94.00000000000005684, -7.599999999999998757, -6.000000000000000000 ) ) ;
#943 = CARTESIAN_POINT ( 'NONE',  ( -94.99999999999994316, 2.500000000000000000, -6.000000000000000000 ) ) ;
#944 = AXIS2_PLACEMENT_3D ( 'NONE', #980, #640, #894 ) ;
#945 = AXIS2_PLACEMENT_3D ( 'NONE', #798, #557, #357 ) ;
#946 = CC_DESIGN_APPROVAL ( #691, ( #154 ) ) ;
#947 = ORIENTED_EDGE ( 'NONE', *, *, #544, .F. ) ;
#948 = DIRECTION ( 'NONE',  ( 0.000000000000000000, -1.000000000000000000, 0.000000000000000000 ) ) ;
#949 = EDGE_CURVE ( 'NONE', #17, #155, #686, .T. ) ;
#950 = EDGE_LOOP ( 'NONE', ( #604, #450, #131, #834 ) ) ;
#951 = AXIS2_PLACEMENT_3D ( 'NONE', #817, #492, #85 ) ;
#952 = FACE_OUTER_BOUND ( 'NONE', #866, .T. ) ;
#953 = LINE ( 'NONE', #1032, #537 ) ;
#954 = CARTESIAN_POINT ( 'NONE',  ( 74.99999999999994316, -7.599999999999998757, -3.499999999999996003 ) ) ;
#955 = PERSON_AND_ORGANIZATION ( #770, #41 ) ;
#956 = ORIENTED_EDGE ( 'NONE', *, *, #1015, .F. ) ;
#957 = VERTEX_POINT ( 'NONE', #346 ) ;
#958 = CARTESIAN_POINT ( 'NONE',  ( 75.99999999999992895, -2.500000000000000000, -6.000000000000000000 ) ) ;
#959 = CYLINDRICAL_SURFACE ( 'NONE', #650, 1.000000000000000444 ) ;
#960 = EDGE_CURVE ( 'NONE', #900, #404, #495, .T. ) ;
#961 = VERTEX_POINT ( 'NONE', #307 ) ;
#962 = EDGE_LOOP ( 'NONE', ( #1011, #764, #235, #753 ) ) ;
#963 = DIRECTION ( 'NONE',  ( -0.000000000000000000, 1.000000000000000000, -0.000000000000000000 ) ) ;
#964 = VECTOR ( 'NONE', #440, 1000.000000000000000 ) ;
#965 = DIRECTION ( 'NONE',  ( 0.000000000000000000, 0.000000000000000000, 1.000000000000000000 ) ) ;
#966 = CIRCLE ( 'NONE', #74, 1.000000000000000000 ) ;
#967 = ORIENTED_EDGE ( 'NONE', *, *, #296, .F. ) ;
#968 = DIRECTION ( 'NONE',  ( 0.000000000000000000, -1.000000000000000000, 0.000000000000000000 ) ) ;
#969 = ORIENTED_EDGE ( 'NONE', *, *, #263, .T. ) ;
#970 = DIRECTION ( 'NONE',  ( 0.000000000000000000, 1.000000000000000000, -0.000000000000000000 ) ) ;
#971 = ORIENTED_EDGE ( 'NONE', *, *, #939, .T. ) ;
#972 = LINE ( 'NONE', #1040, #315 ) ;
#973 = ORIENTED_EDGE ( 'NONE', *, *, #877, .T. ) ;
#974 = VECTOR ( 'NONE', #932, 1000.000000000000000 ) ;
#975 = ORIENTED_EDGE ( 'NONE', *, *, #452, .T. ) ;
#976 = CARTESIAN_POINT ( 'NONE',  ( -94.99999999999994316, 2.500000000000000000, -5.000000000000000000 ) ) ;
#977 = CLOSED_SHELL ( 'NONE', ( #278, #684, #401, #40, #255, #715, #730, #432, #466, #73, #78, #523, #565, #137, #33, #901, #503, #447, #745, #49, #641, #79, #250, #985, #631, #225, #1033, #908, #921 ) ) ;
#978 = APPROVAL_STATUS ( 'not_yet_approved' ) ;
#979 = ORIENTED_EDGE ( 'NONE', *, *, #786, .T. ) ;
#980 = CARTESIAN_POINT ( 'NONE',  ( -88.00000000000000000, 2.500000000000000000, 0.000000000000000000 ) ) ;
#981 = DIRECTION ( 'NONE',  ( -0.000000000000000000, 1.000000000000000000, -0.000000000000000000 ) ) ;
#982 = CARTESIAN_POINT ( 'NONE',  ( 94.00000000000005684, 2.500000000000000000, -5.000000000000000000 ) ) ;
#983 = CARTESIAN_POINT ( 'NONE',  ( 88.00000000000000000, -7.599999999999998757, 2.500000000000000000 ) ) ;
#984 = PERSON_AND_ORGANIZATION_ROLE ( 'creator' ) ;
#985 = ADVANCED_FACE ( 'NONE', ( #299 ), #959, .T. ) ;
#986 = ORIENTED_EDGE ( 'NONE', *, *, #272, .F. ) ;
#987 = DIRECTION ( 'NONE',  ( 0.000000000000000000, 0.000000000000000000, -1.000000000000000000 ) ) ;
#988 = CARTESIAN_POINT ( 'NONE',  ( -88.00000000000000000, -7.599999999999998757, 0.000000000000000000 ) ) ;
#989 = DIRECTION ( 'NONE',  ( 0.000000000000000000, -1.000000000000000000, 0.000000000000000000 ) ) ;
#990 = ORIENTED_EDGE ( 'NONE', *, *, #494, .T. ) ;
#991 = EDGE_CURVE ( 'NONE', #133, #25, #274, .T. ) ;
#992 = DIRECTION ( 'NONE',  ( -3.965082230804128248E-15, 0.000000000000000000, 1.000000000000000000 ) ) ;
#993 = CARTESIAN_POINT ( 'NONE',  ( -93.99999999999994316, -7.599999999999998757, 5.999999999999999112 ) ) ;
#994 = AXIS2_PLACEMENT_3D ( 'NONE', #342, #989, #514 ) ;
#995 = DIRECTION ( 'NONE',  ( -0.000000000000000000, 1.000000000000000000, -0.000000000000000000 ) ) ;
#996 =( NAMED_UNIT ( * ) SI_UNIT ( $, .STERADIAN. ) SOLID_ANGLE_UNIT ( ) );
#997 = VERTEX_POINT ( 'NONE', #905 ) ;
#998 = DIRECTION ( 'NONE',  ( -1.000000000000000000, 0.000000000000000000, -0.000000000000000000 ) ) ;
#999 = CARTESIAN_POINT ( 'NONE',  ( -94.99999999999994316, 2.500000000000000000, 5.999999999999999112 ) ) ;
#1000 = DIRECTION ( 'NONE',  ( 0.000000000000000000, -1.000000000000000000, 0.000000000000000000 ) ) ;
#1001 = ORIENTED_EDGE ( 'NONE', *, *, #803, .F. ) ;
#1002 = PRODUCT ( 'rail_mobile_dessus_P', 'rail_mobile_dessus_P', '', ( #95 ) ) ;
#1003 = FACE_OUTER_BOUND ( 'NONE', #563, .T. ) ;
#1004 = CARTESIAN_POINT ( 'NONE',  ( -75.99999999999992895, 2.500000000000000000, -6.000000000000000000 ) ) ;
#1005 = CARTESIAN_POINT ( 'NONE',  ( -88.00000000000000000, -7.599999999999998757, 0.000000000000000000 ) ) ;
#1006 = EDGE_CURVE ( 'NONE', #738, #1023, #474, .T. ) ;
#1007 = VERTEX_POINT ( 'NONE', #899 ) ;
#1008 = ORIENTED_EDGE ( 'NONE', *, *, #263, .F. ) ;
#1009 = CARTESIAN_POINT ( 'NONE',  ( -94.99999999999994316, -2.500000000000000000, 5.999999999999999112 ) ) ;
#1010 = EDGE_CURVE ( 'NONE', #364, #814, #230, .T. ) ;
#1011 = ORIENTED_EDGE ( 'NONE', *, *, #1041, .F. ) ;
#1012 = CARTESIAN_POINT ( 'NONE',  ( -75.99999999999994316, -7.599999999999998757, 3.500000000000000000 ) ) ;
#1013 = EDGE_LOOP ( 'NONE', ( #881, #181, #933, #149, #642, #75, #986, #445 ) ) ;
#1014 = CARTESIAN_POINT ( 'NONE',  ( 94.99999999999994316, -7.599999999999998757, 5.999999999999999112 ) ) ;
#1015 = EDGE_CURVE ( 'NONE', #524, #623, #16, .T. ) ;
#1016 = ORIENTED_EDGE ( 'NONE', *, *, #522, .T. ) ;
#1017 = DIRECTION ( 'NONE',  ( 0.000000000000000000, 1.000000000000000000, 0.000000000000000000 ) ) ;
#1018 = VERTEX_POINT ( 'NONE', #420 ) ;
#1019 = CYLINDRICAL_SURFACE ( 'NONE', #585, 1.000000000000000000 ) ;
#1020 = CARTESIAN_POINT ( 'NONE',  ( 0.000000000000000000, 2.500000000000000000, 0.000000000000000000 ) ) ;
#1021 = DIRECTION ( 'NONE',  ( 0.000000000000000000, 0.000000000000000000, 1.000000000000000000 ) ) ;
#1022 = FACE_OUTER_BOUND ( 'NONE', #285, .T. ) ;
#1023 = VERTEX_POINT ( 'NONE', #832 ) ;
#1024 = EDGE_CURVE ( 'NONE', #936, #96, #836, .T. ) ;
#1025 = DIRECTION ( 'NONE',  ( 0.000000000000000000, -0.000000000000000000, -1.000000000000000000 ) ) ;
#1026 = CALENDAR_DATE ( 2025, 3, 6 ) ;
#1027 = VECTOR ( 'NONE', #883, 1000.000000000000000 ) ;
#1028 = AXIS2_PLACEMENT_3D ( 'NONE', #489, #963, #402 ) ;
#1029 = PLANE ( 'NONE',  #355 ) ;
#1030 = ORIENTED_EDGE ( 'NONE', *, *, #143, .F. ) ;
#1031 = AXIS2_PLACEMENT_3D ( 'NONE', #63, #467, #1035 ) ;
#1032 = CARTESIAN_POINT ( 'NONE',  ( 88.00000000000000000, -7.599999999999998757, -2.499999999999999112 ) ) ;
#1033 = ADVANCED_FACE ( 'NONE', ( #915 ), #188, .T. ) ;
#1034 = CARTESIAN_POINT ( 'NONE',  ( 0.000000000000000000, -2.500000000000000000, 0.000000000000000000 ) ) ;
#1035 = DIRECTION ( 'NONE',  ( 0.000000000000000000, 0.000000000000000000, -1.000000000000000000 ) ) ;
#1036 = ORIENTED_EDGE ( 'NONE', *, *, #310, .F. ) ;
#1037 = DIRECTION ( 'NONE',  ( 0.000000000000000000, 1.000000000000000000, 0.000000000000000000 ) ) ;
#1038 = ORIENTED_EDGE ( 'NONE', *, *, #652, .F. ) ;
#1039 = CARTESIAN_POINT ( 'NONE',  ( 74.99999999999994316, -7.599999999999998757, -2.499999999999997780 ) ) ;
#1040 = CARTESIAN_POINT ( 'NONE',  ( -94.99999999999994316, -7.599999999999998757, 5.999999999999999112 ) ) ;
#1041 = EDGE_CURVE ( 'NONE', #822, #433, #722, .T. ) ;
#1042 = VECTOR ( 'NONE', #93, 1000.000000000000000 ) ;
#1043 = ORIENTED_EDGE ( 'NONE', *, *, #317, .F. ) ;
#1044 = VECTOR ( 'NONE', #327, 1000.000000000000000 ) ;
#1045 = DESIGN_CONTEXT ( 'detailed design', #813, 'design' ) ;
#1046 = ORIENTED_EDGE ( 'NONE', *, *, #185, .T. ) ;
#1047 = VERTEX_POINT ( 'NONE', #101 ) ;
#1048 = ORIENTED_EDGE ( 'NONE', *, *, #786, .F. ) ;
#1049 = CARTESIAN_POINT ( 'NONE',  ( -93.99999999999994316, -7.599999999999998757, 4.999999999999999112 ) ) ;
#1050 = CYLINDRICAL_SURFACE ( 'NONE', #261, 1.000000000000000000 ) ;
#1051 = DIRECTION ( 'NONE',  ( -0.000000000000000000, -1.000000000000000000, -0.000000000000000000 ) ) ;
ENDSEC;
END-ISO-10303-21;
